<?xml version="1.0" encoding="UTF-8"?>
<svg id="Layer_2" data-name="Layer 2" xmlns="http://www.w3.org/2000/svg" viewBox="0 0 111 37.49">
  <defs>
    <style>
      .cls-1 {
        fill: #425160;
      }

      .cls-2 {
        fill: #0088ce;
      }

      .cls-3 {
        fill: #000006;
      }
    </style>
  </defs>
  <g id="Layer_1-2" data-name="Layer 1">
    <g>
      <g>
        <path class="cls-1" d="M34.16,34.25l-2.07-3.08h.91l1.55,2.36,1.54-2.36h.92l-2.06,3.08v2.21h-.79v-2.21Z"/>
        <path class="cls-1" d="M36.21,34.54c0-1.1.75-2.01,1.93-2.01s1.93.9,1.93,2.01-.74,2.01-1.93,2.01-1.93-.9-1.93-2.01ZM39.33,34.54c0-.72-.42-1.37-1.19-1.37s-1.19.65-1.19,1.37.43,1.38,1.19,1.38,1.19-.65,1.19-1.38Z"/>
        <path class="cls-1" d="M43.38,35.94c-.29.32-.78.62-1.36.62-.82,0-1.22-.41-1.22-1.22v-2.7h.71v2.47c0,.63.32.82.81.82.44,0,.85-.25,1.06-.54v-2.75h.71v3.83h-.71v-.52Z"/>
        <path class="cls-1" d="M45.04,32.63h.71v.59c.29-.38.74-.67,1.25-.67v.72c-.07-.02-.15-.02-.25-.02-.36,0-.84.27-1.01.55v2.66h-.71v-3.83Z"/>
        <path class="cls-1" d="M49.41,31.17h.71v2.01c.3-.41.75-.65,1.25-.65,1,0,1.7.78,1.7,2.01s-.71,2.01-1.7,2.01c-.52,0-.97-.26-1.25-.64v.55h-.71v-5.29ZM51.19,35.92c.71,0,1.16-.57,1.16-1.37s-.44-1.38-1.16-1.38c-.44,0-.87.26-1.06.57v1.63c.19.31.63.55,1.06.55Z"/>
        <path class="cls-1" d="M56.37,35.94c-.29.32-.78.62-1.36.62-.82,0-1.22-.41-1.22-1.22v-2.7h.71v2.47c0,.63.32.82.81.82.44,0,.85-.25,1.06-.54v-2.75h.71v3.83h-.71v-.52Z"/>
        <path class="cls-1" d="M58.01,35.44c.26.29.77.55,1.28.55s.82-.22.82-.55c0-.38-.44-.51-.93-.62-.65-.15-1.41-.33-1.41-1.15,0-.61.52-1.13,1.46-1.13.66,0,1.13.24,1.46.55l-.32.5c-.22-.27-.65-.47-1.13-.47s-.79.19-.79.5c0,.33.41.44.89.55.67.15,1.46.33,1.46,1.21,0,.66-.54,1.17-1.55,1.17-.64,0-1.21-.2-1.59-.59l.34-.52Z"/>
        <path class="cls-1" d="M61.4,31.54c0-.25.21-.46.46-.46s.46.21.46.46-.21.45-.46.45-.46-.2-.46-.45ZM61.51,32.63h.71v3.83h-.71v-3.83Z"/>
        <path class="cls-1" d="M65.73,34.01c0-.63-.32-.84-.82-.84-.44,0-.85.27-1.05.55v2.74h-.71v-3.83h.71v.54c.25-.31.76-.63,1.35-.63.81,0,1.23.43,1.23,1.24v2.69h-.71v-2.45Z"/>
        <path class="cls-1" d="M69.05,32.53c1.15,0,1.86.9,1.86,2.07v.17h-3.03c.06.65.53,1.19,1.3,1.19.4,0,.85-.16,1.13-.45l.33.47c-.38.37-.92.57-1.54.57-1.14,0-1.98-.81-1.98-2.01,0-1.11.8-2.01,1.92-2.01ZM67.88,34.26h2.34c-.02-.51-.36-1.14-1.17-1.14s-1.13.62-1.17,1.14Z"/>
        <path class="cls-1" d="M71.61,35.44c.26.29.77.55,1.28.55s.82-.22.82-.55c0-.38-.44-.51-.93-.62-.65-.15-1.41-.33-1.41-1.15,0-.61.52-1.13,1.46-1.13.66,0,1.13.24,1.46.55l-.32.5c-.22-.27-.65-.47-1.13-.47s-.79.19-.79.5c0,.33.41.44.89.55.67.15,1.46.33,1.46,1.21,0,.66-.54,1.17-1.55,1.17-.64,0-1.21-.2-1.59-.59l.34-.52Z"/>
        <path class="cls-1" d="M75.11,35.44c.26.29.77.55,1.28.55s.82-.22.82-.55c0-.38-.44-.51-.93-.62-.65-.15-1.41-.33-1.41-1.15,0-.61.52-1.13,1.46-1.13.66,0,1.13.24,1.46.55l-.32.5c-.22-.27-.65-.47-1.13-.47s-.79.19-.79.5c0,.33.41.44.89.55.67.15,1.46.33,1.46,1.21,0,.66-.54,1.17-1.55,1.17-.64,0-1.21-.2-1.59-.59l.34-.52Z"/>
        <path class="cls-1" d="M78.48,37.21c.25-.16.5-.48.54-.74-.02,0-.08.02-.12.02-.25,0-.43-.19-.43-.45s.21-.48.48-.48c.29,0,.55.24.55.66,0,.52-.29.99-.7,1.28l-.33-.28Z"/>
        <path class="cls-1" d="M81.85,35.44c.26.29.77.55,1.28.55s.82-.22.82-.55c0-.38-.44-.51-.93-.62-.65-.15-1.41-.33-1.41-1.15,0-.61.52-1.13,1.46-1.13.66,0,1.13.24,1.46.55l-.32.5c-.22-.27-.65-.47-1.13-.47s-.79.19-.79.5c0,.33.41.44.89.55.67.15,1.46.33,1.46,1.21,0,.66-.54,1.17-1.55,1.17-.64,0-1.21-.2-1.59-.59l.34-.52Z"/>
        <path class="cls-1" d="M87.02,32.53c1.15,0,1.86.9,1.86,2.07v.17h-3.03c.06.65.53,1.19,1.3,1.19.4,0,.85-.16,1.13-.45l.33.47c-.38.37-.92.57-1.54.57-1.14,0-1.98-.81-1.98-2.01,0-1.11.8-2.01,1.92-2.01ZM85.85,34.26h2.34c-.02-.51-.36-1.14-1.17-1.14s-1.13.62-1.17,1.14Z"/>
        <path class="cls-1" d="M91.28,32.53c.72,0,1.16.3,1.44.67l-.48.44c-.23-.32-.54-.48-.93-.48-.75,0-1.24.58-1.24,1.37s.48,1.38,1.24,1.38c.39,0,.7-.16.93-.48l.48.44c-.28.37-.71.67-1.44.67-1.16,0-1.95-.86-1.95-2.01s.79-2.01,1.95-2.01Z"/>
        <path class="cls-1" d="M95.88,35.94c-.29.32-.78.62-1.36.62-.82,0-1.22-.41-1.22-1.22v-2.7h.71v2.47c0,.63.32.82.81.82.44,0,.85-.25,1.06-.54v-2.75h.71v3.83h-.71v-.52Z"/>
        <path class="cls-1" d="M97.52,32.63h.71v.59c.29-.38.74-.67,1.25-.67v.72c-.07-.02-.15-.02-.25-.02-.36,0-.84.27-1.01.55v2.66h-.71v-3.83Z"/>
        <path class="cls-1" d="M101.67,32.53c1.15,0,1.86.9,1.86,2.07v.17h-3.03c.06.65.53,1.19,1.3,1.19.4,0,.85-.16,1.13-.45l.33.47c-.38.37-.92.57-1.54.57-1.14,0-1.98-.81-1.98-2.01,0-1.11.8-2.01,1.92-2.01ZM100.49,34.26h2.34c-.02-.51-.36-1.14-1.17-1.14s-1.13.62-1.17,1.14Z"/>
        <path class="cls-1" d="M106.94,35.91c-.29.38-.75.64-1.25.64-1,0-1.71-.75-1.71-2.01s.71-2.01,1.71-2.01c.49,0,.94.24,1.25.65v-2.01h.71v5.29h-.71v-.55ZM106.94,33.73c-.2-.31-.63-.56-1.06-.56-.71,0-1.16.58-1.16,1.38s.44,1.37,1.16,1.37c.44,0,.86-.25,1.06-.55v-1.63Z"/>
        <path class="cls-1" d="M108.95,35.55c.27,0,.5.22.5.49s-.23.5-.5.5-.49-.23-.49-.5.22-.49.49-.49Z"/>
      </g>
      <g>
        <path class="cls-2" d="M6.66,25.03H0C.01,14.46,2.8,7.76,2.8,7.76c-.89,11.37,3.85,17.27,3.85,17.27ZM33.55,0S12.41,8.35,8.49,25.03h17.8s-12.78-3.35,7.26-25.03Z"/>
        <path class="cls-3" d="M107.33,16.75c-.22-.42-.5-.74-.85-.97-.34-.23-.73-.39-1.16-.47-.39-.07-.8-.11-1.2-.12h-2.42v1.19h2.2c.33,0,.65.03.95.08.28.05.54.15.75.29.21.14.38.32.5.56.13.25.18.41.18.77,0,.24-.03.44-.09.58-.06.14-.14.25-.25.33-.11.08-.25.14-.42.17-.19.04-.4.07-.64.09-.63.07-1.24.15-1.85.23-.61.08-1.17.22-1.66.42-.5.2-.91.5-1.22.89-.31.39-.47.94-.47,1.62,0,.49.09.93.26,1.29.17.36.41.67.71.91.3.23.65.41,1.05.52.39.11.82.16,1.27.16.48,0,.89-.04,1.23-.13.35-.09.66-.22.93-.38.27-.16.52-.37.74-.62.15-.17.3-.35.44-.54v1.42h1.32v-6.69c0-.65-.11-1.19-.32-1.61h0ZM106.28,19.99v1.26c0,.45-.09.85-.26,1.2-.17.35-.4.66-.69.9-.29.25-.63.44-1.02.57-.39.13-.81.2-1.23.2-.26,0-.51-.04-.76-.12-.24-.08-.46-.2-.65-.36-.18-.16-.33-.34-.44-.55-.11-.21-.16-.45-.16-.73,0-.43.13-.77.38-.99.26-.24.6-.43,1.02-.56.42-.13.89-.23,1.41-.3.51-.07,1.03-.14,1.52-.23.17-.03.36-.07.57-.13.13-.04.23-.09.32-.15ZM50.57,15.78c-.34-.23-.73-.38-1.16-.47-.39-.07-.79-.11-1.2-.12h-2.42v1.19h2.2c.33,0,.65.03.95.08.28.05.54.15.75.29.21.14.38.32.5.55.13.25.18.41.18.77,0,.24-.03.44-.09.58-.06.14-.14.25-.25.33-.11.08-.25.14-.42.17-.19.04-.4.07-.64.09-.63.07-1.24.15-1.85.23-.61.08-1.17.22-1.66.42-.5.2-.91.5-1.21.89-.31.39-.47.94-.47,1.62,0,.49.09.93.26,1.29.17.37.41.67.71.9.3.24.65.41,1.05.52.39.11.82.16,1.27.16.49,0,.89-.04,1.23-.13.35-.09.66-.22.93-.38.27-.16.52-.37.74-.62.15-.17.3-.35.44-.54v1.42h1.32v-6.69c0-.65-.11-1.19-.32-1.61-.22-.42-.5-.74-.85-.97ZM50.36,19.99v1.26c0,.45-.09.85-.26,1.2-.17.35-.4.66-.69.9-.29.25-.63.44-1.02.57-.39.13-.8.2-1.24.2-.26,0-.51-.04-.76-.12-.24-.08-.46-.2-.64-.36-.19-.16-.33-.34-.44-.55-.11-.21-.16-.46-.16-.73,0-.43.13-.77.38-.99.26-.24.61-.43,1.02-.56.43-.13.9-.23,1.41-.3.52-.07,1.03-.14,1.52-.23.16-.02.35-.07.57-.13.13-.04.23-.09.32-.15ZM97.58,16.8c-.1-.19-.23-.37-.37-.53-.24-.27-.51-.49-.81-.67-.3-.18-.63-.32-.98-.41-.35-.09-.7-.13-1.07-.13-.74,0-1.39.14-1.94.42-.55.28-1.01.66-1.37,1.13-.36.47-.64,1.02-.81,1.64-.17.61-.26,1.27-.26,1.95s.09,1.34.26,1.95c.17.62.45,1.17.81,1.64.36.47.83.85,1.37,1.12.55.27,1.2.41,1.94.41.36,0,.72-.05,1.07-.15.36-.1.7-.24,1.01-.42.32-.18.6-.41.85-.67.15-.16.28-.34.39-.52v1.51h1.29v-13.36h-1.38v5.12ZM96.86,17.48c.26.37.44.8.55,1.26.11.48.17.96.17,1.44s-.06.96-.17,1.44c-.11.46-.29.89-.55,1.26-.25.37-.59.67-.99.9-.41.23-.91.35-1.5.35-.53,0-.98-.12-1.36-.34-.38-.23-.69-.53-.93-.9-.24-.36-.42-.79-.54-1.26-.11-.47-.17-.96-.17-1.44s.06-.96.17-1.44c.11-.47.29-.9.54-1.26.24-.36.55-.67.93-.9.37-.23.83-.34,1.36-.34.59,0,1.1.12,1.5.35.41.23.74.53.99.9ZM87.79,15.32h1.38v9.72h-1.29v-1.45c-.3.5-.71.9-1.2,1.19-.6.35-1.27.52-2,.52-.61,0-1.14-.09-1.58-.26-.44-.17-.8-.42-1.08-.74-.27-.32-.48-.71-.6-1.17-.12-.45-.19-.97-.19-1.54v-6.28h1.38v6.3c.02.83.22,1.46.57,1.88.35.41.97.62,1.86.62.48,0,.89-.1,1.23-.31.34-.21.62-.48.85-.82.22-.34.39-.74.5-1.19.11-.45.16-.91.16-1.38v-5.1ZM57.88,15.19h.11v1.19h-.11c-1.27,0-2.21.83-2.47,1.08-.3.3-.54.65-.7,1.06-.17.41-.25.86-.25,1.35v5.17h-1.38v-9.72h1.29v1.89c.3-.6.71-1.08,1.23-1.43.64-.43,1.41-.63,2.28-.59ZM40.39,17.75c.22-.08.42-.18.61-.3.29-.2.55-.44.77-.72.22-.28.38-.6.5-.94.12-.34.18-.7.18-1.07,0-.65-.13-1.2-.37-1.64-.25-.44-.58-.79-.99-1.06-.41-.27-.89-.46-1.42-.57-.53-.11-1.09-.16-1.66-.16h-5.84v13.76h5.84c.74,0,1.38-.07,1.91-.2.53-.14.99-.31,1.36-.52.37-.22.67-.47.9-.76.22-.28.39-.58.51-.87.12-.29.2-.58.23-.86.04-.27.06-.52.06-.75,0-.91-.27-1.68-.8-2.3-.45-.52-1.04-.87-1.76-1.04ZM41.44,21.05c0,.52-.09.96-.27,1.3-.18.34-.43.62-.74.82-.32.21-.69.35-1.1.43-.42.08-.87.12-1.34.12h-4.32v-5.18h4.32c1.12,0,1.99.21,2.58.63.59.42.87,1.03.87,1.87ZM40.22,16.57c-.24.2-.55.36-.91.47-.37.12-.81.18-1.31.18h-4.32v-4.61h4.32c1.98,0,2.94.79,2.94,2.43,0,.3-.06.58-.18.84-.12.26-.3.49-.54.69ZM69.88,15.78c-.34-.23-.73-.38-1.16-.47-.39-.07-.79-.11-1.2-.12h-2.42v1.19h2.2c.33,0,.65.03.94.08.28.05.54.15.75.29.21.14.38.32.5.55.13.25.18.41.18.77,0,.24-.03.44-.09.58-.06.14-.14.25-.25.33-.11.08-.25.14-.42.17-.19.04-.4.07-.64.09-.63.07-1.24.15-1.85.23-.61.08-1.17.22-1.67.42-.5.2-.91.5-1.22.89-.31.39-.47.94-.47,1.62,0,.49.09.93.26,1.29.17.37.41.67.71.9.3.24.54.41.94.52.39.11.93.16,1.39.16.48,0,.89-.04,1.23-.13.35-.09.66-.22.93-.38.27-.17.52-.37.74-.62.15-.17.29-.35.44-.55v1.42h1.32v-6.69c0-.65-.11-1.19-.32-1.61-.22-.42-.5-.74-.85-.97ZM69.68,19.99v1.26c0,.45-.09.85-.26,1.2-.17.35-.4.66-.69.9-.29.25-.63.44-1.02.57-.39.13-.8.2-1.24.2-.26,0-.51-.04-.76-.12-.24-.08-.46-.2-.64-.36-.19-.16-.33-.34-.44-.55-.11-.21-.16-.46-.16-.73,0-.44.12-.76.38-.99.26-.24.6-.43,1.02-.56.43-.13.9-.23,1.41-.3.52-.07,1.03-.15,1.52-.23.16-.02.35-.07.57-.13.13-.04.23-.09.32-.15ZM79.17,21.42h1.39l-.02.13c-.16,1.17-.6,2.1-1.3,2.76-.71.66-1.62,1-2.73,1-.74,0-1.4-.14-1.97-.41-.57-.27-1.06-.64-1.44-1.11-.39-.46-.69-1.01-.89-1.63-.2-.62-.3-1.28-.3-1.98s.1-1.36.3-1.98c.2-.62.5-1.17.89-1.63.39-.46.87-.84,1.44-1.11.57-.28,1.23-.42,1.97-.42,1.04,0,1.93.28,2.65.83.73.56,1.17,1.4,1.3,2.52l.02.12h-1.37l-.02-.09c-.15-.69-.44-1.23-.85-1.62-.41-.38-.99-.58-1.73-.58-.53,0-1,.11-1.4.34-.4.22-.74.52-1,.89-.27.37-.47.79-.61,1.26-.14.47-.21.96-.21,1.45s.07.98.21,1.45c.14.47.34.9.61,1.26.27.37.6.66,1,.89.4.22.87.34,1.4.34.34,0,.67-.07.97-.19.3-.13.58-.31.81-.54.24-.23.43-.51.58-.82.15-.32.25-.67.28-1.05v-.1ZM63.76,16.39c-1.27,0-2.21.83-2.47,1.08-.3.29-.54.65-.7,1.06-.17.41-.25.86-.25,1.35v5.17h-1.38v-9.72h1.29v1.89c.3-.6.71-1.08,1.23-1.43.64-.43,1.4-.63,2.29-.59h.11v1.19h-.11ZM109.8,22.67c-.66,0-1.2.53-1.2,1.2s.54,1.2,1.2,1.2,1.2-.54,1.2-1.2-.53-1.2-1.2-1.2ZM109.8,24.91c-.58,0-1.04-.47-1.04-1.04s.46-1.03,1.04-1.03,1.03.46,1.03,1.03-.46,1.04-1.03,1.04ZM110.34,23.6c0-.25-.2-.42-.44-.42h-.56v1.37h.18v-.54h.25l.36.54h.23l-.37-.55c.08,0,.35-.1.35-.41ZM109.52,23.85v-.51h.38c.14,0,.25.11.25.26,0,.14-.11.25-.25.25h-.38Z"/>
      </g>
    </g>
  </g>
</svg>