<?xml version="1.0" encoding="UTF-8"?>
<svg id="Layer_2" data-name="Layer 2" xmlns="http://www.w3.org/2000/svg" viewBox="0 0 76.92 86.53">
  <defs>
    <style>
      .cls-1 {
        fill: #101820;
      }

      .cls-2 {
        fill: #323e48;
      }

      .cls-3 {
        fill: #0075c9;
      }
    </style>
  </defs>
  <g id="Layer_1-2" data-name="Layer 1">
    <g>
      <path class="cls-3" d="M14.93,54.62H.4c.02-23.05,6.12-37.7,6.12-37.7-1.95,24.81,8.41,37.7,8.41,37.7ZM73.62,0S27.48,18.22,18.93,54.62h38.84s-27.9-7.31,15.85-54.62Z"/>
      <g>
        <g>
          <path class="cls-2" d="M2.02,83.36l-2.02-3h.89l1.51,2.3,1.5-2.3h.9l-2.01,3v2.16h-.77v-2.16Z"/>
          <path class="cls-2" d="M4.02,83.65c0-1.07.73-1.95,1.89-1.95s1.89.88,1.89,1.95-.72,1.96-1.89,1.96-1.89-.88-1.89-1.96ZM7.06,83.65c0-.7-.41-1.34-1.16-1.34s-1.16.63-1.16,1.34.42,1.34,1.16,1.34,1.16-.63,1.16-1.34Z"/>
          <path class="cls-2" d="M11,85.01c-.29.31-.76.6-1.33.6-.8,0-1.19-.4-1.19-1.19v-2.64h.7v2.4c0,.62.31.8.79.8.43,0,.83-.25,1.04-.53v-2.68h.7v3.73h-.7v-.51Z"/>
          <path class="cls-2" d="M12.62,81.79h.7v.57c.29-.37.73-.66,1.22-.66v.7c-.07-.02-.15-.02-.24-.02-.35,0-.82.26-.98.54v2.6h-.7v-3.73Z"/>
          <path class="cls-2" d="M16.89,80.37h.7v1.96c.29-.4.73-.63,1.22-.63.97,0,1.66.76,1.66,1.96s-.7,1.96-1.66,1.96c-.5,0-.94-.25-1.22-.63v.53h-.7v-5.15ZM18.62,85c.7,0,1.13-.56,1.13-1.34s-.43-1.34-1.13-1.34c-.43,0-.85.25-1.04.56v1.58c.19.3.61.54,1.04.54Z"/>
          <path class="cls-2" d="M23.67,85.01c-.29.31-.76.6-1.33.6-.8,0-1.19-.4-1.19-1.19v-2.64h.7v2.4c0,.62.31.8.79.8.43,0,.83-.25,1.04-.53v-2.68h.7v3.73h-.7v-.51Z"/>
          <path class="cls-2" d="M25.27,84.52c.26.28.75.53,1.25.53s.8-.22.8-.53c0-.37-.43-.49-.9-.6-.63-.15-1.37-.32-1.37-1.12,0-.59.51-1.1,1.42-1.1.64,0,1.1.23,1.42.53l-.31.49c-.22-.26-.63-.46-1.1-.46s-.77.19-.77.49c0,.32.4.43.87.54.65.15,1.42.32,1.42,1.18,0,.64-.53,1.14-1.51,1.14-.63,0-1.18-.19-1.55-.58l.33-.51Z"/>
          <path class="cls-2" d="M28.57,80.72c0-.25.21-.45.45-.45s.45.2.45.45-.2.44-.45.44-.45-.19-.45-.44ZM28.68,81.79h.7v3.73h-.7v-3.73Z"/>
          <path class="cls-2" d="M32.79,83.13c0-.62-.32-.82-.8-.82-.43,0-.83.26-1.03.54v2.67h-.7v-3.73h.7v.53c.25-.3.74-.62,1.32-.62.79,0,1.2.42,1.2,1.21v2.62h-.7v-2.39Z"/>
          <path class="cls-2" d="M36.03,81.7c1.12,0,1.82.87,1.82,2.02v.17h-2.95c.05.63.52,1.16,1.27,1.16.39,0,.83-.15,1.1-.44l.32.46c-.37.36-.9.56-1.5.56-1.11,0-1.93-.79-1.93-1.96,0-1.08.78-1.95,1.87-1.95ZM34.89,83.38h2.28c-.02-.49-.35-1.11-1.14-1.11s-1.1.6-1.14,1.11Z"/>
          <path class="cls-2" d="M38.52,84.52c.26.28.75.53,1.25.53s.8-.22.8-.53c0-.37-.43-.49-.9-.6-.63-.15-1.37-.32-1.37-1.12,0-.59.51-1.1,1.42-1.1.64,0,1.1.23,1.42.53l-.31.49c-.22-.26-.63-.46-1.1-.46s-.77.19-.77.49c0,.32.4.43.87.54.65.15,1.42.32,1.42,1.18,0,.64-.53,1.14-1.51,1.14-.63,0-1.18-.19-1.55-.58l.33-.51Z"/>
          <path class="cls-2" d="M41.93,84.52c.26.28.75.53,1.25.53s.8-.22.8-.53c0-.37-.43-.49-.9-.6-.63-.15-1.37-.32-1.37-1.12,0-.59.51-1.1,1.42-1.1.64,0,1.1.23,1.42.53l-.31.49c-.22-.26-.63-.46-1.1-.46s-.77.19-.77.49c0,.32.4.43.87.54.65.15,1.42.32,1.42,1.18,0,.64-.53,1.14-1.51,1.14-.63,0-1.18-.19-1.55-.58l.33-.51Z"/>
          <path class="cls-2" d="M45.22,86.26c.25-.15.49-.46.53-.72-.02,0-.08.02-.12.02-.24,0-.42-.19-.42-.44s.21-.47.47-.47c.29,0,.54.23.54.64,0,.5-.29.97-.68,1.24l-.32-.27Z"/>
          <path class="cls-2" d="M48.5,84.52c.26.28.75.53,1.25.53s.8-.22.8-.53c0-.37-.43-.49-.9-.6-.63-.15-1.37-.32-1.37-1.12,0-.59.51-1.1,1.42-1.1.64,0,1.1.23,1.42.53l-.31.49c-.22-.26-.63-.46-1.1-.46s-.77.19-.77.49c0,.32.4.43.87.54.65.15,1.42.32,1.42,1.18,0,.64-.53,1.14-1.51,1.14-.63,0-1.18-.19-1.55-.58l.33-.51Z"/>
          <path class="cls-2" d="M53.55,81.7c1.12,0,1.82.87,1.82,2.02v.17h-2.95c.05.63.52,1.16,1.27,1.16.39,0,.83-.15,1.1-.44l.32.46c-.37.36-.9.56-1.5.56-1.11,0-1.93-.79-1.93-1.96,0-1.08.78-1.95,1.87-1.95ZM52.4,83.38h2.28c-.02-.49-.35-1.11-1.14-1.11s-1.1.6-1.14,1.11Z"/>
          <path class="cls-2" d="M57.7,81.7c.7,0,1.13.29,1.4.66l-.46.43c-.22-.32-.53-.46-.9-.46-.73,0-1.21.56-1.21,1.34s.47,1.34,1.21,1.34c.38,0,.68-.15.9-.46l.46.43c-.27.36-.7.66-1.4.66-1.13,0-1.9-.84-1.9-1.96s.77-1.95,1.9-1.95Z"/>
          <path class="cls-2" d="M62.18,85.01c-.29.31-.76.6-1.33.6-.8,0-1.19-.4-1.19-1.19v-2.64h.7v2.4c0,.62.31.8.79.8.43,0,.83-.25,1.04-.53v-2.68h.7v3.73h-.7v-.51Z"/>
          <path class="cls-2" d="M63.78,81.79h.7v.57c.29-.37.73-.66,1.22-.66v.7c-.07-.02-.15-.02-.24-.02-.35,0-.82.26-.98.54v2.6h-.7v-3.73Z"/>
          <path class="cls-2" d="M67.82,81.7c1.12,0,1.82.87,1.82,2.02v.17h-2.95c.05.63.52,1.16,1.27,1.16.39,0,.83-.15,1.1-.44l.32.46c-.37.36-.9.56-1.5.56-1.11,0-1.93-.79-1.93-1.96,0-1.08.78-1.95,1.87-1.95ZM66.68,83.38h2.28c-.02-.49-.35-1.11-1.14-1.11s-1.1.6-1.14,1.11Z"/>
          <path class="cls-2" d="M72.97,84.99c-.28.37-.73.63-1.22.63-.97,0-1.67-.73-1.67-1.96s.7-1.96,1.67-1.96c.48,0,.92.23,1.22.63v-1.96h.7v5.15h-.7v-.53ZM72.97,82.86c-.19-.3-.61-.55-1.04-.55-.7,0-1.13.56-1.13,1.34s.43,1.34,1.13,1.34c.43,0,.84-.24,1.04-.54v-1.59Z"/>
          <path class="cls-2" d="M74.93,84.64c.26,0,.49.22.49.48s-.22.49-.49.49-.48-.22-.48-.49.22-.48.48-.48Z"/>
        </g>
        <path class="cls-1" d="M73.35,66.31c-.21-.41-.49-.72-.82-.95-.33-.22-.72-.38-1.13-.46-.38-.07-.78-.11-1.17-.12h-2.35v1.16h2.14c.32,0,.63.03.92.08.28.05.52.14.73.28.2.13.37.31.48.54.13.24.18.4.18.75,0,.24-.03.43-.09.57-.06.14-.14.24-.24.32-.11.08-.24.14-.41.17-.19.04-.39.07-.62.09-.61.07-1.21.15-1.81.22-.6.08-1.14.22-1.62.41-.49.2-.89.49-1.18.87-.3.38-.45.92-.45,1.58,0,.48.08.9.25,1.26.17.35.4.65.7.88.29.23.63.4,1.03.5.38.1.8.16,1.24.16.46,0,.87-.04,1.2-.13.34-.09.64-.21.91-.37.26-.16.51-.36.73-.6.15-.16.29-.34.43-.53v1.38h1.29v-6.52c0-.64-.11-1.16-.32-1.57h0ZM72.32,69.47v1.23c0,.44-.08.83-.25,1.17-.17.34-.39.64-.67.88-.28.24-.62.43-1,.55-.38.13-.79.19-1.2.19-.25,0-.5-.04-.74-.12-.24-.08-.45-.2-.63-.35-.18-.15-.32-.33-.43-.54-.1-.2-.16-.44-.16-.71,0-.42.12-.75.37-.97.26-.23.59-.42.99-.54.41-.13.87-.23,1.37-.29.5-.06,1-.14,1.48-.22.16-.02.35-.07.55-.13.12-.04.23-.09.31-.15ZM18.02,65.36c-.33-.22-.71-.38-1.13-.46-.38-.07-.77-.11-1.17-.12h-2.35v1.16h2.14c.32,0,.63.03.92.08.28.05.52.15.73.28.2.13.37.31.48.54.12.24.18.4.18.75,0,.23-.03.42-.09.57-.06.14-.14.25-.24.32-.11.08-.24.14-.4.17-.18.04-.39.06-.62.09-.61.07-1.21.15-1.81.22-.6.08-1.14.22-1.62.41-.49.2-.89.49-1.18.87-.3.38-.45.92-.45,1.58,0,.48.09.9.25,1.26.17.36.4.65.69.88.29.23.64.4,1.03.5.38.1.8.16,1.24.16.47,0,.87-.04,1.2-.13.34-.09.64-.21.91-.37.27-.16.51-.36.73-.6.14-.16.29-.34.43-.53v1.38h1.29v-6.52c0-.64-.1-1.16-.32-1.57-.21-.4-.49-.72-.83-.95ZM17.81,69.47v1.23c0,.44-.08.83-.25,1.17-.17.34-.39.64-.67.88-.28.24-.62.43-1,.55-.38.13-.78.19-1.2.19-.26,0-.5-.04-.74-.12-.24-.08-.45-.2-.63-.35-.18-.15-.32-.33-.43-.54-.11-.2-.16-.44-.16-.71,0-.42.12-.75.37-.97.26-.23.59-.42.99-.54.42-.13.88-.23,1.37-.29.5-.07,1-.14,1.48-.23.16-.02.35-.07.55-.13.12-.04.23-.09.31-.15ZM63.84,66.36c-.1-.19-.22-.36-.36-.52-.23-.26-.49-.48-.79-.66-.29-.18-.61-.31-.95-.4-.34-.09-.69-.13-1.04-.13-.72,0-1.36.14-1.89.41-.53.27-.98.64-1.34,1.1-.35.46-.62.99-.79,1.6-.17.6-.26,1.24-.26,1.9s.09,1.31.26,1.9c.17.6.43,1.14.79,1.6.35.46.8.83,1.34,1.09.53.26,1.17.4,1.89.4.35,0,.7-.05,1.04-.15.35-.1.68-.24.98-.41.31-.18.59-.4.82-.66.15-.16.27-.33.38-.51v1.48h1.26v-13.03h-1.35v4.99ZM63.13,67.03c.25.36.43.78.54,1.23.11.46.17.94.17,1.4s-.06.94-.17,1.4c-.11.45-.29.86-.54,1.23-.25.36-.57.65-.97.87-.4.22-.89.34-1.46.34-.51,0-.96-.11-1.32-.33-.37-.22-.67-.52-.91-.87-.24-.35-.41-.77-.52-1.23-.11-.46-.17-.93-.17-1.4s.06-.94.17-1.4c.11-.46.29-.88.52-1.23.24-.35.54-.65.91-.87.37-.22.81-.33,1.32-.33.58,0,1.07.11,1.46.34.4.22.72.52.97.87ZM54.3,64.92h1.35v9.48h-1.26v-1.42c-.3.49-.69.88-1.17,1.16-.58.34-1.24.51-1.95.51-.6,0-1.11-.08-1.54-.25-.43-.17-.78-.41-1.05-.72-.27-.31-.46-.69-.59-1.14-.12-.44-.18-.95-.18-1.5v-6.12h1.35v6.14c.02.81.21,1.42.56,1.83.34.4.95.61,1.81.61.47,0,.87-.1,1.2-.3.33-.2.61-.47.83-.8.22-.33.38-.72.49-1.16.11-.44.16-.89.16-1.35v-4.97ZM25.14,64.79h.1v1.16h-.11c-1.24,0-2.16.8-2.41,1.05-.29.29-.52.63-.68,1.03-.16.4-.24.84-.24,1.31v5.04h-1.35v-9.48h1.26v1.84c.29-.58.69-1.05,1.2-1.39.62-.42,1.37-.61,2.23-.57ZM8.1,67.28c.21-.08.41-.17.59-.3.29-.19.54-.43.75-.7.21-.27.37-.58.49-.92.11-.34.17-.69.17-1.04,0-.63-.12-1.17-.37-1.6-.24-.43-.57-.77-.97-1.03-.4-.26-.86-.44-1.39-.55-.52-.11-1.06-.16-1.62-.16H.07v13.41h5.69c.72,0,1.35-.07,1.87-.2.52-.13.96-.3,1.32-.51.36-.21.66-.46.87-.74.21-.28.38-.56.49-.85.11-.28.19-.57.23-.84.04-.27.06-.51.06-.73,0-.88-.26-1.64-.78-2.24-.44-.51-1.02-.85-1.72-1.01ZM9.12,70.5c0,.51-.09.94-.26,1.27-.17.33-.42.6-.72.8-.31.2-.67.34-1.07.42-.41.08-.85.12-1.31.12H1.54v-5.05h4.22c1.09,0,1.94.21,2.51.62.57.41.85,1,.85,1.82ZM7.92,66.14c-.23.19-.53.35-.89.46-.36.11-.79.17-1.28.17H1.54v-4.5h4.22c1.93,0,2.87.77,2.87,2.37,0,.29-.06.57-.17.82-.11.25-.29.48-.52.67ZM36.84,65.36c-.33-.22-.71-.37-1.13-.46-.38-.07-.77-.11-1.17-.12h-2.36v1.16h2.15c.32,0,.63.03.92.08.28.05.52.15.73.28.2.13.37.31.48.54.12.25.18.4.18.75,0,.23-.03.43-.09.57-.06.14-.14.24-.24.32-.11.08-.24.14-.41.17-.18.04-.39.06-.62.09-.61.07-1.21.15-1.81.22-.6.08-1.14.22-1.62.41-.49.2-.88.49-1.18.87-.3.38-.45.92-.45,1.58,0,.48.08.9.25,1.26.17.36.4.65.7.88.29.23.52.4.91.5.38.1.91.16,1.35.16.47,0,.87-.04,1.2-.13.34-.09.64-.21.91-.37.27-.16.51-.36.73-.6.14-.16.29-.34.43-.53v1.38h1.29v-6.52c0-.64-.11-1.16-.32-1.57-.21-.4-.49-.72-.83-.95ZM36.64,69.47v1.23c0,.43-.08.83-.25,1.17-.17.34-.39.64-.67.88-.28.24-.62.43-1,.55-.38.13-.78.19-1.2.19-.25,0-.5-.04-.74-.12-.24-.08-.45-.2-.63-.35-.18-.15-.33-.34-.43-.54-.1-.2-.16-.44-.16-.71,0-.43.12-.74.37-.97.26-.23.59-.42.99-.54.42-.13.88-.23,1.37-.29.5-.07,1-.14,1.48-.23.16-.02.34-.07.55-.13.12-.04.23-.09.31-.15ZM45.89,70.86h1.35l-.02.12c-.16,1.14-.59,2.05-1.27,2.69-.69.64-1.58.97-2.66.97-.72,0-1.37-.13-1.92-.4-.56-.26-1.03-.63-1.41-1.08-.38-.45-.67-.98-.86-1.59-.19-.6-.29-1.25-.29-1.93s.1-1.33.29-1.93c.19-.6.49-1.14.86-1.59.38-.45.85-.82,1.41-1.09.56-.27,1.2-.41,1.92-.41,1.01,0,1.88.27,2.59.81.71.54,1.14,1.37,1.27,2.46l.02.12h-1.34l-.02-.08c-.15-.67-.43-1.2-.83-1.58-.4-.37-.96-.56-1.68-.56-.52,0-.97.11-1.36.33-.39.22-.72.51-.98.87-.26.36-.46.77-.59,1.23-.13.46-.2.94-.2,1.41s.07.95.2,1.41c.13.46.33.87.59,1.23.26.36.59.65.98.86.39.22.85.33,1.36.33.33,0,.65-.06.95-.19.29-.12.56-.3.79-.53.23-.22.42-.49.57-.8.15-.31.24-.65.28-1.02v-.1ZM30.88,65.96c-1.24,0-2.16.8-2.41,1.05-.29.29-.52.63-.68,1.03-.16.4-.24.84-.24,1.31v5.04h-1.35v-9.48h1.26v1.85c.29-.58.7-1.05,1.2-1.4.62-.42,1.37-.61,2.23-.57h.1v1.16h-.11ZM75.75,72.08c-.65,0-1.17.52-1.17,1.17s.52,1.17,1.17,1.17,1.17-.52,1.17-1.17-.52-1.17-1.17-1.17ZM75.75,74.27c-.56,0-1.01-.46-1.01-1.01s.45-1.01,1.01-1.01,1.01.45,1.01,1.01-.45,1.01-1.01,1.01ZM76.28,72.99c0-.25-.19-.41-.42-.41h-.55v1.34h.18v-.53h.24l.35.53h.22l-.36-.53c.08,0,.34-.1.34-.4ZM75.48,73.23v-.5h.37c.14,0,.24.1.24.25,0,.14-.1.24-.24.24h-.37Z"/>
      </g>
    </g>
  </g>
</svg>