<?xml version="1.0" encoding="UTF-8"?>
<svg id="svg1" xmlns="http://www.w3.org/2000/svg" viewBox="0 0 2126 2126">
  <defs>
    <style>
      .cls-1, .cls-2 {
        stroke-miterlimit: 13.33;
      }

      .cls-1, .cls-2, .cls-3, .cls-4 {
        fill: none;
        stroke-width: 10px;
      }

      .cls-1, .cls-3 {
        stroke: #000;
      }

      .cls-2, .cls-4 {
        stroke: #fff;
      }

      .cls-3, .cls-4 {
        stroke-linecap: round;
        stroke-linejoin: round;
      }

      .cls-5 {
        fill: #00d298;
      }

      .cls-6, .cls-7 {
        fill: #f9f9f9;
      }
      .seagull {
        fill: #f9f9f9;
      }

      .cls-6, .cls-8 {
        font-family: ArialRoundedMTBold, 'Arial Rounded MT Bold';
        font-size: 122.67px;
        isolation: isolate;
      }

      .cls-9 {
        letter-spacing: -.05em;
      }
    </style>
  </defs>
  <circle id="path187" class="cls-5" cx="1063" cy="1063" r="1063"/>
  <g>
    <path id="path229" class="cls-2" d="M548.87,1130.56v40.08l63.24,63.24,943.13-.05,98.52-98.52"/>
    <circle id="path252-1-6-849-73" class="cls-4" cx="1664.86" cy="1123.39" r="17"/>
    <circle id="path252-1-6-849-53" class="cls-4" cx="546.88" cy="1109.54" r="17"/>
  </g>
  <g>
    <path id="path223" class="cls-2" d="M1614.92,831.1h-90.45l-67.67-67.67-73.6,73.6h-80.27l-135.72-135.72-96.63,96.63h-165.44l-208.99-208.98-27.73,27.73h-109.83l-81.89-81.89"/>
    <circle id="path252-1-6-849-6" class="cls-4" cx="465.94" cy="522.15" r="17" transform="translate(-124.1 898.44) rotate(-80.78)"/>
    <circle id="path252-1-6-849-24" class="cls-4" cx="1632.42" cy="831.09" r="17"/>
  </g>
  <g>
    <path id="path224" class="cls-2" d="M475.75,590.85l46,46h158.16l16.36-16.36,135.81,135.81v17.63"/>
    <circle id="path252-1-6-849-5" class="cls-4" cx="830.21" cy="787.31" r="17"/>
    <circle id="path252-1-6-849-0" class="cls-4" cx="463.09" cy="578.12" r="17"/>
  </g>
  <g>
    <path id="path225" class="cls-2" d="M1035.45,910.11v-49.27l129.75-129.75,129.93,129.93,96.27-.27,64.36-64.36,61.49,61.49,95.83-.19,6.76,6.77"/>
    <circle id="path252-1-6-849-4" class="cls-4" cx="1628.26" cy="879.58" r="17"/>
    <circle id="path252-1-6-849-00" class="cls-4" cx="1039.48" cy="923.91" r="17"/>
  </g>
  <g>
    <path id="path226" class="cls-2" d="M1617.45,925.12l-44.86-44.86h-63.94l-53.93-53.93-64.15,64.15"/>
    <circle id="path252-1-6-849-03" class="cls-4" cx="1626.73" cy="937.93" r="17"/>
    <circle id="path252-1-6-849-69" class="cls-4" cx="1378.75" cy="900.53" r="17"/>
  </g>
  <g>
    <path id="path227" class="cls-2" d="M405.68,1211.43V450.06"/>
    <circle id="path252-1-6-849" class="cls-4" cx="405.92" cy="1230.6" r="17"/>
    <circle id="path252-1-6-849-2" class="cls-4" cx="405.06" cy="434.57" r="17"/>
  </g>
  <g>
    <path id="path228" class="cls-2" d="M436.17,499.05v614.47l105.93,105.93"/>
    <circle id="path252-1-6-849-8" class="cls-4" cx="553.14" cy="1230.63" r="17"/>
    <circle id="path252-1-6-849-7" class="cls-4" cx="435.38" cy="486.69" r="17"/>
  </g>
  <g>
    <path id="path234" class="cls-2" d="M1149.51,1629.05l-49.63,49.63v13.28h77.41v-16.07"/>
    <circle id="path252-1-6-849-50" class="cls-4" cx="1175.54" cy="1660.15" r="17"/>
    <circle id="path252-1-6-849-10" class="cls-4" cx="1163.07" cy="1619.97" r="17"/>
  </g>
  <g>
    <path id="path221" class="cls-2" d="M1600.7,1148.71l-68.79,68.79-199.51.1-12.07-12.07"/>
    <circle id="path252-1-6-849-52" class="cls-4" cx="1308.09" cy="1197" r="17"/>
    <circle id="path252-1-6-849-04" class="cls-4" cx="1614.26" cy="1138.81" r="17"/>
  </g>
  <g>
    <path id="path222" class="cls-2" d="M1388.91,1193.66v9.89h133.96l59.96-59.96v-24.95l51.24-51.24v-57.47"/>
    <circle id="path252-1-6-849-40" class="cls-4" cx="1387.06" cy="1172.06" r="17"/>
    <circle id="path252-1-6-849-1" class="cls-4" cx="1632.98" cy="994.48" r="17"/>
  </g>
  <g>
    <path id="path236" class="cls-2" d="M1495.97,1365.61h39.63l26.21-26.21h60.12v21.79"/>
    <circle id="path252-1-6-849-78" class="cls-4" cx="1480.32" cy="1366.45" r="17"/>
    <circle id="path252-1-6-849-3" class="cls-4" cx="1621.63" cy="1378.92" r="17"/>
  </g>
  <g>
    <path id="path237" class="cls-2" d="M1496.69,1670.46l21.5,21.5h122.13v-258.76l-56.25-56.25h-68.83l-33.44,33.44v113.9l28.58,28.58"/>
    <circle id="path252-1-6-849-06" class="cls-4" cx="1485.86" cy="1661.35" r="17"/>
    <circle id="path252-1-6-849-66" class="cls-4" cx="1523.27" cy="1565.76" r="17"/>
  </g>
  <g>
    <path id="path235" class="cls-2" d="M1387.79,1345.08h-67.09l-72.86,72.86v274.02h115.13l55.54-55.54v-85.79"/>
    <circle id="path252-1-6-849-11" class="cls-4" cx="1417.98" cy="1530.29" r="17"/>
    <circle id="path252-1-6-849-008" class="cls-4" cx="1402.74" cy="1347.42" r="17"/>
  </g>
  <g>
    <path id="path233" class="cls-2" d="M1109.42,1351.64v-8.46h-137.24v348.7l75.34.07,109.01-109.01"/>
    <circle id="path252-1-6-849-75" class="cls-4" cx="1166.85" cy="1570.25" r="17"/>
    <circle id="path252-1-6-849-54" class="cls-4" cx="1108.67" cy="1371.2" r="17"/>
  </g>
  <g>
    <path id="path232" class="cls-2" d="M712.52,1484.03l-16.64-16.64v-126.68h228.49v351.25h-224.27v-141.16"/>
    <circle id="path252-1-6-849-506" class="cls-4" cx="701.53" cy="1534.5" r="17"/>
    <circle id="path252-1-6-849-19" class="cls-4" cx="722.89" cy="1495.01" r="17"/>
  </g>
  <g>
    <g>
      <path id="path231" class="cls-2" d="M447.82,1401.81v-19.36l33.41-33.41h143.43l16.78,16.78"/>
      <circle id="path252-1-6-849-666" class="cls-4" cx="447.17" cy="1415.24" r="17"/>
      <circle id="path252-1-6-849-108" class="cls-4" cx="651.09" cy="1375.1" r="17"/>
    </g>
    <g>
      <path id="path230" class="cls-2" d="M405.18,1371.9v320.06h165.16l30.11-30.11"/>
      <circle id="path252-1-6-849-84" class="cls-4" cx="610.66" cy="1650.57" r="17"/>
      <circle id="path252-1-6-849-47" class="cls-4" cx="406.09" cy="1356.02" r="17"/>
    </g>
  </g>
  <g id="scroll_right" data-name="scroll right">
    <path id="path310" class="cls-1" d="M1451.06,1295.37h63.99l32.82,32.82h37.72v-84.09h-56.54l-13.45,13.45"/>
    <circle id="path252-1-6-58" class="cls-3" cx="1436.31" cy="1295.97" r="17"/>
    <circle id="path252-1-6-25" class="cls-3" cx="1504.23" cy="1267.67" r="17"/>
  </g>
  <g id="scroll_left" data-name="scroll left">
    <path id="path309" class="cls-1" d="M542.57,1320.04l-12.61,12.61h-54.09v-89.82h41.87l31.83,31.83h57.74"/>
    <circle id="path252-1-6-25-1" class="cls-3" cx="552.39" cy="1308.3" r="17"/>
    <circle id="path252-1-6-25-5" class="cls-3" cx="621.6" cy="1274.74" r="17"/>
  </g>
  <g>
    <g>
      <path id="path321" class="cls-1" d="M1517.37,1482.72l42,42h44.91l21.45,21.45v101.17l-35.42,35.42h-49.2l-63.83-63.83v-8.76"/>
      <circle id="path252-1-6-90" class="cls-3" cx="1477.71" cy="1596.12" r="17"/>
      <circle id="path252-1-6-30" class="cls-3" cx="1506.02" cy="1471.6" r="17"/>
    </g>
    <g>
      <path id="path320" class="cls-1" d="M1534.24,1413.48l15.32-15.32h22.64l54.18,54.18-12.73,12.73"/>
      <circle id="path252-1-6-01" class="cls-3" cx="1604.76" cy="1475.37" r="17"/>
      <circle id="path252-1-6-09" class="cls-3" cx="1524.25" cy="1422.54" r="17"/>
    </g>
  </g>
  <g>
    <g>
      <path id="path318" class="cls-1" d="M1271.1,1495.89v-72.51l56.72-56.72h27.86l7.81,7.81"/>
      <circle id="path252-1-6-38" class="cls-3" cx="1270.95" cy="1510.73" r="17"/>
      <circle id="path252-1-6-375" class="cls-3" cx="1370.95" cy="1386.21" r="17"/>
    </g>
    <g>
      <path id="path319" class="cls-1" d="M1318.66,1519.42l-61.22,61.23v101.63h68.78l50.65-50.65"/>
      <circle id="path252-1-6-048" class="cls-3" cx="1387.56" cy="1620.56" r="17"/>
      <circle id="path252-1-6-21" class="cls-3" cx="1329.7" cy="1508.62" r="17"/>
    </g>
  </g>
  <g>
    <g>
      <path id="path316" class="cls-1" d="M1001.55,1440.94l-15.27-15.27v-67.92h74.86l100.42,100.42v49.53"/>
      <circle id="path252-1-6-13" class="cls-3" cx="1011.38" cy="1451.24" r="17"/>
      <circle id="path252-1-6-50" class="cls-3" cx="1160.44" cy="1522.94" r="17"/>
    </g>
    <g>
      <path id="path317" class="cls-1" d="M1137.48,1493.82v83.88l-102.89,102.89h-49.53v-57.07l56.18-56.18"/>
      <circle id="path252-1-6-61" class="cls-3" cx="1137.66" cy="1479.55" r="17"/>
      <circle id="path252-1-6-56" class="cls-3" cx="1051.53" cy="1557.53" r="17"/>
    </g>
  </g>
  <g>
    <g>
      <path id="path314" class="cls-1" d="M816.74,1441.21v-51.01l37.25-37.25h-102.27v46.03h31.77v203.76l18.83,18.83"/>
      <circle id="path252-1-6-39" class="cls-3" cx="813.54" cy="1631.04" r="17"/>
      <circle id="path252-1-6-32" class="cls-3" cx="817.31" cy="1455.57" r="17"/>
    </g>
    <g>
      <path id="path315" class="cls-1" d="M816.74,1511.05v89.01l55.11,55.12v7.35h-103.05"/>
      <circle id="path252-1-6-19" class="cls-3" cx="754.42" cy="1661.23" r="17"/>
      <circle id="path252-1-6-95" class="cls-3" cx="814.8" cy="1497.07" r="17"/>
    </g>
  </g>
  <g>
    <g>
      <path id="path311" class="cls-1" d="M493.33,1458.29l-16.76-16.76v-47.1l27.39-27.39h81.38l42.54,42.54v61.21"/>
      <circle id="path252-1-6-75" class="cls-3" cx="627.86" cy="1485.28" r="17"/>
      <circle id="path252-1-6-84" class="cls-3" cx="502.7" cy="1468.92" r="17"/>
    </g>
    <g>
      <path id="path312" class="cls-1" d="M558.33,1513.55l54.89,54.89v23.62"/>
      <circle id="path252-1-6-85" class="cls-3" cx="613.39" cy="1605.4" r="17"/>
      <circle id="path252-1-6-33" class="cls-3" cx="548.61" cy="1503.51" r="17"/>
    </g>
    <g>
      <path id="path313" class="cls-1" d="M574.27,1623.41v26.83l-25.39,25.39h-47.88l-40.65-40.65v-44.37"/>
      <circle id="path252-1-6-06" class="cls-3" cx="574.35" cy="1609.11" r="17"/>
      <circle id="path252-1-6-68" class="cls-3" cx="459.88" cy="1576.41" r="17"/>
    </g>
  </g>
  <g>
    <g>
      <path id="path307" class="cls-1" d="M1277.54,970.43v-51l-34.19-34.19h-97.16l-20.91,20.91v234.26l41.13,41.13h100.06l24.14-24.14v-76.44l-25.26-25.26"/>
      <circle id="path252-1-6-5" class="cls-3" cx="1277.02" cy="986.97" r="17"/>
      <circle id="path252-1-6-55" class="cls-3" cx="1254.37" cy="1045.46" r="17"/>
    </g>
    <g>
      <path id="path308" class="cls-1" d="M1158.88,1086.78h-15.55v46.39l31.34,31.34h78.43l16.23-16.23v-50.43l-40.09-40.09h-21.29"/>
      <circle id="path252-1-6-9" class="cls-3" cx="1193.15" cy="1057.57" r="17"/>
      <circle id="path252-1-6-8" class="cls-3" cx="1173.65" cy="1088.38" r="17"/>
    </g>
    <g>
      <path id="path306" class="cls-1" d="M1155.87,961.11l-12.54-12.54v-20.41l23.7-23.71h44.07l44.03,44.03v59.72l-22.53,22.53h-44.41l-13.06-13.06"/>
      <circle id="path252-1-6-6" class="cls-3" cx="1164.44" cy="1008.36" r="17"/>
      <circle id="path252-1-6-17" class="cls-3" cx="1166.98" cy="971.23" r="17"/>
    </g>
  </g>
  <g>
    <g>
      <path id="path303" class="cls-1" d="M721,1049.96l-13.09,13.09v73.39l25.61,25.61h69.34l16.55-16.55"/>
      <circle id="path252-1-6-03" class="cls-3" cx="830.8" cy="1135.01" r="17"/>
      <circle id="path252-1-6-7" class="cls-3" cx="731.43" cy="1041.3" r="17"/>
    </g>
    <g>
      <path id="path302" class="cls-1" d="M751.23,909.52l-5.86-5.86h-19.41l-19.25,19.25v79.79l15.62,15.62h38.81l9.18,9.18"/>
      <circle id="path252-1-6-23" class="cls-3" cx="780.49" cy="1037.53" r="17"/>
      <circle id="path252-1-6-3" class="cls-3" cx="762.88" cy="919.92" r="17"/>
    </g>
    <g>
      <path id="path322" class="cls-1" d="M845.85,893.16h-124.35l-26.73,26.73v221.35l34,34h105.17"/>
      <circle id="path252-1-6-2" class="cls-3" cx="847.53" cy="1175.82" r="17"/>
      <circle id="path252-1-6-0" class="cls-3" cx="860.46" cy="896.71" r="17"/>
    </g>
  </g>
  <g>
    <g>
      <path id="path305" class="cls-1" d="M1040.07,1156.02l-8.51,8.51-55.42,1.26-26.39-26.39v-190.36l16.87-16.87"/>
      <circle id="path252-1-6-37" class="cls-3" cx="1050.05" cy="1145.63" r="17"/>
      <circle id="path252-1-6-1" class="cls-3" cx="979.61" cy="921.1" r="17" transform="translate(-86.51 1740.51) rotate(-80.78)"/>
    </g>
    <g>
      <path id="path304" class="cls-1" d="M917.49,898.49l18.27,18.27v247.05l16.19,16.19h114.53"/>
      <circle id="path252-1-6-71" class="cls-3" cx="1080.86" cy="1180.85" r="17"/>
      <circle id="path252-1-6-04" class="cls-3" cx="907.91" cy="889.02" r="17"/>
    </g>
  </g>
  <path id="path523" class="seagull" d="M1011.08,249.14c-1.48-1.58-5.03-8.55-7.91-15.49-5.66-13.66-9.71-19.84-13.01-19.84-1.15,0-4.61,1.44-7.68,3.19-5.19,2.97-5.85,3.04-9.49,1.02-6.78-3.77-5.75-6.38,5.32-13.54,5.68-3.68,12.51-6.89,15.51-7.29,4.8-.64,5.72-.23,8.9,4.05,1.95,2.62,5.92,9.08,8.83,14.34,2.9,5.27,5.58,9.57,5.94,9.57s4.3-2.46,8.74-5.47c10.98-7.44,19.33-11.55,23.48-11.55s12.67,8.19,25.22,23.85c8.39,10.47,10.33,16.2,6.05,17.85-3.31,1.27-10.69-2.7-19.73-10.62-11.9-10.41-15.41-9.95-34.04,4.43-10.92,8.43-12.8,9.07-16.14,5.48Z"/>
  <path id="path522" class="seagull" d="M832.54,281.14c-1.6-1.12-8.36-10.23-15.02-20.26s-14.71-20.56-17.88-23.42c-5.24-4.73-6.5-5.2-13.91-5.18-5.36.02-12.26,1.48-20.14,4.26-24.4,8.61-27.67,4.54-9.63-11.98,23.6-21.6,31.96-26.36,42.75-24.34,7.64,1.43,11.22,5.28,25.19,27.12,7.22,11.28,13.51,20.52,13.99,20.52s5.45-7.28,11.05-16.18c15.01-23.83,27.91-33.98,39.57-31.17,7.16,1.73,17.84,7.75,40.4,22.77,26.45,17.63,34.66,24.48,33.35,27.87-1.66,4.32-9.08,2.6-33.3-7.76-35.78-15.29-41.25-15.04-56.6,2.57-32.47,37.28-34.4,38.98-39.82,35.18h0Z"/>
  <path id="path521" class="seagull" d="M1022.96,368.66c-2.34-1.46-9.94-7.48-16.89-13.37-15.85-13.43-22.76-17.09-28.93-15.32-2.47.71-11.36,5.77-19.76,11.25-8.4,5.48-17.68,10.97-20.63,12.2-5.22,2.18-5.43,2.15-8.65-1.32-1.81-1.96-5.42-9.15-8.02-15.99-6.92-18.22-12.26-28.38-16.34-31.05-3-1.97-5.79-2.21-16.55-1.45-10.92.78-13.34.55-15.53-1.43-3-2.72-3.38-6.62-.82-8.63,3.28-2.57,23.83-10.21,32.06-11.91,4.48-.93,9.88-1.25,11.99-.72,5.82,1.46,11.46,10.57,16.77,27.08,2.63,8.18,5.11,14.89,5.51,14.91.4.02,6.11-4.69,12.68-10.46,13.23-11.63,24.12-18.78,30.57-20.07,3.31-.66,5.56.11,10.26,3.52,7.12,5.16,24.36,26.51,37.16,46,7.27,11.07,8.83,14.4,7.66,16.28-2.1,3.36-7.58,3.56-12.54.47h0Z"/>
  <path id="path520" class="seagull" d="M1104.69,398.38c-1.59-1.59-5.47-11.11-8.67-21.25-3.19-10.11-6.72-19.15-7.86-20.09-1.67-1.39-3.91-.6-11.73,4.13-5.32,3.21-10.69,5.84-11.95,5.84-4.68,0-6.77-1.77-6.77-5.73,0-3.22,2.38-6.19,12.1-15.1,12.88-11.8,26.57-21.73,29.95-21.73,3.07,0,6.01,8.39,8.33,23.82,1.14,7.57,2.08,14.67,2.08,15.77,0,1.1,3.12-2.44,6.92-7.85,8.1-11.53,21.09-23.88,26.56-25.26,3.05-.76,5.43.13,11.53,4.33,8.38,5.77,45.39,43.46,48.64,49.54,1.83,3.42,1.76,3.96-.78,5.82-4.32,3.16-8.11,1.49-31.48-13.87-16.47-10.83-22.51-14.08-25.48-13.74-2.99.35-7.2,4.37-18.13,17.33-7.83,9.28-15.62,17.78-17.32,18.9-2.76,1.81-3.39,1.72-5.97-.85h0Z"/>
  <path id="path519" class="seagull" d="M680.97,431.16c-5.7-4.67-14.72-17.61-35.1-50.37-11.27-18.11-23.19-35.99-26.49-39.74-5.4-6.13-6.44-6.72-10.42-5.9-11.14,2.29-38.27,22.43-69.67,51.72-19.15,17.86-24.29,20.95-30.16,18.13-2.33-1.12-4.3-3.63-5.13-6.53-2.13-7.45,2.51-14.77,23.68-37.39,43.61-46.58,92.37-91.94,98.81-91.94,3.35,0,9.13,7.33,15.37,19.5,6.08,11.86,23.26,50.91,30.41,69.15,2.56,6.53,1.99,7.52,8.93-15.6,14.31-47.73,29.96-73.05,45.15-73.05,4.13,0,17.6,8.05,42.88,25.6,60.33,41.91,119.26,86.02,133.53,99.92,8.59,8.37,10.28,10.78,10.28,14.62,0,8.99-10.61,8.89-30.47-.29-5.61-2.59-29.29-14.77-52.63-27.06-23.34-12.29-48.81-25.71-56.61-29.82-7.8-4.11-18.87-9.51-24.59-12-9.91-4.3-10.54-4.41-13.11-2.08-4.85,4.39-9.64,14.14-22.52,45.84-14.03,34.54-15.86,38.5-20.87,45.19-3.86,5.16-6.85,5.71-11.26,2.1h0Z"/>
  <path id="path518" class="seagull" d="M1306.83,444.76c-1.17-1.8-3.21-7.62-4.54-12.93-2.83-11.33-6.6-17.46-13.41-21.79-14.26-9.07-14.47-11.82-.91-11.82,10.8,0,13.92,1.95,18.87,11.8,2.03,4.04,3.86,7.54,4.06,7.77.2.23,3.31-1.56,6.9-3.99,9.41-6.35,14.77-6.84,24.24-2.2,12.28,6.01,18.7,16.35,8.93,14.38-2.54-.51-8.49-1.29-13.22-1.73-7.66-.71-9.03-.43-12.37,2.54-2.07,1.84-5.85,7.12-8.41,11.74-2.56,4.62-5.41,8.65-6.34,8.95-.93.31-2.64-.92-3.81-2.72h0Z"/>
  <path id="path517" class="seagull" d="M1196.68,508.03c-.76-2.01-2.06-9.83-2.88-17.38-2.69-24.7-3.35-25.84-16.88-28.74-11.9-2.55-15.23-11.56-5.26-14.23,2.09-.56,8.47-1.45,14.19-1.99,12.1-1.13,13.44-.34,17.38,10.28,1.38,3.72,2.65,6.97,2.82,7.21.18.25,3.19-1.74,6.7-4.42,11.77-8.99,15.66-8.31,36.13,6.31,13.85,9.9,18.76,13.96,18.76,15.53,0,2.63-4.87,5.53-9.29,5.53-2.66,0-9.15-1.66-14.44-3.7-15.32-5.9-18.31-6.34-22.22-3.26-1.87,1.47-5.74,8.25-8.59,15.07-2.85,6.82-6.21,13.53-7.46,14.91-3.29,3.64-7.34,3.12-8.96-1.15h0Z"/>
  <path id="path516" class="seagull" d="M1371.49,564.58c-.82-2.17-2.35-6.83-3.39-10.34l-1.89-6.38h-7.09c-9.19,0-9.5-3.04-.76-7.45,8.72-4.4,12.26-4.14,14.96,1.08l2.21,4.27,5.52-3.18,5.52-3.18,10.12,4.9c11.56,5.59,14.06,7.81,11.58,10.29-1.25,1.25-3.26,1.19-8.38-.27-11.94-3.41-13.21-3.04-18.98,5.55-2.87,4.27-5.82,7.96-6.57,8.21-.75.25-2.03-1.33-2.86-3.5h0Z"/>
  <path id="path515" class="seagull" d="M1373.23,637.19c-.53-3.53-.52-11.69.02-18.14,1.36-16.35.53-18.75-7.52-21.73-8.31-3.07-10.15-4.47-10.15-7.77,0-3.75,5.54-4.73,18.21-3.24,12.57,1.48,12.62,1.55,12.85,19.3l.14,10.95,8.91-6.23c12.29-8.59,15.46-9.21,19.31-3.8,5.05,7.09,11.73,22.56,11.24,26.01-.82,5.73-5.09,4.65-12.4-3.13-6.84-7.28-6.91-7.31-10.95-5.15-2.24,1.2-8.85,6.04-14.71,10.75-5.85,4.71-11.4,8.58-12.32,8.58-.93,0-2.12-2.88-2.65-6.4h0Z"/>
  <path id="path514" class="seagull" d="M1134.24,651.32c-1.87-1.99-7.96-10.13-13.52-18.08l-10.11-14.46-6.23.15c-3.43.08-10.45.64-15.6,1.25-8.82,1.04-9.5.91-11.68-2.21-1.94-2.78-2.02-3.78-.49-6.21,2.63-4.17,24.43-14.96,30.21-14.96s12.43,5.57,21.88,17.81l6.03,7.82,5.97-12.46c3.28-6.85,7.58-13.94,9.55-15.74,3.41-3.13,4.01-3.21,12.61-1.67,11.37,2.04,28.88,7.83,34.92,11.56,2.56,1.58,4.61,4.03,4.61,5.52,0,5.63-9.58,7.05-26.48,3.94-7.59-1.4-9.4-1.34-11.04.35-1.08,1.12-5.26,9.46-9.28,18.55-10.22,23.05-14.15,26.53-21.35,18.86h0Z"/>
  <path id="path513" class="seagull" d="M1481.85,682.96c-2.66-19.51-2.83-19.79-11.18-18.69-13.56,1.8-10-5.8,4.72-10.08,4.08-1.19,8.46-1.76,9.73-1.27,2.72,1.04,5.19,8.97,5.2,16.67v5.43s6-5.13,6-5.13c6.64-5.69,11.73-7.54,15.15-5.53,2.64,1.55,12.84,21.34,12.88,24.97.04,4.56-5.2,2.62-10.54-3.9-6.03-7.36-5.38-7.47-19.98,3.58-5.13,3.88-9.52,7.06-9.76,7.06s-1.24-5.9-2.22-13.12h0Z"/>
  <path id="path512" class="seagull" d="M1574.27,739.65c-.89-1.07-3.89-6.94-6.67-13.04l-5.06-11.1-4.56,4.42c-3.11,3.02-5.17,4.03-6.51,3.21-3.13-1.94-.81-7.62,6.21-15.19l6.38-6.89,2.84,3.34c1.56,1.84,3.95,6.47,5.31,10.28,1.36,3.82,2.79,6.93,3.2,6.92s2.65-3.3,4.99-7.31c5.98-10.23,7.87-11.12,15.25-7.17,8.4,4.48,26.59,19.8,26.59,22.38,0,4.34-4.39,3.55-16.31-2.95-6.72-3.66-12.66-6.22-13.2-5.69-.54.53-3.59,5.23-6.77,10.44-5.92,9.69-8.85,11.79-11.69,8.36h0Z"/>
  <path id="path520-2" data-name="path520" class="seagull" d="M1253.85,355.9c-1.17-1.4-4.02-9.81-6.37-18.75-2.34-8.92-4.94-16.89-5.77-17.73-1.23-1.22-2.87-.53-8.62,3.64-3.91,2.83-7.86,5.15-8.78,5.15-3.44,0-4.97-1.56-4.97-5.06,0-2.84,1.75-5.46,8.9-13.32,9.47-10.41,19.52-19.17,22.01-19.17,2.26,0,4.41,7.41,6.12,21.01.84,6.68,1.53,12.94,1.53,13.91,0,.97,2.29-2.15,5.09-6.93,5.95-10.17,15.5-21.07,19.52-22.29,2.24-.67,3.99.12,8.47,3.82,6.16,5.1,33.36,38.35,35.75,43.72,1.35,3.02,1.29,3.49-.57,5.13-3.17,2.79-5.96,1.31-23.13-12.24-12.11-9.56-16.54-12.43-18.73-12.12-2.2.31-5.29,3.86-13.32,15.29-5.75,8.19-11.48,15.69-12.73,16.67-2.03,1.6-2.49,1.52-4.38-.75h0Z"/>
  <text class="cls-6" transform="translate(1349.63 1838.6)"><tspan x="0" y="0">2025</tspan></text>
  <text class="cls-8" transform="translate(637.07 1839.41)"><tspan x="0" y="0">elbside</tspan><tspan class="cls-9" x="432.09" y="0">s</tspan><tspan x="492.46" y="0">.eu</tspan></text>

  <style>
    @keyframes flyAround {
      0%, 100% { transform: translate(0, 0); }
      25% { transform: translate(5px, -3px); }
      50% { transform: translate(-2px, -5px); }
      75% { transform: translate(-3px, 3px); }
    }

    .seagull {
      animation: flyAround 4s ease-in-out infinite;
    }

    /* Give each seagull a slightly different animation timing */
    #path523 { animation-delay: 0s; }
    #path522 { animation-delay: -0.5s; }
    #path521 { animation-delay: -1s; }
    #path520 { animation-delay: -1.5s; }
    #path519 { animation-delay: -2s; }
    #path518 { animation-delay: -2.5s; }
    #path517 { animation-delay: -3s; }
    #path516 { animation-delay: -0.2s; }
    #path515 { animation-delay: -0.7s; }
    #path514 { animation-delay: -1.2s; }
    #path513 { animation-delay: -1.7s; }
    #path512 { animation-delay: -2.2s; }
    #path520-2 { animation-delay: -2.7s; }
  </style>
</svg>
