<?xml version="1.0" encoding="UTF-8"?>
<svg xmlns="http://www.w3.org/2000/svg" xmlns:xlink="http://www.w3.org/1999/xlink" viewBox="0 0 408.26 141.41">
  <defs>
    <style>
      .cls-1 {
        fill: #00a4e4;
      }

      .cls-2 {
        fill: #1d2d5c;
      }

      .cls-3 {
        fill: #36ac91;
      }

      .cls-4 {
        fill: #0f69a0;
      }

      .cls-5 {
        fill: #6cb33f;
      }
    </style>
  </defs>
  <g id="Chapter_name" data-name="Chapter name">
    <g>
      <path class="cls-2" d="M148.53,130.92l-.54.68c-1.56,1.82-3.85,2.73-6.85,2.73-2.67,0-4.77-.89-6.29-2.66-1.52-1.77-2.3-4.27-2.33-7.51v-4.85c0-3.46.69-6.05,2.08-7.78,1.39-1.72,3.46-2.59,6.22-2.59,2.35,0,4.19.65,5.52,1.96,1.33,1.31,2.06,3.18,2.2,5.61h-3.1c-.12-1.54-.55-2.74-1.28-3.61-.73-.87-1.84-1.3-3.32-1.3-1.78,0-3.08.58-3.9,1.74-.83,1.16-1.26,3.01-1.29,5.56v5.04c0,2.49.48,4.4,1.43,5.73s2.31,1.99,4.09,1.99c1.67,0,2.95-.41,3.82-1.22l.46-.42v-5.67h-4.51v-2.66h7.62v9.23Z"/>
      <path class="cls-2" d="M158.63,134.33c-2.29,0-4.04-.68-5.26-2.04s-1.84-3.36-1.87-6v-2.22c0-2.74.6-4.88,1.79-6.44s2.86-2.33,5-2.33,3.76.68,4.82,2.05c1.06,1.37,1.61,3.5,1.63,6.4v1.97h-10.25v.42c0,1.97.37,3.4,1.11,4.29s1.81,1.34,3.2,1.34c.88,0,1.66-.17,2.33-.5.67-.33,1.3-.86,1.89-1.59l1.56,1.9c-1.3,1.83-3.29,2.75-5.96,2.75ZM158.29,117.87c-1.24,0-2.17.43-2.77,1.28-.6.85-.94,2.18-1.02,3.98h7.23v-.41c-.08-1.74-.39-2.99-.94-3.73-.55-.75-1.38-1.12-2.5-1.12Z"/>
      <path class="cls-2" d="M174.95,118.45c-.42-.08-.87-.12-1.36-.12-1.54,0-2.61.84-3.22,2.53v13.13h-3v-18.36h2.92l.05,1.87c.8-1.47,1.94-2.21,3.41-2.21.48,0,.87.08,1.19.24l.02,2.92Z"/>
      <path class="cls-2" d="M179.76,115.63l.07,1.7c1.12-1.36,2.6-2.04,4.43-2.04,2.05,0,3.48.89,4.29,2.66,1.15-1.78,2.76-2.66,4.82-2.66,3.38,0,5.11,2.11,5.19,6.33v12.37h-2.99v-12.08c0-1.33-.24-2.33-.71-2.98s-1.28-.98-2.41-.98c-.9,0-1.64.35-2.21,1.05-.57.7-.89,1.59-.98,2.68v12.3h-3.02v-12.22c-.03-2.54-1.07-3.82-3.1-3.82-1.52,0-2.58.76-3.21,2.27v13.76h-2.99v-18.36h2.82Z"/>
      <path class="cls-2" d="M211.09,133.99c-.18-.4-.31-1.06-.39-2-1.06,1.56-2.42,2.34-4.07,2.34s-2.96-.47-3.89-1.4c-.93-.93-1.4-2.25-1.4-3.95,0-1.87.63-3.35,1.9-4.45,1.27-1.1,3-1.66,5.21-1.68h2.21v-1.95c0-1.1-.24-1.88-.73-2.34s-1.23-.7-2.22-.7c-.91,0-1.64.27-2.21.81s-.85,1.22-.85,2.04h-3c0-.94.28-1.83.83-2.69.55-.85,1.3-1.52,2.24-2.01.94-.49,1.98-.73,3.14-.73,1.88,0,3.31.47,4.28,1.4.98.93,1.48,2.29,1.5,4.08v9.26c.01,1.41.2,2.64.58,3.68v.27h-3.12ZM207.08,131.6c.73,0,1.44-.2,2.1-.61.67-.41,1.15-.92,1.46-1.53v-4.38h-1.7c-1.43.02-2.55.34-3.38.96s-1.24,1.48-1.24,2.59c0,1.04.21,1.8.63,2.26.42.47,1.13.7,2.12.7Z"/>
      <path class="cls-2" d="M219.9,115.63l.08,1.99c1.17-1.55,2.65-2.32,4.46-2.32,3.25,0,4.89,2.17,4.94,6.5v12.2h-2.99v-12.06c0-1.44-.24-2.46-.72-3.06-.48-.6-1.2-.91-2.16-.91-.75,0-1.42.25-2.01.75-.59.5-1.07,1.15-1.43,1.95v13.34h-3v-18.36h2.83Z"/>
      <path class="cls-2" d="M237.39,129l3.34-13.37h3.19l-6.01,20.96c-.45,1.57-1.09,2.77-1.92,3.59-.83.82-1.76,1.23-2.82,1.23-.41,0-.93-.09-1.56-.27v-2.54l.66.07c.87,0,1.55-.21,2.04-.62.49-.41.89-1.13,1.2-2.15l.59-2.05-5.4-18.21h3.27l3.39,13.37Z"/>
      <path class="cls-2" d="M268.98,126.14c-.14,2.65-.88,4.67-2.23,6.08s-3.26,2.11-5.73,2.11-4.45-.94-5.9-2.83c-1.46-1.88-2.19-4.44-2.19-7.66v-4.48c0-3.21.75-5.75,2.25-7.62,1.5-1.87,3.54-2.8,6.13-2.8,2.39,0,4.23.71,5.54,2.14,1.31,1.42,2.02,3.47,2.13,6.12h-3.14c-.14-2.01-.56-3.45-1.27-4.31s-1.8-1.29-3.26-1.29c-1.69,0-2.98.66-3.89,1.98-.91,1.32-1.36,3.25-1.36,5.79v4.53c0,2.5.42,4.42,1.26,5.75.84,1.33,2.07,2,3.69,2s2.78-.4,3.5-1.21c.71-.8,1.15-2.25,1.32-4.33h3.14Z"/>
      <path class="cls-2" d="M274.63,117.52c1.14-1.48,2.6-2.22,4.38-2.22,3.25,0,4.89,2.17,4.94,6.5v12.2h-2.99v-12.06c0-1.44-.24-2.46-.72-3.06-.48-.6-1.2-.91-2.16-.91-.75,0-1.42.25-2.01.75-.59.5-1.07,1.15-1.43,1.95v13.34h-3v-26.06h3v9.59Z"/>
      <path class="cls-2" d="M296.42,133.99c-.18-.4-.31-1.06-.39-2-1.06,1.56-2.42,2.34-4.07,2.34s-2.96-.47-3.89-1.4c-.93-.93-1.4-2.25-1.4-3.95,0-1.87.63-3.35,1.9-4.45,1.27-1.1,3-1.66,5.21-1.68h2.21v-1.95c0-1.1-.24-1.88-.73-2.34s-1.23-.7-2.22-.7c-.9,0-1.64.27-2.21.81-.57.54-.85,1.22-.85,2.04h-3c0-.94.28-1.83.83-2.69.55-.85,1.3-1.52,2.24-2.01.94-.49,1.99-.73,3.14-.73,1.88,0,3.31.47,4.28,1.4.98.93,1.48,2.29,1.5,4.08v9.26c.01,1.41.2,2.64.58,3.68v.27h-3.12ZM292.42,131.6c.74,0,1.44-.2,2.1-.61.67-.41,1.15-.92,1.46-1.53v-4.38h-1.7c-1.42.02-2.55.34-3.38.96-.83.62-1.24,1.48-1.24,2.59,0,1.04.21,1.8.63,2.26.42.47,1.12.7,2.12.7Z"/>
      <path class="cls-2" d="M315.67,125.7c0,2.91-.52,5.07-1.57,6.5-1.05,1.43-2.53,2.14-4.44,2.14s-3.26-.7-4.26-2.09v8.81h-2.99v-25.42h2.71l.15,2.04c1.01-1.58,2.45-2.38,4.33-2.38,2.01,0,3.52.7,4.51,2.1,1,1.4,1.51,3.5,1.54,6.29v2ZM312.68,123.98c0-2.06-.32-3.58-.95-4.56-.63-.98-1.65-1.47-3.05-1.47s-2.53.72-3.27,2.15v9.55c.74,1.4,1.84,2.1,3.31,2.1,1.36,0,2.36-.49,3-1.47.64-.98.96-2.47.98-4.49v-1.83Z"/>
      <path class="cls-2" d="M322.53,111.19v4.45h2.77v2.43h-2.77v11.4c0,.72.12,1.27.36,1.65.24.37.65.56,1.22.56.4,0,.8-.07,1.21-.2l-.03,2.53c-.68.22-1.37.34-2.09.34-1.19,0-2.09-.42-2.71-1.27-.62-.85-.93-2.05-.93-3.6v-11.4h-2.8v-2.43h2.8v-4.45h2.99Z"/>
      <path class="cls-2" d="M333.95,134.33c-2.29,0-4.04-.68-5.26-2.04s-1.84-3.36-1.87-6v-2.22c0-2.74.6-4.88,1.79-6.44s2.86-2.33,5-2.33,3.76.68,4.82,2.05c1.06,1.37,1.61,3.5,1.63,6.4v1.97h-10.25v.42c0,1.97.37,3.4,1.11,4.29s1.81,1.34,3.2,1.34c.88,0,1.66-.17,2.33-.5.67-.33,1.3-.86,1.89-1.59l1.56,1.9c-1.3,1.83-3.29,2.75-5.96,2.75ZM333.61,117.87c-1.24,0-2.17.43-2.77,1.28-.6.85-.94,2.18-1.02,3.98h7.23v-.41c-.08-1.74-.39-2.99-.94-3.73-.55-.75-1.38-1.12-2.5-1.12Z"/>
      <path class="cls-2" d="M350.26,118.45c-.42-.08-.87-.12-1.36-.12-1.54,0-2.61.84-3.22,2.53v13.13h-3v-18.36h2.92l.05,1.87c.8-1.47,1.94-2.21,3.41-2.21.48,0,.87.08,1.19.24l.02,2.92Z"/>
    </g>
  </g>
  <g id="full-rgb">
    <g>
      <a xlink:href="66.9176470588235">
        <path id="fullLogo" class="cls-4" d="M9.46,55.68c-3.71-3.71-3.45-9.87.76-13.24,3.12-2.5,7.68-2.56,10.86-.15s4.19,6.27,3.17,9.67c-.06.19-.01.4.13.54l4.38,4.38c.26.26.71.2.88-.12,3.41-6.43,2.07-14.73-4.08-19.67-5.66-4.55-13.93-4.56-19.6-.03-7.46,5.97-7.91,16.9-1.34,23.46,5.01,5.01,12.54,5.92,18.49,2.76.33-.17.38-.62.12-.88l-4.38-4.38c-.14-.14-.35-.19-.54-.13-3.03.91-6.45.18-8.84-2.22Z"/>
      </a>
      <a xlink:href="82.1278431372549">
        <path id="fullLogo-2" data-name="fullLogo" class="cls-2" d="M9.47,76.76c3.71-3.71,9.87-3.45,13.24.76,2.5,3.12,2.56,7.68.15,10.86-2.38,3.14-6.27,4.19-9.67,3.17-.19-.06-.4-.01-.54.13l-4.38,4.38c-.26.26-.2.71.12.88,6.43,3.41,14.73,2.07,19.67-4.08,4.55-5.66,4.56-13.93.03-19.6-5.97-7.46-16.9-7.91-23.46-1.34-5.01,5.01-5.92,12.54-2.76,18.49.17.33.62.38.88.12l4.38-4.38c.14-.14.19-.35.13-.54-.91-3.03-.18-6.45,2.22-8.84Z"/>
      </a>
      <a xlink:href="66.9176470588235">
        <path id="fullLogo-3" data-name="fullLogo" class="cls-4" d="M49.62,91.93c-5.24,0-9.42-4.54-8.83-9.9.44-3.97,3.62-7.24,7.57-7.79,3.91-.54,7.4,1.47,9.08,4.6.1.18.28.29.48.29h6.2c.37,0,.65-.36.54-.71-2.14-6.96-8.95-11.88-16.79-11.03-7.22.78-13.08,6.62-13.88,13.84-1.05,9.5,6.35,17.54,15.64,17.54,7.08,0,13.06-4.68,15.03-11.12.11-.35-.17-.71-.54-.71h-6.2c-.2,0-.38.11-.48.29-1.5,2.79-4.43,4.69-7.82,4.69Z"/>
      </a>
      <a xlink:href="52.0549019607843">
        <path id="fullLogo-4" data-name="fullLogo" class="cls-1" d="M40.74,49.39c0-5.26,4.56-9.45,9.95-8.82,3.91.45,7.14,3.56,7.72,7.46s-1.43,7.49-4.58,9.19c-.18.1-.29.28-.29.48v6.2c0,.37.36.64.71.54,6.65-2.04,11.43-8.35,11.11-15.74-.35-8.03-6.95-14.64-14.97-15.02-9.04-.42-16.49,6.78-16.49,15.72,0,7.08,4.69,13.06,11.12,15.03.35.11.71-.17.71-.54v-6.2c0-.2-.11-.38-.29-.48-2.79-1.5-4.69-4.43-4.69-7.82Z"/>
      </a>
      <a xlink:href="52.0549019607843">
        <path id="fullLogo-5" data-name="fullLogo" class="cls-1" d="M24.63,15.74c0,5.26-4.56,9.45-9.95,8.82-3.91-.45-7.14-3.56-7.72-7.46-.59-3.95,1.43-7.49,4.58-9.19.18-.1.29-.28.29-.48V1.24c0-.37-.36-.64-.71-.54C4.47,2.75-.31,9.06.02,16.45c.35,8.03,6.95,14.64,14.97,15.02,9.04.42,16.49-6.78,16.49-15.72,0-7.08-4.69-13.06-11.12-15.03-.35-.11-.71.17-.71.54v6.2c0,.2.11.38.29.48,2.79,1.5,4.69,4.43,4.69,7.82Z"/>
      </a>
      <a xlink:href="52.0549019607843">
        <path id="fullLogo-6" data-name="fullLogo" class="cls-1" d="M89.79,76.76c3.72,3.72,3.45,9.91-.79,13.27-3.09,2.45-7.57,2.53-10.73.19s-4.29-6.31-3.25-9.74c.06-.19.01-.4-.13-.54l-4.38-4.38c-.26-.26-.71-.2-.88.12-3.26,6.14-2.18,13.99,3.27,18.99,5.92,5.43,15.27,5.44,21.21.03,6.69-6.09,6.87-16.46.54-22.78-5.01-5.01-12.55-5.92-18.49-2.76-.33.17-.38.62-.12.88l4.38,4.38c.14.14.35.19.55.13,3.03-.91,6.45-.18,8.84,2.22Z"/>
      </a>
      <a xlink:href="47.5921568627451">
        <path id="fullLogo-7" data-name="fullLogo" class="cls-3" d="M89.79,55.68c-3.71,3.71-9.87,3.45-13.24-.76-2.5-3.12-2.56-7.68-.15-10.86,2.38-3.14,6.27-4.19,9.67-3.17.19.06.4.01.54-.13l4.38-4.38c.26-.26.2-.71-.12-.88-6.43-3.41-14.73-2.07-19.67,4.08-4.55,5.66-4.56,13.93-.03,19.6,5.97,7.46,16.9,7.91,23.46,1.34,5.01-5.01,5.92-12.54,2.76-18.49-.17-.33-.62-.38-.88-.12l-4.38,4.38c-.14.14-.19.35-.13.54.91,3.03.18,6.45-2.22,8.84Z"/>
      </a>
      <a xlink:href="43.3149019607843">
        <path id="fullLogo-8" data-name="fullLogo" class="cls-5" d="M83.68,24.63c-5.24,0-9.42-4.54-8.83-9.9.44-3.97,3.62-7.24,7.57-7.79,3.91-.54,7.4,1.47,9.08,4.6.1.18.28.29.48.29h6.2c.37,0,.65-.36.54-.71C96.57,4.16,89.76-.75,81.92.1c-7.22.78-13.08,6.62-13.88,13.84-1.05,9.5,6.35,17.54,15.64,17.54,7.08,0,13.06-4.68,15.03-11.12.11-.35-.17-.71-.54-.71h-6.2c-.2,0-.38.11-.48.29-1.5,2.79-4.43,4.69-7.82,4.69Z"/>
      </a>
      <a xlink:href="47.5921568627451">
        <path id="fullLogo-9" data-name="fullLogo" class="cls-3" d="M43.35,9.46c3.71-3.71,9.87-3.45,13.24.76,2.5,3.12,2.56,7.68.15,10.86-2.38,3.14-6.27,4.19-9.67,3.17-.19-.06-.4-.01-.54.13l-4.38,4.38c-.26.26-.2.71.12.88,6.43,3.41,14.73,2.07,19.67-4.08,4.55-5.66,4.56-13.93.03-19.6-5.97-7.46-16.9-7.91-23.46-1.34-5.01,5.01-5.92,12.54-2.76,18.49.17.33.62.38.88.12l4.38-4.38c.14-.14.19-.35.13-.54-.91-3.03-.18-6.45,2.22-8.84Z"/>
      </a>
      <path id="fullLogo-10" data-name="fullLogo" class="cls-2" d="M131.78,18.53c0-.93.84-1.77,1.77-1.77h8.65c.93,0,1.77.84,1.77,1.77v61.54c0,.93-.84,1.77-1.77,1.77h-8.65c-.93,0-1.77-.84-1.77-1.77V18.53Z"/>
      <path id="fullLogo-11" data-name="fullLogo" class="cls-2" d="M158.46,72.73l3.35-5.76c.74-1.3,2.32-1.3,3.16-.65.46.28,7.99,5.76,14.04,5.76,4.83,0,8.46-3.16,8.46-7.16,0-4.74-4-7.99-11.81-11.16-8.74-3.53-17.48-9.11-17.48-20.08,0-8.27,6.13-17.85,20.92-17.85,9.48,0,16.73,4.83,18.59,6.23.93.56,1.21,2.14.56,3.07l-3.53,5.3c-.74,1.12-2.14,1.86-3.25,1.12-.74-.46-7.81-5.11-12.92-5.11s-8.18,3.53-8.18,6.51c0,4.37,3.44,7.34,10.97,10.41,9.02,3.63,19.43,9.02,19.43,21.01,0,9.57-8.27,18.41-21.38,18.41-11.71,0-18.59-5.48-20.45-7.25-.84-.84-1.3-1.3-.46-2.79Z"/>
      <path id="fullLogo-12" data-name="fullLogo" class="cls-2" d="M205.09,79.42l28.91-62.56c.28-.56.74-1.02,1.58-1.02h.93c.93,0,1.3.46,1.58,1.02l28.63,62.56c.56,1.21-.19,2.42-1.58,2.42h-8.09c-1.39,0-2.05-.56-2.7-1.86l-4.55-10.04h-27.79l-4.56,10.04c-.37.93-1.21,1.86-2.7,1.86h-8.09c-1.39,0-2.14-1.21-1.58-2.42ZM245.24,59.62l-9.3-20.45h-.28l-9.11,20.45h18.68Z"/>
      <path id="fullLogo-13" data-name="fullLogo" class="cls-2" d="M303.93,15.84c9.39,0,16.17,2.97,22.5,8.64.84.74.84,1.86.09,2.6l-5.67,5.86c-.65.74-1.58.74-2.32,0-3.9-3.44-9.11-5.48-14.32-5.48-11.9,0-20.73,9.95-20.73,21.66s8.92,21.47,20.82,21.47c5.58,0,10.32-2.14,14.22-5.3.74-.65,1.77-.56,2.32,0l5.76,5.95c.74.65.56,1.86-.09,2.51-6.32,6.13-14.32,9.02-22.59,9.02-18.59,0-33.56-14.78-33.56-33.37s14.97-33.56,33.56-33.56Z"/>
      <path id="fullLogo-14" data-name="fullLogo" class="cls-2" d="M331.63,79.42l28.91-62.56c.28-.56.74-1.02,1.58-1.02h.93c.93,0,1.3.46,1.58,1.02l28.63,62.56c.56,1.21-.19,2.42-1.58,2.42h-8.09c-1.39,0-2.04-.56-2.7-1.86l-4.56-10.04h-27.79l-4.55,10.04c-.37.93-1.21,1.86-2.7,1.86h-8.09c-1.39,0-2.14-1.21-1.58-2.42ZM371.79,59.62l-9.29-20.45h-.28l-9.11,20.45h18.68Z"/>
      <path id="fullLogo-15" data-name="fullLogo" class="cls-2" d="M402.75,71.53c3.03,0,5.51,2.48,5.51,5.51s-2.48,5.49-5.51,5.49-5.49-2.46-5.49-5.49,2.46-5.51,5.49-5.51ZM402.75,81.61c2.54,0,4.58-2.05,4.58-4.58s-2.04-4.58-4.58-4.58-4.58,2.04-4.58,4.58,2.05,4.58,4.58,4.58ZM400.84,74.51c0-.15.12-.29.29-.29h2.17c.95,0,1.88.57,1.88,1.71s-.81,1.56-1.24,1.67c.31.6.61,1.21.92,1.81.11.18-.05.41-.26.41h-.52c-.12,0-.23-.12-.28-.21l-.86-1.91h-1.13v1.84c0,.15-.12.29-.29.29h-.4c-.17,0-.29-.14-.29-.29v-5.02ZM403.3,76.81c.57,0,.92-.4.92-.87,0-.52-.35-.87-.92-.87h-1.5v1.75h1.5Z"/>
    </g>
  </g>
</svg>