<?xml version="1.0" encoding="utf-8"?>
<!-- Generator: Adobe Illustrator 27.4.1, SVG Export Plug-In . SVG Version: 6.00 Build 0)  -->
<svg version="1.1" id="Ebene_1" xmlns="http://www.w3.org/2000/svg" xmlns:xlink="http://www.w3.org/1999/xlink" x="0px" y="0px"
	 viewBox="0 0 845.04 432" style="enable-background:new 0 0 845.04 432;" xml:space="preserve">
<style type="text/css">
	.st0{fill:#CE1E1E;}
	.st1{fill:#FFFFFF;}
</style>
<rect class="st0" width="845.04" height="432"/>
<g>
	<g>
		<polygon class="st1" points="211.47,78.09 159.68,77.93 80.54,335.82 205.23,335.52 217.38,297.32 145.19,297.32 		"/>
		<path class="st1" d="M743.06,145.24c-11.46-7.08-24.94-8.92-35.86-8.92c-12.5,0-26.05,2.45-39.2,7.11
			c-27.87,9.86-43.86,35.71-47.31,56.97c-5.17,25.62,13.05,35.14,34.11,46.18c8.99,4.73,18.29,9.59,25.08,15.93
			c4.62,4.8,6.27,11.8,4.72,19.85c-1.44,6.77-5.27,14.25-11.16,19.48c-2.88,2.55-5.96,4.73-10.1,5.63c-1.78,0.4-3.57,0.53-5.14,0.53
			c-2.09,0-3.8-0.23-4.57-0.37c-3.79-0.67-7.6-2.52-9.43-4.93c-1.83-2.38-2.54-4.83-2.89-7.41c-0.95-6.54,1.5-13.58,3.68-19.85
			l-50.05-0.27c-5.64,21.13-4.33,36.45,3.92,45.54c13.78,14.22,34.78,17.2,49.96,17.2c16.29,0,28.07-1.88,42.42-6.97
			c29.88-10.59,44.37-40.35,46.83-63.25s-22.21-36.22-37.95-44.97c-10.39-5.77-19.66-10.33-24.39-18.11
			c-2.42-3.96-4.08-9.66-3.29-14.99c0.82-5.33,3.04-9.12,5.52-12.54c3.16-4.43,7.08-6.77,11.05-8.46c1.45-0.61,4.32-1.27,6.23-1.27
			c2.34,0,4.72,0.55,6.94,1.57c3.72,1.71,6.52,4.86,7.53,8.84c1.58,6.27-0.82,12.81-2.54,18.17h49.72
			c1.49-4.63,3.16-11.07,3.62-17.91c0.39-6.14-0.19-12.11-3.13-18.11C754.5,153.93,748.63,148.73,743.06,145.24z"/>
		<polygon class="st1" points="635.65,90.96 586.75,90.92 575.82,125.36 625.04,125.33 		"/>
		<polygon class="st1" points="570.94,141.29 509.99,335.35 559.87,335.35 620.52,141.29 		"/>
	</g>
	<path class="st1" d="M551.57,141.25h-49.58l-43.38,138.12c-5.82,16.52-17.73,25.06-32.56,25.06c-19.48,0-16.9-15.12-15.3-20.52
		l44.44-142.62h-47.33c0,0-29.26,92.25-44.16,141.71c-3.54,12.17-4.17,22.4-1.9,31.22c2.81,8.82,9.56,16.47,17.16,19.38
		c4.25,1.91,9.48,2.85,15.59,2.85c15.43,0,24.26-0.41,50.79-14.8l-4.29,13.66h5.47l-0.01,0.03h44.38l0.01-0.03h0.03L551.57,141.25z"
		/>
	<path class="st1" d="M366.51,223.64l1.25-4.42c4.34-15.38,9.16-32.44,4.67-47.62c-0.94-3.22-2.49-6.43-4.48-9.35
		c-2.55-3.75-6.21-7.17-9.88-9.89c-14.47-10.72-32.84-13.3-47.04-13.3c-8.93,0-18.17,1.04-27.42,3.05
		c-40.58,9.94-57.35,46.34-69.52,85.38c-1.66,5.63-3.32,11.09-5.16,17.09c-4.15,13.5-8.06,26.34-11.96,41.35l39,0.03l-13.73,44.13
		c1.04,0.6,3.74,2.04,7.42,3.18c3.41,1.07,5.46,1.61,8,2.14c8.31,1.74,17.06,2.61,25.62,2.61c19.41,0,36.98-4.38,50.76-12.38
		c9.93-5.77,17.9-14.34,23.63-24.29c10.19-17.69,16.37-37.78,22.37-57.32C362.08,237.34,364.23,230.4,366.51,223.64z M324.77,199.24
		c-0.35,1.34-0.66,2.58-0.94,3.75l-26.78,83.97c-4.19,10.89-9.5,18.13-15.81,21.68c-2.06,1.17-6.4,2.78-10.87,3.42
		c-0.94,0.13-1.92,0.2-2.89,0.2c-4.5,0-8.78-1.24-12.29-2.75c-3.08-1.31-5.51-3.22-7.2-5.96c-4.5-7.27-1.96-16.99-0.22-23.82
		l0.66-2.55c1.7-5.53,3.36-10.89,5.02-16.25l0.42-1.34c7.44-24.06,15.12-48.96,24.06-72.75c5.37-10.92,12.14-17.69,19.69-20.51
		c2.6-0.98,5.44-1.36,8.36-1.36c0.97,0,1.95,0.04,2.93,0.12c3.22,0.27,6.63,1.34,9.37,2.75c3.01,1.58,4.77,3.32,6.23,5.6
		C329.47,181.31,326.82,191.5,324.77,199.24z"/>
</g>
</svg>
