<?xml version="1.0" encoding="utf-8"?>
<!-- Generator: Adobe Illustrator 28.1.0, SVG Export Plug-In . SVG Version: 6.00 Build 0)  -->
<svg version="1.1" id="Logo" xmlns="http://www.w3.org/2000/svg" xmlns:xlink="http://www.w3.org/1999/xlink" x="0px" y="0px"
	 viewBox="0 0 197.2 20" style="enable-background:new 0 0 197.2 20;" xml:space="preserve">
<style type="text/css">
	.st0{fill:#19374B;}
	.st1{fill:#4B7D9B;}
</style>
<g>
	<g>
		<path class="st0" d="M0,19.5L3.2,0.6h4.9l3.8,10.1l3.8-10.1h4.9l3.2,18.9h-4.9L17.2,8.6l-4.5,10.9h-1.9L6.5,8.6L4.9,19.5H0z"/>
		<path class="st0" d="M24.9,10c0-1.4,0.3-2.7,0.8-3.9c0.5-1.2,1.2-2.3,2.2-3.2s2-1.6,3.3-2.1c1.2-0.5,2.6-0.8,4.2-0.8
			c1.5,0,2.9,0.3,4.2,0.8S42,2,42.9,2.9c0.9,0.9,1.7,2,2.2,3.2s0.8,2.5,0.8,3.9s-0.3,2.7-0.8,3.9c-0.5,1.2-1.2,2.3-2.2,3.2
			c-0.9,0.9-2,1.6-3.3,2.1c-1.3,0.5-2.7,0.8-4.2,0.8c-1.5,0-3-0.3-4.2-0.8c-1.3-0.5-2.4-1.2-3.3-2.1c-0.9-0.9-1.6-2-2.2-3.2
			C25.2,12.8,24.9,11.4,24.9,10z M30,10c0,0.8,0.1,1.4,0.4,2.1c0.3,0.6,0.7,1.2,1.2,1.7s1,0.8,1.7,1.1c0.6,0.3,1.3,0.4,2.1,0.4
			c0.7,0,1.4-0.1,2.1-0.4c0.6-0.3,1.2-0.6,1.7-1.1c0.5-0.5,0.9-1,1.2-1.7c0.3-0.6,0.4-1.3,0.4-2.1c0-0.8-0.1-1.4-0.4-2.1
			c-0.3-0.6-0.7-1.2-1.2-1.7c-0.5-0.5-1.1-0.8-1.7-1.1s-1.3-0.4-2.1-0.4s-1.4,0.1-2.1,0.4s-1.2,0.6-1.7,1.1s-0.9,1-1.2,1.7
			C30.2,8.6,30,9.3,30,10z"/>
		<path class="st0" d="M57.9,8.9h9.7c0,1,0,1.9-0.1,2.7c-0.1,0.8-0.3,1.6-0.5,2.3c-0.3,1-0.8,1.9-1.4,2.6c-0.6,0.8-1.3,1.4-2.1,1.9
			c-0.8,0.5-1.7,0.9-2.7,1.2c-1,0.3-2,0.4-3.1,0.4c-1.5,0-2.8-0.3-4-0.7c-1.2-0.5-2.3-1.2-3.1-2.1c-0.9-0.9-1.5-1.9-2-3.2
			c-0.5-1.2-0.7-2.6-0.7-4.1c0-1.5,0.2-2.8,0.7-4.1c0.5-1.2,1.2-2.3,2-3.2c0.9-0.9,1.9-1.5,3.2-2S56.3,0,57.9,0c2,0,3.7,0.4,5.2,1.3
			c1.5,0.8,2.7,2.2,3.5,4l-4.7,1.9c-0.4-1-1-1.8-1.7-2.2c-0.7-0.5-1.5-0.7-2.4-0.7c-0.7,0-1.4,0.1-2,0.4c-0.6,0.3-1.1,0.7-1.5,1.2
			s-0.8,1.1-1,1.8c-0.3,0.7-0.4,1.5-0.4,2.4c0,0.8,0.1,1.5,0.3,2.2c0.2,0.7,0.5,1.3,0.9,1.8c0.4,0.5,0.9,0.9,1.5,1.2
			c0.6,0.3,1.3,0.4,2.2,0.4c0.5,0,1-0.1,1.4-0.2c0.5-0.1,0.8-0.3,1.2-0.5c0.4-0.3,0.6-0.6,0.9-0.9c0.2-0.4,0.4-0.8,0.5-1.4h-4
			L57.9,8.9L57.9,8.9z"/>
		<path class="st0" d="M73.2,0.6l3.3,12.2l4-12.2h3.9l4,12.2l3.3-12.2h5.2l-5.6,18.9h-5l-3.7-11l-3.7,11h-5L68.1,0.6L73.2,0.6z"/>
		<path class="st0" d="M108.2,16.2h-7l-1.1,3.3h-5.2L102,0.6h5.4l7.2,18.9h-5.2L108.2,16.2z M106.9,12.5l-2.2-6.3l-2.2,6.3H106.9z"
			/>
		<path class="st0" d="M121.5,0.6v18.9h-4.9V0.6H121.5z"/>
	</g>
	<g>
		<path class="st1" d="M138.4,0.6v14.7h5.9v4.2h-10.8V0.6H138.4z"/>
		<path class="st1" d="M158.8,16.2h-7l-1.1,3.3h-5.2l7.2-18.9h5.4l7.2,18.9H160L158.8,16.2z M157.5,12.5l-2.2-6.3l-2.2,6.3H157.5z"
			/>
		<path class="st1" d="M167.2,0.6h7.3c1.7,0,3.1,0.4,4,1.3c0.9,0.8,1.4,2,1.4,3.6c0,1-0.2,1.7-0.5,2.4c-0.3,0.6-0.9,1.2-1.6,1.6
			c0.7,0.1,1.3,0.3,1.8,0.6c0.5,0.3,0.9,0.6,1.2,1c0.3,0.4,0.5,0.8,0.7,1.4c0.1,0.5,0.2,1,0.2,1.6c0,0.9-0.1,1.7-0.5,2.4
			c-0.3,0.7-0.7,1.3-1.3,1.7c-0.6,0.5-1.2,0.8-2.1,1c-0.8,0.2-1.7,0.3-2.7,0.3h-7.9L167.2,0.6L167.2,0.6z M172.1,8h0.9
			c1.5,0,2.3-0.6,2.3-1.8s-0.8-1.8-2.3-1.8h-0.9V8z M172.1,15.7h1.1c1.2,0,2.1-0.2,2.6-0.5c0.5-0.3,0.8-0.8,0.8-1.5
			s-0.3-1.2-0.8-1.5c-0.5-0.3-1.4-0.5-2.6-0.5h-1.1V15.7z"/>
		<path class="st1" d="M194.5,5.4c-0.5-0.4-1.1-0.8-1.6-1c-0.5-0.2-1-0.3-1.5-0.3c-0.6,0-1.2,0.1-1.5,0.5c-0.4,0.3-0.6,0.7-0.6,1.2
			c0,0.3,0.1,0.6,0.3,0.8c0.2,0.2,0.5,0.4,0.8,0.6c0.3,0.2,0.7,0.3,1.1,0.4c0.4,0.1,0.8,0.3,1.2,0.4c1.6,0.5,2.8,1.2,3.5,2.1
			c0.7,0.9,1.1,2.1,1.1,3.5c0,1-0.2,1.9-0.5,2.6c-0.3,0.8-0.8,1.5-1.4,2c-0.6,0.6-1.4,1-2.3,1.3c-0.9,0.3-1.9,0.5-3.1,0.5
			c-2.4,0-4.6-0.7-6.6-2.1l2.1-4c0.7,0.6,1.5,1.1,2.2,1.5c0.7,0.3,1.4,0.5,2.1,0.5c0.8,0,1.4-0.2,1.8-0.6c0.4-0.4,0.6-0.8,0.6-1.3
			c0-0.3-0.1-0.5-0.1-0.7c-0.1-0.2-0.3-0.4-0.5-0.6c-0.2-0.2-0.5-0.3-0.9-0.5c-0.4-0.1-0.8-0.3-1.4-0.5c-0.6-0.2-1.3-0.4-1.9-0.7
			c-0.6-0.3-1.2-0.6-1.6-1c-0.5-0.4-0.9-0.9-1.2-1.5c-0.3-0.6-0.5-1.4-0.5-2.3s0.1-1.8,0.5-2.5s0.7-1.4,1.3-1.9
			c0.6-0.5,1.2-1,2.1-1.3c0.8-0.3,1.7-0.5,2.7-0.5c0.9,0,1.9,0.1,2.9,0.4c1,0.3,2,0.6,2.9,1.2L194.5,5.4z"/>
	</g>
</g>
</svg>
