<?xml version="1.0" encoding="utf-8"?>
<!-- Generator: Adobe Illustrator 15.1.0, SVG Export Plug-In . SVG Version: 6.00 Build 0)  -->
<!DOCTYPE svg PUBLIC "-//W3C//DTD SVG 1.1//EN" "http://www.w3.org/Graphics/SVG/1.1/DTD/svg11.dtd">
<svg version="1.1" id="Ebene_1" xmlns="http://www.w3.org/2000/svg" xmlns:xlink="http://www.w3.org/1999/xlink" x="0px" y="0px"
	 width="595.28px" height="419.53px" viewBox="0 0 595.28 419.53" enable-background="new 0 0 595.28 419.53" xml:space="preserve">
<g>
	<path fill="#405C7A" d="M79.414,101.876V55.324c0-5.193-1.072-5.37-5.551-5.37H45.037c-4.477,0-5.551,0.177-5.551,5.37v51.925
		h34.377C78.342,107.249,79.414,107.069,79.414,101.876 M81.205,127.839H39.486v30.439c0,3.758-1.611,5.371-5.369,5.371H23.371
		c-3.758,0-5.369-1.613-5.369-5.371V48.342c0-15.936,6.267-18.979,19.693-18.979h43.51c13.432,0,19.695,3.043,19.695,18.979v60.516
		C100.9,124.795,94.637,127.839,81.205,127.839"/>
	<path fill="#405C7A" d="M183.613,127.839h-43.51c-13.426,0-19.695-3.044-19.695-18.981V34.734c0-3.761,1.613-5.371,5.371-5.371
		h10.744c3.76,0,5.371,1.61,5.371,5.371v67.142c0,5.193,1.073,5.373,5.549,5.373h28.828c4.477,0,5.551-0.18,5.551-5.373V34.734
		c0-3.761,1.611-5.371,5.375-5.371h10.74c3.758,0,5.369,1.61,5.369,5.371v74.124C203.306,124.795,197.043,127.839,183.613,127.839"
		/>
	<path fill="#405C7A" d="M244.482,122.469c0,3.758-1.613,5.37-5.371,5.37h-10.746c-3.758,0-5.369-1.612-5.369-5.37V48.342
		c0-15.936,6.267-18.979,19.693-18.979h34.916c3.758,0,5.371,1.61,5.371,5.371v9.847c0,3.761-1.613,5.373-5.371,5.373h-27.574
		c-4.477,0-5.549,0.177-5.549,5.37V122.469z"/>
	<path fill="#405C7A" d="M356.916,63.741v-8.417c0-5.193-1.072-5.37-5.551-5.37h-28.826c-4.473,0-5.551,0.177-5.551,5.37v13.787
		h34.377C355.844,69.111,356.916,68.932,356.916,63.741 M374.465,122.469c0,3.758-1.613,5.37-5.371,5.37h-53.891
		c-13.432,0-19.699-3.044-19.699-18.981V48.342c0-15.936,6.268-18.979,19.699-18.979h43.504c13.432,0,19.695,3.043,19.695,18.979
		v22.381c0,15.936-6.264,18.978-19.695,18.978h-41.719v12.175c0,5.194,1.078,5.373,5.551,5.373h46.555
		c3.758,0,5.371,1.609,5.371,5.37V122.469z"/>
	<path fill="#405C7A" d="M178.603,248.167c0,2.315-1.089,3.406-3.406,3.406h-4.767c-2.316,0-3.406-1.091-3.406-3.406v-91.553
		c0-2.314,1.09-3.406,3.406-3.406h4.767c2.317,0,3.406,1.092,3.406,3.406V248.167z"/>
	<path fill="#405C7A" d="M251.647,251.572h-37.74c-10.218,0-14.985-2.315-14.985-14.441v-11.444c0-2.315,1.09-3.406,3.407-3.406
		h4.766c2.317,0,3.406,1.091,3.406,3.406v9.537c0,3.952,0.818,5.451,5.588,5.451h33.375c4.771,0,5.589-1.499,5.589-5.451v-21.796
		c0-3.953-0.818-5.451-5.589-5.451h-35.691c-10.218,0-14.988-2.315-14.988-14.441v-25.886c0-12.125,4.77-14.441,14.988-14.441
		h37.736c10.218,0,14.988,2.316,14.988,14.441v11.445c0,2.316-1.093,3.406-3.406,3.406h-4.77c-2.316,0-3.405-1.09-3.405-3.406
		v-9.537c0-3.949-0.819-5.448-5.585-5.448h-33.379c-4.77,0-5.585,1.499-5.585,5.448v22.071c0,3.952,0.815,5.451,5.585,5.451h35.695
		c10.217,0,14.984,2.315,14.984,14.44v25.611C266.631,249.257,261.864,251.572,251.647,251.572"/>
	<path fill="#405C7A" d="M373.057,248.167c0,2.315-1.09,3.406-3.406,3.406h-4.768c-2.315,0-3.405-1.091-3.405-3.406v-79.425
		l-23.297,79.562c-0.682,2.317-1.908,3.27-4.359,3.27h-6.812c-2.453,0-3.681-0.952-4.361-3.27l-24.25-79.837v79.7
		c0,2.315-1.09,3.406-3.406,3.406h-4.767c-2.316,0-3.406-1.091-3.406-3.406v-91.553c0-2.314,1.09-3.406,3.406-3.406h11.58
		c2.453,0,3.677,0.955,4.36,3.271l24.25,77.518l23.295-77.518c0.682-2.316,1.908-3.271,4.362-3.271h11.578
		c2.316,0,3.406,1.092,3.406,3.406V248.167z"/>
	<path fill="none" stroke="#C7CD00" stroke-width="10.609" stroke-linecap="round" stroke-linejoin="round" d="M563.775,206.681
		c0,0-3.285,35.903-39.63,54.158c-22.243,11.173-44.832,9.685-65.413,0.171c-22.117-10.225-35.994-33.096-39.823-55.095
		c-4.62-26.552,10.579-49.316,10.579-49.316"/>
	<path fill="none" stroke="#C7CD00" stroke-width="7.949" stroke-linecap="round" stroke-linejoin="round" d="M437.612,191.226
		c0,0-1.31-15.901,12.347-32.738c11.862-14.624,29.559-21.7,48.639-19.455c19.917,2.343,33.061,13.013,41.156,26.564
		c17.772,29.745,0.748,55,0.748,55"/>
	<path fill="none" stroke="#C7CD00" stroke-width="5.299" stroke-linecap="round" stroke-linejoin="round" d="M527.248,208.824
		c0,0-6.229,18.748-25.901,23.935c-15.971,4.211-32.277-3.24-40.379-15.398c-7.9-11.857-9.091-23.798-3.9-35.867
		c8.325-19.351,25.684-22.604,25.684-22.604"/>
	<path fill="#C7CD00" d="M506.579,153.454c7.113,0,12.88-5.767,12.88-12.881c0-7.113-5.767-12.88-12.88-12.88
		c-7.114,0-12.88,5.767-12.88,12.88C493.699,147.687,499.465,153.454,506.579,153.454"/>
	<path fill="#C7CD00" d="M462.943,274.374c7.113,0,12.88-5.767,12.88-12.881c0-7.113-5.767-12.88-12.88-12.88
		c-7.114,0-12.881,5.767-12.881,12.88C450.062,268.607,455.829,274.374,462.943,274.374"/>
	<path fill="#405C7A" d="M566.769,309.563c0.164-0.487-0.041-0.773-0.569-0.773h-1.138c-0.569,0-0.855,0.204-1.058,0.773
		l-6.059,17.689l-6.223-17.689c-0.204-0.569-0.487-0.773-1.058-0.773h-1.302c-0.527,0-0.731,0.286-0.569,0.773l7.849,21.593
		l-2.48,7.361c-0.161,0.487,0.041,0.772,0.569,0.772h0.896c0.569,0,0.854-0.203,1.057-0.772L566.769,309.563z M546.111,329.448
		c0-0.569-0.244-0.813-0.813-0.813h-3.375c-1.627,0-1.871-0.649-1.871-1.829v-15.453h5.246c0.569,0,0.813-0.244,0.813-0.813v-0.935
		c0-0.57-0.244-0.814-0.813-0.814h-5.246v-7.562c0-0.57-0.244-0.813-0.813-0.813h-1.138c-0.57,0-0.814,0.243-0.814,0.813v7.562
		h-2.888c-0.568,0-0.812,0.244-0.812,0.814v0.935c0,0.569,0.244,0.813,0.812,0.813h2.888v15.493c0,3.619,1.423,4.311,4.473,4.311
		h3.539c0.569,0,0.813-0.244,0.813-0.812V329.448z M528.746,302.61c0-0.569-0.244-0.813-0.812-0.813h-1.1
		c-0.568,0-0.812,0.244-0.812,0.813v0.935c0,0.569,0.244,0.813,0.812,0.813h1.1c0.568,0,0.812-0.244,0.812-0.813V302.61z
		 M528.746,309.604c0-0.57-0.244-0.814-0.812-0.814h-5.776c-0.568,0-0.812,0.244-0.812,0.814v0.935c0,0.569,0.244,0.813,0.812,0.813
		h3.864v18.991c0,0.568,0.244,0.812,0.812,0.812h1.1c0.568,0,0.812-0.244,0.812-0.812V309.604z M507.966,313.183
		c0-1.179,0.244-1.83,1.871-1.83h8.173c0.569,0,0.813-0.244,0.813-0.813v-0.935c0-0.57-0.244-0.814-0.813-0.814h-8.337
		c-3.049,0-4.473,0.692-4.473,4.312v17.241c0,0.568,0.244,0.812,0.813,0.812h1.139c0.569,0,0.813-0.244,0.813-0.812V313.183z
		 M498.734,326.846v-17.241c0-0.57-0.244-0.814-0.813-0.814h-1.098c-0.568,0-0.812,0.244-0.812,0.814v17.201
		c0,1.18-0.245,1.829-1.871,1.829h-9.597c-1.628,0-1.871-0.649-1.871-1.829v-17.201c0-0.57-0.244-0.814-0.813-0.814h-1.14
		c-0.568,0-0.812,0.244-0.812,0.814v17.241c0,3.619,1.423,4.311,4.474,4.311h9.882C497.312,331.156,498.734,330.465,498.734,326.846
		 M474.579,329.448c0-0.569-0.244-0.813-0.813-0.813h-11.264c-1.627,0-1.871-0.649-1.871-1.829v-13.623
		c0-1.179,0.244-1.83,1.871-1.83h11.264c0.569,0,0.813-0.244,0.813-0.813v-0.935c0-0.57-0.244-0.814-0.813-0.814h-11.428
		c-3.05,0-4.473,0.692-4.473,4.312v13.743c0,3.619,1.423,4.311,4.473,4.311h11.428c0.569,0,0.813-0.244,0.813-0.812V329.448z
		 M447.454,319.973h-11.467v-6.79c0-1.179,0.243-1.83,1.87-1.83h9.597c1.627,0,1.871,0.651,1.871,1.83v4.962
		C449.325,319.324,449.081,319.973,447.454,319.973 M451.154,329.448c0-0.569-0.244-0.813-0.812-0.813h-10.41
		c-3.335,0-3.944-0.041-3.944-1.829v-4.312h11.589c3.051,0,4.474-0.691,4.474-4.311v-5.081c0-3.62-1.423-4.312-4.474-4.312h-9.881
		c-3.051,0-4.473,0.692-4.473,4.312v13.743c0,3.619,1.422,4.311,4.473,4.311h12.646c0.568,0,0.812-0.244,0.812-0.812V329.448z
		 M427.529,326.846v-3.863c0-3.619-1.423-4.311-4.473-4.311h-8.785c-1.504,0-1.748-0.731-1.748-1.83v-3.659
		c0-1.179,0.244-1.83,1.87-1.83h11.306c0.568,0,0.813-0.244,0.813-0.813v-0.935c0-0.57-0.245-0.814-0.813-0.814h-11.428
		c-3.049,0-4.473,0.692-4.473,4.312v3.78c0,3.619,1.424,4.311,4.473,4.311h8.621c1.627,0,1.871,0.65,1.871,1.83v3.782
		c0,1.18-0.244,1.829-1.871,1.829h-11.345c-0.569,0-0.813,0.244-0.813,0.813v0.896c0,0.568,0.244,0.812,0.813,0.812h11.509
		C426.106,331.156,427.529,330.465,427.529,326.846 M394.306,313.103c0-3.62-1.424-4.312-4.474-4.312h-9.882
		c-3.05,0-4.474,0.692-4.474,4.312v17.241c0,0.568,0.244,0.812,0.814,0.812h1.138c0.569,0,0.813-0.244,0.813-0.812v-17.161
		c0-1.179,0.244-1.83,1.871-1.83h9.597c1.626,0,1.87,0.651,1.87,1.83v17.161c0,0.568,0.245,0.812,0.813,0.812h1.099
		c0.569,0,0.813-0.244,0.813-0.812V313.103z M364.457,328.635h-9.598c-1.627,0-1.871-0.649-1.871-1.829v-13.623
		c0-1.179,0.244-1.83,1.871-1.83h9.598c1.626,0,1.869,0.651,1.869,1.83v13.623C366.326,327.985,366.083,328.635,364.457,328.635
		 M369.053,326.846v-13.743c0-3.62-1.424-4.312-4.475-4.312h-9.882c-3.05,0-4.473,0.692-4.473,4.312v13.743
		c0,3.619,1.423,4.311,4.473,4.311h9.882C367.629,331.156,369.053,330.465,369.053,326.846 M343.756,302.61
		c0-0.569-0.243-0.813-0.812-0.813h-1.098c-0.569,0-0.813,0.244-0.813,0.813v0.935c0,0.569,0.244,0.813,0.813,0.813h1.098
		c0.569,0,0.812-0.244,0.812-0.813V302.61z M343.756,309.604c0-0.57-0.243-0.814-0.812-0.814h-5.774
		c-0.569,0-0.813,0.244-0.813,0.814v0.935c0,0.569,0.244,0.813,0.813,0.813h3.863v18.991c0,0.568,0.244,0.812,0.813,0.812h1.098
		c0.569,0,0.812-0.244,0.812-0.812V309.604z M333.835,329.448c0-0.569-0.244-0.813-0.813-0.813h-3.376
		c-1.626,0-1.87-0.649-1.87-1.829v-15.453h5.246c0.569,0,0.813-0.244,0.813-0.813v-0.935c0-0.57-0.244-0.814-0.813-0.814h-5.246
		v-7.562c0-0.57-0.243-0.813-0.812-0.813h-1.14c-0.569,0-0.812,0.243-0.812,0.813v7.562h-2.888c-0.569,0-0.813,0.244-0.813,0.814
		v0.935c0,0.569,0.244,0.813,0.813,0.813h2.888v15.493c0,3.619,1.423,4.311,4.474,4.311h3.537c0.569,0,0.813-0.244,0.813-0.812
		V329.448z M311.957,328.635h-9.599c-1.626,0-1.87-0.649-1.87-1.829v-5.246c0-1.18,0.244-1.831,1.87-1.831h11.47v7.077
		C313.828,327.985,313.584,328.635,311.957,328.635 M316.552,326.846v-13.743c0-3.62-1.423-4.312-4.473-4.312h-13.095
		c-0.57,0-0.814,0.244-0.814,0.814v0.935c0,0.569,0.244,0.813,0.814,0.813h12.973c1.627,0,1.871,0.651,1.871,1.83v3.986h-11.631
		c-3.051,0-4.474,0.69-4.474,4.309v5.368c0,3.619,1.423,4.311,4.474,4.311h9.882C315.129,331.156,316.552,330.465,316.552,326.846
		 M291.745,313.103c0-3.62-1.423-4.312-4.472-4.312h-7.564c-1.586,0-2.726,0.204-3.457,1.669c-0.732-1.465-1.913-1.669-3.458-1.669
		h-7.686c-3.05,0-4.473,0.692-4.473,4.312v17.241c0,0.568,0.244,0.812,0.813,0.812h1.138c0.57,0,0.814-0.244,0.814-0.812v-17.161
		c0-1.179,0.244-1.83,1.87-1.83h7.767c1.627,0,1.871,0.651,1.871,1.83v17.161c0,0.568,0.244,0.812,0.813,0.812h1.099
		c0.569,0,0.813-0.244,0.813-0.812v-17.161c0-1.179,0.244-1.83,1.87-1.83h7.646c1.626,0,1.87,0.651,1.87,1.83v17.161
		c0,0.568,0.244,0.812,0.813,0.812h1.098c0.569,0,0.813-0.244,0.813-0.812V313.103z M245.426,313.183c0-1.179,0.244-1.83,1.87-1.83
		h8.174c0.57,0,0.814-0.244,0.814-0.813v-0.935c0-0.57-0.244-0.814-0.814-0.814h-8.336c-3.051,0-4.474,0.692-4.474,4.312v17.241
		c0,0.568,0.244,0.812,0.813,0.812h1.139c0.569,0,0.813-0.244,0.813-0.812V313.183z M231.642,328.635h-9.598
		c-1.626,0-1.87-0.649-1.87-1.829v-13.623c0-1.179,0.244-1.83,1.87-1.83h9.598c1.626,0,1.87,0.651,1.87,1.83v13.623
		C233.511,327.985,233.268,328.635,231.642,328.635 M236.236,326.846v-13.743c0-3.62-1.423-4.312-4.474-4.312h-9.881
		c-3.051,0-4.474,0.692-4.474,4.312v13.743c0,3.619,1.423,4.311,4.474,4.311h9.881C234.813,331.156,236.236,330.465,236.236,326.846
		 M205.33,311.312h6.913c0.569,0,0.813-0.244,0.813-0.812v-0.895c0-0.57-0.244-0.814-0.813-0.814h-6.913v-5.773
		c0-1.18,0.244-1.83,1.87-1.83h5.043c0.569,0,0.813-0.244,0.813-0.813v-0.936c0-0.569-0.244-0.813-0.813-0.813h-5.165
		c-3.049,0-4.473,0.691-4.473,4.311v5.855h-2.887c-0.57,0-0.814,0.244-0.814,0.814v0.895c0,0.568,0.245,0.812,0.814,0.812h2.887
		v19.032c0,0.568,0.244,0.812,0.814,0.812h1.098c0.569,0,0.813-0.244,0.813-0.812V311.312z M194.106,313.103
		c0-3.62-1.423-4.312-4.474-4.312h-9.881c-3.05,0-4.474,0.692-4.474,4.312v17.241c0,0.568,0.245,0.812,0.814,0.812h1.139
		c0.569,0,0.813-0.244,0.813-0.812v-17.161c0-1.179,0.245-1.83,1.871-1.83h9.597c1.627,0,1.871,0.651,1.871,1.83v17.161
		c0,0.568,0.244,0.812,0.813,0.812h1.098c0.569,0,0.813-0.244,0.813-0.812V313.103z M168.446,302.61
		c0-0.569-0.244-0.813-0.813-0.813h-1.139c-0.569,0-0.813,0.244-0.813,0.813v27.733c0,0.568,0.244,0.812,0.813,0.812h1.139
		c0.569,0,0.813-0.244,0.813-0.812V302.61z"/>
	<path fill="#405C7A" d="M460.273,384.484v-3.863c0-3.619-1.423-4.311-4.474-4.311h-8.783c-1.505,0-1.749-0.732-1.749-1.83v-3.661
		c0-1.179,0.244-1.829,1.871-1.829h11.305c0.57,0,0.813-0.244,0.813-0.814v-0.935c0-0.569-0.243-0.813-0.813-0.813h-11.427
		c-3.05,0-4.474,0.691-4.474,4.311v3.782c0,3.619,1.424,4.312,4.474,4.312h8.621c1.626,0,1.87,0.649,1.87,1.828v3.783
		c0,1.18-0.244,1.83-1.87,1.83h-11.346c-0.569,0-0.813,0.244-0.813,0.813v0.894c0,0.57,0.244,0.814,0.813,0.814H455.8
		C458.851,388.795,460.273,388.103,460.273,384.484 M432.783,377.611h-11.468v-6.792c0-1.179,0.243-1.829,1.871-1.829h9.597
		c1.627,0,1.871,0.65,1.871,1.829v4.962C434.654,376.96,434.41,377.611,432.783,377.611 M436.484,387.087
		c0-0.569-0.244-0.813-0.813-0.813H425.26c-3.335,0-3.944-0.041-3.944-1.83v-4.311h11.591c3.049,0,4.473-0.691,4.473-4.312v-5.083
		c0-3.619-1.424-4.311-4.473-4.311h-9.883c-3.05,0-4.474,0.691-4.474,4.311v13.746c0,3.618,1.424,4.311,4.474,4.311h12.647
		c0.569,0,0.813-0.244,0.813-0.814V387.087z M414.199,387.087c0-0.569-0.244-0.813-0.813-0.813h-3.375
		c-1.627,0-1.871-0.65-1.871-1.83v-27.367c0-0.569-0.244-0.813-0.813-0.813h-1.138c-0.57,0-0.814,0.244-0.814,0.813v27.408
		c0,3.618,1.424,4.311,4.474,4.311h3.538c0.569,0,0.813-0.244,0.813-0.814V387.087z M394.354,386.273h-9.599
		c-1.626,0-1.87-0.65-1.87-1.83V368.99h11.469c1.626,0,1.87,0.65,1.87,1.829v13.624C396.225,385.623,395.98,386.273,394.354,386.273
		 M398.949,384.484v-13.746c0-3.619-1.423-4.311-4.474-4.311h-11.59v-9.352c0-0.569-0.243-0.813-0.812-0.813h-1.14
		c-0.569,0-0.812,0.244-0.812,0.813v27.408c0,3.618,1.423,4.311,4.474,4.311h9.881C397.526,388.795,398.949,388.103,398.949,384.484
		 M369.101,386.273h-9.597c-1.627,0-1.871-0.65-1.871-1.83v-5.245c0-1.181,0.244-1.831,1.871-1.831h11.467v7.076
		C370.971,385.623,370.727,386.273,369.101,386.273 M373.695,384.484v-13.746c0-3.619-1.423-4.311-4.473-4.311h-13.094
		c-0.57,0-0.814,0.244-0.814,0.813v0.935c0,0.57,0.244,0.814,0.814,0.814h12.972c1.626,0,1.87,0.65,1.87,1.829v3.986H359.34
		c-3.05,0-4.473,0.69-4.473,4.31v5.369c0,3.618,1.423,4.311,4.473,4.311h9.883C372.272,388.795,373.695,388.103,373.695,384.484
		 M350.435,367.201c0.121-0.529-0.081-0.814-0.61-0.814h-1.221c-0.569,0-0.853,0.204-0.976,0.772l-4.473,18.261l-4.229-18.261
		c-0.122-0.568-0.407-0.772-0.977-0.772h-1.869c-0.569,0-0.855,0.204-0.977,0.772l-4.271,18.261l-4.432-18.261
		c-0.122-0.568-0.406-0.772-0.976-0.772h-1.262c-0.528,0-0.731,0.285-0.609,0.814l5.571,20.779c0.163,0.57,0.447,0.773,1.017,0.773
		h1.505c0.569,0,0.854-0.203,0.977-0.773l4.392-17.892l4.474,17.892c0.122,0.57,0.406,0.773,0.976,0.773h1.505
		c0.568,0,0.854-0.203,1.017-0.773L350.435,367.201z M314.444,377.611h-11.467v-6.792c0-1.179,0.243-1.829,1.87-1.829h9.597
		c1.627,0,1.871,0.65,1.871,1.829v4.962C316.315,376.96,316.071,377.611,314.444,377.611 M318.145,387.087
		c0-0.569-0.244-0.813-0.812-0.813h-10.41c-3.335,0-3.944-0.041-3.944-1.83v-4.311h11.589c3.05,0,4.474-0.691,4.474-4.312v-5.083
		c0-3.619-1.424-4.311-4.474-4.311h-9.882c-3.05,0-4.474,0.691-4.474,4.311v13.746c0,3.618,1.424,4.311,4.474,4.311h12.647
		c0.568,0,0.812-0.244,0.812-0.814V387.087z M293.787,370.738c0-3.619-1.423-4.311-4.474-4.311h-9.882
		c-3.05,0-4.473,0.691-4.473,4.311v17.242c0,0.57,0.244,0.814,0.813,0.814h1.139c0.569,0,0.813-0.244,0.813-0.814v-17.161
		c0-1.179,0.244-1.829,1.87-1.829h9.598c1.627,0,1.871,0.65,1.871,1.829v17.161c0,0.57,0.244,0.814,0.813,0.814h1.098
		c0.569,0,0.813-0.244,0.813-0.814V370.738z M264.507,377.611h-11.468v-6.792c0-1.179,0.245-1.829,1.87-1.829h9.598
		c1.627,0,1.871,0.65,1.871,1.829v4.962C266.378,376.96,266.134,377.611,264.507,377.611 M268.207,387.087
		c0-0.569-0.244-0.813-0.813-0.813h-10.411c-3.334,0-3.944-0.041-3.944-1.83v-4.311h11.589c3.05,0,4.474-0.691,4.474-4.312v-5.083
		c0-3.619-1.423-4.311-4.474-4.311h-9.881c-3.05,0-4.474,0.691-4.474,4.311v13.746c0,3.618,1.424,4.311,4.474,4.311h12.646
		c0.569,0,0.813-0.244,0.813-0.814V387.087z M235.065,370.819c0-1.179,0.244-1.829,1.87-1.829h8.174
		c0.569,0,0.813-0.244,0.813-0.814v-0.935c0-0.569-0.244-0.813-0.813-0.813h-8.337c-3.049,0-4.472,0.691-4.472,4.311v17.242
		c0,0.57,0.244,0.814,0.813,0.814h1.138c0.57,0,0.814-0.244,0.814-0.814V370.819z M208.021,370.819c0-1.179,0.244-1.829,1.872-1.829
		h8.174c0.569,0,0.813-0.244,0.813-0.814v-0.935c0-0.569-0.245-0.813-0.813-0.813h-8.337c-3.05,0-4.474,0.691-4.474,4.311v17.242
		c0,0.57,0.245,0.814,0.814,0.814h1.139c0.569,0,0.813-0.244,0.813-0.814V370.819z M194.236,386.273h-9.597
		c-1.628,0-1.872-0.65-1.872-1.83v-13.624c0-1.179,0.244-1.829,1.872-1.829h9.597c1.626,0,1.871,0.65,1.871,1.829v13.624
		C196.106,385.623,195.862,386.273,194.236,386.273 M198.831,384.484v-13.746c0-3.619-1.424-4.311-4.473-4.311h-9.882
		c-3.051,0-4.474,0.691-4.474,4.311v13.746c0,3.618,1.423,4.311,4.474,4.311h9.882C197.407,388.795,198.831,388.103,198.831,384.484
		 M167.924,368.949h6.913c0.57,0,0.814-0.244,0.814-0.812v-0.896c0-0.569-0.245-0.813-0.814-0.813h-6.913v-5.774
		c0-1.179,0.244-1.83,1.871-1.83h5.042c0.57,0,0.814-0.244,0.814-0.813v-0.934c0-0.569-0.245-0.813-0.814-0.813h-5.165
		c-3.05,0-4.473,0.691-4.473,4.31v5.855h-2.887c-0.569,0-0.813,0.244-0.813,0.813v0.896c0,0.568,0.244,0.812,0.813,0.812h2.887
		v19.031c0,0.57,0.244,0.814,0.813,0.814h1.098c0.569,0,0.813-0.244,0.813-0.814V368.949z"/>
</g>
</svg>
