<?xml version="1.0" encoding="UTF-8" standalone="no"?>
<!-- Created with Inkscape (http://www.inkscape.org/) -->

<svg
   xmlns:dc="http://purl.org/dc/elements/1.1/"
   xmlns:cc="http://creativecommons.org/ns#"
   xmlns:rdf="http://www.w3.org/1999/02/22-rdf-syntax-ns#"
   xmlns:svg="http://www.w3.org/2000/svg"
   xmlns="http://www.w3.org/2000/svg"
   xmlns:sodipodi="http://sodipodi.sourceforge.net/DTD/sodipodi-0.dtd"
   xmlns:inkscape="http://www.inkscape.org/namespaces/inkscape"
   id="svg2"
   version="1.1"
   inkscape:version="0.91 r13725"
   xml:space="preserve"
   width="874.88751"
   height="56.549999"
   viewBox="0 0 874.88751 56.549999"
   sodipodi:docname="Schutzwerk_Logo_RZ.svg"><metadata
     id="metadata8"><rdf:RDF><cc:Work
         rdf:about=""><dc:format>image/svg+xml</dc:format><dc:type
           rdf:resource="http://purl.org/dc/dcmitype/StillImage" /><dc:title></dc:title></cc:Work></rdf:RDF></metadata><defs
     id="defs6" /><sodipodi:namedview
     pagecolor="#ffffff"
     bordercolor="#666666"
     borderopacity="1"
     objecttolerance="10"
     gridtolerance="10"
     guidetolerance="10"
     inkscape:pageopacity="0"
     inkscape:pageshadow="2"
     inkscape:window-width="1920"
     inkscape:window-height="1009"
     id="namedview4"
     showgrid="false"
     inkscape:zoom="0.838965"
     inkscape:cx="519.57197"
     inkscape:cy="-192.78202"
     inkscape:window-x="0"
     inkscape:window-y="24"
     inkscape:window-maximized="1"
     inkscape:current-layer="g10" /><g
     id="g10"
     inkscape:groupmode="layer"
     inkscape:label="ink_ext_XXXXXX"
     transform="matrix(1.25,0,0,-1.25,0,56.55)"><g
       id="g12"
       transform="scale(0.1,0.1)"><path
         d="m 2784.93,446.887 0,-122.223 c 0,0.008 0.01,0.016 0.01,0.024 l 0,-0.024 c 15.7,54.359 88.38,62.332 137.6,62.488 0.5,0 1.04,0.016 1.54,0.016 l 85.19,0 0,-287.2071 c -0.88,-45.2343 -7.56,-74.6015 -49.61,-90.04293 -2.88,-1.01563 -5.89,-1.99609 -9.1,-2.92578 l 252.66,0 c -3.22,0.92969 -6.22,1.91015 -9.1,2.92578 -42.05,15.44143 -48.73,44.80863 -49.61,90.04293 l 0,287.2071 85.19,0 c 0.5,0 1.04,-0.016 1.53,-0.016 49.23,-0.156 121.91,-8.129 137.61,-62.488 l 0,0.024 c 0,-0.008 0.01,-0.016 0.01,-0.024 l 0,122.223 -583.92,0"
         style="fill:#231f20;fill-opacity:1;fill-rule:nonzero;stroke:none"
         id="path14"
         inkscape:connector-curvature="0" /><path
         d="M 237.008,0 C 172.871,0 80.5078,8.53516 12.4219,20.7617 L 0.0507813,22.9805 0,136.504 l 0,0 C 10.8398,83.5352 145.699,57.2969 238.047,57.2969 c 84.887,0 129.312,24.8047 129.312,49.3051 0,34.238 -76.695,53.722 -150.836,72.539 C 115.035,204.863 0,234.078 0,315.289 c 0,87.145 94.0586,137.094 257.992,137.094 53.278,0 94.758,-5.445 131.356,-10.32 26.55,-3.473 51.629,-6.778 76.761,-7.297 l 15.184,-0.297 0.055,-111.563 0,0 c -14.461,44.586 -122.969,72.125 -220.2,72.125 -65.339,0 -114.609,-19.679 -114.609,-45.754 0,-30.574 73.387,-48.382 144.356,-65.648 C 399.336,257.309 522.281,227.441 522.281,135.91 522.281,52.0898 412.969,0 237.008,0 l 0,0"
         style="fill:#231f20;fill-opacity:1;fill-rule:nonzero;stroke:none"
         id="path16"
         inkscape:connector-curvature="0" /><path
         d="m 3445.41,6.99219 394.39,380.17581 -183.82,0 c -73.99,0 -144.85,-18.027 -159.05,-62.504 l 0,122.223 555.78,0 -393.47,-380.1565 169.41,0 c 102.37,0 175.84,1.2187 204.24,65.1955 l 0,-124.93381 -587.48,0"
         style="fill:#231f20;fill-opacity:1;fill-rule:nonzero;stroke:none"
         id="path18"
         inkscape:connector-curvature="0" /><path
         d="m 810.219,226.641 c -0.223,-6.899 0.683,-19.536 0.84,-22.965 3.152,-69.016 40.043,-146.1799 189.311,-146.1799 84.22,0 216.42,19.0234 238.1,84.6919 l 0,-115.2036 -12.9,-0.4883 C 1209.76,25.8359 1187.46,21.918 1161.62,17.4648 1116.88,9.69141 1061.21,0 1001.27,0 783.43,0 648.102,86.6797 648.102,226.184 c 0,139.519 135.328,226.199 353.168,226.199 59.94,0 115.61,-7.422 160.35,-15.195 25.84,-4.454 48.14,-8.368 63.95,-9.02 l 12.9,-0.492 0,-115.176 c -21.68,65.645 -153.88,82.387 -238.1,82.387 -149.448,0 -186.245,-77.356 -189.315,-146.43 -0.153,-3.34 -0.672,-16.57 -0.836,-21.816"
         style="fill:#231f20;fill-opacity:1;fill-rule:nonzero;stroke:none"
         id="path20"
         inkscape:connector-curvature="0" /><path
         d="m 2698.38,446.887 -199.46,0 c 46.04,-13.328 56.12,-46.285 58.18,-83.028 l 0,-197.031 c 0,-46.015 -16.92,-98.8007 -148.86,-98.8007 -102.34,0 -154.22,29.1719 -154.22,86.6607 l 0,209.171 c 1.08,41.477 8.98,68.692 58.53,83.028 l -251,0 c 54.91,-15.887 59.35,-33.805 59.35,-83.028 l 0,-220.148 C 2120.9,0 2316.38,0 2380.63,0 c 214.76,0 259.84,93.2734 259.84,171.465 l 0,192.394 c 2.65,34.336 13.73,70.243 57.91,83.028"
         style="fill:#231f20;fill-opacity:1;fill-rule:nonzero;stroke:none"
         id="path22"
         inkscape:connector-curvature="0" /><path
         d="m 1916.29,102.68 -0.08,0 0,248.179 c 0.74,43.457 7.67,81.305 58.63,96.028 l -245.61,0 0,0.023 -0.5,0 c 0.13,0 0.24,-0.023 0.38,-0.023 l -6.69,0 c 54.9,-15.86 58.71,-46.805 58.71,-96.028 l 0.14,0 0,-82.41 -233.25,0 0,82.41 0.09,0 c 0,49.223 3.81,80.168 58.71,96.028 l -245.78,0 0,0.023 -0.51,0 c 0.14,0 0.25,-0.023 0.39,-0.023 l -6.63,0 c 54.91,-15.86 58.71,-46.805 58.71,-96.028 l 0.05,0 0,-248.179 -0.05,0 c 0,-49.2269 -3.8,-79.8284 -58.71,-95.71516 l 252.3,0 C 1556.48,21.4648 1548.96,60.4414 1548.02,102.68 l 0,96.675 233.25,0 0,-96.675 -0.08,0 c 0,-49.2269 -3.81,-79.8284 -58.71,-95.71516 l 252.52,0 C 1920.1,22.8516 1916.29,53.4531 1916.29,102.68"
         style="fill:#231f20;fill-opacity:1;fill-rule:nonzero;stroke:none"
         id="path24"
         inkscape:connector-curvature="0" /><path
         d="m 4866.19,446.887 c 38.91,-15.93 30.1,-37.617 22.17,-50.657 l -154.26,-245.246 -77.77,117.524 70.8,111.074 c 13.44,17.41 38.92,58 79.88,67.305 l -122.77,0 -71.49,-112.539 -74.47,112.539 -202.58,0 c 55.71,-11.457 69.48,-29.383 103.71,-73.672 l 101.35,-152.203 -44.47,-70.028 -196.06,295.903 -202.52,0 c 55.73,-11.457 69.5,-29.383 103.74,-73.672 l 243.9,-366.28141 44.26,0 94.74,148.63241 98.97,-148.63241 44.26,0 237.54,372.64841 c 13.43,17.41 38.9,58 79.86,67.305 l -178.79,0"
         style="fill:#000000;fill-opacity:1;fill-rule:nonzero;stroke:none"
         id="path26"
         inkscape:connector-curvature="0" /><path
         d="m 5404.18,66.8672 -113.38,0 0,132.4218 113.38,0 0,-0.039 c 8.77,0 16.87,-0.074 24.39,-0.34 33.89,-1.445 56.72,-7.332 69.44,-30.16 l 0,130.234 c -12.72,-22.828 -35.55,-28.714 -69.44,-30.16 -7.52,-0.265 -15.62,-0.34 -24.39,-0.34 l 0,-0.035 -113.38,0 0,118.719 148.11,0 c 49.22,-0.156 121.89,-8.105 137.59,-62.465 l 0,0.024 c 0,-0.008 0.02,-0.016 0.02,-0.024 l 0,122.223 -481.91,0 c 54.9,-15.86 58.77,-48.367 58.77,-97.59 l 0,-244.844 c 0,-49.2225 -3.87,-81.6404 -58.77,-97.49981 l 519.61,0 0,119.10181 C 5582.87,64.0234 5514.67,66.8672 5404.18,66.8672"
         style="fill:#231f20;fill-opacity:1;fill-rule:nonzero;stroke:none"
         id="path28"
         inkscape:connector-curvature="0" /><path
         d="m 6736.78,6.99219 262.28,0 c -20.97,1.02734 -72.26,39.00391 -93.73,57.08201 l -213.34,182.3668 156.92,117.118 c 40.56,26.785 94.43,72.316 139.35,83.328 -1.38,0 -227.52,0 -229.84,0 27.63,-1.574 35.13,-28.574 15.13,-45.461 l -200.78,-149.567 0,105.821 c 0.75,43.457 7.66,74.453 58.64,89.207 l -252.54,0 c 52.52,-15.196 58.28,-43.516 58.67,-89.207 l 0,-261.4847 c -0.39,-45.6875 -6.15,-74.0078 -58.67,-89.20311 l 252.54,0 c -50.98,14.75001 -57.89,45.74611 -58.64,89.20311 l 0,111.6757 c 55.84,-45.43 163.03,-140.2733 181.12,-156.1522 18.08,-15.918 3.71,-43.77739 -17.11,-44.72661"
         style="fill:#231f20;fill-opacity:1;fill-rule:nonzero;stroke:none"
         id="path30"
         inkscape:connector-curvature="0" /><path
         d="M 6323.3,6.99219 C 6267.58,18.4492 6253.81,36.3711 6219.57,80.6641 l -72.05,98.8629 c -12.15,16.172 -18.61,24.051 -28.52,34.004 72.52,15.02 125.22,44.75 125.22,113.836 0,80.391 -74.81,119.442 -197.7,119.442 l -322.05,0 c 54.34,-15.723 58.83,-47.125 58.91,-95.496 l 0,-248.391 c -0.08,-48.3712 -4.57,-80.2072 -58.91,-95.92981 l 252.54,0 C 5922.73,22.6992 5918.59,54.6289 5918.5,102.922 l 0,96.32 c 50.15,-0.398 68.34,-4.375 94.66,-39.66 l 107.62,-152.58981 202.52,0 z M 5922.5,253.93 l 0,138.429 39.59,0 c 16.93,0 53.32,-2.328 53.32,-2.328 24.8,-2.605 44.59,-7.726 59.77,-15.183 22.69,-11.868 34.31,-25.41 34.31,-49.778 0,-22.711 -10.86,-43.218 -34.31,-54.277 -15.38,-6.75 -35.84,-11.52 -59.77,-14.152 -15.55,-1.813 -31.19,-2.711 -53.32,-2.711 l -39.59,0"
         style="fill:#000000;fill-opacity:1;fill-rule:nonzero;stroke:none"
         id="path32"
         inkscape:connector-curvature="0" /></g></g></svg>