<?xml version="1.0" encoding="UTF-8" standalone="no"?>
<!-- Created with Inkscape (http://www.inkscape.org/) -->

<svg
   version="1.1"
   id="svg1"
   width="1058.2677"
   height="595.27557"
   viewBox="0 0 1058.2677 595.27557"
   xmlns="http://www.w3.org/2000/svg"
   xmlns:svg="http://www.w3.org/2000/svg">
  <defs
     id="defs1">
    <clipPath
       clipPathUnits="userSpaceOnUse"
       id="clipPath3">
      <path
         d="M 0,0.028 H 793.672 V 446.456 H 0 Z"
         clip-rule="evenodd"
         id="path3" />
    </clipPath>
  </defs>
  <g
     id="g1">
    <g
       id="g2">
      <path
         id="path2"
         d="M 0,446.456 H 793.672 V 0.028 L 0,0.028 Z"
         style="fill:#ffffff;fill-opacity:1;fill-rule:evenodd;stroke:none"
         transform="matrix(1.3333333,0,0,-1.3333333,0,595.27559)"
         clip-path="url(#clipPath3)" />
    </g>
    <path
       id="path4"
       d="M 0,446.456 H 793.701 V -10e-4 H 0 Z"
       style="fill:#ffffff;fill-opacity:1;fill-rule:evenodd;stroke:none"
       transform="matrix(1.3333333,0,0,-1.3333333,0,595.27559)" />
    <g
       id="g4" />
    <g
       id="g5" />
    <g
       id="g6">
      <path
         id="path6"
         d="M 396.85,244.374 H 0 v 74.523 h 793.701 v -74.523 z"
         style="fill:#071e41;fill-opacity:1;fill-rule:evenodd;stroke:none"
         transform="matrix(1.3333333,0,0,-1.3333333,0,595.27559)" />
    </g>
    <g
       id="g7">
      <path
         id="path7"
         d="m 13.324086,-16.805607 c 1.069336,0 1.992187,-0.131836 2.765625,-0.398437 0.779297,-0.272461 1.420898,-0.647461 1.921875,-1.125 0.498047,-0.47461 0.867187,-1.03711 1.101562,-1.6875 0.234375,-0.647461 0.351563,-1.350586 0.351563,-2.109375 0,-1.514649 -0.503906,-2.689454 -1.511719,-3.527344 -1.001953,-0.834961 -2.52832,-1.253906 -4.582031,-1.253906 H 9.9373672 v 10.101562 z m 15.46875,16.80468752411 h -5.964844 c -1.110351,0 -1.916015,-0.42480468411 -2.414062,-1.27734372411 l -6.070313,-9.7851558 c -0.251953,-0.38086 -0.527344,-0.65918 -0.832031,-0.832032 -0.298828,-0.178711 -0.738281,-0.269531 -1.324219,-0.269531 H 9.9373672 V -9.1947589e-4 H 3.3397109 V -31.922794 H 13.370961 c 2.232422,0 4.139648,0.234375 5.71875,0.703125 1.584961,0.46289 2.882812,1.101562 3.890625,1.921875 1.013672,0.820312 1.757812,1.801757 2.226562,2.941406 0.46875,1.133789 0.703125,2.378906 0.703125,3.738281 0,1.063477 -0.152343,2.068359 -0.457031,3.011719 -0.298828,0.946289 -0.732422,1.810547 -1.300781,2.589844 -0.571289,0.773437 -1.274414,1.461914 -2.109375,2.0625 -0.837891,0.603515 -1.790039,1.086914 -2.859375,1.453125 0.421875,0.234375 0.814453,0.515625 1.183594,0.84375 0.366211,0.328125 0.697265,0.720703 0.996093,1.171875 z m 0,0"
         style="fill:#d5d4e0;fill-opacity:1;fill-rule:nonzero;stroke:none"
         aria-label="  R"
         transform="matrix(1.3333333,0,0,1.3333333,289.28533,242.45826)" />
      <path
         id="path8"
         d="m 7.9921563,-21.39899 v 6.5625 h 8.5078127 v 3.996094 H 7.9921563 v 6.703125 H 18.937469 V -5.5228839e-4 H 2.6718438 V -25.535709 H 18.937469 v 4.136719 z M 36.281219,-9.6919585 33.527313,-17.508365 c -0.164063,-0.413086 -0.339844,-0.893554 -0.527344,-1.441406 -0.181641,-0.553711 -0.351563,-1.151367 -0.515625,-1.792969 -0.164063,0.65625 -0.339844,1.262696 -0.527344,1.816406 -0.181641,0.556641 -0.351562,1.04004 -0.515625,1.453125 l -2.742187,7.7812505 z m 8.871094,9.69140621161 H 41.05075 c -0.454102,0 -0.826172,-0.10839844161 -1.113281,-0.32812500161 -0.290039,-0.21679687 -0.503906,-0.49511719 -0.644531,-0.83203121 l -1.722657,-4.875 H 27.398406 l -1.722656,4.875 c -0.117187,0.29003902 -0.325195,0.55664059 -0.621094,0.79687496 -0.290039,0.24316406 -0.65625,0.36328125161 -1.101562,0.36328125161 H 19.816375 L 29.789031,-25.535709 h 5.402344 z M 70.30368,-12.77399 c 0,1.869141 -0.316407,3.5859377 -0.949219,5.1562502 -0.626953,1.5644531 -1.511719,2.90625 -2.660156,4.03125 -1.142578,1.125 -2.516602,2.0039063 -4.125,2.63671876 -1.602539,0.6328125 -3.383789,0.94921875161 -5.34375,0.94921875161 H 47.405242 V -25.535709 h 9.820313 c 1.959961,0 3.741211,0.316407 5.34375,0.949219 1.608398,0.632813 2.982422,1.517578 4.125,2.648438 1.148437,1.133789 2.033203,2.481445 2.660156,4.042968 0.632812,1.564454 0.949219,3.269532 0.949219,5.121094 z m -5.425782,0 c 0,-1.335937 -0.175781,-2.537109 -0.527343,-3.609375 -0.351563,-1.069336 -0.855469,-1.971679 -1.511719,-2.707031 -0.65625,-0.741211 -1.458984,-1.3125 -2.402344,-1.710938 -0.946289,-0.398437 -2.015625,-0.597656 -3.210937,-0.597656 h -4.5 v 17.261719 h 4.5 c 1.195312,0 2.264648,-0.1933594 3.210937,-0.5859375 0.94336,-0.3896485 1.746094,-0.9550782 2.402344,-1.6992188 0.65625,-0.75 1.160156,-1.6552734 1.511719,-2.71875 0.351562,-1.0693357 0.527343,-2.2792967 0.527343,-3.6328127 z m 19.268555,2.9531252 V -5.5228839e-4 H 78.873016 V -9.8208648 l -9.28125,-15.7148442 h 4.652343 c 0.451172,0 0.814454,0.111329 1.089844,0.328125 0.28125,0.219727 0.503906,0.498047 0.667969,0.832032 l 4.183594,8.050781 c 0.28125,0.539062 0.533203,1.042969 0.761718,1.511719 0.234375,0.46875 0.436524,0.9375 0.609375,1.40625 0.169922,-0.46875 0.363282,-0.94043 0.574219,-1.417969 0.216797,-0.474609 0.462891,-0.975586 0.738281,-1.5 l 4.148438,-8.050781 c 0.140625,-0.28125 0.351562,-0.541992 0.632812,-0.785157 0.28125,-0.249023 0.644532,-0.375 1.089844,-0.375 h 4.675781 z m 0,0"
         style="fill:#d5d4e0;fill-opacity:1;fill-rule:nonzero;stroke:none"
         aria-label="EADY"
         transform="matrix(1.3333333,0,0,1.3333333,327.39067,242.49292)" />
      <path
         id="path9"
         d="M 20.741781,-21.270084 H 13.288656 V -5.5228839e-4 H 7.9917813 V -21.270084 H 0.5269375 v -4.265625 H 20.741781 Z M 47.7535,-12.77399 c 0,1.869141 -0.313477,3.5976565 -0.9375,5.1914065 -0.626953,1.59375 -1.511719,2.9736328 -2.660156,4.1367187 -1.142578,1.1572266 -2.516602,2.0683594 -4.125,2.73046876 -1.611328,0.66503906 -3.392578,0.99609375 -5.34375,0.99609375 -1.962891,0 -3.747071,-0.33105469 -5.355469,-0.99609375 -1.602539,-0.66210936 -2.982422,-1.57324216 -4.136719,-2.73046876 -1.148437,-1.1630859 -2.036133,-2.5429687 -2.660156,-4.1367187 -0.626953,-1.59375 -0.9375,-3.3222655 -0.9375,-5.1914065 0,-1.866211 0.310547,-3.591797 0.9375,-5.179687 0.624023,-1.59375 1.511719,-2.967774 2.660156,-4.125 1.154297,-1.163086 2.53418,-2.077149 4.136719,-2.742188 1.608398,-0.662109 3.392578,-0.996094 5.355469,-0.996094 1.951172,0 3.732422,0.333985 5.34375,0.996094 1.608398,0.665039 2.982422,1.582031 4.125,2.753906 1.148437,1.166016 2.033203,2.542969 2.660156,4.136719 0.624023,1.587891 0.9375,3.304688 0.9375,5.15625 z m -5.402344,0 c 0,-1.335937 -0.175781,-2.534179 -0.527343,-3.597656 -0.351563,-1.060547 -0.861329,-1.962891 -1.523438,-2.707031 -0.65625,-0.75 -1.458984,-1.31836 -2.402344,-1.710938 -0.946289,-0.389648 -2.015625,-0.585937 -3.210937,-0.585937 -1.195313,0 -2.270508,0.196289 -3.222656,0.585937 -0.955079,0.392578 -1.763672,0.960938 -2.425782,1.710938 -0.65625,0.74414 -1.160156,1.646484 -1.511718,2.707031 -0.351563,1.063477 -0.527344,2.261719 -0.527344,3.597656 0,1.353516 0.175781,2.560547 0.527344,3.621094 0.351562,1.0546875 0.855468,1.9541015 1.511718,2.6953125 0.66211,0.7441406 1.470703,1.3095703 2.425782,1.6992187 0.952148,0.3925781 2.027343,0.5859375 3.222656,0.5859375 1.195312,0 2.264648,-0.1933594 3.210937,-0.5859375 0.94336,-0.3896484 1.746094,-0.9550781 2.402344,-1.6992187 0.662109,-0.741211 1.171875,-1.640625 1.523438,-2.6953125 0.351562,-1.060547 0.527343,-2.267578 0.527343,-3.621094 z m 0,0"
         style="fill:#d5d4e0;fill-opacity:1;fill-rule:nonzero;stroke:none"
         aria-label=" TO"
         transform="matrix(1.3333333,0,0,1.3333333,462.57867,242.49292)" />
      <path
         id="path10"
         d="m 13.325258,-16.805607 c 1.069336,0 1.992187,-0.131836 2.765625,-0.398437 0.779297,-0.272461 1.420898,-0.647461 1.921875,-1.125 0.498047,-0.47461 0.867187,-1.03711 1.101562,-1.6875 0.234375,-0.647461 0.351563,-1.350586 0.351563,-2.109375 0,-1.514649 -0.503906,-2.689454 -1.511719,-3.527344 -1.001953,-0.834961 -2.52832,-1.253906 -4.582031,-1.253906 H 9.9385391 v 10.101562 z m 15.46875,16.80468752411 h -5.964844 c -1.110352,0 -1.916016,-0.42480468411 -2.414062,-1.27734372411 l -6.070313,-9.7851558 c -0.251953,-0.38086 -0.527344,-0.65918 -0.832031,-0.832032 -0.298828,-0.178711 -0.738281,-0.269531 -1.324219,-0.269531 H 9.9385391 V -9.1947589e-4 H 3.3408828 V -31.922794 H 13.372133 c 2.232422,0 4.139648,0.234375 5.71875,0.703125 1.584961,0.46289 2.882812,1.101562 3.890625,1.921875 1.013672,0.820312 1.757812,1.801757 2.226562,2.941406 0.46875,1.133789 0.703125,2.378906 0.703125,3.738281 0,1.063477 -0.152343,2.068359 -0.457031,3.011719 -0.298828,0.946289 -0.732422,1.810547 -1.300781,2.589844 -0.571289,0.773437 -1.274414,1.461914 -2.109375,2.0625 -0.837891,0.603515 -1.790039,1.086914 -2.859375,1.453125 0.421875,0.234375 0.814453,0.515625 1.183594,0.84375 0.36621,0.328125 0.697265,0.720703 0.996093,1.171875 z m 0,0"
         style="fill:#d5d4e0;fill-opacity:1;fill-rule:nonzero;stroke:none"
         aria-label=" R"
         transform="matrix(1.3333333,0,0,1.3333333,538.88533,242.45826)" />
      <path
         id="path11"
         d="m 7.9914688,-21.39899 v 6.5625 h 8.5078122 v 3.996094 H 7.9914688 v 6.703125 H 18.936781 V -5.5228839e-4 H 2.6711563 V -25.535709 H 18.936781 v 4.136719 z m 28.6406252,0.761719 c -0.164063,0.266602 -0.333985,0.462891 -0.503906,0.585937 -0.164063,0.125977 -0.38379,0.1875 -0.65625,0.1875 -0.257813,0 -0.536133,-0.08789 -0.832032,-0.269531 -0.298828,-0.1875 -0.644531,-0.386719 -1.042968,-0.597656 -0.398438,-0.210938 -0.861329,-0.404297 -1.382813,-0.585938 -0.515625,-0.17871 -1.119141,-0.269531 -1.804687,-0.269531 -1.21875,0 -2.132813,0.275391 -2.742188,0.820313 -0.609375,0.539062 -0.914062,1.250976 -0.914062,2.132812 0,0.5625 0.164062,1.03125 0.492187,1.40625 0.333984,0.369141 0.776367,0.688477 1.324219,0.960938 0.544922,0.266601 1.163086,0.503906 1.851562,0.714843 0.694336,0.210938 1.40625,0.442383 2.132813,0.691407 0.726562,0.251953 1.432617,0.547851 2.121094,0.890625 0.694335,0.336914 1.315429,0.761718 1.863281,1.277343 0.544922,0.515625 0.987304,1.148438 1.324219,1.898438 0.333984,0.744141 0.503906,1.649414 0.503906,2.71875 0,1.1572265 -0.205078,2.2441406 -0.609375,3.2578125 -0.407227,1.0166015 -0.993164,1.9042968 -1.757813,2.6601562 -0.758789,0.7587891 -1.699218,1.35644532 -2.824218,1.79296876 -1.119141,0.42773438 -2.387696,0.64453125 -3.808594,0.64453125 -0.805664,0 -1.611328,-0.0820313 -2.414063,-0.24609375 -0.805664,-0.1640625 -1.582031,-0.38964844 -2.332031,-0.6796875 C 23.876234,-0.94098198 23.178969,-1.2925445 22.522719,-1.699771 21.866469,-2.112857 21.29225,-2.5728179 20.800063,-3.0825835 l 1.546875,-2.4960938 c 0.131835,-0.1875 0.304687,-0.3427734 0.515625,-0.46875 0.210937,-0.1230469 0.433593,-0.1875 0.667968,-0.1875 0.310547,0 0.644532,0.1230469 0.996094,0.3632813 0.351563,0.234375 0.755859,0.4921875 1.21875,0.7734375 0.459961,0.28125 0.990234,0.5390625 1.59375,0.7734375 0.600586,0.234375 1.324219,0.3515625 2.167969,0.3515625 1.233398,0 2.185547,-0.28125 2.859375,-0.84375 0.679687,-0.5625 1.019531,-1.4003907 1.019531,-2.5195313 0,-0.6474609 -0.169922,-1.171875 -0.503906,-1.5703125 -0.336914,-0.3984375 -0.773438,-0.7294922 -1.3125,-0.9960937 -0.539063,-0.272461 -1.157227,-0.503906 -1.851563,-0.691406 -0.688476,-0.19336 -1.394531,-0.410157 -2.121093,-0.644532 -0.726563,-0.234375 -1.438477,-0.515625 -2.132813,-0.84375 -0.697266,-0.333984 -1.3125,-0.773437 -1.851562,-1.3125 -0.539063,-0.539062 -0.978516,-1.207031 -1.3125,-2.003906 -0.328125,-0.796875 -0.492188,-1.787109 -0.492188,-2.976562 0,-0.94336 0.1875,-1.863282 0.5625,-2.753907 0.375,-0.890625 0.925781,-1.68164 1.652344,-2.378906 0.726562,-0.694336 1.620117,-1.253906 2.683594,-1.675781 1.060546,-0.421875 2.276367,-0.632813 3.644531,-0.632813 1.538086,0 2.958984,0.240235 4.265625,0.714844 1.3125,0.477539 2.419922,1.136719 3.328125,1.980469 z m 14.118164,7.804687 c 1.655273,0 2.865234,-0.398437 3.632812,-1.195312 0.764649,-0.796875 1.148438,-1.886719 1.148438,-3.269531 0,-0.632813 -0.09961,-1.209961 -0.292969,-1.734375 -0.1875,-0.521485 -0.480469,-0.966797 -0.878906,-1.335938 -0.392578,-0.366211 -0.887695,-0.647461 -1.488281,-0.84375 -0.594727,-0.202148 -1.300782,-0.304687 -2.121094,-0.304687 h -3.339844 v 8.683593 z m 0,-12.703125 c 1.749023,0 3.260742,0.208008 4.535156,0.621094 1.271484,0.407227 2.320313,0.978516 3.140625,1.710938 0.820313,0.735351 1.423828,1.605468 1.816406,2.613281 0.389649,1.007812 0.585938,2.106445 0.585938,3.292969 0,1.259765 -0.208008,2.411133 -0.621094,3.457031 -0.407226,1.040039 -1.02832,1.933594 -1.863281,2.683594 -0.829102,0.75 -1.875,1.3359372 -3.140625,1.7578122 -1.265625,0.4160156 -2.750977,0.6210938 -4.453125,0.6210938 H 47.410414 V -5.5228839e-4 H 42.125258 V -25.535709 Z m 38.109375,12.761719 c 0,1.869141 -0.313477,3.5976565 -0.9375,5.1914065 -0.626953,1.59375 -1.511719,2.9736328 -2.660156,4.1367187 -1.142579,1.1572266 -2.516602,2.0683594 -4.125,2.73046876 -1.611329,0.66503906 -3.392579,0.99609375 -5.34375,0.99609375 -1.962891,0 -3.747071,-0.33105469 -5.355469,-0.99609375 -1.602539,-0.66210936 -2.982422,-1.57324216 -4.136719,-2.73046876 -1.148437,-1.1630859 -2.036133,-2.5429687 -2.660156,-4.1367187 -0.626953,-1.59375 -0.9375,-3.3222655 -0.9375,-5.1914065 0,-1.866211 0.310547,-3.591797 0.9375,-5.179687 0.624023,-1.59375 1.511719,-2.967774 2.660156,-4.125 1.154297,-1.163086 2.53418,-2.077149 4.136719,-2.742188 1.608398,-0.662109 3.392578,-0.996094 5.355469,-0.996094 1.951171,0 3.732421,0.333985 5.34375,0.996094 1.608398,0.665039 2.982421,1.582031 4.125,2.753906 1.148437,1.166016 2.033203,2.542969 2.660156,4.136719 0.624023,1.587891 0.9375,3.304688 0.9375,5.15625 z m -5.402344,0 c 0,-1.335937 -0.175781,-2.534179 -0.527344,-3.597656 -0.351562,-1.060547 -0.861328,-1.962891 -1.523437,-2.707031 -0.65625,-0.75 -1.458985,-1.31836 -2.402344,-1.710938 -0.946289,-0.389648 -2.015625,-0.585937 -3.210937,-0.585937 -1.195313,0 -2.270508,0.196289 -3.222657,0.585937 -0.955078,0.392578 -1.763672,0.960938 -2.425781,1.710938 -0.65625,0.74414 -1.160156,1.646484 -1.511719,2.707031 -0.351562,1.063477 -0.527343,2.261719 -0.527343,3.597656 0,1.353516 0.175781,2.560547 0.527343,3.621094 0.351563,1.0546875 0.855469,1.9541015 1.511719,2.6953125 0.662109,0.7441406 1.470703,1.3095703 2.425781,1.6992187 0.952149,0.3925781 2.027344,0.5859375 3.222657,0.5859375 1.195312,0 2.264648,-0.1933594 3.210937,-0.5859375 0.943359,-0.3896484 1.746094,-0.9550781 2.402344,-1.6992187 0.662109,-0.741211 1.171875,-1.640625 1.523437,-2.6953125 0.351563,-1.060547 0.527344,-2.267578 0.527344,-3.621094 z M 114.47389,-25.535709 V -5.5228839e-4 h -2.73047 c -0.41601,0 -0.76172,-0.0644531216 -1.04297,-0.19921875161 -0.28125,-0.140625 -0.55664,-0.375 -0.82031,-0.703125 L 97.153578,-17.08649 c 0.03809,0.416016 0.06445,0.820313 0.08203,1.21875 0.01465,0.398438 0.02344,0.767578 0.02344,1.101563 V -5.5228839e-4 H 92.594984 V -25.535709 h 2.777344 c 0.225586,0 0.416016,0.01172 0.574219,0.03516 0.164062,0.01758 0.307617,0.05566 0.433594,0.117187 0.131836,0.06445 0.257812,0.149414 0.375,0.257813 0.117187,0.102539 0.246093,0.243164 0.386718,0.421875 l 12.808591,16.253906 c -0.0469,-0.4453125 -0.082,-0.8730469 -0.10547,-1.2890625 -0.0234,-0.4130855 -0.0352,-0.8085935 -0.0352,-1.1835935 v -14.613282 z m 28.22461,12.761719 c 0,1.869141 -0.31641,3.5859377 -0.94922,5.1562502 -0.62695,1.5644531 -1.51172,2.90625 -2.66015,4.03125 -1.14258,1.125 -2.51661,2.0039063 -4.125,2.63671876 -1.60254,0.6328125 -3.38379,0.94921875161 -5.34375,0.94921875161 h -9.82032 V -25.535709 h 9.82032 c 1.95996,0 3.74121,0.316407 5.34375,0.949219 1.60839,0.632813 2.98242,1.517578 4.125,2.648438 1.14843,1.133789 2.0332,2.481445 2.66015,4.042968 0.63281,1.564454 0.94922,3.269532 0.94922,5.121094 z m -5.42578,0 c 0,-1.335937 -0.17578,-2.537109 -0.52734,-3.609375 -0.35157,-1.069336 -0.85547,-1.971679 -1.51172,-2.707031 -0.65625,-0.741211 -1.45899,-1.3125 -2.40235,-1.710938 -0.94629,-0.398437 -2.01562,-0.597656 -3.21093,-0.597656 h -4.5 v 17.261719 h 4.5 c 1.19531,0 2.26464,-0.1933594 3.21093,-0.5859375 0.94336,-0.3896485 1.7461,-0.9550782 2.40235,-1.6992188 0.65625,-0.75 1.16015,-1.6552734 1.51172,-2.71875 0.35156,-1.0693357 0.52734,-2.2792967 0.52734,-3.6328127 z m 0,0"
         style="fill:#d5d4e0;fill-opacity:1;fill-rule:nonzero;stroke:none"
         aria-label="ESPOND"
         transform="matrix(1.3333333,0,0,1.3333333,576.98533,242.49292)" />
    </g>
    <g
       id="g11">
      <path
         id="path12"
         d="m 9.9023203,-11.298138 c 0.8349607,0 1.5703127,-0.105469 2.2031247,-0.316406 0.632813,-0.216797 1.160157,-0.518555 1.582032,-0.902344 0.421875,-0.389649 0.738281,-0.861328 0.949218,-1.417969 0.216797,-0.553711 0.328125,-1.174805 0.328125,-1.863281 0,-0.670899 -0.105468,-1.271485 -0.316406,-1.804688 -0.210937,-0.530273 -0.524414,-0.984375 -0.9375,-1.359375 -0.416016,-0.375 -0.943359,-0.659179 -1.582031,-0.855468 -0.632813,-0.19336 -1.376953,-0.292969 -2.2265627,-0.292969 h -3.421875 v 8.8125 z m 0,-11.742188 c 1.5058597,0 2.8124997,0.175782 3.9140627,0.527344 1.101562,0.351563 2.009765,0.84375 2.730469,1.476563 0.726562,0.632812 1.265625,1.394531 1.617187,2.285156 0.351563,0.890625 0.527344,1.875 0.527344,2.953125 0,1.101562 -0.1875,2.109375 -0.5625,3.023437 -0.375,0.908203 -0.931641,1.6875 -1.664063,2.34375 -0.735351,0.6562503 -1.649414,1.1718753 -2.742187,1.5468753 -1.095703,0.3691406 -2.367188,0.5507812 -3.8203127,0.5507812 h -3.421875 v 8.33203127 h -3.75 V -23.040326 Z m 0,0"
         style="fill:#071e41;fill-opacity:1;fill-rule:nonzero;stroke:none"
         aria-label="P"
         transform="matrix(1.3333333,0,0,1.3333333,160.668,330.25559)" />
      <path
         id="path13"
         d="M 12.84425,-2.5067789 V 0.00103365 H 2.1919062 V -18.43256 h 2.9882813 v 15.9257811 z m 12.307617,-4.40625 -2.53125,-6.7382811 c -0.205078,-0.515625 -0.416015,-1.174805 -0.632812,-1.980469 -0.09375,0.398438 -0.196289,0.770508 -0.304688,1.113281 -0.111328,0.336914 -0.210937,0.629883 -0.304687,0.878907 l -2.53125,6.7265621 z m 5.671875,6.91406255 h -2.308594 c -0.266601,0 -0.480468,-0.06445313 -0.644531,-0.19921875 -0.164062,-0.13183594 -0.290039,-0.29589844 -0.375,-0.4921875 l -1.535156,-4.0664063 h -7.933594 l -1.535156,4.0664063 c -0.07031,0.17285156 -0.193359,0.33398437 -0.363281,0.48046875 -0.172852,0.140625 -0.386719,0.2109375 -0.644532,0.2109375 h -2.308593 l 7.3125,-18.43359365 h 3.023437 z M 48.173352,-18.43256 V 0.00103365 h -1.523438 c -0.228516,0 -0.421875,-0.03808594 -0.585937,-0.1171875 -0.164063,-0.0849609 -0.322266,-0.22265625 -0.46875,-0.41015625 l -10.125,-13.0078129 c 0.0293,0.251954 0.0498,0.498047 0.05859,0.738282 0.01465,0.243164 0.02344,0.46582 0.02344,0.667968 V 0.00103365 H 32.915539 V -18.43256 h 1.558594 c 0.123047,0 0.228515,0.0088 0.316406,0.02344 0.09375,0.0088 0.178711,0.03223 0.257813,0.07031 0.07617,0.03223 0.152343,0.08203 0.222656,0.152344 0.07031,0.06445 0.140625,0.146484 0.210937,0.246093 l 10.148438,13.0195316 c -0.03223,-0.2578125 -0.05566,-0.515625 -0.07031,-0.7734375 -0.0088,-0.2578125 -0.01172,-0.4951171 -0.01172,-0.7148437 V -18.43256 Z m 5.018554,18.4218749 c -0.251953,0 -0.477539,-0.04101563 -0.679687,-0.12890625 -0.205078,-0.09375 -0.38086,-0.21679688 -0.527344,-0.375 -0.149414,-0.15527344 -0.266602,-0.33984375 -0.351563,-0.55078125 -0.0791,-0.2167969 -0.117187,-0.4570313 -0.117187,-0.7148438 0,-0.2167968 0.03809,-0.4248046 0.117187,-0.6210937 0.08496,-0.2021484 0.202149,-0.375 0.351563,-0.515625 0.146484,-0.1464844 0.322266,-0.2607422 0.527344,-0.3398438 0.210937,-0.076172 0.439453,-0.1171875 0.691406,-0.1171875 0.287109,0 0.541992,0.055664 0.761719,0.1640625 0.225586,0.1025391 0.413086,0.2460938 0.5625,0.4335938 0.146484,0.1816406 0.257812,0.3925781 0.328125,0.6328125 0.07617,0.2431641 0.117187,0.5009766 0.117187,0.7734375 0,0.39257812 -0.05859,0.80566406 -0.175781,1.2421875 C 54.680187,0.30865084 54.507336,0.74224459 54.28175,1.1729086 54.053234,1.600643 53.777844,2.0195883 53.449719,2.4268149 53.121594,2.8399008 52.749523,3.2178305 52.336437,3.5635336 L 51.855969,3.1299399 c -0.06445,-0.070312 -0.111328,-0.1376953 -0.140625,-0.1992188 -0.03223,-0.055664 -0.04687,-0.1289062 -0.04687,-0.2226562 0,-0.1494141 0.07324,-0.2871094 0.222656,-0.4101563 0.07617,-0.09375 0.181641,-0.2197265 0.316406,-0.375 0.140625,-0.1582031 0.275391,-0.3339843 0.410156,-0.5273437 0.140625,-0.1962891 0.269532,-0.41601563 0.386719,-0.65625 0.117188,-0.234375 0.199219,-0.48632813 0.246094,-0.75 z m 0,0"
         style="fill:#071e41;fill-opacity:1;fill-rule:nonzero;stroke:none"
         aria-label="LAN,"
         transform="matrix(1.3333333,0,0,1.3333333,186.74933,330.29159)" />
      <path
         id="path14"
         d="m 9.9027969,-11.298138 c 0.8349611,0 1.5703121,-0.105469 2.2031251,-0.316406 0.632812,-0.216797 1.160156,-0.518555 1.582031,-0.902344 0.421875,-0.389649 0.738281,-0.861328 0.949219,-1.417969 0.216797,-0.553711 0.328125,-1.174805 0.328125,-1.863281 0,-0.670899 -0.105469,-1.271485 -0.316406,-1.804688 -0.210938,-0.530273 -0.524414,-0.984375 -0.9375,-1.359375 -0.416016,-0.375 -0.94336,-0.659179 -1.582032,-0.855468 -0.632812,-0.19336 -1.376953,-0.292969 -2.2265621,-0.292969 h -3.421875 v 8.8125 z m 0,-11.742188 c 1.5058591,0 2.8125001,0.175782 3.9140621,0.527344 1.101563,0.351563 2.009766,0.84375 2.730469,1.476563 0.726563,0.632812 1.265625,1.394531 1.617188,2.285156 0.351562,0.890625 0.527343,1.875 0.527343,2.953125 0,1.101562 -0.1875,2.109375 -0.5625,3.023437 -0.375,0.908203 -0.93164,1.6875 -1.664062,2.34375 -0.735352,0.6562503 -1.649414,1.1718753 -2.742188,1.5468753 -1.095703,0.3691406 -2.367187,0.5507812 -3.8203121,0.5507812 h -3.421875 v 8.33203127 h -3.75 V -23.040326 Z m 0,0"
         style="fill:#071e41;fill-opacity:1;fill-rule:nonzero;stroke:none"
         aria-label=" P"
         transform="matrix(1.3333333,0,0,1.3333333,270.08533,330.25559)" />
      <path
         id="path15"
         d="m 7.5344141,-9.5966226 c 0.6855468,0 1.2832031,-0.082031 1.7929687,-0.2460938 0.515625,-0.1699216 0.9404302,-0.4042966 1.2773442,-0.7031246 0.342773,-0.295899 0.600586,-0.650391 0.773437,-1.066407 0.169922,-0.413086 0.257813,-0.873046 0.257813,-1.382812 0,-1.007813 -0.333985,-1.772461 -0.996094,-2.296875 -0.6650392,-0.530274 -1.6728517,-0.796875 -3.0234377,-0.796875 h -2.4375 v 6.4921874 z m 8.6835939,9.59765625 h -2.671875 c -0.533203,0 -0.914063,-0.20214844 -1.148438,-0.609375 L 8.0851953,-6.8192789 c -0.140625,-0.2167968 -0.2988281,-0.375 -0.46875,-0.46875 -0.1728515,-0.09375 -0.430664,-0.140625 -0.7734375,-0.140625 H 5.1789453 V 0.00103365 H 2.1906641 V -18.43256 h 5.4257812 c 1.209961,0 2.2529297,0.125976 3.1289067,0.375 0.873046,0.243164 1.59375,0.594726 2.15625,1.054687 0.5625,0.454102 0.975586,1.001954 1.242187,1.640625 0.272461,0.641602 0.410156,1.353516 0.410156,2.132813 0,0.641601 -0.09961,1.239258 -0.292968,1.792969 -0.1875,0.55664 -0.465821,1.060547 -0.832032,1.5117184 -0.360351,0.4541016 -0.805664,0.8496094 -1.335937,1.1835937 -0.524414,0.328125 -1.125,0.5859375 -1.804688,0.7734375 0.366211,0.2285157 0.682618,0.5390625 0.949219,0.9375 z M 29.931875,-2.4130289 29.920156,0.00103365 H 18.424063 V -18.43256 h 11.496093 v 2.414062 h -8.484375 v 5.554688 h 6.785157 v 2.3437499 h -6.785157 v 5.7070312 z m 8.841797,-6.6210937 c 0.662109,0 1.248047,-0.084961 1.757812,-0.2578125 0.506836,-0.1699219 0.928711,-0.4130859 1.265625,-0.7265629 0.342774,-0.310546 0.597657,-0.685546 0.761719,-1.125 0.169922,-0.445312 0.257813,-0.940429 0.257813,-1.488281 0,-0.539062 -0.08203,-1.019531 -0.246094,-1.441406 -0.164063,-0.427734 -0.416016,-0.791016 -0.75,-1.089844 -0.328125,-0.304687 -0.74707,-0.533203 -1.253906,-0.691406 -0.509766,-0.155274 -1.107422,-0.234375 -1.792969,-0.234375 h -2.742188 v 7.0546874 z m 0,-9.3984374 c 1.201172,0 2.244141,0.140625 3.128906,0.421875 0.881836,0.28125 1.611328,0.676758 2.191406,1.183594 0.577149,0.509765 1.007813,1.11914 1.289063,1.828125 0.28125,0.711914 0.421875,1.5 0.421875,2.367187 0,0.875977 -0.149414,1.681641 -0.445313,2.414063 -0.298828,0.7265621 -0.74414,1.3535153 -1.335937,1.8749996 -0.585938,0.5244141 -1.318359,0.9345704 -2.191406,1.2304688 -0.875977,0.2988281 -1.895508,0.4453125 -3.058594,0.4453125 H 36.031484 V 0.00103365 H 33.043203 V -18.43256 Z m 18.433594,11.5195311 -2.53125,-6.7382811 c -0.205078,-0.515625 -0.416016,-1.174805 -0.632813,-1.980469 -0.09375,0.398438 -0.196289,0.770508 -0.304687,1.113281 -0.111328,0.336914 -0.210938,0.629883 -0.304688,0.878907 l -2.53125,6.7265621 z m 5.671875,6.91406255 h -2.308594 c -0.266602,0 -0.480469,-0.06445313 -0.644531,-0.19921875 -0.164063,-0.13183594 -0.290039,-0.29589844 -0.375,-0.4921875 l -1.535157,-4.0664063 h -7.933593 l -1.535157,4.0664063 c -0.07031,0.17285156 -0.193359,0.33398437 -0.363281,0.48046875 -0.172851,0.140625 -0.386719,0.2109375 -0.644531,0.2109375 h -2.308594 l 7.3125,-18.43359365 h 3.023438 z m 7.435547,-9.59765625 c 0.685546,0 1.283203,-0.082031 1.792968,-0.2460938 0.515625,-0.1699216 0.94043,-0.4042966 1.277344,-0.7031246 0.342773,-0.295899 0.600586,-0.650391 0.773438,-1.066407 0.169921,-0.413086 0.257812,-0.873046 0.257812,-1.382812 0,-1.007813 -0.333984,-1.772461 -0.996094,-2.296875 -0.665039,-0.530274 -1.672851,-0.796875 -3.023437,-0.796875 h -2.4375 v 6.4921874 z m 8.683593,9.59765625 h -2.671875 c -0.533203,0 -0.914062,-0.20214844 -1.148437,-0.609375 l -4.3125,-6.21093755 c -0.140625,-0.2167968 -0.298828,-0.375 -0.46875,-0.46875 -0.172852,-0.09375 -0.430664,-0.140625 -0.773438,-0.140625 H 67.959219 V 0.00103365 H 64.970938 V -18.43256 h 5.425781 c 1.209961,0 2.252929,0.125976 3.128906,0.375 0.873047,0.243164 1.59375,0.594726 2.15625,1.054687 0.5625,0.454102 0.975586,1.001954 1.242188,1.640625 0.27246,0.641602 0.410156,1.353516 0.410156,2.132813 0,0.641601 -0.09961,1.239258 -0.292969,1.792969 -0.1875,0.55664 -0.46582,1.060547 -0.832031,1.5117184 -0.360352,0.4541016 -0.805664,0.8496094 -1.335938,1.1835937 -0.524414,0.328125 -1.125,0.5859375 -1.804687,0.7734375 0.366211,0.2285157 0.682617,0.5390625 0.949219,0.9375 z M 92.709219,-2.4130289 92.6975,0.00103365 H 81.201406 V -18.43256 H 92.6975 v 2.414062 h -8.484375 v 5.554688 h 6.785156 v 2.3437499 h -6.785156 v 5.7070312 z m 3.955078,2.4023438 c -0.251953,0 -0.477539,-0.04101563 -0.679688,-0.12890625 -0.205078,-0.09375 -0.380859,-0.21679688 -0.527343,-0.375 -0.149414,-0.15527344 -0.266602,-0.33984375 -0.351563,-0.55078125 -0.0791,-0.2167969 -0.117187,-0.4570313 -0.117187,-0.7148438 0,-0.2167968 0.03809,-0.4248046 0.117187,-0.6210937 0.08496,-0.2021484 0.202149,-0.375 0.351563,-0.515625 0.146484,-0.1464844 0.322265,-0.2607422 0.527343,-0.3398438 0.210938,-0.076172 0.439454,-0.1171875 0.691407,-0.1171875 0.287109,0 0.541992,0.055664 0.761718,0.1640625 0.225586,0.1025391 0.413086,0.2460938 0.5625,0.4335938 0.146485,0.1816406 0.257813,0.3925781 0.328125,0.6328125 0.07617,0.2431641 0.117188,0.5009766 0.117188,0.7734375 0,0.39257812 -0.05859,0.80566406 -0.175781,1.2421875 -0.117188,0.43652344 -0.290039,0.87011719 -0.515625,1.3007812 -0.228516,0.4277344 -0.503907,0.8466797 -0.832032,1.2539063 -0.328125,0.4130859 -0.700195,0.7910156 -1.113281,1.1367187 L 95.328359,3.1299399 c -0.06445,-0.070312 -0.111328,-0.1376953 -0.140625,-0.1992188 -0.03223,-0.055664 -0.04687,-0.1289062 -0.04687,-0.2226562 0,-0.1494141 0.07324,-0.2871094 0.222657,-0.4101563 0.07617,-0.09375 0.18164,-0.2197265 0.316406,-0.375 0.140625,-0.1582031 0.275391,-0.3339843 0.410156,-0.5273437 0.140625,-0.1962891 0.269531,-0.41601563 0.386719,-0.65625 0.117187,-0.234375 0.199219,-0.48632813 0.246094,-0.75 z m 0,0"
         style="fill:#071e41;fill-opacity:1;fill-rule:nonzero;stroke:none"
         aria-label="REPARE,"
         transform="matrix(1.3333333,0,0,1.3333333,296.15333,330.29159)" />
      <path
         id="path16"
         d="M 18.596711,-19.923138 H 11.413117 V -0.00126323 H 7.6748359 V -19.923138 H 0.47952344 v -3.117188 H 18.596711 Z m 0,0"
         style="fill:#071e41;fill-opacity:1;fill-rule:nonzero;stroke:none"
         aria-label=" T"
         transform="matrix(1.3333333,0,0,1.3333333,437.44267,330.25559)" />
      <path
         id="path17"
         d="m 7.5342891,-9.5966226 c 0.6855468,0 1.2832031,-0.082031 1.7929687,-0.2460938 0.515625,-0.1699216 0.9404302,-0.4042966 1.2773442,-0.7031246 0.342773,-0.295899 0.600586,-0.650391 0.773437,-1.066407 0.169922,-0.413086 0.257813,-0.873046 0.257813,-1.382812 0,-1.007813 -0.333985,-1.772461 -0.996094,-2.296875 -0.6650392,-0.530274 -1.6728517,-0.796875 -3.0234377,-0.796875 h -2.4375 v 6.4921874 z m 8.6835939,9.59765625 h -2.671875 c -0.533203,0 -0.914063,-0.20214844 -1.148438,-0.609375 L 8.0850703,-6.8192789 c -0.140625,-0.2167968 -0.2988281,-0.375 -0.46875,-0.46875 -0.1728515,-0.09375 -0.430664,-0.140625 -0.7734375,-0.140625 H 5.1788203 V 0.00103365 H 2.1905391 V -18.43256 h 5.4257812 c 1.209961,0 2.2529297,0.125976 3.1289067,0.375 0.873046,0.243164 1.59375,0.594726 2.15625,1.054687 0.5625,0.454102 0.975586,1.001954 1.242187,1.640625 0.272461,0.641602 0.410156,1.353516 0.410156,2.132813 0,0.641601 -0.09961,1.239258 -0.292968,1.792969 -0.1875,0.55664 -0.465821,1.060547 -0.832032,1.5117184 -0.360351,0.4541016 -0.805664,0.8496094 -1.335937,1.1835937 -0.524414,0.328125 -1.125,0.5859375 -1.804688,0.7734375 0.366211,0.2285157 0.682618,0.5390625 0.949219,0.9375 z M 28.173938,-6.9130289 25.642688,-13.65131 c -0.205079,-0.515625 -0.416016,-1.174805 -0.632813,-1.980469 -0.09375,0.398438 -0.196289,0.770508 -0.304687,1.113281 -0.111329,0.336914 -0.210938,0.629883 -0.304688,0.878907 l -2.53125,6.7265621 z m 5.671875,6.91406255 h -2.308594 c -0.266602,0 -0.480469,-0.06445313 -0.644531,-0.19921875 -0.164063,-0.13183594 -0.29004,-0.29589844 -0.375,-0.4921875 l -1.535157,-4.0664063 h -7.933593 l -1.535157,4.0664063 c -0.07031,0.17285156 -0.193359,0.33398437 -0.363281,0.48046875 -0.172852,0.140625 -0.386719,0.2109375 -0.644531,0.2109375 h -2.308594 l 7.3125,-18.43359365 h 3.023438 z m 5.103515,0 H 35.937609 V -18.43256 h 3.011719 z M 58.516711,-18.43256 V 0.00103365 h -1.523438 c -0.228515,0 -0.421875,-0.03808594 -0.585937,-0.1171875 -0.164063,-0.0849609 -0.322266,-0.22265625 -0.46875,-0.41015625 l -10.125,-13.0078129 c 0.0293,0.251954 0.0498,0.498047 0.05859,0.738282 0.01465,0.243164 0.02344,0.46582 0.02344,0.667968 V 0.00103365 H 43.258898 V -18.43256 h 1.558594 c 0.123047,0 0.228516,0.0088 0.316406,0.02344 0.09375,0.0088 0.178711,0.03223 0.257813,0.07031 0.07617,0.03223 0.152344,0.08203 0.222656,0.152344 0.07031,0.06445 0.140625,0.146484 0.210938,0.246093 l 10.148437,13.0195316 c -0.03223,-0.2578125 -0.05566,-0.515625 -0.07031,-0.7734375 -0.0088,-0.2578125 -0.01172,-0.4951171 -0.01172,-0.7148437 V -18.43256 Z m 5.121094,18.4218749 c -0.251953,0 -0.477539,-0.04101563 -0.679688,-0.12890625 -0.205078,-0.09375 -0.380859,-0.21679688 -0.527344,-0.375 -0.149414,-0.15527344 -0.266601,-0.33984375 -0.351562,-0.55078125 -0.0791,-0.2167969 -0.117188,-0.4570313 -0.117188,-0.7148438 0,-0.2167968 0.03809,-0.4248046 0.117188,-0.6210937 0.08496,-0.2021484 0.202148,-0.375 0.351562,-0.515625 0.146485,-0.1464844 0.322266,-0.2607422 0.527344,-0.3398438 0.210938,-0.076172 0.439453,-0.1171875 0.691406,-0.1171875 0.28711,0 0.541993,0.055664 0.761719,0.1640625 0.225586,0.1025391 0.413086,0.2460938 0.5625,0.4335938 0.146485,0.1816406 0.257813,0.3925781 0.328125,0.6328125 0.07617,0.2431641 0.117188,0.5009766 0.117188,0.7734375 0,0.39257812 -0.05859,0.80566406 -0.175782,1.2421875 -0.117187,0.43652344 -0.290039,0.87011719 -0.515625,1.3007812 -0.228515,0.4277344 -0.503906,0.8466797 -0.832031,1.2539063 -0.328125,0.4130859 -0.700195,0.7910156 -1.113281,1.1367187 L 62.301867,3.1299399 c -0.06445,-0.070312 -0.111328,-0.1376953 -0.140625,-0.1992188 -0.03223,-0.055664 -0.04687,-0.1289062 -0.04687,-0.2226562 0,-0.1494141 0.07324,-0.2871094 0.222656,-0.4101563 0.07617,-0.09375 0.181641,-0.2197265 0.316407,-0.375 0.140625,-0.1582031 0.27539,-0.3339843 0.410156,-0.5273437 0.140625,-0.1962891 0.269531,-0.41601563 0.386719,-0.65625 0.117187,-0.234375 0.199218,-0.48632813 0.246093,-0.75 z m 0,0"
         style="fill:#071e41;fill-opacity:1;fill-rule:nonzero;stroke:none"
         aria-label="RAIN,"
         transform="matrix(1.3333333,0,0,1.3333333,462.716,330.29159)" />
      <path
         id="path18"
         d="M 18.597445,-19.923138 H 11.413852 V -0.00126323 H 7.6755703 V -19.923138 H 0.48025781 v -3.117188 H 18.597445 Z m 0,0"
         style="fill:#071e41;fill-opacity:1;fill-rule:nonzero;stroke:none"
         aria-label=" T"
         transform="matrix(1.3333333,0,0,1.3333333,560.012,330.25559)" />
      <path
         id="path19"
         d="m 13.698594,-2.4130289 -0.01172,2.41406255 H 2.1907813 V -18.43256 H 13.686875 v 2.414062 H 5.2025 v 5.554688 h 6.785156 v 2.3437499 H 5.2025 v 5.7070312 z m 12.74414,-12.8671871 c -0.09375,0.149414 -0.193359,0.263672 -0.292968,0.339843 -0.102539,0.07031 -0.228516,0.105469 -0.375,0.105469 -0.164063,0 -0.348633,-0.06445 -0.550782,-0.199219 -0.205078,-0.140625 -0.454101,-0.292968 -0.75,-0.457031 -0.290039,-0.169922 -0.638671,-0.328125 -1.042968,-0.46875 -0.398438,-0.140625 -0.875977,-0.210937 -1.429688,-0.210937 -0.509765,0 -0.958008,0.06738 -1.347656,0.199218 -0.392578,0.125977 -0.720703,0.304688 -0.984375,0.539063 -0.257813,0.228516 -0.454102,0.498047 -0.585938,0.808594 -0.134765,0.313476 -0.199218,0.65332 -0.199218,1.019531 0,0.46875 0.120117,0.861328 0.363281,1.171875 0.249023,0.313476 0.577148,0.580078 0.984375,0.796875 0.404297,0.219726 0.867187,0.416016 1.382812,0.585937 0.521485,0.164063 1.054688,0.339844 1.59375,0.527344 0.544922,0.1875 1.078125,0.404297 1.59375,0.6445314 0.521485,0.234375 0.987305,0.5361328 1.394532,0.9023437 0.404297,0.3691407 0.729492,0.8173829 0.972656,1.3476563 0.249023,0.5332031 0.375,1.1777344 0.375,1.9335937 0,0.8203125 -0.140625,1.5908204 -0.421875,2.3085938 -0.28125,0.7119141 -0.688477,1.3359375 -1.21875,1.875 -0.533203,0.53320312 -1.189453,0.94921875 -1.96875,1.25390625 -0.782227,0.3046875 -1.672852,0.45703125 -2.671875,0.45703125 -0.585938,0 -1.160156,-0.0585938 -1.722656,-0.17578125 C 18.98375,-0.08392729 18.450547,-0.2450601 17.934922,-0.4559976 17.425156,-0.6669351 16.950547,-0.91888823 16.505234,-1.2177164 16.065781,-1.5136148 15.673203,-1.8446695 15.321641,-2.2138101 l 0.867187,-1.4296875 c 0.07617,-0.1230469 0.175781,-0.2167969 0.292969,-0.28125 0.123047,-0.070312 0.257812,-0.1054688 0.398437,-0.1054688 0.19336,0 0.413086,0.09375 0.65625,0.28125 0.240235,0.1816407 0.530274,0.3808594 0.867188,0.5976563 0.333984,0.2197266 0.741211,0.421875 1.21875,0.609375 0.474609,0.1816406 1.048828,0.2695312 1.722656,0.2695312 1.078125,0 1.913086,-0.2636718 2.507813,-0.796875 0.591797,-0.5302734 0.890625,-1.2597656 0.890625,-2.1914062 0,-0.5214844 -0.125977,-0.9492188 -0.375,-1.2773438 -0.243164,-0.328125 -0.56836,-0.6005859 -0.972657,-0.8203125 -0.407226,-0.2255859 -0.873046,-0.4130859 -1.394531,-0.5625 -0.515625,-0.1552734 -1.042969,-0.3193359 -1.582031,-0.4921875 -0.539063,-0.1787109 -1.072266,-0.3867187 -1.59375,-0.6210937 -0.515625,-0.234375 -0.978516,-0.5390625 -1.382813,-0.9140625 -0.407226,-0.3808589 -0.735351,-0.8496089 -0.984375,-1.4062499 -0.243164,-0.5625 -0.363281,-1.259766 -0.363281,-2.097656 0,-0.66211 0.128906,-1.306641 0.386719,-1.933594 0.257812,-0.624024 0.635742,-1.174805 1.136719,-1.652344 0.498047,-0.483398 1.116211,-0.870117 1.851562,-1.160156 0.732422,-0.295899 1.570313,-0.445313 2.507813,-0.445313 1.060547,0 2.033203,0.169922 2.917968,0.503907 0.881836,0.336914 1.643555,0.808593 2.285157,1.417968 z m 17.000977,-0.65625 H 37.701523 V 0.00103365 H 34.713242 V -15.936466 h -5.753906 v -2.496094 h 14.484375 z m 1.579102,15.9257809 c -0.251954,0 -0.47754,-0.04101563 -0.679688,-0.12890625 -0.205078,-0.09375 -0.380859,-0.21679688 -0.527344,-0.375 -0.149414,-0.15527344 -0.266601,-0.33984375 -0.351562,-0.55078125 -0.0791,-0.2167969 -0.117188,-0.4570313 -0.117188,-0.7148438 0,-0.2167968 0.03809,-0.4248046 0.117188,-0.6210937 0.08496,-0.2021484 0.202148,-0.375 0.351562,-0.515625 0.146485,-0.1464844 0.322266,-0.2607422 0.527344,-0.3398438 0.210938,-0.076172 0.439453,-0.1171875 0.691406,-0.1171875 0.28711,0 0.541992,0.055664 0.761719,0.1640625 0.225586,0.1025391 0.413086,0.2460938 0.5625,0.4335938 0.146484,0.1816406 0.257813,0.3925781 0.328125,0.6328125 0.07617,0.2431641 0.117188,0.5009766 0.117188,0.7734375 0,0.39257812 -0.05859,0.80566406 -0.175782,1.2421875 C 46.511094,0.30865084 46.338242,0.74224459 46.112656,1.1729086 45.884141,1.600643 45.60875,2.0195883 45.280625,2.4268149 44.9525,2.8399008 44.58043,3.2178305 44.167344,3.5635336 L 43.686875,3.1299399 C 43.622425,3.0596279 43.575547,2.9922446 43.54625,2.9307211 43.51402,2.8750571 43.49938,2.8018149 43.49938,2.7080649 c 0,-0.1494141 0.07324,-0.2871094 0.222656,-0.4101563 0.07617,-0.09375 0.181641,-0.2197265 0.316407,-0.375 0.140625,-0.1582031 0.27539,-0.3339843 0.410156,-0.5273437 0.140625,-0.1962891 0.269531,-0.41601563 0.386719,-0.65625 0.117187,-0.234375 0.199218,-0.48632813 0.246093,-0.75 z m 0,0"
         style="fill:#071e41;fill-opacity:1;fill-rule:nonzero;stroke:none"
         aria-label="EST,"
         transform="matrix(1.3333333,0,0,1.3333333,585.31333,330.29159)" />
      <path
         id="path20"
         d="M 11.941977,-6.9130289 9.4107266,-13.65131 c -0.2050782,-0.515625 -0.4160157,-1.174805 -0.6328125,-1.980469 -0.09375,0.398438 -0.1962891,0.770508 -0.3046875,1.113281 -0.1113282,0.336914 -0.2109375,0.629883 -0.3046875,0.878907 l -2.53125,6.7265621 z m 5.671875,6.91406255 h -2.308594 c -0.266602,0 -0.480469,-0.06445313 -0.644531,-0.19921875 -0.164063,-0.13183594 -0.290039,-0.29589844 -0.375,-0.4921875 L 12.75057,-4.7567789 H 4.8169766 l -1.5351563,4.0664063 c -0.070312,0.17285156 -0.1933594,0.33398437 -0.3632812,0.48046875 -0.1728516,0.140625 -0.3867188,0.2109375 -0.6445313,0.2109375 H -0.03458594 L 7.2779141,-18.43256 H 10.301352 Z M 34.960531,-18.43256 V 0.00103365 h -1.523437 c -0.228516,0 -0.421875,-0.03808594 -0.585938,-0.1171875 -0.164062,-0.0849609 -0.322265,-0.22265625 -0.46875,-0.41015625 l -10.125,-13.0078129 c 0.0293,0.251954 0.0498,0.498047 0.05859,0.738282 0.01465,0.243164 0.02344,0.46582 0.02344,0.667968 V 0.00103365 H 19.702719 V -18.43256 h 1.558594 c 0.123046,0 0.228515,0.0088 0.316406,0.02344 0.09375,0.0088 0.178711,0.03223 0.257812,0.07031 0.07617,0.03223 0.152344,0.08203 0.222657,0.152344 0.07031,0.06445 0.140625,0.146484 0.210937,0.246093 l 10.148438,13.0195316 c -0.03223,-0.2578125 -0.05567,-0.515625 -0.07031,-0.7734375 -0.0088,-0.2578125 -0.01172,-0.4951171 -0.01172,-0.7148437 V -18.43256 Z m 20.487305,9.2109374 c 0,1.3681641 -0.222656,2.6191406 -0.667969,3.75 -0.445312,1.1337891 -1.072265,2.1064453 -1.875,2.9179687 -0.805664,0.8056641 -1.77539,1.4355469 -2.90625,1.8867188 -1.133789,0.4453125 -2.390625,0.66796875 -3.773437,0.66796875 H 39.264242 V -18.43256 h 6.960938 c 1.382812,0 2.639648,0.228516 3.773437,0.679687 1.13086,0.445313 2.100586,1.075196 2.90625,1.886719 0.802735,0.805664 1.429688,1.775391 1.875,2.90625 0.445313,1.133789 0.667969,2.378906 0.667969,3.7382814 z m -3.058594,0 c 0,-1.0546874 -0.146484,-2.0039064 -0.433594,-2.8476564 -0.290039,-0.84375 -0.700195,-1.552734 -1.230468,-2.132812 -0.533203,-0.585938 -1.180664,-1.03418 -1.945313,-1.347657 -0.758789,-0.310546 -1.611328,-0.46875 -2.554687,-0.46875 h -3.949219 v 13.6054691 h 3.949219 c 0.943359,0 1.795898,-0.1523437 2.554687,-0.4570312 0.764649,-0.3105469 1.41211,-0.7617188 1.945313,-1.3476563 0.530273,-0.5859375 0.940429,-1.2949218 1.230468,-2.1328125 0.28711,-0.84375 0.433594,-1.7988281 0.433594,-2.8710937 z m 0,0"
         style="fill:#071e41;fill-opacity:1;fill-rule:nonzero;stroke:none"
         aria-label=" AND"
         transform="matrix(1.3333333,0,0,1.3333333,657.74533,330.29159)" />
      <path
         id="path21"
         d="M 6.4927109,-0.00126323 H 2.7309922 V -23.040326 h 3.7617187 z m 0,0"
         style="fill:#071e41;fill-opacity:1;fill-rule:nonzero;stroke:none"
         aria-label=" I"
         transform="matrix(1.3333333,0,0,1.3333333,741.58133,330.25559)" />
      <path
         id="path22"
         d="M 21.80907,-18.43256 V 0.00103365 H 19.160633 V -12.631779 c 0,-0.210937 0.0059,-0.436523 0.02344,-0.679687 0.01465,-0.240235 0.03516,-0.483399 0.05859,-0.726563 l -5.929687,10.9453126 c -0.228516,0.4541016 -0.580079,0.6796875 -1.054688,0.6796875 h -0.433594 c -0.486328,0 -0.83789,-0.2255859 -1.054687,-0.6796875 L 4.7465703,-14.073185 c 0.029297,0.251953 0.049805,0.500976 0.058594,0.75 0.014648,0.243164 0.023437,0.474609 0.023437,0.691406 V 0.00103365 H 2.1918828 V -18.43256 h 2.2382813 c 0.2636718,0 0.46875,0.02344 0.609375,0.07031 0.1464843,0.04687 0.28125,0.1875 0.3984375,0.421875 l 5.9179684,10.7226566 c 0.123047,0.2519532 0.246094,0.5039063 0.363282,0.7617188 0.117187,0.2578125 0.222656,0.5244141 0.316406,0.796875 0.09961,-0.2724609 0.210937,-0.5419922 0.328125,-0.8085938 0.117187,-0.2724609 0.237305,-0.5302734 0.363281,-0.7734375 l 5.824219,-10.6992191 c 0.117187,-0.234375 0.246094,-0.375 0.386719,-0.421875 0.146484,-0.04687 0.354492,-0.07031 0.621093,-0.07031 z m 9.999024,9.3984374 c 0.662109,0 1.248047,-0.084961 1.757812,-0.2578125 0.506836,-0.1699219 0.928711,-0.4130859 1.265625,-0.7265629 0.342774,-0.310546 0.597657,-0.685546 0.761719,-1.125 0.169922,-0.445312 0.257813,-0.940429 0.257813,-1.488281 0,-0.539062 -0.08203,-1.019531 -0.246094,-1.441406 -0.164063,-0.427734 -0.416016,-0.791016 -0.75,-1.089844 -0.328125,-0.304687 -0.747071,-0.533203 -1.253906,-0.691406 -0.509766,-0.155274 -1.107422,-0.234375 -1.792969,-0.234375 h -2.742188 v 7.0546874 z m 0,-9.3984374 c 1.201172,0 2.24414,0.140625 3.128906,0.421875 0.881836,0.28125 1.611328,0.676758 2.191406,1.183594 0.577149,0.509765 1.007813,1.11914 1.289063,1.828125 0.28125,0.711914 0.421875,1.5 0.421875,2.367187 0,0.875977 -0.149414,1.681641 -0.445313,2.414063 -0.298828,0.7265621 -0.74414,1.3535153 -1.335937,1.8749996 -0.585938,0.5244141 -1.31836,0.9345704 -2.191406,1.2304688 -0.875977,0.2988281 -1.895508,0.4453125 -3.058594,0.4453125 H 29.065906 V 0.00103365 H 26.077625 V -18.43256 Z m 15.231445,8.8359374 c 0.685547,0 1.283203,-0.082031 1.792969,-0.2460938 0.515625,-0.1699216 0.94043,-0.4042966 1.277344,-0.7031246 0.342773,-0.295899 0.600586,-0.650391 0.773437,-1.066407 0.169922,-0.413086 0.257813,-0.873046 0.257813,-1.382812 0,-1.007813 -0.333985,-1.772461 -0.996094,-2.296875 -0.665039,-0.530274 -1.672852,-0.796875 -3.023438,-0.796875 h -2.4375 v 6.4921874 z m 8.683594,9.59765625 h -2.671875 c -0.533203,0 -0.914063,-0.20214844 -1.148438,-0.609375 l -4.3125,-6.21093755 c -0.140625,-0.2167968 -0.298828,-0.375 -0.46875,-0.46875 -0.172851,-0.09375 -0.430664,-0.140625 -0.773437,-0.140625 H 44.68407 V 0.00103365 H 41.695789 V -18.43256 h 5.425781 c 1.209961,0 2.25293,0.125976 3.128907,0.375 0.873046,0.243164 1.59375,0.594726 2.15625,1.054687 0.5625,0.454102 0.975586,1.001954 1.242187,1.640625 0.272461,0.641602 0.410156,1.353516 0.410156,2.132813 0,0.641601 -0.09961,1.239258 -0.292968,1.792969 -0.1875,0.55664 -0.465821,1.060547 -0.832032,1.5117184 -0.360351,0.4541016 -0.805664,0.8496094 -1.335937,1.1835937 -0.524414,0.328125 -1.125,0.5859375 -1.804688,0.7734375 0.366211,0.2285157 0.682618,0.5390625 0.949219,0.9375 z M 75.097156,-9.2216226 c 0,1.3681641 -0.222656,2.6308594 -0.667968,3.7851562 -0.445313,1.1484375 -1.072266,2.1416016 -1.875,2.9765625 -0.805665,0.8291016 -1.775391,1.47656255 -2.90625,1.94531255 -1.13379,0.46875 -2.390625,0.703125 -3.773438,0.703125 -1.376953,0 -2.630859,-0.234375 -3.761719,-0.703125 -1.125,-0.46875 -2.094726,-1.11621095 -2.90625,-1.94531255 -0.814453,-0.8349609 -1.441406,-1.828125 -1.886718,-2.9765625 -0.439454,-1.1542968 -0.65625,-2.4169921 -0.65625,-3.7851562 0,-1.3593754 0.216796,-2.6132814 0.65625,-3.7617184 0.445312,-1.154297 1.072265,-2.150391 1.886718,-2.988282 0.811524,-0.84375 1.78125,-1.5 2.90625,-1.96875 1.13086,-0.46875 2.384766,-0.703125 3.761719,-0.703125 1.382813,0 2.639648,0.234375 3.773438,0.703125 1.130859,0.46875 2.100585,1.125 2.90625,1.96875 0.802734,0.837891 1.429687,1.833985 1.875,2.988282 0.445312,1.148437 0.667968,2.402343 0.667968,3.7617184 z m -3.058593,0 c 0,-1.0546874 -0.146485,-2.0039064 -0.433594,-2.8476564 -0.28125,-0.84375 -0.691406,-1.558594 -1.230469,-2.144531 -0.533203,-0.591797 -1.177734,-1.045899 -1.933594,-1.359375 -0.758789,-0.319336 -1.614258,-0.480469 -2.566406,-0.480469 -0.9375,0 -1.787109,0.161133 -2.542969,0.480469 -0.758789,0.313476 -1.40625,0.767578 -1.945312,1.359375 -0.539063,0.585937 -0.955078,1.300781 -1.242188,2.144531 -0.290039,0.84375 -0.433593,1.792969 -0.433593,2.8476564 0,1.0722656 0.143554,2.0273437 0.433593,2.8710937 0.28711,0.84375 0.703125,1.5585938 1.242188,2.1445313 0.539062,0.5859375 1.186523,1.0371094 1.945312,1.3476562 0.75586,0.3134766 1.605469,0.46875 2.542969,0.46875 0.952148,0 1.807617,-0.1552734 2.566406,-0.46875 0.75586,-0.3105468 1.400391,-0.7617187 1.933594,-1.3476562 0.539063,-0.5859375 0.949219,-1.3007813 1.230469,-2.1445313 0.287109,-0.84375 0.433594,-1.7988281 0.433594,-2.8710937 z M 93.141102,-18.43256 85.664539,0.00103365 H 82.969227 L 75.492664,-18.43256 h 2.390625 c 0.263672,0 0.474609,0.06738 0.632813,0.199219 0.164062,0.134765 0.287109,0.298828 0.375,0.492187 l 4.757812,12.0234376 c 0.249024,0.6738282 0.483399,1.4472657 0.703125,2.3203125 0.09375,-0.4277343 0.19043,-0.8378906 0.292969,-1.2304687 0.108398,-0.3984375 0.225586,-0.7617188 0.351562,-1.0898438 l 4.746094,-12.0234376 c 0.06152,-0.169922 0.178711,-0.328125 0.351563,-0.46875 0.169921,-0.146484 0.386718,-0.222656 0.644531,-0.222656 z m 13.599608,16.0195311 -0.0117,2.41406255 H 95.232898 V -18.43256 h 11.496092 v 2.414062 h -8.484373 v 5.554688 h 6.785153 v 2.3437499 h -6.785153 v 5.7070312 z m 0,0"
         style="fill:#071e41;fill-opacity:1;fill-rule:nonzero;stroke:none"
         aria-label="MPROVE"
         transform="matrix(1.3333333,0,0,1.3333333,753.91733,330.29159)" />
    </g>
    <g
       id="g22">
      <path
         id="path23"
         d="m 10.382688,-3.0715289 c 0.131835,0 0.249023,0.052734 0.351562,0.1523438 l 0.960938,1.03125 c -0.533204,0.65625 -1.183594,1.16015625 -1.9570317,1.51171875 -0.7675782,0.34570312 -1.6933594,0.515625 -2.7773438,0.515625 -0.9609375,0 -1.828125,-0.1640625 -2.6015625,-0.4921875 C 3.5858125,-0.68090385 2.9237031,-1.1379351 2.3787813,-1.7238726 1.8397188,-2.3156695 1.4207734,-3.0187945 1.124875,-3.8332476 0.83483594,-4.6535601 0.69128125,-5.5441851 0.69128125,-6.5051226 c 0,-0.9755859 0.15527344,-1.8691406 0.46875005,-2.6835938 0.3105468,-0.8203126 0.75,-1.5234376 1.3125,-2.1093746 0.5683593,-0.585938 1.2451171,-1.042969 2.0273437,-1.371094 0.7880859,-0.328125 1.6582031,-0.492188 2.6132813,-0.492188 0.9521484,0 1.7958984,0.158204 2.53125,0.46875 0.7324217,0.313477 1.3593747,0.723633 1.8749997,1.230469 l -0.808593,1.125 c -0.04687,0.07031 -0.111329,0.134766 -0.1875,0.1875 -0.07031,0.05566 -0.172852,0.08203 -0.304688,0.08203 -0.09375,0 -0.1875,-0.02344 -0.28125,-0.07031 -0.09375,-0.05273 -0.1992187,-0.120117 -0.3164062,-0.199219 -0.1171875,-0.07617 -0.2519532,-0.158203 -0.3984375,-0.246094 -0.1494141,-0.09375 -0.3251954,-0.175781 -0.5273438,-0.246093 -0.1962891,-0.07617 -0.421875,-0.140625 -0.6796875,-0.1875 -0.2578125,-0.05274 -0.5595703,-0.08203 -0.9023437,-0.08203 -0.5859375,0 -1.1220704,0.105469 -1.6054688,0.316407 -0.4775391,0.205078 -0.890625,0.503906 -1.2421875,0.9023434 -0.3515625,0.3925781 -0.6269531,0.8730469 -0.8203125,1.4414062 -0.1875,0.5625 -0.28125,1.2070313 -0.28125,1.9335938 0,0.7265625 0.099609,1.3769531 0.3046875,1.9453125 0.2109375,0.5712891 0.4921875,1.0517578 0.84375,1.4414062 0.3574219,0.3925782 0.7763672,0.6914063 1.2539063,0.9023438 0.4833984,0.2050781 0.9990234,0.3046875 1.546875,0.3046875 0.3339843,0 0.6357421,-0.014648 0.9023437,-0.046875 0.2636719,-0.038086 0.5097656,-0.09668 0.7382813,-0.1757813 0.2255859,-0.076172 0.4365234,-0.1757812 0.6328125,-0.2929687 0.2021484,-0.1230469 0.4013671,-0.28125 0.5976562,-0.46875 0.061523,-0.046875 0.123047,-0.084961 0.1875,-0.1171875 0.07031,-0.038086 0.140625,-0.058594 0.210938,-0.058594 z m 4.813476,-5.1679687 c 0.357422,-0.3427734 0.75293,-0.6152344 1.183594,-0.8203125 0.436523,-0.2109375 0.949219,-0.3164063 1.535156,-0.3164063 0.498047,0 0.943359,0.087891 1.335938,0.2578125 0.389648,0.1728516 0.714843,0.4160157 0.972656,0.7265625 0.263672,0.3046875 0.46289,0.6738282 0.597656,1.1015625 0.131836,0.421875 0.199219,0.890625 0.199219,1.40625 v 5.88281255 H 18.805539 V -5.8840289 c 0,-0.5625 -0.128906,-0.9960937 -0.386719,-1.3007812 -0.257812,-0.3105469 -0.65332,-0.46875 -1.183593,-0.46875 -0.383789,0 -0.744141,0.09082 -1.078125,0.2695312 -0.336914,0.1728516 -0.65625,0.4072266 -0.960938,0.703125 v 6.67968755 H 12.98132 V -13.37231 h 2.214844 z m 9.981445,0.609375 c 0.28711,-0.5537109 0.626954,-0.9873047 1.019532,-1.3007813 0.398437,-0.3193359 0.867187,-0.4804687 1.40625,-0.4804687 0.427734,0 0.773437,0.09375 1.03125,0.28125 l -0.152344,1.6640625 c -0.03223,0.1113281 -0.07617,0.1875 -0.128906,0.234375 -0.05566,0.046875 -0.128907,0.070312 -0.222657,0.070312 -0.09375,0 -0.231445,-0.014648 -0.410156,-0.046875 -0.172851,-0.029297 -0.345703,-0.046875 -0.515625,-0.046875 -0.243164,0 -0.46289,0.035156 -0.65625,0.1054687 -0.1875,0.070312 -0.360351,0.1757813 -0.515625,0.3164063 -0.158203,0.1347656 -0.292969,0.2988281 -0.410156,0.4921875 -0.117188,0.1875 -0.228516,0.4072266 -0.328125,0.65625 v 5.68359375 H 23.079953 V -9.2355914 h 1.300781 c 0.225586,0 0.38086,0.043945 0.46875,0.1289063 0.09375,0.079102 0.155274,0.2226562 0.1875,0.4335937 z m 6.914063,-1.6054688 v 9.23437505 H 29.865109 V -9.2355914 Z m 0.304687,-2.6953126 c 0,0.196289 -0.04101,0.38086 -0.117187,0.550781 -0.0791,0.164063 -0.18457,0.310547 -0.316406,0.433594 -0.125977,0.125977 -0.275391,0.228516 -0.445313,0.304688 -0.172851,0.07031 -0.357422,0.105468 -0.550781,0.105468 -0.196289,0 -0.380859,-0.03516 -0.550781,-0.105468 -0.172852,-0.07617 -0.322266,-0.178711 -0.445313,-0.304688 -0.125976,-0.123047 -0.228515,-0.269531 -0.304687,-0.433594 -0.07031,-0.169921 -0.105469,-0.354492 -0.105469,-0.550781 0,-0.193359 0.03516,-0.37793 0.105469,-0.550781 0.07617,-0.169922 0.178711,-0.319336 0.304687,-0.445313 0.123047,-0.131836 0.272461,-0.234375 0.445313,-0.304687 0.169922,-0.07617 0.354492,-0.117188 0.550781,-0.117188 0.193359,0 0.37793,0.04102 0.550781,0.117188 0.169922,0.07031 0.319336,0.172851 0.445313,0.304687 0.131836,0.125977 0.237304,0.275391 0.316406,0.445313 0.07617,0.172851 0.117187,0.357422 0.117187,0.550781 z m 7.59375,4.5000001 c -0.05566,0.09375 -0.117187,0.1611329 -0.1875,0.1992188 -0.06445,0.041016 -0.146484,0.058594 -0.246093,0.058594 -0.111328,0 -0.228516,-0.026367 -0.351563,-0.082031 -0.117187,-0.061523 -0.257812,-0.1318359 -0.421875,-0.2109375 -0.164062,-0.076172 -0.351562,-0.1435547 -0.5625,-0.1992188 -0.205078,-0.061523 -0.445312,-0.09375 -0.726562,-0.09375 -0.439453,0 -0.782227,0.09375 -1.03125,0.28125 -0.251953,0.1875 -0.375,0.4306641 -0.375,0.7265625 0,0.1962891 0.06152,0.3632813 0.1875,0.5039063 0.131836,0.1347656 0.304687,0.2519531 0.515625,0.3515625 0.216797,0.1025391 0.459961,0.1962891 0.726562,0.28125 0.272461,0.079102 0.544922,0.1640625 0.820313,0.2578125 0.28125,0.09375 0.553711,0.2050781 0.820312,0.328125 0.272461,0.1259766 0.515625,0.28125 0.726563,0.46875 0.216797,0.1875 0.389648,0.4160156 0.515625,0.6796875 0.131836,0.2666016 0.199218,0.5830078 0.199218,0.9492187 0,0.4453125 -0.08203,0.8554688 -0.246093,1.2304688 -0.158203,0.375 -0.392578,0.7001953 -0.703125,0.97265625 -0.313477,0.27539062 -0.700196,0.48925781 -1.160157,0.64453125 -0.454101,0.14648437 -0.981445,0.22265625 -1.582031,0.22265625 -0.322265,0 -0.632812,-0.0292969 -0.9375,-0.08203125 -0.298828,-0.05566406 -0.585937,-0.13183594 -0.867187,-0.234375 -0.28125,-0.0996094 -0.539063,-0.22265625 -0.773438,-0.36328125 -0.234375,-0.140625 -0.442383,-0.28710938 -0.621094,-0.4453125 l 0.503907,-0.85546875 c 0.07031,-0.099609 0.146484,-0.1787109 0.234375,-0.234375 0.09375,-0.052734 0.210937,-0.082031 0.351562,-0.082031 0.131836,0 0.260742,0.041016 0.386719,0.1171875 0.123047,0.079102 0.263672,0.1640625 0.421875,0.2578125 0.164062,0.087891 0.354492,0.1699219 0.574219,0.2460938 0.216797,0.079102 0.495117,0.1171875 0.832031,0.1171875 0.263672,0 0.492187,-0.029297 0.679687,-0.09375 0.1875,-0.061523 0.342774,-0.1435547 0.46875,-0.2460938 0.123047,-0.099609 0.213868,-0.2167968 0.269532,-0.3515625 0.06152,-0.1318359 0.09375,-0.2724609 0.09375,-0.421875 0,-0.2109375 -0.06738,-0.3867187 -0.199219,-0.5273437 -0.134766,-0.140625 -0.304688,-0.2607422 -0.515625,-0.3632813 -0.210938,-0.099609 -0.454102,-0.1904296 -0.726563,-0.2695312 -0.27539,-0.084961 -0.55664,-0.1757813 -0.84375,-0.2695313 -0.28125,-0.09375 -0.55957,-0.2021484 -0.832031,-0.328125 -0.27539,-0.1318359 -0.515625,-0.2958984 -0.726562,-0.4921875 -0.210938,-0.2021484 -0.383789,-0.4482421 -0.515625,-0.7382812 -0.125977,-0.2871094 -0.1875,-0.6357422 -0.1875,-1.0429688 0,-0.375 0.07324,-0.7324218 0.222656,-1.078125 0.146484,-0.3427734 0.366211,-0.6386718 0.65625,-0.890625 0.295898,-0.2578125 0.65918,-0.4599609 1.089844,-0.609375 0.436523,-0.1552734 0.940429,-0.234375 1.511718,-0.234375 0.632813,0 1.209961,0.1054688 1.734375,0.3164063 0.521485,0.2050781 0.955079,0.4775391 1.300782,0.8203125 z m 11.592774,7.42968755 H 49.35632 V -7.5715289 h -4.289062 v 5.0039063 c 0,0.2900391 0.07031,0.515625 0.210937,0.6796875 0.140625,0.1582031 0.333985,0.234375 0.585938,0.234375 0.140625,0 0.251953,-0.014648 0.339844,-0.046875 0.09375,-0.029297 0.175781,-0.061523 0.246093,-0.09375 0.07031,-0.038086 0.131836,-0.073242 0.1875,-0.1054688 0.05274,-0.038086 0.108399,-0.058594 0.164063,-0.058594 0.06152,0 0.111328,0.020508 0.152344,0.058594 0.04687,0.032227 0.09375,0.079102 0.140625,0.140625 l 0.667968,1.07812505 c -0.328125,0.27539062 -0.703125,0.48046875 -1.125,0.62109375 -0.416015,0.13183594 -0.849609,0.19921875 -1.300781,0.19921875 -0.805664,0 -1.423828,-0.22558594 -1.851562,-0.6796875 -0.421875,-0.45117188 -0.632813,-1.07812505 -0.632813,-1.87500005 v -5.15625 h -0.949219 c -0.117187,0 -0.219726,-0.038086 -0.304687,-0.1171875 -0.08789,-0.076172 -0.128906,-0.1933593 -0.128906,-0.3515625 v -0.8789062 l 1.488281,-0.2578125 0.46875,-2.5078124 c 0.0293,-0.117188 0.08496,-0.205078 0.164062,-0.269531 0.08496,-0.07031 0.19336,-0.105469 0.328125,-0.105469 h 1.148438 v 2.9062499 h 6.515625 z m 0.375,-11.96484365 c 0,0.196289 -0.04102,0.380859 -0.117188,0.550781 -0.0791,0.172852 -0.18457,0.322266 -0.316406,0.445313 -0.125976,0.125976 -0.27832,0.228515 -0.457031,0.304687 -0.172852,0.07031 -0.357422,0.105469 -0.550781,0.105469 -0.196289,0 -0.38086,-0.03516 -0.550782,-0.105469 -0.164062,-0.07617 -0.310547,-0.178711 -0.433593,-0.304687 -0.125977,-0.123047 -0.228516,-0.272461 -0.304688,-0.445313 -0.07031,-0.169922 -0.105469,-0.354492 -0.105469,-0.550781 0,-0.193359 0.03516,-0.37793 0.105469,-0.550781 0.07617,-0.169922 0.178711,-0.319336 0.304688,-0.445313 0.123046,-0.131836 0.269531,-0.234375 0.433593,-0.304687 0.169922,-0.07617 0.354493,-0.117188 0.550782,-0.117188 0.193359,0 0.377929,0.04102 0.550781,0.117188 0.178711,0.07031 0.331055,0.172851 0.457031,0.304687 0.131836,0.125977 0.237305,0.275391 0.316406,0.445313 0.07617,0.172851 0.117188,0.357422 0.117188,0.550781 z m 6.811523,8.0273436 c -0.641601,0.023437 -1.180664,0.079102 -1.617187,0.1640625 -0.439453,0.079102 -0.791016,0.1816407 -1.054688,0.3046875 -0.266601,0.1259766 -0.457031,0.2753907 -0.574218,0.4453125 -0.111329,0.1640625 -0.164063,0.3486329 -0.164063,0.5507813 0,0.3925781 0.111328,0.6738281 0.339844,0.84375 0.234375,0.1640625 0.539062,0.2460937 0.914062,0.2460937 0.451172,0 0.84375,-0.082031 1.171875,-0.2460937 0.333985,-0.1699219 0.66211,-0.4248047 0.984375,-0.7617188 z M 53.67175,-7.9465289 c 1.060547,-0.9755859 2.337891,-1.4648437 3.832031,-1.4648437 0.544922,0 1.03125,0.09082 1.453125,0.2695312 0.427735,0.1816407 0.788086,0.4277344 1.078125,0.7382813 0.295899,0.3134766 0.518555,0.6914062 0.667969,1.1367187 0.155273,0.4394532 0.234375,0.9140625 0.234375,1.4296875 v 5.83593755 h -1.007812 c -0.210938,0 -0.375,-0.02929688 -0.492188,-0.09375 -0.111328,-0.06152344 -0.196289,-0.19042969 -0.257812,-0.38671875 l -0.199219,-0.6679688 c -0.234375,0.21093755 -0.465821,0.39843755 -0.691406,0.56250005 -0.219727,0.15820312 -0.451172,0.29003906 -0.691407,0.3984375 -0.243164,0.11132812 -0.500976,0.19042969 -0.773437,0.24609375 -0.266602,0.05273437 -0.56836,0.08203125 -0.902344,0.08203125 -0.392578,0 -0.75,-0.05273438 -1.078125,-0.15234375 -0.328125,-0.10839844 -0.615234,-0.26367188 -0.855469,-0.46875 -0.243164,-0.2109375 -0.430664,-0.47167969 -0.5625,-0.7851563 -0.125976,-0.3105468 -0.1875,-0.6738281 -0.1875,-1.0898437 0,-0.234375 0.03809,-0.4628906 0.117188,-0.6914063 0.07617,-0.234375 0.202148,-0.4570312 0.375,-0.6679687 0.178711,-0.2109375 0.410156,-0.4101563 0.691406,-0.5976563 0.28125,-0.1875 0.624023,-0.3457031 1.03125,-0.4804687 0.413086,-0.140625 0.893555,-0.2519531 1.441406,-0.3398438 0.544922,-0.084961 1.171875,-0.140625 1.875,-0.1640625 v -0.5390625 c 0,-0.6152343 -0.134765,-1.0722656 -0.398437,-1.3710937 -0.266602,-0.2958984 -0.644531,-0.4453125 -1.136719,-0.4453125 -0.360352,0 -0.662109,0.043945 -0.902344,0.1289062 -0.234375,0.087891 -0.442383,0.1845704 -0.621093,0.2929688 -0.181641,0.1025391 -0.345704,0.1962891 -0.492188,0.28125 -0.149414,0.079102 -0.313477,0.1171875 -0.492187,0.1171875 -0.158204,0 -0.29004,-0.038086 -0.398438,-0.1171875 -0.102539,-0.084961 -0.1875,-0.1787109 -0.257812,-0.28125 z m 11.405273,-0.1523437 c 0.1875,-0.1875 0.38086,-0.3574219 0.585938,-0.515625 0.210937,-0.1640625 0.427734,-0.2988281 0.65625,-0.4101563 0.234375,-0.1083984 0.483398,-0.1933593 0.75,-0.2578125 0.263672,-0.061523 0.553711,-0.09375 0.867187,-0.09375 0.498047,0 0.94336,0.087891 1.335938,0.2578125 0.389648,0.1728516 0.714844,0.4160157 0.972656,0.7265625 0.263672,0.3046875 0.462891,0.6738282 0.597656,1.1015625 0.131836,0.421875 0.199219,0.890625 0.199219,1.40625 v 5.88281255 H 68.827023 V -5.8840289 c 0,-0.5625 -0.128906,-0.9960937 -0.386718,-1.3007812 -0.257813,-0.3105469 -0.653321,-0.46875 -1.183594,-0.46875 -0.383789,0 -0.744141,0.09082 -1.078125,0.2695312 -0.336914,0.1728516 -0.65625,0.4072266 -0.960938,0.703125 v 6.67968755 H 63.002805 V -9.2355914 h 1.359375 c 0.287109,0 0.474609,0.1376954 0.5625,0.4101563 z m 15.216797,0.5390625 h 0.574219 c 0.225586,0 0.413086,-0.029297 0.5625,-0.09375 0.146484,-0.061523 0.275391,-0.1640625 0.386719,-0.3046875 l 3.585937,-4.5468754 c 0.155274,-0.1875 0.316407,-0.319336 0.480469,-0.398437 0.164063,-0.07617 0.369141,-0.117188 0.621094,-0.117188 h 2.085937 l -4.382812,5.4140629 c -0.257813,0.328125 -0.524414,0.5625 -0.796875,0.703125 0.193359,0.070312 0.36914,0.1728516 0.527344,0.3046875 0.164062,0.1259766 0.316406,0.2929687 0.457031,0.5039062 l 4.523437,6.09375005 h -2.132812 c -0.290039,0 -0.503906,-0.03808594 -0.644531,-0.1171875 -0.140625,-0.0849609 -0.257813,-0.20507813 -0.351563,-0.36328125 l -3.679687,-4.8046875 c -0.117188,-0.1640625 -0.251954,-0.2753906 -0.398438,-0.3398438 -0.149414,-0.061523 -0.363281,-0.09375 -0.644531,-0.09375 H 80.29382 v 5.71875005 H 77.879758 V -13.020748 h 2.414062 z m 12.94043,-1.8164063 c 0.685547,0 1.3125,0.1142579 1.875,0.3398438 0.5625,0.2197266 1.042969,0.5332031 1.441406,0.9375 0.398438,0.4072266 0.703125,0.9082031 0.914063,1.5 0.216797,0.5859375 0.328125,1.2392578 0.328125,1.9570312 0,0.7353516 -0.111328,1.4003907 -0.328125,1.9921875 -0.210938,0.5859375 -0.515625,1.0869141 -0.914063,1.5 -0.398437,0.41601567 -0.878906,0.73535161 -1.441406,0.96093755 -0.5625,0.21679687 -1.189453,0.328125 -1.875,0.328125 -0.688477,0 -1.3125,-0.11132813 -1.875,-0.328125 -0.5625,-0.22558594 -1.042969,-0.54492188 -1.441406,-0.96093755 -0.398438,-0.4130859 -0.711914,-0.9140625 -0.9375,-1.5 -0.219727,-0.5917968 -0.328125,-1.2568359 -0.328125,-1.9921875 0,-0.7177734 0.108398,-1.3710937 0.328125,-1.9570312 0.225586,-0.5917969 0.539062,-1.0927734 0.9375,-1.5 0.398437,-0.4042969 0.878906,-0.7177734 1.441406,-0.9375 0.5625,-0.2255859 1.186523,-0.3398438 1.875,-0.3398438 z m 0,7.8046875 c 0.773438,0 1.341797,-0.2578125 1.710938,-0.7734375 0.36621,-0.515625 0.550781,-1.2714843 0.550781,-2.2734375 0,-0.9902343 -0.184571,-1.7490234 -0.550781,-2.2734375 -0.369141,-0.5214843 -0.9375,-0.7851562 -1.710938,-0.7851562 -0.773437,0 -1.347656,0.2636719 -1.722656,0.7851562 -0.375,0.5244141 -0.5625,1.2832032 -0.5625,2.2734375 0,0.9931641 0.1875,1.7519532 0.5625,2.2734375 0.375,0.515625 0.949219,0.7734375 1.722656,0.7734375 z m 8.4873,-11.8007811 V -0.00121635 H 99.494992 V -13.37231 Z m 4.55274,0 v 13.37109365 h -2.22656 V -13.37231 Z m 8.13867,7.6874999 c 0,-0.28125 -0.041,-0.5507813 -0.11719,-0.8085938 -0.0791,-0.2578125 -0.19922,-0.4804687 -0.36328,-0.6679687 -0.16406,-0.1933594 -0.37207,-0.3457031 -0.62109,-0.4570313 -0.25195,-0.1083984 -0.53906,-0.1640625 -0.86719,-0.1640625 -0.6416,0 -1.14551,0.1845704 -1.51172,0.5507813 -0.36914,0.3603516 -0.60644,0.8759766 -0.71484,1.546875 z m -4.23047,1.3476562 c 0.0293,0.46875 0.11133,0.8789063 0.2461,1.2304688 0.13183,0.3457031 0.30468,0.6298828 0.51562,0.8554687 0.2168,0.2197266 0.47461,0.3867188 0.77344,0.5039063 0.2959,0.1113281 0.62402,0.1640625 0.98437,0.1640625 0.36621,0 0.67969,-0.041016 0.9375,-0.1289063 0.25782,-0.084961 0.4834,-0.1787109 0.67969,-0.28125 0.19336,-0.099609 0.36621,-0.1904296 0.51563,-0.2695312 0.14648,-0.084961 0.29296,-0.1289063 0.43359,-0.1289063 0.17871,0 0.31641,0.067383 0.41016,0.1992188 l 0.63281,0.8085937 c -0.24317,0.2900391 -0.51563,0.53320317 -0.82031,0.72656255 -0.30469,0.19628906 -0.62696,0.3515625 -0.96094,0.46875 -0.33692,0.1171875 -0.67676,0.19921875 -1.01953,0.24609375 -0.34571,0.05273437 -0.67676,0.08203125 -0.9961,0.08203125 -0.65039,0 -1.25097,-0.10546875 -1.80468,-0.31640625 -0.54786,-0.21679688 -1.02539,-0.53320313 -1.42969,-0.9492188 -0.40723,-0.421875 -0.72656,-0.9375 -0.96094,-1.546875 -0.23437,-0.6152343 -0.35156,-1.3300781 -0.35156,-2.1445312 0,-0.6328125 0.0996,-1.2246094 0.30469,-1.78125 0.20214,-0.5537109 0.49218,-1.0341797 0.86718,-1.4414063 0.38086,-0.4130859 0.84668,-0.7382812 1.39453,-0.9726562 0.55372,-0.2402344 1.17481,-0.3632813 1.86329,-0.3632813 0.58593,0 1.125,0.09375 1.61718,0.28125 0.49219,0.1816407 0.91407,0.4511719 1.26563,0.8085938 0.35156,0.3603516 0.62695,0.8027344 0.83203,1.3242187 0.20215,0.515625 0.30469,1.1074219 0.30469,1.7695313 0,0.3369141 -0.041,0.5625 -0.11719,0.6796875 -0.0703,0.1171875 -0.20801,0.1757812 -0.41016,0.1757812 z m 13.84278,-1.3476562 c 0,-0.28125 -0.041,-0.5507813 -0.11719,-0.8085938 -0.0791,-0.2578125 -0.19922,-0.4804687 -0.36328,-0.6679687 -0.16407,-0.1933594 -0.37207,-0.3457031 -0.6211,-0.4570313 -0.25195,-0.1083984 -0.53906,-0.1640625 -0.86718,-0.1640625 -0.64161,0 -1.14551,0.1845704 -1.51172,0.5507813 -0.36914,0.3603516 -0.60645,0.8759766 -0.71485,1.546875 z m -4.23047,1.3476562 c 0.0293,0.46875 0.11133,0.8789063 0.24609,1.2304688 0.13184,0.3457031 0.30469,0.6298828 0.51563,0.8554687 0.21679,0.2197266 0.47461,0.3867188 0.77343,0.5039063 0.2959,0.1113281 0.62403,0.1640625 0.98438,0.1640625 0.36621,0 0.67969,-0.041016 0.9375,-0.1289063 0.25781,-0.084961 0.4834,-0.1787109 0.67969,-0.28125 0.19336,-0.099609 0.36621,-0.1904296 0.51562,-0.2695312 0.14649,-0.084961 0.29297,-0.1289063 0.43359,-0.1289063 0.17872,0 0.31641,0.067383 0.41016,0.1992188 l 0.63281,0.8085937 c -0.24316,0.2900391 -0.51562,0.53320317 -0.82031,0.72656255 -0.30469,0.19628906 -0.62695,0.3515625 -0.96094,0.46875 -0.33691,0.1171875 -0.67675,0.19921875 -1.01953,0.24609375 -0.3457,0.05273437 -0.67676,0.08203125 -0.99609,0.08203125 -0.65039,0 -1.25098,-0.10546875 -1.80469,-0.31640625 -0.54785,-0.21679688 -1.02539,-0.53320313 -1.42969,-0.9492188 -0.40722,-0.421875 -0.72656,-0.9375 -0.96093,-1.546875 -0.23438,-0.6152343 -0.35157,-1.3300781 -0.35157,-2.1445312 0,-0.6328125 0.0996,-1.2246094 0.30469,-1.78125 0.20215,-0.5537109 0.49219,-1.0341797 0.86719,-1.4414063 0.38086,-0.4130859 0.84668,-0.7382812 1.39453,-0.9726562 0.55371,-0.2402344 1.1748,-0.3632813 1.86328,-0.3632813 0.58594,0 1.125,0.09375 1.61719,0.28125 0.49219,0.1816407 0.91406,0.4511719 1.26562,0.8085938 0.35157,0.3603516 0.62696,0.8027344 0.83203,1.3242187 0.20215,0.515625 0.30469,1.1074219 0.30469,1.7695313 0,0.3369141 -0.041,0.5625 -0.11719,0.6796875 -0.0703,0.1171875 -0.208,0.1757812 -0.41015,0.1757812 z m 0,0"
         style="fill:#071e41;fill-opacity:1;fill-rule:nonzero;stroke:none"
         aria-label="Christan Kollee"
         transform="matrix(1.3333333,0,0,1.3333333,880.06267,530.41959)" />
    </g>
    <g
       id="g23">
      <path
         id="path24"
         d="m 3.8785391,-11.086568 v 3.6093751 h 4.5585937 v 1.8632812 H 3.8785391 v 3.6796875 H 9.6558828 V -6.3041339e-4 H 1.4527578 V -13.020162 h 8.203125 v 1.933594 z m 9.6796879,-2.285156 V -6.3041339e-4 H 11.331664 V -13.371724 Z m 4.517578,10.9804686 c 0.257812,0.3046875 0.533203,0.5214844 0.832031,0.6445312 0.295898,0.1259766 0.609375,0.1875 0.9375,0.1875 0.342773,0 0.650391,-0.058594 0.925781,-0.1757812 0.272461,-0.1230469 0.503906,-0.3164063 0.691406,-0.5742188 0.19336,-0.2636718 0.342774,-0.6005859 0.445313,-1.0078125 0.09961,-0.4042968 0.152344,-0.890625 0.152344,-1.453125 0,-1.0136718 -0.169922,-1.7490234 -0.503907,-2.203125 -0.336914,-0.4511718 -0.820312,-0.6796875 -1.453125,-0.6796875 -0.421875,0 -0.793945,0.099609 -1.113281,0.2929688 -0.322265,0.196289 -0.626953,0.46875 -0.914062,0.8203125 z m 0,-5.7070313 c 0.375,-0.3896484 0.788086,-0.6972656 1.242187,-0.9257812 0.451172,-0.234375 0.966797,-0.3515625 1.546875,-0.3515625 0.539063,0 1.022461,0.1054687 1.453125,0.3164062 0.427735,0.2050782 0.791016,0.5039063 1.089844,0.9023438 0.304687,0.3925781 0.539062,0.8671875 0.703125,1.4296875 0.164062,0.5566406 0.246094,1.180664 0.246094,1.875 0,0.75 -0.09375,1.4355469 -0.28125,2.0507812 -0.1875,0.609375 -0.454102,1.1337891 -0.796875,1.5703125 -0.345703,0.4306641 -0.761719,0.76757816 -1.253907,1.00781254 -0.486328,0.24023437 -1.02539,0.36328125 -1.617187,0.36328125 -0.290039,0 -0.550781,-0.0322266 -0.785156,-0.09375 -0.228516,-0.05273438 -0.442383,-0.13183594 -0.644532,-0.234375 -0.196289,-0.0996094 -0.375,-0.22558594 -0.539062,-0.375 -0.164063,-0.14648438 -0.325195,-0.31054688 -0.480469,-0.49218749 l -0.09375,0.62109374 c -0.04102,0.15820312 -0.102539,0.26953125 -0.1875,0.33984375 -0.08789,0.06445312 -0.205078,0.0937499966 -0.351562,0.0937499966 H 15.860961 V -13.371724 h 2.214844 z m 13.617187,0.6679688 c -0.05566,0.09375 -0.117187,0.1611328 -0.1875,0.1992187 -0.06445,0.041016 -0.146484,0.058594 -0.246094,0.058594 -0.111328,0 -0.228515,-0.026367 -0.351562,-0.082031 -0.117188,-0.061523 -0.257813,-0.1318359 -0.421875,-0.2109375 -0.164063,-0.076172 -0.351563,-0.1435547 -0.5625,-0.1992187 -0.205078,-0.061523 -0.445313,-0.09375 -0.726563,-0.09375 -0.439453,0 -0.782226,0.09375 -1.03125,0.28125 -0.251953,0.1875 -0.375,0.430664 -0.375,0.7265625 0,0.196289 0.06152,0.3632812 0.1875,0.5039062 0.131836,0.1347657 0.304688,0.2519532 0.515625,0.3515625 0.216797,0.1025391 0.459961,0.1962891 0.726563,0.28125 0.272461,0.079102 0.544922,0.1640625 0.820312,0.2578125 0.28125,0.09375 0.553711,0.2050782 0.820313,0.328125 0.272461,0.1259766 0.515625,0.28125 0.726562,0.46875 0.216797,0.1875 0.389649,0.4160157 0.515625,0.6796875 0.131836,0.2666016 0.199219,0.5830078 0.199219,0.9492188 0,0.4453125 -0.08203,0.8554687 -0.246094,1.2304687 -0.158203,0.375 -0.392578,0.70019535 -0.703125,0.97265629 -0.313476,0.27539062 -0.700195,0.48925781 -1.160156,0.64453125 -0.454101,0.14648437 -0.981445,0.22265625 -1.582031,0.22265625 -0.322266,0 -0.632813,-0.0292969 -0.9375,-0.08203125 -0.298828,-0.05566407 -0.585938,-0.13183594 -0.867188,-0.234375 -0.28125,-0.0996094 -0.539062,-0.22265625 -0.773437,-0.36328125 -0.234375,-0.140625 -0.442383,-0.28710938 -0.621094,-0.4453125 l 0.503906,-0.85546879 c 0.07031,-0.099609 0.146485,-0.1787109 0.234375,-0.234375 0.09375,-0.052734 0.210938,-0.082031 0.351563,-0.082031 0.131836,0 0.260742,0.041016 0.386719,0.1171875 0.123047,0.079101 0.263672,0.1640625 0.421875,0.2578125 0.164062,0.087891 0.354492,0.1699219 0.574218,0.2460937 0.216797,0.079102 0.495118,0.1171875 0.832032,0.1171875 0.263672,0 0.492187,-0.029297 0.679687,-0.09375 0.1875,-0.061523 0.342774,-0.1435547 0.46875,-0.2460937 0.123047,-0.099609 0.213867,-0.2167969 0.269531,-0.3515625 0.06152,-0.131836 0.09375,-0.272461 0.09375,-0.421875 0,-0.2109375 -0.06738,-0.3867188 -0.199218,-0.5273438 -0.134766,-0.140625 -0.304688,-0.2607422 -0.515625,-0.3632812 -0.210938,-0.099609 -0.454102,-0.1904297 -0.726563,-0.2695313 -0.27539,-0.084961 -0.55664,-0.1757812 -0.84375,-0.2695312 -0.28125,-0.09375 -0.55957,-0.2021485 -0.832031,-0.328125 -0.275391,-0.131836 -0.515625,-0.2958985 -0.726563,-0.4921875 -0.210937,-0.2021485 -0.383789,-0.4482422 -0.515625,-0.7382813 -0.125976,-0.2871093 -0.1875,-0.6357422 -0.1875,-1.0429687 0,-0.375 0.07324,-0.7324219 0.222657,-1.078125 0.146484,-0.3427735 0.366211,-0.6386719 0.65625,-0.890625 0.295898,-0.2578125 0.659179,-0.459961 1.089843,-0.609375 0.436524,-0.1552735 0.94043,-0.234375 1.511719,-0.234375 0.632813,0 1.209961,0.1054687 1.734375,0.3164062 0.521485,0.2050782 0.955078,0.4775391 1.300781,0.8203125 z m 4.573242,-1.8046875 V -6.3041339e-4 H 34.039672 V -9.2350054 Z m 0.304688,-2.6953126 c 0,0.196289 -0.04102,0.380859 -0.117188,0.550781 -0.0791,0.164063 -0.18457,0.310547 -0.316406,0.433594 -0.125976,0.125977 -0.27539,0.228516 -0.445312,0.304688 -0.172852,0.07031 -0.357422,0.105468 -0.550782,0.105468 -0.196289,0 -0.380859,-0.03516 -0.550781,-0.105468 -0.172851,-0.07617 -0.322265,-0.178711 -0.445312,-0.304688 -0.125977,-0.123047 -0.228516,-0.269531 -0.304688,-0.433594 -0.07031,-0.169922 -0.105469,-0.354492 -0.105469,-0.550781 0,-0.193359 0.03516,-0.37793 0.105469,-0.550781 0.07617,-0.169922 0.178711,-0.319336 0.304688,-0.445313 0.123047,-0.131836 0.272461,-0.234375 0.445312,-0.304687 0.169922,-0.07617 0.354492,-0.117188 0.550781,-0.117188 0.19336,0 0.37793,0.04102 0.550782,0.117188 0.169922,0.07031 0.319336,0.172851 0.445312,0.304687 0.131836,0.125977 0.237305,0.275391 0.316406,0.445313 0.07617,0.172851 0.117188,0.357422 0.117188,0.550781 z m 7.760742,5.0507813 c -0.251953,-0.3046875 -0.524414,-0.5185547 -0.820312,-0.6445312 -0.298829,-0.1230469 -0.618164,-0.1875 -0.960938,-0.1875 -0.336914,0 -0.641601,0.064453 -0.914062,0.1875 -0.266602,0.1259765 -0.498047,0.3164062 -0.691407,0.5742187 -0.1875,0.2519532 -0.333984,0.5742188 -0.433593,0.9726563 -0.102539,0.3925781 -0.152344,0.852539 -0.152344,1.3828125 0,0.5390625 0.04101,0.9960937 0.128906,1.3710937 0.08496,0.375 0.210938,0.6855469 0.375,0.9257813 0.164063,0.234375 0.357422,0.4072265 0.585938,0.515625 0.234375,0.102539 0.495117,0.1523437 0.785156,0.1523437 0.459961,0 0.849609,-0.09375 1.171875,-0.28125 0.328125,-0.1933593 0.635742,-0.46875 0.925781,-0.8203125 z m 2.226563,-6.4921873 V -6.3041339e-4 h -1.359375 c -0.298829,0 -0.486329,-0.13476562661 -0.5625,-0.41015624661 l -0.1875,-0.89062504 c -0.369141,0.4306641 -0.793946,0.77929691 -1.277344,1.04296879 -0.486328,0.26367187 -1.048828,0.3984375 -1.6875,0.3984375 -0.509766,0 -0.972656,-0.10546875 -1.394531,-0.31640625 -0.416016,-0.2109375 -0.773438,-0.515625 -1.078125,-0.91406254 -0.304688,-0.3984375 -0.539063,-0.890625 -0.703125,-1.4765625 -0.164063,-0.5917968 -0.246094,-1.2685547 -0.246094,-2.0273437 0,-0.6796875 0.09375,-1.3125 0.28125,-1.8984375 0.1875,-0.5917969 0.451172,-1.1044922 0.796875,-1.5351563 0.351562,-0.4277343 0.767578,-0.7646484 1.253906,-1.0078125 0.483399,-0.2490234 1.03125,-0.375 1.640625,-0.375 0.515625,0 0.952149,0.082031 1.3125,0.2460938 0.366211,0.1640625 0.694336,0.383789 0.984375,0.65625 v -4.8632811 z m 8.129882,7.6874998 c 0,-0.28125 -0.04101,-0.5507812 -0.117187,-0.8085937 -0.0791,-0.2578125 -0.199219,-0.4804688 -0.363281,-0.6679688 -0.164063,-0.1933593 -0.372071,-0.3457031 -0.621094,-0.4570312 -0.251953,-0.1083985 -0.539063,-0.1640625 -0.867188,-0.1640625 -0.641601,0 -1.145507,0.1845703 -1.511718,0.5507812 -0.369141,0.3603516 -0.606446,0.8759766 -0.714844,1.546875 z m -4.230468,1.3476563 c 0.0293,0.46875 0.111328,0.8789062 0.246093,1.2304687 0.131836,0.3457032 0.304688,0.6298828 0.515625,0.8554688 0.216797,0.2197265 0.47461,0.3867187 0.773438,0.5039062 0.295898,0.1113282 0.624023,0.1640625 0.984375,0.1640625 0.366211,0 0.679687,-0.041016 0.9375,-0.1289062 0.257812,-0.084961 0.483398,-0.178711 0.679687,-0.28125 0.19336,-0.099609 0.366211,-0.1904297 0.515625,-0.2695313 0.146485,-0.084961 0.292969,-0.1289062 0.433594,-0.1289062 0.178711,0 0.316406,0.067383 0.410156,0.1992187 l 0.632813,0.8085938 c -0.243164,0.290039 -0.515625,0.53320311 -0.820313,0.72656249 -0.304687,0.19628906 -0.626953,0.3515625 -0.960937,0.46875 -0.336914,0.1171875 -0.676758,0.19921875 -1.019531,0.24609375 -0.345703,0.05273437 -0.676758,0.08203125 -0.996094,0.08203125 -0.650391,0 -1.250977,-0.10546875 -1.804688,-0.31640625 -0.547851,-0.21679688 -1.02539,-0.53320313 -1.429687,-0.94921874 -0.407227,-0.421875 -0.726563,-0.9375 -0.960938,-1.546875 -0.234375,-0.6152344 -0.351562,-1.3300781 -0.351562,-2.1445313 0,-0.6328125 0.09961,-1.2246093 0.304687,-1.78125 0.202149,-0.5537109 0.492188,-1.0341797 0.867188,-1.4414062 0.380859,-0.413086 0.84668,-0.7382813 1.394531,-0.9726563 0.553711,-0.2402343 1.174805,-0.3632812 1.863281,-0.3632812 0.585938,0 1.125,0.09375 1.617188,0.28125 0.492187,0.1816406 0.914062,0.4511719 1.265625,0.8085937 0.351562,0.3603516 0.626953,0.8027344 0.832031,1.3242188 0.202149,0.515625 0.304688,1.1074219 0.304688,1.7695312 0,0.3369141 -0.04102,0.5625 -0.117188,0.6796875 -0.07031,0.1171875 -0.208008,0.1757813 -0.410156,0.1757813 z m 13.491211,-3.09375 c -0.05566,0.09375 -0.117188,0.1611328 -0.1875,0.1992187 -0.06445,0.041016 -0.146485,0.058594 -0.246094,0.058594 -0.111328,0 -0.228516,-0.026367 -0.351563,-0.082031 -0.117187,-0.061523 -0.257812,-0.1318359 -0.421875,-0.2109375 -0.164062,-0.076172 -0.351562,-0.1435547 -0.5625,-0.1992187 -0.205078,-0.061523 -0.445312,-0.09375 -0.726562,-0.09375 -0.439453,0 -0.782227,0.09375 -1.03125,0.28125 -0.251953,0.1875 -0.375,0.430664 -0.375,0.7265625 0,0.196289 0.06152,0.3632812 0.1875,0.5039062 0.131836,0.1347657 0.304687,0.2519532 0.515625,0.3515625 0.216797,0.1025391 0.459961,0.1962891 0.726562,0.28125 0.272461,0.079102 0.544922,0.1640625 0.820313,0.2578125 0.28125,0.09375 0.553711,0.2050782 0.820312,0.328125 0.272461,0.1259766 0.515625,0.28125 0.726563,0.46875 0.216797,0.1875 0.389648,0.4160157 0.515625,0.6796875 0.131836,0.2666016 0.199219,0.5830078 0.199219,0.9492188 0,0.4453125 -0.08203,0.8554687 -0.246094,1.2304687 -0.158203,0.375 -0.392578,0.70019535 -0.703125,0.97265629 -0.313477,0.27539062 -0.700195,0.48925781 -1.160156,0.64453125 -0.454102,0.14648437 -0.981446,0.22265625 -1.582032,0.22265625 -0.322265,0 -0.632812,-0.0292969 -0.9375,-0.08203125 -0.298828,-0.05566407 -0.585937,-0.13183594 -0.867187,-0.234375 -0.28125,-0.0996094 -0.539063,-0.22265625 -0.773438,-0.36328125 -0.234375,-0.140625 -0.442382,-0.28710938 -0.621093,-0.4453125 l 0.503906,-0.85546879 c 0.07031,-0.099609 0.146484,-0.1787109 0.234375,-0.234375 0.09375,-0.052734 0.210937,-0.082031 0.351562,-0.082031 0.131836,0 0.260743,0.041016 0.386719,0.1171875 0.123047,0.079101 0.263672,0.1640625 0.421875,0.2578125 0.164063,0.087891 0.354492,0.1699219 0.574219,0.2460937 0.216797,0.079102 0.495117,0.1171875 0.832031,0.1171875 0.263672,0 0.492188,-0.029297 0.679688,-0.09375 0.1875,-0.061523 0.342773,-0.1435547 0.46875,-0.2460937 0.123046,-0.099609 0.213867,-0.2167969 0.269531,-0.3515625 0.06152,-0.131836 0.09375,-0.272461 0.09375,-0.421875 0,-0.2109375 -0.06738,-0.3867188 -0.199219,-0.5273438 -0.134766,-0.140625 -0.304687,-0.2607422 -0.515625,-0.3632812 -0.210937,-0.099609 -0.454101,-0.1904297 -0.726562,-0.2695313 -0.275391,-0.084961 -0.556641,-0.1757812 -0.84375,-0.2695312 -0.28125,-0.09375 -0.559571,-0.2021485 -0.832032,-0.328125 -0.27539,-0.131836 -0.515625,-0.2958985 -0.726562,-0.4921875 -0.210938,-0.2021485 -0.383789,-0.4482422 -0.515625,-0.7382813 -0.125977,-0.2871093 -0.1875,-0.6357422 -0.1875,-1.0429687 0,-0.375 0.07324,-0.7324219 0.222656,-1.078125 0.146484,-0.3427735 0.366211,-0.6386719 0.65625,-0.890625 0.295899,-0.2578125 0.65918,-0.459961 1.089844,-0.609375 0.436523,-0.1552735 0.94043,-0.234375 1.511719,-0.234375 0.632812,0 1.209961,0.1054687 1.734375,0.3164062 0.521484,0.2050782 0.955078,0.4775391 1.300781,0.8203125 z m 0,0"
         style="fill:#071e41;fill-opacity:1;fill-rule:nonzero;stroke:none"
         aria-label="Elbsides"
         transform="matrix(1.3333333,0,0,1.3333333,961.96533,559.21959)" />
    </g>
    <g
       id="g24">
      <path
         id="path25"
         d="m 8.8227891,-2.0742632 c 0.2402343,0 0.4335937,0.070312 0.5742187,0.2109375 0.140625,0.1347656 0.2109375,0.3105468 0.2109375,0.5273437 V -4.4475886e-5 H 0.67825781 V -0.73832573 c 0,-0.14648437 0.0292969,-0.30468747 0.09375,-0.46874997 0.0615234,-0.1640625 0.1640625,-0.3105469 0.30468749,-0.4453125 l 3.9492188,-3.9609375 c 0.3339843,-0.3339844 0.6328125,-0.65625 0.890625,-0.9609375 0.2578125,-0.3105469 0.4716797,-0.6152344 0.6445312,-0.9140625 0.178711,-0.2958985 0.3164063,-0.5976563 0.4101563,-0.9023438 0.09375,-0.3105469 0.140625,-0.6386719 0.140625,-0.984375 0,-0.3105469 -0.046875,-0.5859375 -0.140625,-0.8203125 -0.087891,-0.240234 -0.2167969,-0.439453 -0.3867188,-0.597656 -0.1640625,-0.164063 -0.3632812,-0.28418 -0.5976562,-0.363281 -0.2285157,-0.08496 -0.4863282,-0.128907 -0.7734375,-0.128907 -0.2578125,0 -0.5009766,0.04102 -0.7265625,0.117188 -0.2285157,0.07031 -0.4277344,0.175781 -0.5976563,0.316406 -0.1728515,0.134766 -0.3222656,0.290039 -0.4453125,0.46875 -0.1171875,0.181641 -0.2080078,0.375 -0.2695312,0.5859375 -0.1025391,0.28125 -0.234375,0.46875 -0.3984375,0.5625 -0.1582032,0.087891 -0.3925782,0.1054688 -0.703125,0.058594 L 0.91263281,-9.3867632 c 0.0849609,-0.6240238 0.25781249,-1.1718748 0.51562499,-1.6406248 0.2578125,-0.46875 0.5771485,-0.858399 0.9609375,-1.171875 0.3896485,-0.319336 0.834961,-0.556641 1.3359375,-0.714844 0.4980469,-0.164062 1.0371094,-0.246094 1.6171875,-0.246094 0.600586,0 1.1484375,0.09082 1.640625,0.269532 0.4980469,0.172851 0.9257813,0.421875 1.2773438,0.75 0.3574218,0.322265 0.6357422,0.711914 0.8320312,1.171875 0.2021485,0.454101 0.3046875,0.960937 0.3046875,1.523437 0,0.4775391 -0.070312,0.9199219 -0.2109375,1.3242188 -0.140625,0.4072265 -0.3339844,0.796875 -0.5742187,1.171875 -0.234375,0.375 -0.5126953,0.7382812 -0.8320313,1.0898437 -0.3134765,0.3457031 -0.6445312,0.6972656 -0.9960937,1.0546875 l -2.9296875,3 c 0.28125,-0.084961 0.5566406,-0.1523437 0.8320312,-0.1992187 0.28125,-0.046875 0.5449219,-0.070312 0.796875,-0.070312 z M 20.424352,-6.5039507 c 0,1.133789 -0.123047,2.118164 -0.363282,2.953125 -0.243164,0.8378906 -0.580078,1.5292968 -1.007812,2.0742187 -0.430664,0.54785159 -0.9375,0.95507815 -1.523438,1.21875002 -0.580078,0.26367188 -1.207031,0.3984375 -1.886718,0.3984375 -0.679688,0 -1.309571,-0.13476562 -1.886719,-0.3984375 -0.580078,-0.26367187 -1.083985,-0.67089843 -1.511719,-1.21875002 -0.421875,-0.5449219 -0.755859,-1.2363281 -0.996094,-2.0742187 -0.243164,-0.834961 -0.363281,-1.819336 -0.363281,-2.953125 0,-1.1396485 0.120117,-2.1269532 0.363281,-2.9648438 0.240235,-0.8349605 0.574219,-1.5234375 0.996094,-2.0624995 0.427734,-0.544922 0.931641,-0.952149 1.511719,-1.21875 0.577148,-0.272461 1.207031,-0.410157 1.886719,-0.410157 0.679687,0 1.30664,0.137696 1.886718,0.410157 0.585938,0.266601 1.092774,0.673828 1.523438,1.21875 0.427734,0.539062 0.764648,1.227539 1.007812,2.0624995 0.240235,0.8378906 0.363282,1.8251953 0.363282,2.9648438 z m -2.285157,0 c 0,-0.9433594 -0.07031,-1.725586 -0.210937,-2.34375 -0.140625,-0.6152344 -0.328125,-1.1074219 -0.5625,-1.4765623 -0.228516,-0.366211 -0.492188,-0.621094 -0.796875,-0.761719 -0.298828,-0.146484 -0.606445,-0.222656 -0.925781,-0.222656 -0.322266,0 -0.629883,0.07617 -0.925782,0.222656 -0.298828,0.140625 -0.55957,0.395508 -0.785156,0.761719 -0.228516,0.3691404 -0.410156,0.8613279 -0.550781,1.4765623 -0.134766,0.618164 -0.199219,1.4003906 -0.199219,2.34375 0,0.9375 0.06445,1.7197265 0.199219,2.34375 0.140625,0.618164 0.322265,1.1103515 0.550781,1.4765625 0.225586,0.3603515 0.486328,0.6152343 0.785156,0.7617187 0.295899,0.1494141 0.603516,0.2226563 0.925782,0.2226563 0.319336,0 0.626953,-0.073242 0.925781,-0.2226563 0.304687,-0.1464844 0.568359,-0.4013672 0.796875,-0.7617187 0.234375,-0.366211 0.421875,-0.8583985 0.5625,-1.4765625 0.140625,-0.6240235 0.210937,-1.40625 0.210937,-2.34375 z m 11.566407,4.4296875 c 0.240234,0 0.433593,0.070312 0.574218,0.2109375 0.140625,0.1347656 0.210938,0.3105468 0.210938,0.5273437 V -4.4475886e-5 H 21.56107 V -0.73832573 c 0,-0.14648437 0.0293,-0.30468747 0.09375,-0.46874997 0.06152,-0.1640625 0.164063,-0.3105469 0.304688,-0.4453125 l 3.949219,-3.9609375 c 0.333984,-0.3339844 0.632812,-0.65625 0.890625,-0.9609375 0.257812,-0.3105469 0.471679,-0.6152344 0.644531,-0.9140625 0.178711,-0.2958985 0.316406,-0.5976563 0.410156,-0.9023438 0.09375,-0.3105469 0.140625,-0.6386719 0.140625,-0.984375 0,-0.3105469 -0.04687,-0.5859375 -0.140625,-0.8203125 -0.08789,-0.240234 -0.216797,-0.439453 -0.386719,-0.597656 -0.164062,-0.164063 -0.363281,-0.28418 -0.597656,-0.363281 -0.228516,-0.08496 -0.486328,-0.128907 -0.773437,-0.128907 -0.257813,0 -0.500977,0.04102 -0.726563,0.117188 -0.228516,0.07031 -0.427734,0.175781 -0.597656,0.316406 -0.172852,0.134766 -0.322266,0.290039 -0.445313,0.46875 -0.117187,0.181641 -0.208007,0.375 -0.269531,0.5859375 -0.102539,0.28125 -0.234375,0.46875 -0.398437,0.5625 -0.158204,0.087891 -0.392579,0.1054688 -0.703125,0.058594 L 21.795445,-9.386763 c 0.08496,-0.624024 0.257813,-1.171875 0.515625,-1.640625 0.257813,-0.46875 0.577149,-0.858399 0.960938,-1.171875 0.389648,-0.319336 0.834961,-0.556641 1.335937,-0.714844 0.498047,-0.164062 1.03711,-0.246094 1.617188,-0.246094 0.600586,0 1.148437,0.09082 1.640625,0.269532 0.498047,0.172851 0.925781,0.421875 1.277344,0.75 0.357421,0.322265 0.635742,0.711914 0.832031,1.171875 0.202148,0.454101 0.304687,0.960937 0.304687,1.5234372 0,0.4775391 -0.07031,0.9199219 -0.210937,1.3242188 -0.140625,0.4072265 -0.333985,0.796875 -0.574219,1.171875 -0.234375,0.375 -0.512695,0.7382812 -0.832031,1.0898437 -0.313477,0.3457031 -0.644531,0.6972656 -0.996094,1.0546875 l -2.929687,3 c 0.28125,-0.084961 0.55664,-0.1523437 0.832031,-0.1992187 0.28125,-0.046875 0.544922,-0.070312 0.796875,-0.070312 z m 8.024414,-2.8359375 V -9.164107 c 0,-0.3984375 0.02637,-0.837891 0.08203,-1.324219 l -4.042969,5.5781253 z m 3.574218,0 v 1.2890625 c 0,0.1259765 -0.04102,0.2314453 -0.117187,0.3164062 -0.0791,0.087891 -0.193359,0.1289063 -0.339844,0.1289063 H 39.663609 V -4.4475886e-5 H 37.730016 V -3.1758257 h -5.496094 c -0.149414,0 -0.28125,-0.046875 -0.398438,-0.140625 -0.111328,-0.09375 -0.18164,-0.2109375 -0.210937,-0.3515625 l -0.234375,-1.125 6.164062,-8.2265628 h 2.109375 v 8.1093753 z m 1.488282,-1.453125 h 4.652343 v 1.8515625 h -4.652343 z m 15.55664,-0.140625 c 0,1.133789 -0.123047,2.118164 -0.363281,2.953125 -0.243164,0.8378906 -0.580078,1.5292968 -1.007812,2.0742187 -0.430665,0.54785159 -0.9375,0.95507815 -1.523438,1.21875002 -0.580078,0.26367188 -1.207031,0.3984375 -1.886719,0.3984375 -0.679687,0 -1.30957,-0.13476562 -1.886718,-0.3984375 -0.580079,-0.26367187 -1.083985,-0.67089843 -1.511719,-1.21875002 -0.421875,-0.5449219 -0.75586,-1.2363281 -0.996094,-2.0742187 -0.243164,-0.834961 -0.363281,-1.819336 -0.363281,-2.953125 0,-1.1396485 0.120117,-2.1269532 0.363281,-2.9648438 0.240234,-0.8349605 0.574219,-1.5234375 0.996094,-2.0624995 0.427734,-0.544922 0.93164,-0.952149 1.511719,-1.21875 0.577148,-0.272461 1.207031,-0.410157 1.886718,-0.410157 0.679688,0 1.306641,0.137696 1.886719,0.410157 0.585938,0.266601 1.092773,0.673828 1.523438,1.21875 0.427734,0.539062 0.764648,1.227539 1.007812,2.0624995 0.240234,0.8378906 0.363281,1.8251953 0.363281,2.9648438 z m -2.285156,0 c 0,-0.9433594 -0.07031,-1.725586 -0.210937,-2.34375 -0.140625,-0.6152344 -0.328125,-1.1074219 -0.5625,-1.4765623 -0.228516,-0.366211 -0.492188,-0.621094 -0.796875,-0.761719 -0.298829,-0.146484 -0.606446,-0.222656 -0.925782,-0.222656 -0.322265,0 -0.629883,0.07617 -0.925781,0.222656 -0.298828,0.140625 -0.55957,0.395508 -0.785156,0.761719 -0.228516,0.3691404 -0.410156,0.8613279 -0.550781,1.4765623 -0.134766,0.618164 -0.199219,1.4003906 -0.199219,2.34375 0,0.9375 0.06445,1.7197265 0.199219,2.34375 0.140625,0.618164 0.322265,1.1103515 0.550781,1.4765625 0.225586,0.3603515 0.486328,0.6152343 0.785156,0.7617187 0.295898,0.1494141 0.603516,0.2226563 0.925781,0.2226563 0.319336,0 0.626953,-0.073242 0.925782,-0.2226563 0.304687,-0.1464844 0.568359,-0.4013672 0.796875,-0.7617187 0.234375,-0.366211 0.421875,-0.8583985 0.5625,-1.4765625 0.140625,-0.6240235 0.210937,-1.40625 0.210937,-2.34375 z m 5.707031,-2.6015625 c 0,0.7265625 0.1875,1.2832031 0.5625,1.6640625 0.375,0.375 0.908203,0.5625 1.605469,0.5625 0.357422,0 0.679688,-0.052734 0.960938,-0.1640625 0.28125,-0.1171875 0.515625,-0.272461 0.703125,-0.46875 0.193359,-0.2021485 0.342773,-0.4365235 0.445312,-0.703125 0.09961,-0.272461 0.152344,-0.5654297 0.152344,-0.8789063 0,-0.3515625 -0.05566,-0.6621094 -0.164063,-0.9374995 -0.111328,-0.28125 -0.266601,-0.518555 -0.46875,-0.714844 -0.196289,-0.19336 -0.430664,-0.342774 -0.703125,-0.445313 -0.27539,-0.09961 -0.571289,-0.152343 -0.890625,-0.152343 -0.336914,0 -0.641601,0.05859 -0.914062,0.175781 -0.266602,0.111328 -0.498047,0.263672 -0.691406,0.457031 -0.1875,0.196289 -0.336915,0.430664 -0.445313,0.703125 -0.102539,0.2753906 -0.152344,0.5742188 -0.152344,0.9023438 z m 2.953125,4.0546875 c 0.09961,-0.1230469 0.19336,-0.2460938 0.28125,-0.3632813 0.09375,-0.1230469 0.181641,-0.2460937 0.269532,-0.3632812 -0.298829,0.196289 -0.626954,0.3457031 -0.984375,0.4453125 -0.360352,0.09375 -0.738282,0.140625 -1.136719,0.140625 -0.454102,0 -0.896485,-0.076172 -1.324219,-0.234375 -0.430664,-0.1552735 -0.814453,-0.3896485 -1.148437,-0.703125 -0.336915,-0.319336 -0.609375,-0.7089844 -0.820313,-1.171875 -0.205078,-0.46875 -0.304687,-1.0136719 -0.304687,-1.640625 0,-0.5771485 0.105468,-1.1191403 0.316406,-1.6289063 0.216797,-0.515625 0.521484,-0.963867 0.914062,-1.347656 0.389649,-0.38086 0.858399,-0.682617 1.40625,-0.902344 0.544922,-0.225586 1.148438,-0.339844 1.804688,-0.339844 0.662109,0 1.259765,0.105469 1.792969,0.316407 0.530273,0.210937 0.984375,0.509765 1.359375,0.890625 0.375,0.375 0.662109,0.829101 0.867187,1.359375 0.202148,0.524414 0.304688,1.101562 0.304688,1.7343745 0,0.3984375 -0.03516,0.7792969 -0.105469,1.1367188 -0.07031,0.3603515 -0.169922,0.7089843 -0.292969,1.0429687 -0.125977,0.328125 -0.27832,0.6533203 -0.457031,0.9726563 -0.181641,0.3222656 -0.383789,0.6386718 -0.609375,0.9492187 l -2.976563,4.24218752 c -0.102539,0.14941407 -0.254883,0.27539063 -0.457031,0.375 -0.205078,0.09375 -0.433594,0.140625004114 -0.691406,0.140625004114 h -2.039063 z m 5.551758,-1.3125 h 4.652344 v 1.8515625 h -4.652344 z m 15,4.6992187 V -4.4475886e-5 H 78.068883 V -1.664107 h 2.648437 v -7.59375 c 0,-0.2958984 0.0059,-0.6035156 0.02344,-0.925781 l -1.875,1.5703123 c -0.111328,0.087891 -0.219727,0.140625 -0.328125,0.1640625 -0.102539,0.017578 -0.199219,0.017578 -0.292969,0 -0.08789,-0.014648 -0.169922,-0.046875 -0.246094,-0.09375 -0.07031,-0.046875 -0.123047,-0.09668 -0.152343,-0.1523438 l -0.703125,-0.9609375 3.960937,-3.3749995 h 1.828125 v 11.367187 z m 2.097656,-7.7226562 c 0.08496,-0.6240238 0.257813,-1.1718748 0.515625,-1.6406248 0.263672,-0.46875 0.588868,-0.858399 0.972657,-1.171875 0.389648,-0.319336 0.834961,-0.556641 1.335937,-0.714844 0.498047,-0.164062 1.037109,-0.246094 1.617188,-0.246094 0.591796,0 1.130859,0.08789 1.617187,0.257813 0.483399,0.172851 0.896484,0.410156 1.242188,0.714844 0.342773,0.304687 0.603515,0.662109 0.785156,1.066406 0.178711,0.407226 0.269531,0.849609 0.269531,1.3242185 0,0.4160156 -0.04687,0.7792969 -0.140625,1.0898438 -0.08789,0.3134765 -0.219726,0.5859375 -0.398437,0.8203125 -0.172852,0.234375 -0.386719,0.4335937 -0.644532,0.5976562 -0.257812,0.1640625 -0.547851,0.2988281 -0.867187,0.3984375 0.773437,0.2519531 1.350586,0.6298828 1.734375,1.1367188 0.389648,0.5009765 0.585937,1.133789 0.585937,1.8984375 0,0.6416015 -0.123047,1.2128906 -0.363281,1.7109375 -0.243164,0.5009765 -0.568359,0.9228515 -0.972656,1.26562497 -0.407227,0.33691407 -0.878906,0.59179688 -1.417969,0.76171875 -0.539062,0.16992188 -1.107422,0.2578125 -1.699219,0.2578125 -0.65625,0 -1.230468,-0.07617187 -1.722656,-0.22265625 -0.486328,-0.14648437 -0.908203,-0.36621093 -1.265625,-0.65625 C 88.196813,-1.0342242 87.892125,-1.3945757 87.643102,-1.8164507 87.391148,-2.2441851 87.177281,-2.742232 86.99857,-3.304732 l 0.972657,-0.3984375 c 0.257812,-0.1083984 0.498046,-0.1347656 0.726562,-0.082031 0.225586,0.046875 0.389649,0.1640625 0.492188,0.3515625 0.108398,0.2109375 0.225586,0.4189453 0.351562,0.6210937 0.131836,0.2050781 0.287109,0.3867188 0.46875,0.5507813 0.178711,0.1582031 0.389649,0.2871093 0.632813,0.3867187 0.240234,0.1025391 0.530273,0.1523438 0.867187,0.1523438 0.380859,0 0.714844,-0.061523 0.996094,-0.1875 0.28125,-0.1230469 0.515625,-0.2841797 0.703125,-0.4804688 0.1875,-0.2021484 0.328125,-0.4248047 0.421875,-0.6679687 0.09375,-0.2402344 0.140625,-0.4833985 0.140625,-0.7265625 0,-0.3105469 -0.03516,-0.5976563 -0.105469,-0.8554688 -0.06445,-0.2578125 -0.199219,-0.4746094 -0.410156,-0.65625 -0.210938,-0.1787109 -0.512695,-0.3193359 -0.902344,-0.421875 -0.392578,-0.099609 -0.919922,-0.1523437 -1.582031,-0.1523437 v -1.5820313 c 0.544922,-0.00586 0.999023,-0.058594 1.359375,-0.1523437 0.357422,-0.09375 0.644531,-0.225586 0.855469,-0.3984375 0.216796,-0.1699219 0.366211,-0.375 0.445312,-0.609375 0.08496,-0.2402344 0.128906,-0.506836 0.128906,-0.796875 0,-0.6152345 -0.172851,-1.0810545 -0.515625,-1.3945315 -0.336914,-0.319336 -0.791015,-0.480469 -1.359375,-0.480469 -0.266601,0 -0.512695,0.04102 -0.738281,0.117188 -0.219726,0.07031 -0.418945,0.175781 -0.597656,0.316406 -0.172852,0.134766 -0.322266,0.290039 -0.445313,0.46875 -0.117187,0.181641 -0.208007,0.375 -0.269531,0.5859377 -0.102539,0.28125 -0.234375,0.46875 -0.398437,0.5625 -0.164063,0.087891 -0.395508,0.1054688 -0.691407,0.058594 z m 0,0"
         style="fill:#071e41;fill-opacity:1;fill-rule:nonzero;stroke:none"
         aria-label="2024-09-13"
         transform="matrix(1.3333333,0,0,1.3333333,919.748,588.01959)" />
    </g>
  </g>
</svg>
