<?xml version="1.0" encoding="UTF-8" standalone="no"?>
<!-- Created with Inkscape (http://www.inkscape.org/) -->
<svg
   xmlns:dc="http://purl.org/dc/elements/1.1/"
   xmlns:cc="http://creativecommons.org/ns#"
   xmlns:rdf="http://www.w3.org/1999/02/22-rdf-syntax-ns#"
   xmlns:svg="http://www.w3.org/2000/svg"
   xmlns="http://www.w3.org/2000/svg"
   xmlns:sodipodi="http://sodipodi.sourceforge.net/DTD/sodipodi-0.dtd"
   xmlns:inkscape="http://www.inkscape.org/namespaces/inkscape"
   id="svg2"
   sodipodi:version="0.32"
   inkscape:version="0.46"
   width="281.21136"
   height="94.164062"
   xml:space="preserve"
   sodipodi:docname="dfn-cert-logo.svg"
   version="1.0"
   inkscape:output_extension="org.inkscape.output.svg.inkscape"><metadata
     id="metadata7"><rdf:RDF><cc:Work
         rdf:about=""><dc:format>image/svg+xml</dc:format><dc:type
           rdf:resource="http://purl.org/dc/dcmitype/StillImage" /></cc:Work></rdf:RDF></metadata><defs
     id="defs5"><inkscape:perspective
       sodipodi:type="inkscape:persp3d"
       inkscape:vp_x="0 : 526.18109 : 1"
       inkscape:vp_y="0 : 1000 : 0"
       inkscape:vp_z="744.09448 : 526.18109 : 1"
       inkscape:persp3d-origin="372.04724 : 350.78739 : 1"
       id="perspective9" /></defs><sodipodi:namedview
     inkscape:window-height="911"
     inkscape:window-width="1373"
     inkscape:pageshadow="2"
     inkscape:pageopacity="0.0"
     guidetolerance="10.0"
     gridtolerance="10.0"
     objecttolerance="10.0"
     borderopacity="1.0"
     bordercolor="#666666"
     pagecolor="#ffffff"
     id="base"
     showgrid="false"
     inkscape:zoom="1.3275468"
     inkscape:cx="22.143993"
     inkscape:cy="58.819285"
     inkscape:window-x="2"
     inkscape:window-y="54"
     inkscape:current-layer="g11" /><g
     id="g11"
     inkscape:groupmode="layer"
     inkscape:label="dfn-cert-logo-cmyk"
     transform="matrix(1.25,0,0,-1.25,0,95)"><path
       id="path15"
       style="fill:#000000;fill-opacity:1;fill-rule:evenodd;stroke:none"
       d="M 0.00585938,12.5688 C 0.00585938,4.53164 3.03086,0.66875 12.6,0.66875 L 30.6621,0.66875 C 40.5715,0.66875 42.6215,3.78477 42.6215,9.54102 L 42.6215,11.691 L 38.1309,11.691 L 38.1309,9.71562 C 38.1309,5.4125 36.2777,4.18477 29.8309,4.18477 L 13.084,4.18477 C 8.49688,4.18477 4.78438,5.4125 4.78438,10.9473 L 4.78438,22.891 C 4.78438,28.4254 8.49375,29.6531 13.084,29.6531 L 29.684,29.6531 C 34.0777,29.6531 37.7871,29.391 37.7871,23.991 L 37.7871,22.5441 L 41.984,22.5441 L 41.984,25.2656 C 41.984,29.5254 39.5938,33.1688 30.9027,33.1688 L 12.5938,33.1688 C 3.025,33.1688 0,29.3062 0,21.2688 L 0,12.575" /><path
       id="path17"
       style="fill:#000000;fill-opacity:1;fill-rule:evenodd;stroke:none"
       d="M 65.9652,1.01875 L 100.875,1.01875 L 100.875,4.53164 L 70.7527,4.53164 L 70.7527,15.641 L 99.5094,15.641 L 99.5094,19.1531 L 70.7527,19.1531 L 70.7527,29.2973 L 100.681,29.2973 L 100.681,32.8094 L 65.9684,32.8094 L 65.9684,1.0125" /><path
       id="path19"
       style="fill:#000000;fill-opacity:1;fill-rule:evenodd;stroke:none"
       d="M 123.481,1.01875 L 128.265,1.01875 L 128.265,13.5785 L 151.603,13.5785 C 155.947,13.5785 158.631,12.9656 158.631,8.00312 L 158.631,1.02188 L 163.121,1.02188 L 163.121,9.14727 C 163.121,12.0441 161.953,14.3285 157.069,15.1188 L 157.069,15.2031 C 160.728,15.5094 163.559,16.741 163.559,21.2188 L 163.559,23.8094 C 163.559,29.7816 161.949,32.8125 151.747,32.8125 L 123.478,32.8125 L 123.478,1.01562 L 123.481,1.01875 z M 128.265,17.0941 L 128.265,29.3031 L 150.041,29.3031 C 157.069,29.3031 158.778,28.1625 158.778,24.6062 L 158.778,21.7094 C 158.778,18.3719 156.534,17.1 151.212,17.1 L 128.265,17.1" /><path
       id="path21"
       style="fill:#000000;fill-opacity:1;fill-rule:evenodd;stroke:none"
       d="M 201.6,1.01875 L 206.384,1.01875 L 206.384,29.3031 L 224.253,29.3031 L 224.253,32.8156 L 183.731,32.8156 L 183.731,29.3031 L 201.6,29.3031 L 201.6,1.01875" /><path
       id="path23"
       style="fill:#000000;fill-opacity:1;fill-rule:evenodd;stroke:none"
       d="M 0.5,44.2031 L 34.8469,44.2031 C 46.2246,44.2031 50.2246,47.4062 50.2246,55.2688 L 50.2246,64.9285 C 50.2246,72.7879 46.2277,75.9941 34.8469,75.9941 L 0.5,75.9941 L 0.5,44.1973 L 0.5,44.2031 z M 11.8809,68.0973 L 32.0777,68.0973 C 36.9469,68.0973 38.8438,66.9125 38.8438,62.3879 L 38.8438,58.0848 C 38.8438,53.5625 36.95,52.375 32.0777,52.375 L 11.8809,52.375 L 11.8809,68.0973" /><path
       id="path25"
       style="fill:#000000;fill-opacity:1;fill-rule:evenodd;stroke:none"
       d="M 62.2246,44.2031 L 73.6027,44.2031 L 73.6027,55.05 L 99.6965,55.05 L 99.6965,62.4285 L 73.6027,62.4285 L 73.6027,68.3562 L 100.978,68.3562 L 100.978,75.9973 L 62.2215,75.9973 L 62.2215,44.2" /><path
       id="path27"
       style="fill:#000000;fill-opacity:1;fill-rule:evenodd;stroke:none"
       d="M 112.978,44.2031 L 124.356,44.2031 L 124.356,67.3031 L 124.456,67.3031 L 145.834,44.2031 L 163.469,44.2031 L 163.469,76 L 152.09,76 L 152.09,52.9 L 151.99,52.9 L 130.616,76 L 112.981,76 L 112.981,44.2031" /><path
       id="path29"
       style="fill:#fff100;fill-opacity:1;fill-rule:evenodd;stroke:none"
       d="M 171.309,44.7156 L 183.7617,44.7156 L 183.7617,55.9594 L 171.309,55.9594 L 171.309,44.7156 z" /><path
       id="path31"
       style="fill:none;stroke:#fff100;stroke-width:0.80000001;stroke-linecap:butt;stroke-linejoin:miter;stroke-miterlimit:10;stroke-dasharray:none;stroke-opacity:1"
       d="M 171.309,44.7156 L 183.7617,44.7156 L 183.7617,55.9594 L 171.309,55.9594 L 171.309,44.7156 z" /><path
       id="path33"
       style="fill:#0083d7;fill-opacity:1;fill-rule:evenodd;stroke:#0083d7;stroke-opacity:1"
       d="M 212.016,44.7156 L 224.4691,44.7156 L 224.4691,55.9594 L 212.016,55.9594 L 212.016,44.7156 z" /><path
       id="path35"
       style="fill:#0083d7;fill-opacity:1;stroke:#0083d7;stroke-width:0.80000001;stroke-linecap:butt;stroke-linejoin:miter;stroke-miterlimit:10;stroke-dasharray:none;stroke-opacity:1"
       d="M 212.016,44.7156 L 224.4691,44.7156 L 224.4691,55.9594 L 212.016,55.9594 L 212.016,44.7156 z" /><path
       id="path37"
       style="fill:#1d922c;fill-opacity:1;fill-rule:evenodd;stroke:none"
       d="M 191.644,44.7156 L 204.0967,44.7156 L 204.0967,55.9594 L 191.644,55.9594 L 191.644,44.7156 z" /><path
       id="path39"
       style="fill:none;stroke:#1d922c;stroke-width:0.80000001;stroke-linecap:butt;stroke-linejoin:miter;stroke-miterlimit:10;stroke-dasharray:none;stroke-opacity:1"
       d="M 191.644,44.7156 L 204.0967,44.7156 L 204.0967,55.9594 L 191.644,55.9594 L 191.644,44.7156 z" /><path
       id="path41"
       style="fill:#000000;fill-opacity:1;fill-rule:evenodd;stroke:none"
       d="M 215.859,3.72188 L 215.859,10.2219 L 219.172,10.2219 C 220.634,10.2219 221.365,9.55 221.365,8.20312 C 221.365,7.225 221.034,6.64102 220.365,6.44414 C 220.981,6.29414 221.29,5.86875 221.29,5.16875 L 221.29,3.725 L 219.921,3.725 L 219.921,4.925 C 219.921,5.53477 219.606,5.84102 218.972,5.84102 L 217.228,5.84102 L 217.228,3.72188 L 215.859,3.72188 z M 217.228,7.00938 L 218.972,7.00938 C 219.693,7.00938 220.056,7.35312 220.056,8.04414 C 220.056,8.71562 219.725,9.05312 219.056,9.05312 L 217.231,9.05312 L 217.231,7.00938 L 217.228,7.00938 z M 218.631,12.7254 C 220.218,12.7254 221.581,12.1594 222.709,11.0254 C 223.844,9.89102 224.409,8.52188 224.409,6.92188 C 224.409,5.32188 223.844,3.95 222.709,2.80938 C 221.581,1.67539 220.221,1.10938 218.631,1.10938 C 217.025,1.10938 215.653,1.67539 214.518,2.80938 C 213.384,3.94414 212.818,5.3125 212.818,6.92188 C 212.818,8.52188 213.384,9.89102 214.518,11.0254 C 215.653,12.1594 217.021,12.7254 218.631,12.7254 z M 218.621,11.9254 C 217.265,11.9254 216.106,11.4379 215.144,10.4562 C 214.184,9.48477 213.703,8.30625 213.703,6.91875 C 213.703,5.53477 214.184,4.35312 215.144,3.37539 C 216.103,2.39727 217.265,1.90625 218.621,1.90625 C 219.978,1.90625 221.134,2.39414 222.09,3.37539 C 223.047,4.35312 223.525,5.53477 223.525,6.91875 C 223.525,8.29727 223.047,9.475 222.09,10.4562 C 221.134,11.4348 219.978,11.9254 218.621,11.9254" /></g></svg>