<?xml version="1.0" encoding="UTF-8" standalone="no"?>
<svg
   viewBox="512 16 1024 1024"
   version="1.1"
   id="svg76"
   sodipodi:docname="elbsides_logo_2023.inkscape.svg"
   inkscape:version="1.3 (0e150ed, 2023-07-21)"
   width="1024"
   height="1024"
   xmlns:inkscape="http://www.inkscape.org/namespaces/inkscape"
   xmlns:sodipodi="http://sodipodi.sourceforge.net/DTD/sodipodi-0.dtd"
   xmlns="http://www.w3.org/2000/svg"
   xmlns:svg="http://www.w3.org/2000/svg"
   xmlns:rdf="http://www.w3.org/1999/02/22-rdf-syntax-ns#"
   xmlns:cc="http://creativecommons.org/ns#"
   xmlns:dc="http://purl.org/dc/elements/1.1/">
  <sodipodi:namedview
     id="namedview76"
     pagecolor="#ffffff"
     bordercolor="#111111"
     borderopacity="1"
     inkscape:showpageshadow="0"
     inkscape:pageopacity="0"
     inkscape:pagecheckerboard="1"
     inkscape:deskcolor="#d1d1d1"
     inkscape:zoom="1"
     inkscape:cx="432.5"
     inkscape:cy="528.5"
     inkscape:window-width="2912"
     inkscape:window-height="1544"
     inkscape:window-x="0"
     inkscape:window-y="25"
     inkscape:window-maximized="0"
     inkscape:current-layer="svg76" />
  <defs
     id="defs1">
    <style
       id="style1">&#10;            .cls-1 {&#10;                fill: #00d298;&#10;            }&#10;&#10;            .cls-2 {&#10;                fill: #fff;&#10;            }&#10;&#10;            .cls-3,&#10;            .cls-4 {&#10;                fill: none;&#10;                stroke-width: 5px;&#10;            }&#10;&#10;            .cls-3 {&#10;                stroke: #fff;&#10;            }&#10;&#10;            .cls-3,&#10;            .cls-4,&#10;            .cls-6 {&#10;                stroke-miterlimit: 10;&#10;            }&#10;&#10;            .cls-4,&#10;            .cls-6 {&#10;                stroke: #115641;&#10;            }&#10;&#10;            .cls-5,&#10;            .cls-6 {&#10;                fill: #115641;&#10;            }&#10;        </style>
  </defs>
  <title
     id="title1">ELBSIDES_LINES_LOGO</title>
  <g
     id="Layer_1"
     data-name="Layer 1"
     transform="matrix(0.55458971,0,0,0.95790458,512,16)"
     style="image-rendering:auto">
    <rect
       class="cls-1"
       width="1846.41"
       height="1069"
       id="rect1"
       x="0"
       y="0" />
  </g>
  <g
     id="Layer_3"
     data-name="Layer 3"
     transform="translate(0.29498,-0.5)">
    <path
       id="circle"
       class="cls-2"
       d="M 622.62,63 A 14.67,14.67 0 1 0 637.29,77.67 14.67,14.67 0 0 0 622.62,63 Z m 0,25 A 10.37,10.37 0 1 1 633,77.67 10.37,10.37 0 0 1 622.62,88 Z"
       transform="translate(-61.55,-10.31)" />
    <path
       id="circle-2"
       data-name="circle"
       class="cls-2"
       d="M 665.31,128.83 A 14.67,14.67 0 1 0 680,143.5 14.67,14.67 0 0 0 665.31,128.83 Z m 0,25 a 10.38,10.38 0 1 1 10.37,-10.37 10.37,10.37 0 0 1 -10.37,10.41 z"
       transform="translate(-61.55,-10.31)" />
    <path
       id="circle-3"
       data-name="circle"
       class="cls-2"
       d="m 643.22,99.49 a 14.67,14.67 0 1 0 14.67,14.67 14.67,14.67 0 0 0 -14.67,-14.67 z m 0,25 a 10.38,10.38 0 1 1 10.37,-10.37 10.37,10.37 0 0 1 -10.37,10.41 z"
       transform="translate(-61.55,-10.31)" />
    <path
       id="circle-4"
       data-name="circle"
       class="cls-2"
       d="m 622.62,660.85 a 14.67,14.67 0 1 0 14.67,14.67 14.67,14.67 0 0 0 -14.67,-14.67 z m 0,25 A 10.37,10.37 0 1 1 633,675.52 10.37,10.37 0 0 1 622.62,685.89 Z"
       transform="translate(-61.55,-10.31)" />
    <path
       id="circle-5"
       data-name="circle"
       class="cls-2"
       d="m 630.39,746.75 a 14.67,14.67 0 1 0 14.67,14.67 14.67,14.67 0 0 0 -14.67,-14.67 z m 0,25 a 10.38,10.38 0 1 1 10.38,-10.38 10.37,10.37 0 0 1 -10.38,10.43 z"
       transform="translate(-61.55,-10.31)" />
    <path
       id="circle-6"
       data-name="circle"
       class="cls-2"
       d="M 652,801.57 A 14.67,14.67 0 1 0 666.67,816.24 14.67,14.67 0 0 0 652,801.57 Z m 0,25 A 10.38,10.38 0 1 1 662.37,816.2 10.37,10.37 0 0 1 652,826.61 Z"
       transform="translate(-61.55,-10.31)" />
    <path
       id="circle-7"
       data-name="circle"
       class="cls-2"
       d="m 806.24,770.59 a 14.67,14.67 0 1 0 14.67,14.67 14.67,14.67 0 0 0 -14.67,-14.67 z m 0,25 a 10.38,10.38 0 1 1 10.38,-10.38 10.38,10.38 0 0 1 -10.38,10.43 z"
       transform="translate(-61.55,-10.31)" />
    <path
       id="circle-8"
       data-name="circle"
       class="cls-2"
       d="M 786,969.83 A 14.67,14.67 0 1 0 800.67,984.5 14.67,14.67 0 0 0 786,969.83 Z m 0,25 A 10.38,10.38 0 1 1 796.38,984.45 10.38,10.38 0 0 1 786,994.88 Z"
       transform="translate(-61.55,-10.31)" />
    <path
       id="circle-9"
       data-name="circle"
       class="cls-2"
       d="m 840.4,885.56 a 14.67,14.67 0 1 0 14.67,14.67 14.67,14.67 0 0 0 -14.67,-14.67 z m 0,25.05 a 10.38,10.38 0 1 1 10.37,-10.38 10.38,10.38 0 0 1 -10.37,10.38 z"
       transform="translate(-61.55,-10.31)" />
    <path
       id="circle-10"
       data-name="circle"
       class="cls-2"
       d="m 858.67,859.11 a 14.67,14.67 0 1 0 14.67,14.67 14.67,14.67 0 0 0 -14.67,-14.67 z m 0,25 A 10.37,10.37 0 1 1 869,873.78 10.37,10.37 0 0 1 858.67,884.15 Z"
       transform="translate(-61.55,-10.31)" />
    <path
       id="circle-11"
       data-name="circle"
       class="cls-2"
       d="m 1191.57,915.56 a 14.67,14.67 0 1 0 14.66,14.67 14.66,14.66 0 0 0 -14.66,-14.67 z m 0,25 a 10.38,10.38 0 1 1 10.37,-10.37 10.38,10.38 0 0 1 -10.37,10.41 z"
       transform="translate(-61.55,-10.31)" />
    <path
       id="circle-12"
       data-name="circle"
       class="cls-2"
       d="m 1147.39,765.59 a 14.67,14.67 0 1 0 14.67,14.67 14.67,14.67 0 0 0 -14.67,-14.67 z m 0,25 a 10.37,10.37 0 1 1 10.37,-10.37 10.37,10.37 0 0 1 -10.37,10.41 z"
       transform="translate(-61.55,-10.31)" />
    <path
       id="circle-13"
       data-name="circle"
       class="cls-2"
       d="m 1368.15,750.92 a 14.67,14.67 0 1 0 14.67,14.67 14.67,14.67 0 0 0 -14.67,-14.67 z m 0,25 a 10.37,10.37 0 1 1 10.37,-10.37 10.37,10.37 0 0 1 -10.37,10.45 z"
       transform="translate(-61.55,-10.31)" />
    <path
       id="circle-14"
       data-name="circle"
       class="cls-2"
       d="m 1378.52,890.41 a 14.67,14.67 0 1 0 14.67,14.67 14.66,14.66 0 0 0 -14.67,-14.67 z m 0,25 a 10.37,10.37 0 1 1 10.38,-10.37 10.37,10.37 0 0 1 -10.38,10.41 z"
       transform="translate(-61.55,-10.31)" />
    <path
       id="circle-15"
       data-name="circle"
       class="cls-2"
       d="m 1429.19,984.64 a 14.67,14.67 0 1 0 14.67,14.67 14.67,14.67 0 0 0 -14.67,-14.67 z m 0,25 a 10.37,10.37 0 1 1 10.38,-10.37 10.37,10.37 0 0 1 -10.38,10.41 z"
       transform="translate(-61.55,-10.31)" />
    <path
       id="circle-16"
       data-name="circle"
       class="cls-2"
       d="m 1457.26,913.46 a 14.67,14.67 0 1 0 14.67,14.67 14.67,14.67 0 0 0 -14.67,-14.67 z m 0,25 a 10.37,10.37 0 1 1 10.38,-10.37 10.37,10.37 0 0 1 -10.38,10.41 z"
       transform="translate(-61.55,-10.31)" />
    <path
       id="circle-17"
       data-name="circle"
       class="cls-2"
       d="m 1531.77,771.77 a 14.67,14.67 0 1 0 14.67,14.67 14.67,14.67 0 0 0 -14.67,-14.67 z m 0,25 a 10.38,10.38 0 1 1 10.37,-10.37 10.37,10.37 0 0 1 -10.37,10.41 z"
       transform="translate(-61.55,-10.31)" />
    <path
       id="circle-18"
       data-name="circle"
       class="cls-2"
       d="m 1297.42,632.85 a 14.67,14.67 0 1 0 14.67,14.67 14.67,14.67 0 0 0 -14.67,-14.67 z m 0,25 a 10.38,10.38 0 1 1 10.38,-10.37 10.37,10.37 0 0 1 -10.38,10.41 z"
       transform="translate(-61.55,-10.31)" />
    <path
       id="circle-19"
       data-name="circle"
       class="cls-2"
       d="m 1357.78,618.18 a 14.67,14.67 0 1 0 14.67,14.67 14.67,14.67 0 0 0 -14.67,-14.67 z m 0,25 a 10.38,10.38 0 1 1 10.37,-10.37 10.37,10.37 0 0 1 -10.37,10.41 z"
       transform="translate(-61.55,-10.31)" />
    <path
       id="circle-20"
       data-name="circle"
       class="cls-2"
       d="m 1092.69,432.1 a 14.67,14.67 0 1 0 14.67,14.67 14.67,14.67 0 0 0 -14.67,-14.67 z m 0,25 a 10.38,10.38 0 1 1 10.37,-10.37 10.38,10.38 0 0 1 -10.37,10.41 z"
       transform="translate(-61.55,-10.31)" />
    <path
       id="circle-21"
       data-name="circle"
       class="cls-2"
       d="m 940.15,329.25 a 14.67,14.67 0 1 0 14.67,14.67 14.67,14.67 0 0 0 -14.67,-14.67 z m 0,25 a 10.37,10.37 0 1 1 10.37,-10.37 10.37,10.37 0 0 1 -10.37,10.41 z"
       transform="translate(-61.55,-10.31)" />
    <path
       id="circle-22"
       data-name="circle"
       class="cls-2"
       d="m 1350.34,414.26 a 14.67,14.67 0 1 0 14.66,14.67 14.67,14.67 0 0 0 -14.66,-14.67 z m 0,25 a 10.38,10.38 0 1 1 10.37,-10.37 10.37,10.37 0 0 1 -10.37,10.41 z"
       transform="translate(-61.55,-10.31)" />
    <path
       id="circle-23"
       data-name="circle"
       class="cls-2"
       d="m 1525.43,590.33 a 14.67,14.67 0 1 0 14.67,14.67 14.67,14.67 0 0 0 -14.67,-14.67 z m 0,25 a 10.38,10.38 0 1 1 10.37,-10.33 10.38,10.38 0 0 1 -10.37,10.38 z"
       transform="translate(-61.55,-10.31)" />
    <path
       id="circle-24"
       data-name="circle"
       class="cls-2"
       d="m 1541.65,483.19 a 14.67,14.67 0 1 0 14.67,14.67 14.67,14.67 0 0 0 -14.67,-14.67 z m 0,25 a 10.38,10.38 0 1 1 10.35,-10.33 10.37,10.37 0 0 1 -10.35,10.37 z"
       transform="translate(-61.55,-10.31)" />
    <path
       id="circle-25"
       data-name="circle"
       class="cls-2"
       d="m 1539.56,360.93 a 14.67,14.67 0 1 0 14.67,14.67 14.67,14.67 0 0 0 -14.67,-14.67 z m 0,25 a 10.37,10.37 0 1 1 10.37,-10.37 10.37,10.37 0 0 1 -10.37,10.44 z"
       transform="translate(-61.55,-10.31)" />
    <path
       id="circle-26"
       data-name="circle"
       class="cls-2"
       d="m 1539.56,394.53 a 14.67,14.67 0 1 0 14.67,14.67 14.67,14.67 0 0 0 -14.67,-14.67 z m 0,25.05 a 10.38,10.38 0 1 1 10.37,-10.38 10.37,10.37 0 0 1 -10.37,10.38 z"
       transform="translate(-61.55,-10.31)" />
    <path
       id="circle-27"
       data-name="circle"
       class="cls-2"
       d="m 1538.1,440.36 a 14.67,14.67 0 1 0 14.67,14.64 14.67,14.67 0 0 0 -14.67,-14.64 z m 0,25.05 a 10.38,10.38 0 1 1 10.37,-10.41 10.37,10.37 0 0 1 -10.37,10.41 z"
       transform="translate(-61.55,-10.31)" />
    <path
       id="circle-28"
       data-name="circle"
       class="cls-2"
       d="m 1565,580.5 a 14.67,14.67 0 1 0 14.67,14.67 A 14.67,14.67 0 0 0 1565,580.5 Z m 0,25 a 10.38,10.38 0 1 1 10.37,-10.37 10.37,10.37 0 0 1 -10.37,10.41 z"
       transform="translate(-61.55,-10.31)" />
    <path
       id="circle-29"
       data-name="circle"
       class="cls-2"
       d="M 1425,761.29 A 14.67,14.67 0 1 0 1439.68,776 14.67,14.67 0 0 0 1425,761.29 Z m 0,25.05 A 10.38,10.38 0 1 1 1435.38,776 10.37,10.37 0 0 1 1425,786.34 Z"
       transform="translate(-61.55,-10.31)" />
    <path
       id="circle-30"
       data-name="circle"
       class="cls-2"
       d="m 1186.39,950 a 14.67,14.67 0 1 0 14.67,14.67 14.67,14.67 0 0 0 -14.67,-14.67 z m 0,25 a 10.37,10.37 0 1 1 10.37,-10.37 10.37,10.37 0 0 1 -10.37,10.45 z"
       transform="translate(-61.55,-10.31)" />
    <path
       id="circle-31"
       data-name="circle"
       class="cls-2"
       d="M 1198.28,982.29 A 14.67,14.67 0 1 0 1213,997 14.66,14.66 0 0 0 1198.28,982.29 Z m 0,25 a 10.38,10.38 0 1 1 10.38,-10.29 10.38,10.38 0 0 1 -10.38,10.33 z"
       transform="translate(-61.55,-10.31)" />
    <path
       id="circle-32"
       data-name="circle"
       class="cls-2"
       d="M 732,660.85 A 14.67,14.67 0 1 0 746.67,675.52 14.67,14.67 0 0 0 732,660.85 Z m 0,25 A 10.37,10.37 0 1 1 742.38,675.48 10.37,10.37 0 0 1 732,685.89 Z"
       transform="translate(-61.55,-10.31)" />
    <path
       id="circle-33"
       data-name="circle"
       class="cls-2"
       d="m 727.75,570.86 a 14.67,14.67 0 1 0 14.67,14.67 14.67,14.67 0 0 0 -14.67,-14.67 z m 0,25 a 10.38,10.38 0 1 1 10.37,-10.37 10.37,10.37 0 0 1 -10.37,10.41 z"
       transform="translate(-61.55,-10.31)" />
    <path
       id="circle-34"
       data-name="circle"
       class="cls-2"
       d="M 664.18,172 A 14.67,14.67 0 1 0 678.85,186.67 14.67,14.67 0 0 0 664.18,172 Z m 0,25 a 10.38,10.38 0 1 1 10.37,-10.37 10.37,10.37 0 0 1 -10.37,10.43 z"
       transform="translate(-61.55,-10.31)" />
    <polyline
       class="cls-3"
       points="1455.07 603.5 1403.47 655.09 1253.84 655.17 1244.78 646.11"
       id="polyline1" />
    <path
       class="cls-3"
       d="M 1304.15,654.94"
       transform="translate(-61.55,-10.31)"
       id="path1" />
    <polyline
       class="cls-3"
       points="1296.23 637.2 1296.23 644.62 1396.7 644.62 1441.67 599.65 1441.67 580.93 1480.1 542.51 1480.1 499.4"
       id="polyline2" />
  </g>
  <g
     id="Layer_4"
     data-name="Layer 4"
     transform="translate(0.29498,-0.5)">
    <path
       class="cls-3"
       d="M 673.66,152.69"
       transform="translate(-61.55,-10.31)"
       id="path2" />
    <polyline
       class="cls-3"
       points="1465.74 365.29 1397.9 365.29 1347.15 314.54 1291.95 369.73 1231.76 369.73 1129.97 267.94 1057.49 340.42 933.41 340.42 776.67 183.68 755.88 204.47 673.5 204.47 612.09 143.05"
       id="polyline3" />
    <polyline
       class="cls-3"
       points="611.36 185.1 645.85 219.6 764.47 219.6 776.74 207.33 878.6 309.19 878.6 322.42"
       id="polyline4" />
    <path
       class="cls-3"
       d="m 1092.69,434.86 v -36.95 l 97.31,-97.31 97.44,97.45 72.2,-0.21 48.27,-48.27 46.09,46.12 71.88,-0.14 5.07,5.07"
       transform="translate(-61.55,-10.31)"
       id="path4" />
    <polyline
       class="cls-3"
       points="1467.64 435.8 1433.99 402.16 1386.04 402.16 1345.59 361.71 1297.48 409.82"
       id="polyline5" />
    <line
       class="cls-3"
       x1="561.07001"
       y1="650.53998"
       x2="561.07001"
       y2="79.5"
       id="line5" />
    <polyline
       class="cls-3"
       points="581.67 116.25 581.67 577.11 661.12 656.55"
       id="polyline6" />
    <polyline
       class="cls-3"
       points="666.2 589.88 666.2 619.94 713.63 667.37 1420.98 667.33 1494.87 593.44"
       id="polyline7" />
    <polyline
       class="cls-3"
       points="568.84 765.78 568.84 1005.82 692.71 1005.82 715.3 983.24"
       id="polyline8" />
    <polyline
       class="cls-3"
       points="590.41 793.32 590.41 778.79 615.47 753.74 723.04 753.74 735.63 766.32"
       id="polyline9" />
    <polyline
       class="cls-3"
       points="788.16 854.51 775.68 842.03 775.68 747.02 947.05 747.02 947.05 1010.46 778.85 1010.46 778.85 904.59"
       id="polyline10" />
    <polyline
       class="cls-3"
       points="1085.84 755.28 1085.84 748.93 982.91 748.93 982.91 1010.46 1039.41 1010.51 1121.17 928.76"
       id="polyline11" />
    <polyline
       class="cls-3"
       points="1115.9 963.33 1078.68 1000.55 1078.68 1010.51 1136.73 1010.51 1136.73 998.46"
       id="polyline12" />
    <polyline
       class="cls-3"
       points="1294.61 755.28 1244.3 755.28 1189.66 809.92 1189.66 1015.44 1276 1015.44 1317.66 973.78 1317.66 909.44"
       id="polyline13" />
    <polyline
       class="cls-3"
       points="1375.74 765.75 1405.47 765.75 1425.13 746.09 1470.22 746.09 1470.22 762.43"
       id="polyline14" />
    <polyline
       class="cls-3"
       points="1376.29 997.64 1392.41 1013.77 1484.01 1013.77 1484.01 819.7 1441.82 777.51 1390.2 777.51 1365.12 802.59 1365.12 888.01 1386.56 909.45"
       id="polyline15" />
  </g>
  <g
     id="Layer_5"
     data-name="Layer 5"
     transform="translate(0.29498,-0.5)">
    <polyline
       class="cls-4"
       points="888.94 411.83 795.67 411.83 775.63 431.88 775.63 597.89 801.13 623.38 880 623.38"
       id="polyline16" />
    <path
       class="cls-5"
       d="m 959.37,410.79 a 12.46,12.46 0 1 0 12.46,12.46 12.46,12.46 0 0 0 -12.46,-12.46 z m 0,20.76 a 8.3,8.3 0 1 1 8.3,-8.3 8.29,8.29 0 0 1 -8.3,8.3 z"
       transform="translate(-61.55,-10.31)"
       id="path16" />
    <path
       class="cls-5"
       d="m 997.21,406.69 a 12.46,12.46 0 1 0 12.46,12.46 12.46,12.46 0 0 0 -12.46,-12.46 z m 0,20.76 a 8.3,8.3 0 1 1 8.3,-8.3 8.31,8.31 0 0 1 -8.3,8.3 z"
       transform="translate(-61.55,-10.31)"
       id="path17" />
    <path
       class="cls-5"
       d="m 1048.21,431.93 a 12.46,12.46 0 1 0 12.46,12.46 12.46,12.46 0 0 0 -12.46,-12.46 z m 0,20.76 a 8.3,8.3 0 1 1 8.3,-8.3 8.3,8.3 0 0 1 -8.3,8.3 z"
       transform="translate(-61.55,-10.31)"
       id="path18" />
    <path
       class="cls-5"
       d="m 1102.76,600.22 a 12.46,12.46 0 1 0 12.46,12.46 12.46,12.46 0 0 0 -12.46,-12.46 z m 0,20.76 a 8.3,8.3 0 1 1 8.3,-8.3 8.31,8.31 0 0 1 -8.3,8.32 z"
       transform="translate(-61.55,-10.31)"
       id="path19" />
    <path
       class="cls-5"
       d="m 1125.79,624.82 a 12.46,12.46 0 1 0 12.46,12.46 12.46,12.46 0 0 0 -12.46,-12.46 z m 0,20.76 a 8.3,8.3 0 1 1 8.3,-8.3 8.31,8.31 0 0 1 -8.3,8.3 z"
       transform="translate(-61.55,-10.31)"
       id="path20" />
    <path
       class="cls-5"
       d="m 1212.08,533.14 a 12.46,12.46 0 1 0 12.46,12.46 12.46,12.46 0 0 0 -12.46,-12.46 z m 0,20.76 a 8.3,8.3 0 1 1 8.3,-8.3 8.3,8.3 0 0 1 -8.3,8.3 z"
       transform="translate(-61.55,-10.31)"
       id="path21" />
    <path
       class="cls-5"
       d="m 1190,496 a 12.46,12.46 0 1 0 12.46,12.45 A 12.45,12.45 0 0 0 1190,496 Z m 0,20.76 a 8.31,8.31 0 1 1 8.3,-8.31 8.3,8.3 0 0 1 -8.3,8.28 z"
       transform="translate(-61.55,-10.31)"
       id="path22" />
    <path
       class="cls-5"
       d="m 1190,467.64 a 12.46,12.46 0 1 0 12.46,12.46 12.46,12.46 0 0 0 -12.46,-12.46 z m 0,20.76 a 8.3,8.3 0 1 1 8.3,-8.3 8.3,8.3 0 0 1 -8.3,8.3 z"
       transform="translate(-61.55,-10.31)"
       id="path23" />
    <path
       class="cls-5"
       d="m 1258.16,524.05 a 12.46,12.46 0 1 0 12.46,12.46 12.46,12.46 0 0 0 -12.46,-12.46 z m 0,20.76 a 8.3,8.3 0 1 1 8.3,-8.3 8.3,8.3 0 0 1 -8.3,8.3 z"
       transform="translate(-61.55,-10.31)"
       id="path24" />
    <path
       class="cls-5"
       d="m 1274.25,480.1 a 12.46,12.46 0 1 0 12.46,12.46 12.46,12.46 0 0 0 -12.46,-12.46 z m 0,20.76 a 8.3,8.3 0 1 1 8.3,-8.3 8.31,8.31 0 0 1 -8.3,8.3 z"
       transform="translate(-61.55,-10.31)"
       id="path25" />
    <path
       class="cls-5"
       d="m 1196,554.9 a 12.46,12.46 0 1 0 12.46,12.46 A 12.46,12.46 0 0 0 1196,554.9 Z m 0,20.76 a 8.3,8.3 0 1 1 8.3,-8.3 8.29,8.29 0 0 1 -8.3,8.3 z"
       transform="translate(-61.55,-10.31)"
       id="path26" />
    <path
       class="cls-5"
       d="M 887,429.39 A 12.46,12.46 0 1 0 899.46,441.85 12.45,12.45 0 0 0 887,429.39 Z m 0,20.76 a 8.31,8.31 0 1 1 8.3,-8.3 8.3,8.3 0 0 1 -8.3,8.3 z"
       transform="translate(-61.55,-10.31)"
       id="path27" />
    <path
       class="cls-5"
       d="M 950.49,621.24 A 12.46,12.46 0 1 0 963,633.7 12.46,12.46 0 0 0 950.49,621.24 Z m 0,20.76 a 8.3,8.3 0 1 1 8.3,-8.3 8.3,8.3 0 0 1 -8.3,8.3 z"
       transform="translate(-61.55,-10.31)"
       id="path28" />
    <path
       class="cls-5"
       d="m 729.83,721.83 a 12.46,12.46 0 1 0 12.46,12.46 12.46,12.46 0 0 0 -12.46,-12.46 z m 0,20.76 a 8.3,8.3 0 1 1 8.3,-8.3 8.3,8.3 0 0 1 -8.3,8.3 z"
       transform="translate(-61.55,-10.31)"
       id="path29" />
    <path
       class="cls-6"
       d="M 693,840.46 A 12.46,12.46 0 1 0 705.46,852.92 12.46,12.46 0 0 0 693,840.46 Z m 0,20.76 a 8.3,8.3 0 1 1 8.3,-8.3 8.29,8.29 0 0 1 -8.3,8.3 z"
       transform="translate(-61.55,-10.31)"
       id="path30" />
    <path
       class="cls-6"
       d="m 728.35,868.48 a 12.46,12.46 0 1 0 12.46,12.46 12.46,12.46 0 0 0 -12.46,-12.46 z m 0,20.76 a 8.3,8.3 0 1 1 8.3,-8.3 8.29,8.29 0 0 1 -8.3,8.3 z"
       transform="translate(-61.55,-10.31)"
       id="path31" />
    <path
       class="cls-6"
       d="m 786.71,852.92 a 12.46,12.46 0 1 0 12.46,12.46 12.46,12.46 0 0 0 -12.46,-12.46 z m 0,20.76 a 8.3,8.3 0 1 1 8.3,-8.3 8.29,8.29 0 0 1 -8.3,8.3 z"
       transform="translate(-61.55,-10.31)"
       id="path32" />
    <path
       class="cls-6"
       d="m 928.65,863.41 a 12.46,12.46 0 1 0 12.46,12.46 12.46,12.46 0 0 0 -12.46,-12.46 z m 0,20.76 a 8.3,8.3 0 1 1 8.3,-8.3 8.31,8.31 0 0 1 -8.3,8.3 z"
       transform="translate(-61.55,-10.31)"
       id="path33" />
    <path
       class="cls-6"
       d="m 928.65,830.91 a 12.46,12.46 0 1 0 12.46,12.46 12.46,12.46 0 0 0 -12.46,-12.46 z m 0,20.76 a 8.3,8.3 0 1 1 8.3,-8.3 8.31,8.31 0 0 1 -8.3,8.3 z"
       transform="translate(-61.55,-10.31)"
       id="path34" />
    <path
       class="cls-6"
       d="m 924.93,962.92 a 12.46,12.46 0 1 0 12.46,12.46 12.46,12.46 0 0 0 -12.46,-12.46 z m 0,20.76 a 8.3,8.3 0 1 1 8.3,-8.3 8.3,8.3 0 0 1 -8.3,8.3 z"
       transform="translate(-61.55,-10.31)"
       id="path35" />
    <path
       class="cls-6"
       d="m 1104.4,907.73 a 12.46,12.46 0 1 0 12.46,12.46 12.46,12.46 0 0 0 -12.46,-12.46 z m 0,20.76 a 8.3,8.3 0 1 1 8.3,-8.3 8.3,8.3 0 0 1 -8.3,8.3 z"
       transform="translate(-61.55,-10.31)"
       id="path36" />
    <path
       class="cls-6"
       d="m 1169.2,851 a 12.46,12.46 0 1 0 12.46,12.46 A 12.46,12.46 0 0 0 1169.2,851 Z m 0,20.76 a 8.3,8.3 0 1 1 8.3,-8.3 8.31,8.31 0 0 1 -8.3,8.25 z"
       transform="translate(-61.55,-10.31)"
       id="path37" />
    <path
       class="cls-6"
       d="m 1269.42,872.64 a 12.46,12.46 0 1 0 12.46,12.46 12.46,12.46 0 0 0 -12.46,-12.46 z m 0,20.76 a 8.3,8.3 0 1 1 8.3,-8.3 8.31,8.31 0 0 1 -8.3,8.3 z"
       transform="translate(-61.55,-10.31)"
       id="path38" />
    <path
       class="cls-6"
       d="m 1345.32,778.17 a 12.46,12.46 0 1 0 12.46,12.46 12.46,12.46 0 0 0 -12.46,-12.46 z m 0,20.76 a 8.3,8.3 0 1 1 8.3,-8.3 8.3,8.3 0 0 1 -8.3,8.3 z"
       transform="translate(-61.55,-10.31)"
       id="path39" />
    <path
       class="cls-6"
       d="m 1187.27,880.94 a 12.46,12.46 0 1 0 12.46,12.46 12.46,12.46 0 0 0 -12.46,-12.46 z m 0,20.76 a 8.3,8.3 0 1 1 8.3,-8.3 8.29,8.29 0 0 1 -8.3,8.3 z"
       transform="translate(-61.55,-10.31)"
       id="path40" />
    <path
       class="cls-6"
       d="m 1312.76,872.64 a 12.46,12.46 0 1 0 12.46,12.46 12.46,12.46 0 0 0 -12.46,-12.46 z m 0,20.76 a 8.3,8.3 0 1 1 8.3,-8.3 8.31,8.31 0 0 1 -8.3,8.3 z"
       transform="translate(-61.55,-10.31)"
       id="path41" />
    <path
       class="cls-6"
       d="m 1356,956.12 a 12.46,12.46 0 1 0 12.46,12.46 12.46,12.46 0 0 0 -12.46,-12.46 z m 0,20.76 a 8.3,8.3 0 1 1 8.3,-8.3 8.3,8.3 0 0 1 -8.3,8.3 z"
       transform="translate(-61.55,-10.31)"
       id="path42" />
    <path
       class="cls-6"
       d="m 1459.47,807.35 a 12.46,12.46 0 1 0 12.46,12.46 12.46,12.46 0 0 0 -12.46,-12.46 z m 0,20.76 a 8.3,8.3 0 1 1 8.3,-8.3 8.3,8.3 0 0 1 -8.3,8.3 z"
       transform="translate(-61.55,-10.31)"
       id="path43" />
    <path
       class="cls-6"
       d="m 1519.31,846.22 a 12.46,12.46 0 1 0 12.46,12.46 12.46,12.46 0 0 0 -12.46,-12.46 z m 0,20.76 a 8.3,8.3 0 1 1 8.3,-8.3 8.3,8.3 0 0 1 -8.3,8.32 z"
       transform="translate(-61.55,-10.31)"
       id="path44" />
    <path
       class="cls-6"
       d="m 1424.06,937.58 a 12.46,12.46 0 1 0 12.46,12.42 12.46,12.46 0 0 0 -12.46,-12.42 z m 0,20.76 a 8.3,8.3 0 1 1 8.3,-8.3 8.3,8.3 0 0 1 -8.3,8.3 z"
       transform="translate(-61.55,-10.31)"
       id="path45" />
    <path
       class="cls-6"
       d="m 1446.89,844.62 a 12.46,12.46 0 1 0 12.46,12.46 12.46,12.46 0 0 0 -12.46,-12.46 z m 0,20.76 a 8.3,8.3 0 1 1 8.3,-8.3 8.31,8.31 0 0 1 -8.3,8.3 z"
       transform="translate(-61.55,-10.31)"
       id="path46" />
    <path
       class="cls-6"
       d="m 1074.74,828 a 12.46,12.46 0 1 0 12.46,12.46 12.46,12.46 0 0 0 -12.46,-12.46 z m 0,20.76 a 8.3,8.3 0 1 1 8.3,-8.3 8.3,8.3 0 0 1 -8.3,8.3 z"
       transform="translate(-61.55,-10.31)"
       id="path47" />
    <path
       class="cls-6"
       d="m 882.34,986.71 a 12.46,12.46 0 1 0 12.46,12.46 12.46,12.46 0 0 0 -12.46,-12.46 z m 0,20.76 a 8.3,8.3 0 1 1 8.3,-8.3 8.29,8.29 0 0 1 -8.3,8.3 z"
       transform="translate(-61.55,-10.31)"
       id="path48" />
    <path
       class="cls-6"
       d="m 746.8,947.7 a 12.46,12.46 0 1 0 12.46,12.46 12.46,12.46 0 0 0 -12.46,-12.46 z m 0,20.76 a 8.3,8.3 0 1 1 8.3,-8.3 8.3,8.3 0 0 1 -8.3,8.3 z"
       transform="translate(-61.55,-10.31)"
       id="path49" />
    <path
       class="cls-6"
       d="m 661.36,922.78 a 12.46,12.46 0 1 0 12.46,12.46 12.46,12.46 0 0 0 -12.46,-12.46 z m 0,20.76 a 8.3,8.3 0 1 1 8.3,-8.3 8.31,8.31 0 0 1 -8.3,8.3 z"
       transform="translate(-61.55,-10.31)"
       id="path50" />
    <path
       class="cls-6"
       d="M 775.62,943.54 A 12.46,12.46 0 1 0 788.08,956 12.46,12.46 0 0 0 775.62,943.54 Z m 0,20.76 a 8.3,8.3 0 1 1 8.3,-8.3 8.31,8.31 0 0 1 -8.3,8.3 z"
       transform="translate(-61.55,-10.31)"
       id="path51" />
    <path
       class="cls-5"
       d="m 781.1,695.38 a 12.46,12.46 0 1 0 12.46,12.46 12.45,12.45 0 0 0 -12.46,-12.46 z m 0,20.76 a 8.3,8.3 0 1 1 8.31,-8.3 8.3,8.3 0 0 1 -8.31,8.3 z"
       transform="translate(-61.55,-10.31)"
       id="path52" />
    <path
       class="cls-5"
       d="m 1393.1,710.93 a 12.46,12.46 0 1 0 12.46,12.46 12.46,12.46 0 0 0 -12.46,-12.46 z m 0,20.76 a 8.3,8.3 0 1 1 8.3,-8.3 8.3,8.3 0 0 1 -8.3,8.3 z"
       transform="translate(-61.55,-10.31)"
       id="path53" />
    <path
       class="cls-5"
       d="m 1444.91,689.54 a 12.46,12.46 0 1 0 12.46,12.46 12.46,12.46 0 0 0 -12.46,-12.46 z m 0,20.76 a 8.3,8.3 0 1 1 8.3,-8.3 8.3,8.3 0 0 1 -8.3,8.3 z"
       transform="translate(-61.55,-10.31)"
       id="path54" />
    <path
       class="cls-5"
       d="M 901.67,518 A 12.46,12.46 0 1 0 914.13,530.46 12.46,12.46 0 0 0 901.67,518 Z m 0,20.76 a 8.3,8.3 0 1 1 8.3,-8.3 8.31,8.31 0 0 1 -8.3,8.25 z"
       transform="translate(-61.55,-10.31)"
       id="path55" />
    <path
       class="cls-5"
       d="M 938,592.15 A 12.46,12.46 0 1 0 950.46,604.61 12.46,12.46 0 0 0 938,592.15 Z m 0,20.76 a 8.3,8.3 0 1 1 8.3,-8.3 8.3,8.3 0 0 1 -8.3,8.3 z"
       transform="translate(-61.55,-10.31)"
       id="path56" />
    <path
       class="cls-5"
       d="m 863.83,520.71 a 12.46,12.46 0 1 0 12.46,12.46 12.46,12.46 0 0 0 -12.46,-12.46 z m 0,20.76 a 8.3,8.3 0 1 1 8.3,-8.3 8.31,8.31 0 0 1 -8.3,8.3 z"
       transform="translate(-61.55,-10.31)"
       id="path57" />
    <polyline
       class="cls-4"
       points="817.97 424.1 813.57 419.7 799.01 419.7 784.57 434.14 784.57 493.98 796.29 505.7 825.4 505.7 832.28 512.59"
       id="polyline57" />
    <polyline
       class="cls-4"
       points="795.29 529.43 785.48 539.25 785.48 594.3 804.68 613.5 856.69 613.5 869.1 601.09"
       id="polyline58" />
    <polyline
       class="cls-4"
       points="942.66 415.83 956.37 429.53 956.37 614.82 968.51 626.97 1054.41 626.97"
       id="polyline59" />
    <polyline
       class="cls-4"
       points="1034.6 608.98 1028.22 615.36 986.66 616.3 966.86 596.51 966.86 453.73 979.51 441.08"
       id="polyline60" />
    <polyline
       class="cls-4"
       points="1121.45 462.8 1112.04 453.39 1112.04 438.08 1129.82 420.3 1162.87 420.3 1195.89 453.32 1195.89 498.11 1179 515.01 1145.69 515.01 1135.89 505.21"
       id="polyline61" />
    <polyline
       class="cls-4"
       points="1212.7 469.78 1212.7 431.53 1187.06 405.89 1114.19 405.89 1098.51 421.58 1098.51 597.27 1129.35 628.12 1204.4 628.12 1222.5 610.01 1222.5 552.68 1203.56 533.74"
       id="polyline62" />
    <polyline
       class="cls-4"
       points="1123.7 557.05 1112.04 557.05 1112.04 591.84 1135.55 615.35 1194.37 615.35 1206.54 603.17 1206.54 565.35 1176.47 535.28 1160.51 535.28"
       id="polyline63" />
    <polyline
       class="cls-4"
       points="660.69 731.57 651.23 741.03 610.66 741.03 610.66 673.66 642.07 673.66 665.94 697.54 709.25 697.54"
       id="polyline64" />
    <polyline
       class="cls-4"
       points="1342.07 713.07 1390.06 713.07 1414.68 737.69 1442.97 737.69 1442.97 674.62 1400.56 674.62 1390.47 684.71"
       id="polyline65" />
    <polyline
       class="cls-4"
       points="624.54 835.68 611.98 823.11 611.98 787.79 632.51 767.25 693.55 767.25 725.45 799.16 725.45 845.06"
       id="polyline66" />
    <polyline
       class="cls-4"
       points="673.3 877.13 714.47 918.3 714.47 936.01"
       id="polyline67" />
    <polyline
       class="cls-4"
       points="685.25 959.52 685.25 979.64 666.21 998.68 630.3 998.68 599.81 968.2 599.81 934.92"
       id="polyline68" />
    <polyline
       class="cls-4"
       points="867.1 822.87 867.1 784.62 895.04 756.68 818.34 756.68 818.34 791.2 842.17 791.2 842.17 944.02 856.29 958.14"
       id="polyline69" />
    <polyline
       class="cls-4"
       points="867.1 875.25 867.1 942.01 908.44 983.35 908.44 988.86 831.15 988.86"
       id="polyline70" />
    <polyline
       class="cls-4"
       points="1005.71 822.67 994.26 811.22 994.26 760.28 1050.4 760.28 1125.72 835.59 1125.72 872.74"
       id="polyline71" />
    <polyline
       class="cls-4"
       points="1107.65 862.33 1107.65 925.24 1030.49 1002.4 993.34 1002.4 993.34 959.6 1035.47 917.47"
       id="polyline72" />
    <polyline
       class="cls-4"
       points="1207.87 863.88 1207.87 809.5 1250.42 766.96 1271.31 766.96 1277.17 772.82"
       id="polyline73" />
    <polyline
       class="cls-4"
       points="1243.54 881.52 1197.62 927.44 1197.62 1003.66 1249.21 1003.66 1287.19 965.68"
       id="polyline74" />
    <polyline
       class="cls-4"
       points="1405.23 802.07 1416.72 790.58 1433.69 790.58 1474.33 831.22 1464.78 840.77"
       id="polyline75" />
    <polyline
       class="cls-4"
       points="1392.58 854 1424.07 885.5 1457.76 885.5 1473.84 901.58 1473.84 977.46 1447.28 1004.02 1410.38 1004.02 1362.51 956.15 1362.51 949.58"
       id="polyline76" />
  </g>
  <metadata
     id="metadata76">
    <rdf:RDF>
      <cc:Work
         rdf:about="">
        <dc:title>ELBSIDES_LINES_LOGO</dc:title>
      </cc:Work>
    </rdf:RDF>
  </metadata>
</svg>
