<svg xmlns="http://www.w3.org/2000/svg" viewBox="0 0 1846.41 1069"><defs><style>.cls-1{fill:#00d298;}.cls-2{fill:#fff;}.cls-3,.cls-4{fill:none;stroke-width:5px;}.cls-3{stroke:#fff;}.cls-3,.cls-4,.cls-6{stroke-miterlimit:10;}.cls-4,.cls-6{stroke:#115641;}.cls-5,.cls-6{fill:#115641;}</style></defs><title>ELBSIDES_LINES</title><g id="Layer_1" data-name="Layer 1"><rect class="cls-1" width="1846.41" height="1069"/></g><g id="Layer_3" data-name="Layer 3"><path id="circle" class="cls-2" d="M622.62,63a14.67,14.67,0,1,0,14.67,14.67A14.67,14.67,0,0,0,622.62,63Zm0,25A10.37,10.37,0,1,1,633,77.67,10.37,10.37,0,0,1,622.62,88Z" transform="translate(-61.55 -10.31)"/><path id="circle-2" data-name="circle" class="cls-2" d="M665.31,128.83A14.67,14.67,0,1,0,680,143.5,14.67,14.67,0,0,0,665.31,128.83Zm0,25a10.38,10.38,0,1,1,10.37-10.37A10.37,10.37,0,0,1,665.31,153.87Z" transform="translate(-61.55 -10.31)"/><path id="circle-3" data-name="circle" class="cls-2" d="M643.22,99.49a14.67,14.67,0,1,0,14.67,14.67A14.67,14.67,0,0,0,643.22,99.49Zm0,25a10.38,10.38,0,1,1,10.37-10.37A10.37,10.37,0,0,1,643.22,124.53Z" transform="translate(-61.55 -10.31)"/><path id="circle-4" data-name="circle" class="cls-2" d="M622.62,660.85a14.67,14.67,0,1,0,14.67,14.67A14.67,14.67,0,0,0,622.62,660.85Zm0,25A10.37,10.37,0,1,1,633,675.52,10.37,10.37,0,0,1,622.62,685.89Z" transform="translate(-61.55 -10.31)"/><path id="circle-5" data-name="circle" class="cls-2" d="M630.39,746.75a14.67,14.67,0,1,0,14.67,14.67A14.67,14.67,0,0,0,630.39,746.75Zm0,25a10.38,10.38,0,1,1,10.38-10.38A10.37,10.37,0,0,1,630.39,771.8Z" transform="translate(-61.55 -10.31)"/><path id="circle-6" data-name="circle" class="cls-2" d="M652,801.57a14.67,14.67,0,1,0,14.67,14.67A14.67,14.67,0,0,0,652,801.57Zm0,25a10.38,10.38,0,1,1,10.37-10.37A10.37,10.37,0,0,1,652,826.61Z" transform="translate(-61.55 -10.31)"/><path id="circle-7" data-name="circle" class="cls-2" d="M806.24,770.59a14.67,14.67,0,1,0,14.67,14.67A14.67,14.67,0,0,0,806.24,770.59Zm0,25a10.38,10.38,0,1,1,10.38-10.38A10.38,10.38,0,0,1,806.24,795.64Z" transform="translate(-61.55 -10.31)"/><path id="circle-8" data-name="circle" class="cls-2" d="M786,969.83a14.67,14.67,0,1,0,14.67,14.67A14.67,14.67,0,0,0,786,969.83Zm0,25a10.38,10.38,0,1,1,10.38-10.38A10.38,10.38,0,0,1,786,994.88Z" transform="translate(-61.55 -10.31)"/><path id="circle-9" data-name="circle" class="cls-2" d="M840.4,885.56a14.67,14.67,0,1,0,14.67,14.67A14.67,14.67,0,0,0,840.4,885.56Zm0,25.05a10.38,10.38,0,1,1,10.37-10.38A10.38,10.38,0,0,1,840.4,910.61Z" transform="translate(-61.55 -10.31)"/><path id="circle-10" data-name="circle" class="cls-2" d="M858.67,859.11a14.67,14.67,0,1,0,14.67,14.67A14.67,14.67,0,0,0,858.67,859.11Zm0,25A10.37,10.37,0,1,1,869,873.78,10.37,10.37,0,0,1,858.67,884.15Z" transform="translate(-61.55 -10.31)"/><path id="circle-11" data-name="circle" class="cls-2" d="M1191.57,915.56a14.67,14.67,0,1,0,14.66,14.67A14.66,14.66,0,0,0,1191.57,915.56Zm0,25a10.38,10.38,0,1,1,10.37-10.37A10.38,10.38,0,0,1,1191.57,940.6Z" transform="translate(-61.55 -10.31)"/><path id="circle-12" data-name="circle" class="cls-2" d="M1147.39,765.59a14.67,14.67,0,1,0,14.67,14.67A14.67,14.67,0,0,0,1147.39,765.59Zm0,25a10.37,10.37,0,1,1,10.37-10.37A10.37,10.37,0,0,1,1147.39,790.63Z" transform="translate(-61.55 -10.31)"/><path id="circle-13" data-name="circle" class="cls-2" d="M1368.15,750.92a14.67,14.67,0,1,0,14.67,14.67A14.67,14.67,0,0,0,1368.15,750.92Zm0,25a10.37,10.37,0,1,1,10.37-10.37A10.37,10.37,0,0,1,1368.15,776Z" transform="translate(-61.55 -10.31)"/><path id="circle-14" data-name="circle" class="cls-2" d="M1378.52,890.41a14.67,14.67,0,1,0,14.67,14.67A14.66,14.66,0,0,0,1378.52,890.41Zm0,25a10.37,10.37,0,1,1,10.38-10.37A10.37,10.37,0,0,1,1378.52,915.45Z" transform="translate(-61.55 -10.31)"/><path id="circle-15" data-name="circle" class="cls-2" d="M1429.19,984.64a14.67,14.67,0,1,0,14.67,14.67A14.67,14.67,0,0,0,1429.19,984.64Zm0,25a10.37,10.37,0,1,1,10.38-10.37A10.37,10.37,0,0,1,1429.19,1009.68Z" transform="translate(-61.55 -10.31)"/><path id="circle-16" data-name="circle" class="cls-2" d="M1457.26,913.46a14.67,14.67,0,1,0,14.67,14.67A14.67,14.67,0,0,0,1457.26,913.46Zm0,25a10.37,10.37,0,1,1,10.38-10.37A10.37,10.37,0,0,1,1457.26,938.5Z" transform="translate(-61.55 -10.31)"/><path id="circle-17" data-name="circle" class="cls-2" d="M1531.77,771.77a14.67,14.67,0,1,0,14.67,14.67A14.67,14.67,0,0,0,1531.77,771.77Zm0,25a10.38,10.38,0,1,1,10.37-10.37A10.37,10.37,0,0,1,1531.77,796.81Z" transform="translate(-61.55 -10.31)"/><path id="circle-18" data-name="circle" class="cls-2" d="M1297.42,632.85a14.67,14.67,0,1,0,14.67,14.67A14.67,14.67,0,0,0,1297.42,632.85Zm0,25a10.38,10.38,0,1,1,10.38-10.37A10.37,10.37,0,0,1,1297.42,657.89Z" transform="translate(-61.55 -10.31)"/><path id="circle-19" data-name="circle" class="cls-2" d="M1357.78,618.18a14.67,14.67,0,1,0,14.67,14.67A14.67,14.67,0,0,0,1357.78,618.18Zm0,25a10.38,10.38,0,1,1,10.37-10.37A10.37,10.37,0,0,1,1357.78,643.22Z" transform="translate(-61.55 -10.31)"/><path id="circle-20" data-name="circle" class="cls-2" d="M1092.69,432.1a14.67,14.67,0,1,0,14.67,14.67A14.67,14.67,0,0,0,1092.69,432.1Zm0,25a10.38,10.38,0,1,1,10.37-10.37A10.38,10.38,0,0,1,1092.69,457.14Z" transform="translate(-61.55 -10.31)"/><path id="circle-21" data-name="circle" class="cls-2" d="M940.15,329.25a14.67,14.67,0,1,0,14.67,14.67A14.67,14.67,0,0,0,940.15,329.25Zm0,25a10.37,10.37,0,1,1,10.37-10.37A10.37,10.37,0,0,1,940.15,354.29Z" transform="translate(-61.55 -10.31)"/><path id="circle-22" data-name="circle" class="cls-2" d="M1350.34,414.26A14.67,14.67,0,1,0,1365,428.93,14.67,14.67,0,0,0,1350.34,414.26Zm0,25a10.38,10.38,0,1,1,10.37-10.37A10.37,10.37,0,0,1,1350.34,439.3Z" transform="translate(-61.55 -10.31)"/><path id="circle-23" data-name="circle" class="cls-2" d="M1525.43,590.33A14.67,14.67,0,1,0,1540.1,605,14.67,14.67,0,0,0,1525.43,590.33Zm0,25A10.38,10.38,0,1,1,1535.8,605,10.38,10.38,0,0,1,1525.43,615.38Z" transform="translate(-61.55 -10.31)"/><path id="circle-24" data-name="circle" class="cls-2" d="M1541.65,483.19a14.67,14.67,0,1,0,14.67,14.67A14.67,14.67,0,0,0,1541.65,483.19Zm0,25A10.38,10.38,0,1,1,1552,497.86,10.37,10.37,0,0,1,1541.65,508.23Z" transform="translate(-61.55 -10.31)"/><path id="circle-25" data-name="circle" class="cls-2" d="M1539.56,360.93a14.67,14.67,0,1,0,14.67,14.67A14.67,14.67,0,0,0,1539.56,360.93Zm0,25a10.37,10.37,0,1,1,10.37-10.37A10.37,10.37,0,0,1,1539.56,386Z" transform="translate(-61.55 -10.31)"/><path id="circle-26" data-name="circle" class="cls-2" d="M1539.56,394.53a14.67,14.67,0,1,0,14.67,14.67A14.67,14.67,0,0,0,1539.56,394.53Zm0,25.05a10.38,10.38,0,1,1,10.37-10.38A10.37,10.37,0,0,1,1539.56,419.58Z" transform="translate(-61.55 -10.31)"/><path id="circle-27" data-name="circle" class="cls-2" d="M1538.1,440.36A14.67,14.67,0,1,0,1552.77,455,14.67,14.67,0,0,0,1538.1,440.36Zm0,25.05A10.38,10.38,0,1,1,1548.47,455,10.37,10.37,0,0,1,1538.1,465.41Z" transform="translate(-61.55 -10.31)"/><path id="circle-28" data-name="circle" class="cls-2" d="M1565,580.5a14.67,14.67,0,1,0,14.67,14.67A14.67,14.67,0,0,0,1565,580.5Zm0,25a10.38,10.38,0,1,1,10.37-10.37A10.37,10.37,0,0,1,1565,605.54Z" transform="translate(-61.55 -10.31)"/><path id="circle-29" data-name="circle" class="cls-2" d="M1425,761.29A14.67,14.67,0,1,0,1439.68,776,14.67,14.67,0,0,0,1425,761.29Zm0,25.05A10.38,10.38,0,1,1,1435.38,776,10.37,10.37,0,0,1,1425,786.34Z" transform="translate(-61.55 -10.31)"/><path id="circle-30" data-name="circle" class="cls-2" d="M1186.39,950a14.67,14.67,0,1,0,14.67,14.67A14.67,14.67,0,0,0,1186.39,950Zm0,25a10.37,10.37,0,1,1,10.37-10.37A10.37,10.37,0,0,1,1186.39,975.08Z" transform="translate(-61.55 -10.31)"/><path id="circle-31" data-name="circle" class="cls-2" d="M1198.28,982.29A14.67,14.67,0,1,0,1213,997,14.66,14.66,0,0,0,1198.28,982.29Zm0,25A10.38,10.38,0,1,1,1208.66,997,10.38,10.38,0,0,1,1198.28,1007.33Z" transform="translate(-61.55 -10.31)"/><path id="circle-32" data-name="circle" class="cls-2" d="M732,660.85a14.67,14.67,0,1,0,14.67,14.67A14.67,14.67,0,0,0,732,660.85Zm0,25a10.37,10.37,0,1,1,10.38-10.37A10.37,10.37,0,0,1,732,685.89Z" transform="translate(-61.55 -10.31)"/><path id="circle-33" data-name="circle" class="cls-2" d="M727.75,570.86a14.67,14.67,0,1,0,14.67,14.67A14.67,14.67,0,0,0,727.75,570.86Zm0,25a10.38,10.38,0,1,1,10.37-10.37A10.37,10.37,0,0,1,727.75,595.9Z" transform="translate(-61.55 -10.31)"/><path id="circle-34" data-name="circle" class="cls-2" d="M664.18,172a14.67,14.67,0,1,0,14.67,14.67A14.67,14.67,0,0,0,664.18,172Zm0,25a10.38,10.38,0,1,1,10.37-10.37A10.37,10.37,0,0,1,664.18,197.06Z" transform="translate(-61.55 -10.31)"/><polyline class="cls-3" points="1455.07 603.5 1403.47 655.09 1253.84 655.17 1244.78 646.11"/><path class="cls-3" d="M1304.15,654.94" transform="translate(-61.55 -10.31)"/><polyline class="cls-3" points="1296.23 637.2 1296.23 644.62 1396.7 644.62 1441.67 599.65 1441.67 580.93 1480.1 542.51 1480.1 499.4"/></g><g id="Layer_4" data-name="Layer 4"><path class="cls-3" d="M673.66,152.69" transform="translate(-61.55 -10.31)"/><polyline class="cls-3" points="1465.74 365.29 1397.9 365.29 1347.15 314.54 1291.95 369.73 1231.76 369.73 1129.97 267.94 1057.49 340.42 933.41 340.42 776.67 183.68 755.88 204.47 673.5 204.47 612.09 143.05"/><polyline class="cls-3" points="611.36 185.1 645.85 219.6 764.47 219.6 776.74 207.33 878.6 309.19 878.6 322.42"/><path class="cls-3" d="M1092.69,434.86V397.91L1190,300.6l97.44,97.45,72.2-.21,48.27-48.27L1454,395.69l71.88-.14,5.07,5.07" transform="translate(-61.55 -10.31)"/><polyline class="cls-3" points="1467.64 435.8 1433.99 402.16 1386.04 402.16 1345.59 361.71 1297.48 409.82"/><line class="cls-3" x1="561.07" y1="650.54" x2="561.07" y2="79.5"/><polyline class="cls-3" points="581.67 116.25 581.67 577.11 661.12 656.55"/><polyline class="cls-3" points="666.2 589.88 666.2 619.94 713.63 667.37 1420.98 667.33 1494.87 593.44"/><polyline class="cls-3" points="568.84 765.78 568.84 1005.82 692.71 1005.82 715.3 983.24"/><polyline class="cls-3" points="590.41 793.32 590.41 778.79 615.47 753.74 723.04 753.74 735.63 766.32"/><polyline class="cls-3" points="788.16 854.51 775.68 842.03 775.68 747.02 947.05 747.02 947.05 1010.46 778.85 1010.46 778.85 904.59"/><polyline class="cls-3" points="1085.84 755.28 1085.84 748.93 982.91 748.93 982.91 1010.46 1039.41 1010.51 1121.17 928.76"/><polyline class="cls-3" points="1115.9 963.33 1078.68 1000.55 1078.68 1010.51 1136.73 1010.51 1136.73 998.46"/><polyline class="cls-3" points="1294.61 755.28 1244.3 755.28 1189.66 809.92 1189.66 1015.44 1276 1015.44 1317.66 973.78 1317.66 909.44"/><polyline class="cls-3" points="1375.74 765.75 1405.47 765.75 1425.13 746.09 1470.22 746.09 1470.22 762.43"/><polyline class="cls-3" points="1376.29 997.64 1392.41 1013.77 1484.01 1013.77 1484.01 819.7 1441.82 777.51 1390.2 777.51 1365.12 802.59 1365.12 888.01 1386.56 909.45"/></g><g id="Layer_5" data-name="Layer 5"><polyline class="cls-4" points="888.94 411.83 795.67 411.83 775.63 431.88 775.63 597.89 801.13 623.38 880 623.38"/><path class="cls-5" d="M959.37,410.79a12.46,12.46,0,1,0,12.46,12.46A12.46,12.46,0,0,0,959.37,410.79Zm0,20.76a8.3,8.3,0,1,1,8.3-8.3A8.29,8.29,0,0,1,959.37,431.55Z" transform="translate(-61.55 -10.31)"/><path class="cls-5" d="M997.21,406.69a12.46,12.46,0,1,0,12.46,12.46A12.46,12.46,0,0,0,997.21,406.69Zm0,20.76a8.3,8.3,0,1,1,8.3-8.3A8.31,8.31,0,0,1,997.21,427.45Z" transform="translate(-61.55 -10.31)"/><path class="cls-5" d="M1048.21,431.93a12.46,12.46,0,1,0,12.46,12.46A12.46,12.46,0,0,0,1048.21,431.93Zm0,20.76a8.3,8.3,0,1,1,8.3-8.3A8.3,8.3,0,0,1,1048.21,452.69Z" transform="translate(-61.55 -10.31)"/><path class="cls-5" d="M1102.76,600.22a12.46,12.46,0,1,0,12.46,12.46A12.46,12.46,0,0,0,1102.76,600.22Zm0,20.76a8.3,8.3,0,1,1,8.3-8.3A8.31,8.31,0,0,1,1102.76,621Z" transform="translate(-61.55 -10.31)"/><path class="cls-5" d="M1125.79,624.82a12.46,12.46,0,1,0,12.46,12.46A12.46,12.46,0,0,0,1125.79,624.82Zm0,20.76a8.3,8.3,0,1,1,8.3-8.3A8.31,8.31,0,0,1,1125.79,645.58Z" transform="translate(-61.55 -10.31)"/><path class="cls-5" d="M1212.08,533.14a12.46,12.46,0,1,0,12.46,12.46A12.46,12.46,0,0,0,1212.08,533.14Zm0,20.76a8.3,8.3,0,1,1,8.3-8.3A8.3,8.3,0,0,1,1212.08,553.9Z" transform="translate(-61.55 -10.31)"/><path class="cls-5" d="M1190,496a12.46,12.46,0,1,0,12.46,12.45A12.45,12.45,0,0,0,1190,496Zm0,20.76a8.31,8.31,0,1,1,8.3-8.31A8.3,8.3,0,0,1,1190,516.73Z" transform="translate(-61.55 -10.31)"/><path class="cls-5" d="M1190,467.64a12.46,12.46,0,1,0,12.46,12.46A12.46,12.46,0,0,0,1190,467.64Zm0,20.76a8.3,8.3,0,1,1,8.3-8.3A8.3,8.3,0,0,1,1190,488.4Z" transform="translate(-61.55 -10.31)"/><path class="cls-5" d="M1258.16,524.05a12.46,12.46,0,1,0,12.46,12.46A12.46,12.46,0,0,0,1258.16,524.05Zm0,20.76a8.3,8.3,0,1,1,8.3-8.3A8.3,8.3,0,0,1,1258.16,544.81Z" transform="translate(-61.55 -10.31)"/><path class="cls-5" d="M1274.25,480.1a12.46,12.46,0,1,0,12.46,12.46A12.46,12.46,0,0,0,1274.25,480.1Zm0,20.76a8.3,8.3,0,1,1,8.3-8.3A8.31,8.31,0,0,1,1274.25,500.86Z" transform="translate(-61.55 -10.31)"/><path class="cls-5" d="M1196,554.9a12.46,12.46,0,1,0,12.46,12.46A12.46,12.46,0,0,0,1196,554.9Zm0,20.76a8.3,8.3,0,1,1,8.3-8.3A8.29,8.29,0,0,1,1196,575.66Z" transform="translate(-61.55 -10.31)"/><path class="cls-5" d="M887,429.39a12.46,12.46,0,1,0,12.46,12.46A12.45,12.45,0,0,0,887,429.39Zm0,20.76a8.31,8.31,0,1,1,8.3-8.3A8.3,8.3,0,0,1,887,450.15Z" transform="translate(-61.55 -10.31)"/><path class="cls-5" d="M950.49,621.24A12.46,12.46,0,1,0,963,633.7,12.46,12.46,0,0,0,950.49,621.24Zm0,20.76a8.3,8.3,0,1,1,8.3-8.3A8.3,8.3,0,0,1,950.49,642Z" transform="translate(-61.55 -10.31)"/><path class="cls-5" d="M729.83,721.83a12.46,12.46,0,1,0,12.46,12.46A12.46,12.46,0,0,0,729.83,721.83Zm0,20.76a8.3,8.3,0,1,1,8.3-8.3A8.3,8.3,0,0,1,729.83,742.59Z" transform="translate(-61.55 -10.31)"/><path class="cls-6" d="M693,840.46a12.46,12.46,0,1,0,12.46,12.46A12.46,12.46,0,0,0,693,840.46Zm0,20.76a8.3,8.3,0,1,1,8.3-8.3A8.29,8.29,0,0,1,693,861.22Z" transform="translate(-61.55 -10.31)"/><path class="cls-6" d="M728.35,868.48a12.46,12.46,0,1,0,12.46,12.46A12.46,12.46,0,0,0,728.35,868.48Zm0,20.76a8.3,8.3,0,1,1,8.3-8.3A8.29,8.29,0,0,1,728.35,889.24Z" transform="translate(-61.55 -10.31)"/><path class="cls-6" d="M786.71,852.92a12.46,12.46,0,1,0,12.46,12.46A12.46,12.46,0,0,0,786.71,852.92Zm0,20.76a8.3,8.3,0,1,1,8.3-8.3A8.29,8.29,0,0,1,786.71,873.68Z" transform="translate(-61.55 -10.31)"/><path class="cls-6" d="M928.65,863.41a12.46,12.46,0,1,0,12.46,12.46A12.46,12.46,0,0,0,928.65,863.41Zm0,20.76a8.3,8.3,0,1,1,8.3-8.3A8.31,8.31,0,0,1,928.65,884.17Z" transform="translate(-61.55 -10.31)"/><path class="cls-6" d="M928.65,830.91a12.46,12.46,0,1,0,12.46,12.46A12.46,12.46,0,0,0,928.65,830.91Zm0,20.76a8.3,8.3,0,1,1,8.3-8.3A8.31,8.31,0,0,1,928.65,851.67Z" transform="translate(-61.55 -10.31)"/><path class="cls-6" d="M924.93,962.92a12.46,12.46,0,1,0,12.46,12.46A12.46,12.46,0,0,0,924.93,962.92Zm0,20.76a8.3,8.3,0,1,1,8.3-8.3A8.3,8.3,0,0,1,924.93,983.68Z" transform="translate(-61.55 -10.31)"/><path class="cls-6" d="M1104.4,907.73a12.46,12.46,0,1,0,12.46,12.46A12.46,12.46,0,0,0,1104.4,907.73Zm0,20.76a8.3,8.3,0,1,1,8.3-8.3A8.3,8.3,0,0,1,1104.4,928.49Z" transform="translate(-61.55 -10.31)"/><path class="cls-6" d="M1169.2,851a12.46,12.46,0,1,0,12.46,12.46A12.46,12.46,0,0,0,1169.2,851Zm0,20.76a8.3,8.3,0,1,1,8.3-8.3A8.31,8.31,0,0,1,1169.2,871.71Z" transform="translate(-61.55 -10.31)"/><path class="cls-6" d="M1269.42,872.64a12.46,12.46,0,1,0,12.46,12.46A12.46,12.46,0,0,0,1269.42,872.64Zm0,20.76a8.3,8.3,0,1,1,8.3-8.3A8.31,8.31,0,0,1,1269.42,893.4Z" transform="translate(-61.55 -10.31)"/><path class="cls-6" d="M1345.32,778.17a12.46,12.46,0,1,0,12.46,12.46A12.46,12.46,0,0,0,1345.32,778.17Zm0,20.76a8.3,8.3,0,1,1,8.3-8.3A8.3,8.3,0,0,1,1345.32,798.93Z" transform="translate(-61.55 -10.31)"/><path class="cls-6" d="M1187.27,880.94a12.46,12.46,0,1,0,12.46,12.46A12.46,12.46,0,0,0,1187.27,880.94Zm0,20.76a8.3,8.3,0,1,1,8.3-8.3A8.29,8.29,0,0,1,1187.27,901.7Z" transform="translate(-61.55 -10.31)"/><path class="cls-6" d="M1312.76,872.64a12.46,12.46,0,1,0,12.46,12.46A12.46,12.46,0,0,0,1312.76,872.64Zm0,20.76a8.3,8.3,0,1,1,8.3-8.3A8.31,8.31,0,0,1,1312.76,893.4Z" transform="translate(-61.55 -10.31)"/><path class="cls-6" d="M1356,956.12a12.46,12.46,0,1,0,12.46,12.46A12.46,12.46,0,0,0,1356,956.12Zm0,20.76a8.3,8.3,0,1,1,8.3-8.3A8.3,8.3,0,0,1,1356,976.88Z" transform="translate(-61.55 -10.31)"/><path class="cls-6" d="M1459.47,807.35a12.46,12.46,0,1,0,12.46,12.46A12.46,12.46,0,0,0,1459.47,807.35Zm0,20.76a8.3,8.3,0,1,1,8.3-8.3A8.3,8.3,0,0,1,1459.47,828.11Z" transform="translate(-61.55 -10.31)"/><path class="cls-6" d="M1519.31,846.22a12.46,12.46,0,1,0,12.46,12.46A12.46,12.46,0,0,0,1519.31,846.22Zm0,20.76a8.3,8.3,0,1,1,8.3-8.3A8.3,8.3,0,0,1,1519.31,867Z" transform="translate(-61.55 -10.31)"/><path class="cls-6" d="M1424.06,937.58A12.46,12.46,0,1,0,1436.52,950,12.46,12.46,0,0,0,1424.06,937.58Zm0,20.76a8.3,8.3,0,1,1,8.3-8.3A8.3,8.3,0,0,1,1424.06,958.34Z" transform="translate(-61.55 -10.31)"/><path class="cls-6" d="M1446.89,844.62a12.46,12.46,0,1,0,12.46,12.46A12.46,12.46,0,0,0,1446.89,844.62Zm0,20.76a8.3,8.3,0,1,1,8.3-8.3A8.31,8.31,0,0,1,1446.89,865.38Z" transform="translate(-61.55 -10.31)"/><path class="cls-6" d="M1074.74,828a12.46,12.46,0,1,0,12.46,12.46A12.46,12.46,0,0,0,1074.74,828Zm0,20.76a8.3,8.3,0,1,1,8.3-8.3A8.3,8.3,0,0,1,1074.74,848.76Z" transform="translate(-61.55 -10.31)"/><path class="cls-6" d="M882.34,986.71a12.46,12.46,0,1,0,12.46,12.46A12.46,12.46,0,0,0,882.34,986.71Zm0,20.76a8.3,8.3,0,1,1,8.3-8.3A8.29,8.29,0,0,1,882.34,1007.47Z" transform="translate(-61.55 -10.31)"/><path class="cls-6" d="M746.8,947.7a12.46,12.46,0,1,0,12.46,12.46A12.46,12.46,0,0,0,746.8,947.7Zm0,20.76a8.3,8.3,0,1,1,8.3-8.3A8.3,8.3,0,0,1,746.8,968.46Z" transform="translate(-61.55 -10.31)"/><path class="cls-6" d="M661.36,922.78a12.46,12.46,0,1,0,12.46,12.46A12.46,12.46,0,0,0,661.36,922.78Zm0,20.76a8.3,8.3,0,1,1,8.3-8.3A8.31,8.31,0,0,1,661.36,943.54Z" transform="translate(-61.55 -10.31)"/><path class="cls-6" d="M775.62,943.54A12.46,12.46,0,1,0,788.08,956,12.46,12.46,0,0,0,775.62,943.54Zm0,20.76a8.3,8.3,0,1,1,8.3-8.3A8.31,8.31,0,0,1,775.62,964.3Z" transform="translate(-61.55 -10.31)"/><path class="cls-5" d="M781.1,695.38a12.46,12.46,0,1,0,12.46,12.46A12.45,12.45,0,0,0,781.1,695.38Zm0,20.76a8.3,8.3,0,1,1,8.31-8.3A8.3,8.3,0,0,1,781.1,716.14Z" transform="translate(-61.55 -10.31)"/><path class="cls-5" d="M1393.1,710.93a12.46,12.46,0,1,0,12.46,12.46A12.46,12.46,0,0,0,1393.1,710.93Zm0,20.76a8.3,8.3,0,1,1,8.3-8.3A8.3,8.3,0,0,1,1393.1,731.69Z" transform="translate(-61.55 -10.31)"/><path class="cls-5" d="M1444.91,689.54A12.46,12.46,0,1,0,1457.37,702,12.46,12.46,0,0,0,1444.91,689.54Zm0,20.76a8.3,8.3,0,1,1,8.3-8.3A8.3,8.3,0,0,1,1444.91,710.3Z" transform="translate(-61.55 -10.31)"/><path class="cls-5" d="M901.67,518a12.46,12.46,0,1,0,12.46,12.46A12.46,12.46,0,0,0,901.67,518Zm0,20.76a8.3,8.3,0,1,1,8.3-8.3A8.31,8.31,0,0,1,901.67,538.71Z" transform="translate(-61.55 -10.31)"/><path class="cls-5" d="M938,592.15a12.46,12.46,0,1,0,12.46,12.46A12.46,12.46,0,0,0,938,592.15Zm0,20.76a8.3,8.3,0,1,1,8.3-8.3A8.3,8.3,0,0,1,938,612.91Z" transform="translate(-61.55 -10.31)"/><path class="cls-5" d="M863.83,520.71a12.46,12.46,0,1,0,12.46,12.46A12.46,12.46,0,0,0,863.83,520.71Zm0,20.76a8.3,8.3,0,1,1,8.3-8.3A8.31,8.31,0,0,1,863.83,541.47Z" transform="translate(-61.55 -10.31)"/><polyline class="cls-4" points="817.97 424.1 813.57 419.7 799.01 419.7 784.57 434.14 784.57 493.98 796.29 505.7 825.4 505.7 832.28 512.59"/><polyline class="cls-4" points="795.29 529.43 785.48 539.25 785.48 594.3 804.68 613.5 856.69 613.5 869.1 601.09"/><polyline class="cls-4" points="942.66 415.83 956.37 429.53 956.37 614.82 968.51 626.97 1054.41 626.97"/><polyline class="cls-4" points="1034.6 608.98 1028.22 615.36 986.66 616.3 966.86 596.51 966.86 453.73 979.51 441.08"/><polyline class="cls-4" points="1121.45 462.8 1112.04 453.39 1112.04 438.08 1129.82 420.3 1162.87 420.3 1195.89 453.32 1195.89 498.11 1179 515.01 1145.69 515.01 1135.89 505.21"/><polyline class="cls-4" points="1212.7 469.78 1212.7 431.53 1187.06 405.89 1114.19 405.89 1098.51 421.58 1098.51 597.27 1129.35 628.12 1204.4 628.12 1222.5 610.01 1222.5 552.68 1203.56 533.74"/><polyline class="cls-4" points="1123.7 557.05 1112.04 557.05 1112.04 591.84 1135.55 615.35 1194.37 615.35 1206.54 603.17 1206.54 565.35 1176.47 535.28 1160.51 535.28"/><polyline class="cls-4" points="660.69 731.57 651.23 741.03 610.66 741.03 610.66 673.66 642.07 673.66 665.94 697.54 709.25 697.54"/><polyline class="cls-4" points="1342.07 713.07 1390.06 713.07 1414.68 737.69 1442.97 737.69 1442.97 674.62 1400.56 674.62 1390.47 684.71"/><polyline class="cls-4" points="624.54 835.68 611.98 823.11 611.98 787.79 632.51 767.25 693.55 767.25 725.45 799.16 725.45 845.06"/><polyline class="cls-4" points="673.3 877.13 714.47 918.3 714.47 936.01"/><polyline class="cls-4" points="685.25 959.52 685.25 979.64 666.21 998.68 630.3 998.68 599.81 968.2 599.81 934.92"/><polyline class="cls-4" points="867.1 822.87 867.1 784.62 895.04 756.68 818.34 756.68 818.34 791.2 842.17 791.2 842.17 944.02 856.29 958.14"/><polyline class="cls-4" points="867.1 875.25 867.1 942.01 908.44 983.35 908.44 988.86 831.15 988.86"/><polyline class="cls-4" points="1005.71 822.67 994.26 811.22 994.26 760.28 1050.4 760.28 1125.72 835.59 1125.72 872.74"/><polyline class="cls-4" points="1107.65 862.33 1107.65 925.24 1030.49 1002.4 993.34 1002.4 993.34 959.6 1035.47 917.47"/><polyline class="cls-4" points="1207.87 863.88 1207.87 809.5 1250.42 766.96 1271.31 766.96 1277.17 772.82"/><polyline class="cls-4" points="1243.54 881.52 1197.62 927.44 1197.62 1003.66 1249.21 1003.66 1287.19 965.68"/><polyline class="cls-4" points="1405.23 802.07 1416.72 790.58 1433.69 790.58 1474.33 831.22 1464.78 840.77"/><polyline class="cls-4" points="1392.58 854 1424.07 885.5 1457.76 885.5 1473.84 901.58 1473.84 977.46 1447.28 1004.02 1410.38 1004.02 1362.51 956.15 1362.51 949.58"/></g></svg>