<?xml version="1.0" encoding="UTF-8" standalone="no"?>
<!-- Created with Inkscape (http://www.inkscape.org/) -->

<svg
   width="480mm"
   height="270mm"
   viewBox="0 0 480 270"
   version="1.1"
   id="svg1"
   xml:space="preserve"
   inkscape:version="1.3 (0e150ed, 2023-07-21)"
   sodipodi:docname="elbsides_light_logo_round_480x270.svg"
   inkscape:export-filename="elbsides_light_logo_round_480x270.png"
   inkscape:export-xdpi="25.4"
   inkscape:export-ydpi="25.4"
   xmlns:inkscape="http://www.inkscape.org/namespaces/inkscape"
   xmlns:sodipodi="http://sodipodi.sourceforge.net/DTD/sodipodi-0.dtd"
   xmlns="http://www.w3.org/2000/svg"
   xmlns:svg="http://www.w3.org/2000/svg"><sodipodi:namedview
     id="namedview1"
     pagecolor="#ffffff"
     bordercolor="#111111"
     borderopacity="1"
     inkscape:showpageshadow="0"
     inkscape:pageopacity="0"
     inkscape:pagecheckerboard="1"
     inkscape:deskcolor="#d1d1d1"
     inkscape:document-units="mm"
     inkscape:zoom="0.46039368"
     inkscape:cx="876.42385"
     inkscape:cy="616.86338"
     inkscape:window-width="1512"
     inkscape:window-height="865"
     inkscape:window-x="0"
     inkscape:window-y="38"
     inkscape:window-maximized="0"
     inkscape:current-layer="layer2"
     inkscape:export-bgcolor="#ffffffff" /><defs
     id="defs1" /><g
     inkscape:groupmode="layer"
     id="layer4"
     inkscape:label="Background" /><g
     inkscape:groupmode="layer"
     id="layer3"
     inkscape:label="Elphi" /><g
     inkscape:groupmode="layer"
     id="layer2"
     inkscape:label="Text"><g
       id="g2"
       transform="matrix(0.89847155,0,0,0.89847155,105.22927,0.2292675)"><circle
         style="fill:#00d298;fill-opacity:1;stroke:none;stroke-width:2"
         id="path3"
         cx="150"
         cy="150"
         r="150" /><g
         id="g1"
         transform="translate(41.62115,1.3177558)"><path
           style="fill:#f9f9f9"
           d="m 64.419855,263.21028 c -1.101322,-0.4502 -1.781146,-1.51657 -1.781146,-2.79391 0,-1.34031 1.349758,-2.69007 2.690068,-2.69007 1.169717,0 2.188558,0.57743 2.752454,1.55996 l 0.428576,0.74675 h 5.720031 5.72003 l 1.654617,-2.17783 1.654617,-2.17784 43.961698,-0.0648 43.96169,-0.0648 0.0197,-1.79411 c 0.0108,-0.98676 -0.0291,-1.96711 -0.0888,-2.17856 -0.0597,-0.21145 -0.81601,-0.90347 -1.68075,-1.53781 -1.46089,-1.07166 -1.68431,-1.15348 -3.15398,-1.15502 -1.72746,-0.002 -2.37131,-0.36825 -3.09044,-1.75891 -1.15547,-2.23443 1.68012,-4.83259 3.97759,-3.64453 1.31648,0.68078 1.97375,2.5279 1.32851,3.73354 -0.21742,0.40626 0.0458,0.68714 1.85819,1.98289 l 2.11149,1.50959 -0.0237,2.93406 -0.0237,2.93407 -44.2324,0.12815 -44.232399,0.12815 -1.722525,2.24264 -1.722526,2.24264 h -6.073531 -6.073531 l -0.285771,0.6272 c -0.577734,1.26799 -2.241977,1.84576 -3.654002,1.26856 z m 2.433299,-1.44018 c 0.557794,-0.79636 0.496999,-1.72787 -0.158294,-2.4254 -0.728504,-0.77545 -1.613993,-0.75194 -2.43048,0.0645 -1.182263,1.18226 -0.37387,2.90495 1.371341,2.92233 0.561353,0.006 0.943778,-0.17079 1.217433,-0.56148 z M 167.46338,246.71194 c 0.23363,-0.56404 0.23125,-0.86478 -0.0105,-1.32895 -0.40839,-0.78408 -0.31702,-0.71157 -1.22478,-0.97192 -2.17721,-0.62441 -2.97423,2.68676 -0.81237,3.37496 0.69173,0.2202 1.73912,-0.3292 2.04767,-1.07409 z m -91.660931,11.92162 c -0.29387,-0.20583 -0.679533,-0.72484 -0.857029,-1.15336 l -0.322719,-0.77911 h -8.838737 c -7.954472,0 -8.823172,-0.0406 -8.683164,-0.40541 0.08557,-0.22298 0.155572,-2.44665 0.155572,-4.94149 v -4.53607 l 2.426324,-2.55534 2.426324,-2.55534 0.0085,-6.45072 0.0085,-6.45071 -0.853047,-0.52721 c -1.431163,-0.88451 -1.848656,-2.48322 -1.016402,-3.89212 0.439767,-0.74446 1.71201,-1.51742 2.497591,-1.51742 1.20863,0 2.960083,1.61766 2.960083,2.73397 0,1.14284 -0.716897,2.41696 -1.533328,2.72513 l -0.773388,0.29192 v 6.7953 6.79529 l -2.498942,2.50781 -2.498942,2.50781 v 4.16062 4.16062 l 8.105013,0.0676 8.105012,0.0676 0.299732,-0.72362 c 0.385282,-0.93015 1.511787,-1.59021 2.713973,-1.59021 1.320508,0 2.690069,1.35093 2.690069,2.65348 0,1.91214 -1.080458,2.98516 -3.005865,2.98516 -0.539498,0 -1.221345,-0.16841 -1.515215,-0.37425 z m 2.934941,-1.17355 c 0.786494,-0.73273 0.735345,-1.86603 -0.114387,-2.53443 -0.865803,-0.68104 -1.57551,-0.67306 -2.319708,0.0261 -0.733599,0.68918 -0.763255,1.72654 -0.07061,2.47001 0.657706,0.70596 1.769824,0.72299 2.504705,0.0383 z M 63.757502,227.20779 c 1.301911,-1.02409 0.657197,-3.06113 -0.966291,-3.0531 -0.943732,0.005 -1.254187,0.18484 -1.666142,0.96689 -0.392436,0.745 -0.172177,1.43858 0.666298,2.09812 0.829178,0.65224 1.124079,0.65045 1.966135,-0.0119 z m 111.756488,29.90338 c -0.74873,-0.74873 -0.87142,-1.04447 -0.87142,-2.10046 0,-0.98458 0.13698,-1.37202 0.6887,-1.94789 0.37879,-0.39537 0.84014,-0.71886 1.02521,-0.71886 0.22656,0 0.3365,-0.3666 0.3365,-1.12201 v -1.12202 l -2.24264,-1.49411 c -1.23345,-0.82176 -2.47331,-1.69378 -2.75524,-1.93782 -0.50144,-0.43405 -0.50982,-0.68037 -0.38445,-11.31297 l 0.12815,-10.86925 1.74644,-1.99419 c 0.96055,-1.0968 1.99142,-2.32554 2.29084,-2.73052 l 0.5444,-0.73634 h 5.07783 c 4.48382,0 5.07784,-0.048 5.07784,-0.41008 0,-0.22554 0.39214,-0.80222 0.87142,-1.28151 0.7426,-0.7426 1.04864,-0.87142 2.07013,-0.87142 0.97827,0 1.33406,0.13535 1.93477,0.73606 1.3167,1.31671 1.3167,2.84981 0,4.16651 -0.60071,0.60071 -0.9565,0.73607 -1.93477,0.73607 -1.02821,0 -1.32629,-0.12759 -2.09576,-0.89706 l -0.89705,-0.89706 -4.78003,0.0171 -4.78003,0.0171 -1.98076,2.38118 -1.98075,2.38118 -0.0112,10.09642 c -0.006,5.55303 -0.009,10.23118 -0.006,10.39589 0.003,0.16471 0.43813,0.56615 0.96676,0.89209 0.52862,0.32594 1.13413,0.73341 1.34558,0.90549 0.21145,0.17208 0.96113,0.70403 1.66596,1.18212 1.25436,0.85084 1.28312,0.89945 1.35764,2.29443 0.0681,1.27517 0.14313,1.44199 0.71278,1.58496 0.76748,0.19263 1.64368,1.53998 1.645,2.52955 0.002,1.65113 -1.38537,2.99882 -3.08757,2.99882 -0.57633,0 -1.05655,-0.24929 -1.67869,-0.87143 z m 3.59681,-1.51105 c 0.43072,-1.22276 -0.93052,-2.72625 -2.0944,-2.31327 -1.77706,0.63056 -1.82078,2.8939 -0.0671,3.47467 0.66776,0.22115 1.90956,-0.44608 2.16152,-1.1614 z m 11.16617,-35.03758 c 1.55325,-1.55324 -0.59496,-4.04225 -2.26739,-2.62709 -0.88168,0.74605 -0.96209,1.72762 -0.20367,2.48605 0.78452,0.78451 1.77127,0.84084 2.47106,0.14104 z m -76.93857,32.37524 c 0.18501,-0.074 0.40607,-0.0649 0.49124,0.0202 0.0852,0.0852 -0.0662,0.14574 -0.33639,0.13461 -0.29858,-0.0123 -0.35931,-0.073 -0.15485,-0.15485 z m -64.054737,-3.27031 c -1.991164,-1.12363 -1.980165,-4.10258 0.01897,-5.13637 0.962583,-0.49777 1.637956,-0.49093 2.730849,0.0277 l 0.877666,0.41648 1.852237,-1.61618 c 1.01873,-0.88889 1.933926,-1.68277 2.033768,-1.76418 0.09984,-0.0814 0.247126,-3.15998 0.327298,-6.84128 l 0.145768,-6.69327 -1.736958,-1.52606 c -0.955327,-0.83934 -3.159601,-2.70463 -4.898387,-4.1451 l -3.161428,-2.61904 -5.123723,0.0461 c -5.047245,0.0454 -5.126973,0.0547 -5.341464,0.61883 -0.376391,0.98998 -1.491942,1.66523 -2.751083,1.66523 -0.959766,0 -1.285032,-0.14061 -2.015849,-0.87143 -0.714391,-0.71439 -0.871426,-1.06541 -0.871426,-1.94789 0,-0.88249 0.157035,-1.23351 0.871426,-1.9479 0.725607,-0.7256 1.059167,-0.87142 1.993385,-0.87142 1.288635,0 2.095748,0.47436 2.658408,1.56243 l 0.394258,0.76241 5.428319,-0.0286 5.428319,-0.0286 1.192836,0.98071 c 2.034573,1.67277 7.261211,6.07799 7.611745,6.41549 0.183136,0.17633 0.567858,0.48512 0.854938,0.68619 0.505739,0.35424 0.521082,0.59542 0.49358,7.75884 -0.02466,6.42202 -0.08167,7.43327 -0.433988,7.69796 -0.223082,0.1676 -0.826582,0.68661 -1.34111,1.15336 -0.514529,0.46675 -1.395972,1.24526 -1.958762,1.73003 -0.895825,0.77162 -1.024142,1.01926 -1.030386,1.98854 -0.0057,0.88835 -0.162403,1.26242 -0.792839,1.89286 -0.936152,0.93615 -2.434196,1.21103 -3.456363,0.63422 z m 2.696827,-1.40036 c 0.639722,-0.70689 0.442389,-2.02969 -0.395698,-2.65253 -0.642436,-0.47743 -0.715688,-0.48074 -1.578665,-0.0712 -1.092528,0.51844 -1.378621,1.36953 -0.822116,2.44569 0.33528,0.64836 0.547561,0.7667 1.375374,0.7667 0.637391,0 1.133174,-0.17047 1.421105,-0.48863 z M 35.422396,220.55256 c 0.715507,-0.6666 0.717053,-1.71306 0.0037,-2.47244 -1.077384,-1.14682 -2.860076,-0.39829 -2.860076,1.20092 0,1.56023 1.723182,2.3273 2.856424,1.27152 z m 69.782634,15.49488 c 0.0123,-0.29857 0.073,-0.35931 0.15485,-0.15485 0.074,0.18502 0.0649,0.40608 -0.0202,0.49125 -0.0852,0.0852 -0.14575,-0.0662 -0.13462,-0.3364 z m -13.664701,-0.34885 c -3.627096,-1.16012 -5.141042,-5.24051 -3.02712,-8.15869 1.997308,-2.75721 5.719193,-3.07774 8.099401,-0.69753 1.804808,1.80481 2.064958,4.13068 0.723044,6.46437 -1.063037,1.84871 -3.87063,3.00746 -5.795325,2.39185 z m 3.29145,-1.59756 c 0.307563,-0.30756 0.193946,-0.52064 -0.795321,-1.49153 l -1.154144,-1.13271 -1.146246,1.12496 c -1.205083,1.1827 -1.21774,1.63814 -0.05258,1.89181 0.958976,0.20878 2.773172,-0.0174 3.148286,-0.39253 z m -3.999879,-2.38936 1.131935,-1.15336 -1.131935,-1.15335 c -0.622564,-0.63435 -1.200088,-1.15336 -1.283385,-1.15336 -0.210853,0 -0.767334,1.59673 -0.7656,2.19676 0.0021,0.73656 0.506968,2.41667 0.726159,2.41667 0.10499,0 0.700262,-0.51901 1.322826,-1.15336 z m 6.036749,-0.51434 c 0.161379,-1.07616 -0.232704,-2.94573 -0.620925,-2.94573 -0.100684,0 -0.692432,0.51901 -1.314996,1.15336 l -1.131935,1.15335 1.124954,1.14625 c 1.305957,1.33067 1.682014,1.23249 1.942902,-0.50723 z m -2.745755,-2.77588 c 0.957668,-0.97579 1.042483,-1.15192 0.693978,-1.44116 -0.58422,-0.48486 -2.573694,-0.63875 -3.468121,-0.26826 -0.425234,0.17614 -0.773153,0.38839 -0.773153,0.47168 0,0.19814 2.112173,2.3494 2.306716,2.3494 0.08227,0 0.640526,-0.50025 1.24058,-1.11166 z m 7.041506,-0.14268 c -1.03961,-0.65225 -1.361939,-1.26595 -1.361939,-2.59306 0,-0.82555 0.162484,-1.22425 0.730339,-1.79211 1.42456,-1.42455 3.4714,-1.22489 4.51942,0.44086 l 0.51703,0.82177 4.1077,0.01 4.1077,0.01 1.78037,-1.79412 1.78036,-1.79411 h 8.00526 8.00525 l 1.44958,1.79411 1.44958,1.79412 h 3.693 3.693 l 0.29481,-0.64705 c 0.45919,-1.00781 1.85476,-1.75046 2.95417,-1.57205 1.15714,0.18778 2.32431,1.28427 2.52911,2.37597 0.1921,1.02396 -0.67474,2.72502 -1.60452,3.14865 -1.38981,0.63324 -3.11995,0.0602 -3.80235,-1.25945 l -0.39538,-0.76456 h -3.95517 -3.95518 l -1.42007,-1.7798 -1.42008,-1.7798 -7.49774,-0.0208 -7.49774,-0.0208 -1.78683,1.80062 -1.78682,1.80063 h -4.41081 c -4.05945,0 -4.42274,0.0376 -4.56064,0.47206 -0.48238,1.51985 -2.72864,2.24814 -4.16141,1.34922 z m 2.62239,-1.16888 c 1.61528,-1.61528 -0.22212,-3.86222 -2.18309,-2.66968 -1.54643,0.94044 -0.71907,3.16026 1.22196,3.27855 0.18261,0.0111 0.61512,-0.26286 0.96113,-0.60887 z m 43.78138,0.0979 c 0.82994,-0.65283 0.92368,-1.98391 0.18669,-2.65087 -0.71293,-0.6452 -2.02978,-0.44224 -2.66358,0.41051 -0.45516,0.6124 -0.47471,0.77788 -0.17681,1.49707 0.30515,0.7367 0.94994,1.21604 1.69257,1.25825 0.1572,0.009 0.5897,-0.2228 0.96113,-0.51496 z m -88.304101,-5.5579 c -0.04699,-0.1068 -0.916245,-0.80574 -1.93168,-1.55322 -1.550638,-1.14145 -1.927535,-1.31555 -2.353941,-1.08734 -0.795285,0.42562 -2.648756,0.31417 -3.259008,-0.19596 -1.435093,-1.19966 -1.5428,-3.01223 -0.255487,-4.29955 0.71439,-0.71439 1.065411,-0.87142 1.947893,-0.87142 0.882482,0 1.233503,0.15703 1.947893,0.87142 0.736685,0.73669 0.871426,1.05246 0.871426,2.04225 0,1.16671 0.0073,1.17624 2.071375,2.70973 l 2.071375,1.5389 24.939555,-0.057 24.93955,-0.057 0.52584,-0.64076 c 0.31651,-0.38568 0.47363,-0.85582 0.3947,-1.18103 -0.20564,-0.84732 0.54737,-2.32799 1.41107,-2.77462 1.23635,-0.63935 2.46016,-0.51557 3.42487,0.3464 0.74056,0.66169 0.83703,0.90042 0.83703,2.07144 0,1.17102 -0.0965,1.40975 -0.83703,2.07144 -0.95978,0.85757 -2.6239,1.02644 -3.57186,0.36246 -0.50856,-0.35621 -0.58853,-0.33679 -1.05505,0.2563 l -0.50478,0.64172 H 85.113658 c -14.170285,0 -25.8026,-0.0874 -25.849589,-0.19416 z m 56.056301,-1.97275 c 0.346,-0.34601 0.6291,-0.87026 0.6291,-1.16501 0,-0.74059 -1.12193,-1.79411 -1.91061,-1.79411 -0.93041,0 -1.67761,0.8497 -1.67761,1.90773 0,1.5994 1.77901,2.23149 2.95912,1.05139 z m -60.627015,-1.93391 c 0.739327,-0.73933 0.663518,-1.8945 -0.167212,-2.54796 -1.745147,-1.37273 -3.89502,0.87969 -2.385821,2.49963 0.659251,0.70762 1.870804,0.73055 2.553033,0.0483 z m 81.526515,2.42235 c -1.37002,-1.65182 -1.39999,-1.67059 -2.43486,-1.52459 -1.27803,0.18031 -2.48043,-0.47205 -3.10843,-1.68647 -1.13673,-2.19819 1.20945,-4.70267 3.64878,-3.89499 1.42033,0.47029 2.29819,2.63944 1.59781,3.94811 -0.23172,0.43297 -0.0889,0.73769 0.92284,1.96949 0.86583,1.05411 1.42029,1.49598 2.00417,1.59719 0.44396,0.077 4.86648,0.17399 9.82781,0.21562 l 9.02062,0.0757 1.31506,-1.23008 c 1.56281,-1.46183 1.95381,-2.08593 1.55605,-2.48369 -0.15403,-0.15403 -0.28005,-0.77417 -0.28005,-1.3781 0,-0.8511 0.1682,-1.28631 0.74788,-1.93508 0.66169,-0.74056 0.90042,-0.83703 2.07144,-0.83703 1.17102,0 1.40975,0.0965 2.07144,0.83703 0.51728,0.57893 0.74788,1.10723 0.74788,1.71335 0,1.99367 -1.03179,3.04554 -2.98739,3.04554 -1.08086,0 -1.25023,0.10139 -2.71159,1.62325 l -1.55872,1.62324 -10.53182,-0.003 -10.53182,-0.003 z m -1.72362,-3.06463 c 0.98131,-0.98131 0.61056,-2.59004 -0.6963,-3.02131 -1.54758,-0.51072 -2.91618,1.69626 -1.80992,2.91865 0.53483,0.59099 1.95953,0.64935 2.50622,0.10266 z m 29.90186,-0.1907 c 1.00152,-1.06919 0.20727,-2.84068 -1.27361,-2.84068 -1.0065,0 -1.80962,0.73803 -1.80962,1.66297 0,1.57917 1.99379,2.34075 3.08323,1.17771 z m -26.74843,-0.6194 c -0.094,-0.094 -0.17086,-9.02862 -0.17086,-19.85476 v -19.6839 l 5.3918,-5.39096 5.3918,-5.39096 h 4.60397 c 3.62996,0 4.60396,-0.0712 4.60396,-0.3365 0,-0.18507 0.33872,-0.66101 0.7527,-1.05763 1.31013,-1.25518 3.53276,-0.94568 4.45809,0.62078 1.41972,2.40339 -1.31017,5.36981 -3.74329,4.06764 -0.67262,-0.35997 -1.44743,-1.25875 -1.45897,-1.6924 -0.006,-0.2436 -1.06868,-0.32038 -4.4322,-0.32038 h -4.42367 l -4.93134,4.93621 -4.93135,4.93622 v 19.028 19.028 h 7.65788 7.65788 l 3.73936,-3.6734 3.73935,-3.67339 0.0258,-5.96304 c 0.0142,-3.27966 -0.011,-5.98438 -0.0559,-6.01048 -0.0449,-0.0261 -0.40869,-0.21256 -0.80838,-0.41435 -1.90091,-0.95975 -1.91458,-3.63839 -0.0249,-4.88406 1.11142,-0.73265 2.23864,-0.64032 3.27331,0.26814 1.52073,1.33522 1.38039,3.3881 -0.31412,4.5947 l -0.7979,0.56815 -6.9e-4,6.06972 -6.9e-4,6.06971 -4.14446,4.1649 -4.14447,4.16491 h -8.37091 c -4.60401,0 -8.44781,-0.0769 -8.54179,-0.17087 z m 25.75951,-22.03896 c 0.72511,-0.65621 0.61181,-1.98907 -0.22503,-2.64733 -0.82242,-0.64691 -1.76953,-0.51813 -2.44026,0.3318 -0.58484,0.74109 -0.56597,1.24701 0.077,2.06439 0.62357,0.79275 1.85754,0.91248 2.58831,0.25114 z m -2.44472,-25.9749 c 0.20711,0 0.54633,-0.40631 0.75382,-0.90291 0.29768,-0.71243 0.31386,-1.02333 0.0767,-1.47374 -0.40519,-0.76954 -0.71809,-0.94672 -1.6801,-0.95135 -0.61888,-0.003 -0.94963,0.1844 -1.37166,0.77709 -0.47921,0.67298 -0.51455,0.88142 -0.25552,1.50679 0.31828,0.76838 1.18908,1.34026 1.75884,1.15507 0.18773,-0.061 0.51079,-0.11095 0.71791,-0.11095 z m 13.82161,46.38604 c -0.95826,-0.92017 -1.70032,-1.45354 -1.79935,-1.29331 -0.27531,0.44545 -1.9984,0.30865 -2.87956,-0.22863 -0.56226,-0.34283 -0.91933,-0.8342 -1.13901,-1.56742 -0.28324,-0.94537 -0.26276,-1.1749 0.17827,-1.99859 0.29877,-0.558 0.88945,-1.12165 1.47534,-1.40782 0.9176,-0.44821 1.04295,-0.4521 2.0593,-0.064 1.62549,0.62078 2.43319,2.38471 1.71039,3.73528 -0.20635,0.38557 -0.0122,0.70221 1.08928,1.77647 l 1.34039,1.30727 8.13758,7.9e-4 8.13758,8e-4 V 197.0415 179.15913 l -3.89502,-3.90328 -3.89503,-3.90328 h -4.51655 -4.51655 l -2.22494,2.27371 -2.22495,2.27371 v 7.80432 7.80433 l 1.73004,1.65659 c 1.68742,1.61579 1.75284,1.65074 2.656,1.41893 1.18387,-0.30385 2.03022,-0.0858 2.85033,0.7343 1.37821,1.3782 0.91591,3.68518 -0.91794,4.58075 -0.84863,0.41443 -1.12736,0.43929 -1.99859,0.17826 -1.39776,-0.41877 -2.08665,-1.53983 -1.9169,-3.11942 0.12624,-1.17475 0.12126,-1.1835 -1.77893,-3.12101 l -1.90552,-1.94295 v -8.28908 -8.28908 l 2.51595,-2.49428 2.51596,-2.49429 h 5.24008 5.24009 l 4.16368,4.16943 4.16368,4.16942 -0.0658,18.70551 -0.0658,18.7055 -8.91637,0.0759 -8.91637,0.0759 z m -1.97695,-2.49437 c 0.81746,-0.6917 0.92982,-1.63448 0.29151,-2.44596 -1.34171,-1.70571 -3.9422,-0.0623 -2.94693,1.86236 0.57646,1.11476 1.72848,1.36795 2.65542,0.5836 z m 5.48574,-13.5986 c 0.91056,-0.78204 0.35184,-2.71114 -0.83298,-2.87602 -0.97456,-0.13562 -1.55826,0.0565 -1.93945,0.63825 -0.34182,0.52169 -0.36255,0.78524 -0.11965,1.52125 0.44421,1.34597 1.77522,1.67573 2.89208,0.71652 z M 59.990257,215.26564 c -0.09398,-0.094 -0.170867,-4.66751 -0.170867,-10.16341 v -9.99254 l -1.025207,-0.87754 c -0.942325,-0.80659 -1.025207,-0.98112 -1.025207,-2.15879 0,-1.07438 0.120962,-1.40221 0.749189,-2.03044 0.412055,-0.41205 0.902232,-0.75801 1.089283,-0.7688 0.187051,-0.0108 0.555302,-0.0602 0.818337,-0.10983 0.744743,-0.1405 2.090418,0.62176 2.589666,1.46692 0.830672,1.40621 0.0343,3.71716 -1.442488,4.18588 -0.447476,0.14202 -0.472065,0.64955 -0.472065,9.74387 V 214.155 H 76.350852 91.600805 V 189.93449 165.71397 H 76.09455 60.588295 v 8.53409 8.5341 l 0.961886,0.93925 c 0.717154,0.70028 1.059511,0.87755 1.345584,0.6967 1.062837,-0.67189 3.081179,0.11476 3.713541,1.44737 1.111076,2.34142 -1.430025,4.94029 -3.75276,3.83809 -1.443324,-0.68491 -2.173954,-2.48125 -1.512158,-3.71782 0.19474,-0.36388 0.01514,-0.67907 -0.897056,-1.57433 l -1.140546,-1.11936 v -9.4298 -9.4298 H 76.09455 92.882314 v 25.50203 25.50202 H 76.52172 c -8.998327,0 -16.437485,-0.0769 -16.531463,-0.17087 z m 1.594079,-21.807 c 0.297124,-0.2467 0.606158,-0.79454 0.686743,-1.21744 0.301211,-1.58072 -1.795941,-2.57801 -2.964293,-1.40966 -0.670975,0.67098 -0.651715,1.74115 0.04468,2.48243 0.663879,0.70666 1.491403,0.76028 2.232873,0.14467 z m 3.574381,-5.08632 c 0.455279,-0.31889 0.566475,-0.60925 0.505557,-1.32012 -0.16208,-1.89136 -2.421547,-2.41327 -3.233754,-0.74696 -0.84699,1.73767 1.096339,3.21008 2.728197,2.06708 z m 33.362253,1.75439 1.7e-5,-25.3098 h 10.252073 10.25206 l -1e-5,0.8264 c -2e-5,0.65521 0.15604,0.9071 0.75333,1.21597 1.06584,0.55117 1.55337,1.36516 1.55337,2.59353 0,2.69904 -3.44228,3.85399 -5.12203,1.71853 -1.0759,-1.36779 -0.41903,-3.83586 1.18301,-4.44496 0.3339,-0.12695 0.60709,-0.33577 0.60709,-0.46405 0,-0.13494 -3.83436,-0.25086 -9.09871,-0.27506 l -9.098709,-0.0418 -0.0048,0.8454 c -0.0035,0.61686 5e-4,44.81052 0.0043,47.04635 4.22e-4,0.24903 1.119149,0.31899 4.887269,0.30567 l 4.88672,-0.0173 7.40138,-7.39717 c 7.32546,-7.32129 7.3985,-7.4048 7.12033,-8.14174 -0.35637,-0.94415 -0.12639,-1.86335 0.71698,-2.86564 0.57462,-0.6829 0.83186,-0.78866 1.91829,-0.78866 1.019,0 1.40914,0.138 2.07692,0.73467 0.72839,0.65082 0.82224,0.88875 0.82224,2.08465 0,1.2076 -0.0905,1.43084 -0.85803,2.11663 -0.79434,0.70974 -0.9672,0.75676 -2.32836,0.63333 l -1.47032,-0.13332 -7.50174,7.53409 -7.50174,7.53409 h -5.72545 -5.725451 z m 29.35555,9.00516 c 0.75998,-0.49796 0.87293,-1.97035 0.20756,-2.70558 -0.52853,-0.58402 -1.81692,-0.60755 -2.43904,-0.0445 -0.63414,0.5739 -0.61058,1.99697 0.0439,2.65145 0.62032,0.62033 1.34177,0.65287 2.18758,0.0987 z M 119.794,170.5837 c 1.38469,-1.38469 -0.28658,-3.60328 -2.03376,-2.69978 -1.70754,0.883 -1.16206,3.21239 0.75225,3.21239 0.42717,0 0.99673,-0.22783 1.28151,-0.51261 z m -3.16106,44.68194 c -0.094,-0.094 -0.17087,-0.698 -0.17087,-1.34226 0,-1.16195 0.0279,-1.19937 3.45971,-4.63775 3.40036,-3.40688 3.45567,-3.48045 3.22388,-4.28866 -0.73635,-2.56751 1.96726,-4.55327 4.2797,-3.14338 1.94726,1.18725 1.7115,4.01241 -0.41922,5.02351 -0.71794,0.34068 -1.05689,0.36628 -1.80537,0.13634 l -0.92149,-0.28308 -3.26785,3.26009 c -1.79732,1.79306 -3.26785,3.4636 -3.26785,3.71233 0,0.41623 0.38759,0.45222 4.86974,0.45222 4.46759,0 4.86959,-0.037 4.86811,-0.44853 -8.9e-4,-0.24669 -0.33874,-0.64032 -0.75078,-0.87473 -1.69636,-0.96508 -1.95193,-3.18829 -0.52998,-4.61024 1.31725,-1.31725 3.60062,-0.90495 4.48761,0.8103 0.21065,0.40734 0.38256,1.00585 0.38203,1.33002 -0.001,0.82695 -0.90153,2.21045 -1.66441,2.55804 -0.54084,0.24642 -0.64134,0.46652 -0.64134,1.40443 v 1.11222 h -5.98038 c -3.2892,0 -6.05726,-0.0769 -6.15124,-0.17087 z m 12.6004,-3.60958 c 1.38956,-1.18586 0.18045,-3.48687 -1.59773,-3.04057 -0.75909,0.19051 -1.50681,1.44778 -1.26515,2.12728 0.29922,0.84131 0.92472,1.36182 1.63652,1.36182 0.38543,0 0.9373,-0.20184 1.22636,-0.44853 z m -1.93012,-6.51937 c 0.45492,-0.61194 0.47468,-0.77823 0.17766,-1.4953 -0.76934,-1.85736 -3.32975,-1.41133 -3.32975,0.58004 0,1.76276 2.07429,2.36506 3.15209,0.91526 z M 20.348922,191.73518 v -22.93242 l -0.753347,-0.38958 c -1.060665,-0.54849 -1.553369,-1.36399 -1.553369,-2.57106 0,-1.20279 0.492396,-2.02241 1.540642,-2.56448 1.03474,-0.53508 1.829833,-0.47843 2.842661,0.20257 1.921673,1.29207 1.642727,4.26637 -0.476118,5.07669 l -0.578095,0.22108 0.06549,22.23998 0.06549,22.23999 11.244354,0.0668 11.244355,0.0668 1.860017,-1.81649 1.860017,-1.8165 -0.128215,-1.59729 c -0.12427,-1.54815 -0.102991,-1.61853 0.691511,-2.28706 0.641767,-0.54001 1.087906,-0.68975 2.05502,-0.68975 1.101288,0 1.324693,0.10182 2.059399,0.9386 0.735832,0.83807 0.810009,1.06367 0.692503,2.10618 -0.101545,0.9009 -0.322014,1.3377 -0.965306,1.91248 -0.762729,0.6815 -0.951769,0.73273 -2.220549,0.60178 l -1.386845,-0.14313 -2.033628,2.03363 -2.033628,2.03362 H 32.395104 20.348922 Z m 31.152311,17.43359 c 0.768555,-0.76856 0.795492,-1.39696 0.0979,-2.2838 -1.024862,-1.3029 -3.057019,-0.55919 -3.057019,1.11879 0,1.63664 1.784807,2.33932 2.95912,1.16501 z M 22.20711,166.94481 c 0.890191,-1.02951 0.285264,-2.57326 -1.14046,-2.91042 -1.335221,-0.31575 -2.544667,1.66685 -1.678859,2.75209 0.839423,1.05217 1.990545,1.11682 2.819319,0.15833 z m 89.64153,41.47478 c 0,-0.0532 0.20184,-0.25506 0.44853,-0.44852 0.40651,-0.31881 0.41557,-0.30974 0.0968,0.0968 -0.33483,0.42694 -0.5453,0.56271 -0.5453,0.35176 z M 23.049009,178.24621 c -0.794413,-0.69751 -0.905975,-0.94297 -0.905975,-1.99339 0,-1.35189 0.455493,-2.16196 1.527304,-2.71621 0.649122,-0.33568 0.719488,-0.4939 0.654763,-1.47227 -0.07118,-1.07598 -0.02473,-1.1446 2.520428,-3.72328 l 2.592946,-2.62709 h 10.395511 10.395511 l 1.119361,1.14055 c 0.895251,0.91219 1.21045,1.09179 1.574325,0.89705 0.872809,-0.46711 2.138246,-0.27345 3.014608,0.46134 1.669092,1.39948 1.262161,3.97792 -0.755187,4.7851 -2.257061,0.9031 -4.638344,-1.20554 -3.865394,-3.42283 0.242547,-0.69577 0.184844,-0.83949 -0.670707,-1.67048 l -0.936086,-0.90922 H 39.829984 29.94955 l -2.245255,2.25571 c -2.007923,2.01727 -2.238397,2.34569 -2.180384,3.10704 0.04592,0.60264 0.237269,0.92989 0.655007,1.12023 0.840322,0.38287 1.602754,1.74521 1.602754,2.86384 0,0.74606 -0.19173,1.14824 -0.871425,1.82794 -1.191856,1.19185 -2.559664,1.21876 -3.861238,0.076 z m 3.078352,-0.85886 c 0.80005,-0.80005 0.801023,-1.68305 0.0027,-2.43305 -1.150769,-1.08109 -2.961802,-0.21287 -2.961802,1.4199 0,0.56625 1.175507,1.64225 1.794112,1.64225 0.294747,0 0.819001,-0.28309 1.165008,-0.6291 z m 29.209742,-5.78175 c 1.506937,-1.66514 -0.751897,-4.07541 -2.389532,-2.54972 -0.577414,0.53794 -0.658345,0.77446 -0.566624,1.65597 0.140291,1.3483 2.028236,1.91909 2.956156,0.89375 z m 133.760887,0.926 c -0.67665,-0.67664 -0.87143,-1.08315 -0.87143,-1.81864 0,-1.20624 0.66081,-2.32901 1.59961,-2.71787 0.66035,-0.27353 0.72538,-0.40799 0.65599,-1.35645 l -0.077,-1.05282 -3.71637,-0.0706 -3.71638,-0.0705 -1.91584,1.92874 -1.91585,1.92874 h -2.76166 c -2.12255,0 -2.76166,0.0786 -2.76166,0.33977 0,0.46588 -0.99709,1.36098 -1.8951,1.70126 -2.2216,0.84182 -4.50005,-1.88507 -3.38184,-4.04744 1.05291,-2.03611 4.10647,-2.05963 5.15103,-0.0397 0.39512,0.76406 0.39692,0.76457 2.74118,0.76457 h 2.34581 l 1.98148,-1.92828 1.98149,-1.92827 4.57261,0.0701 4.57261,0.0701 0.0454,1.28151 c 0.025,0.70483 0.0538,1.48038 0.0641,1.72345 0.0102,0.24308 0.36123,0.61911 0.77995,0.83564 1.2606,0.65188 1.76742,2.18022 1.18513,3.57383 -0.44983,1.07659 -1.43552,1.68428 -2.73195,1.68428 -0.86359,0 -1.22123,-0.16137 -1.93128,-0.87142 z m 3.21941,-0.71472 c 0.70074,-0.75215 0.66294,-1.78087 -0.0915,-2.48961 -1.69592,-1.59324 -3.96275,1.00014 -2.31472,2.64817 0.58159,0.58159 1.79088,0.5019 2.40619,-0.15856 z m -20.19396,-1.91365 c 0.26684,-0.24149 0.4652,-0.76584 0.46056,-1.21744 -0.0231,-2.24746 -2.94059,-2.58325 -3.45548,-0.39771 -0.3582,1.52047 1.80842,2.68892 2.99492,1.61515 z M 18.157199,152.24494 c -0.936115,-0.462 -1.653163,-1.58602 -1.651845,-2.58937 0.0012,-0.94915 0.85168,-2.32769 1.664414,-2.69799 l 0.641344,-0.29222 V 93.139436 c 0,-32.777534 -0.09228,-53.525925 -0.238053,-53.525925 -0.130929,0 -0.64994,-0.38846 -1.153358,-0.863244 -0.746246,-0.703801 -0.915305,-1.048315 -0.915305,-1.865235 0,-1.865171 1.573641,-3.231684 3.347899,-2.907238 1.243995,0.22748 1.922054,0.802213 2.300967,1.950333 0.411117,1.245695 -0.07689,2.565577 -1.191811,3.223394 l -0.868831,0.512623 v 53.541749 c 0,29.447957 0.09344,53.541747 0.207646,53.541747 0.487995,0 1.841241,1.65348 1.986366,2.42707 0.203488,1.08468 -0.412744,2.30171 -1.501625,2.96564 -0.979652,0.59733 -1.580909,0.62126 -2.627808,0.10459 z m 2.491919,-1.30804 c 0.470963,-0.42622 0.629332,-1.75838 0.272558,-2.2927 -0.257042,-0.38496 -1.217668,-0.87135 -1.720912,-0.87135 -0.569833,0 -1.671161,1.1519 -1.671161,1.7479 0,0.26933 0.239043,0.79358 0.531206,1.165 0.623577,0.79275 1.857539,0.91248 2.588309,0.25115 z M 20.173545,38.293633 c 0.758626,-0.39931 0.935745,-0.715203 0.940358,-1.677134 0.0068,-1.412002 -1.659263,-2.112902 -2.776072,-1.167892 -0.881677,0.746049 -0.962094,1.727622 -0.203672,2.486045 0.719748,0.719748 1.195039,0.80341 2.039386,0.358981 z M 38.844652,152.20959 c -1.243772,-0.61286 -1.644007,-1.36716 -1.539899,-2.90216 l 0.08824,-1.30098 -7.368675,-7.37572 -7.368675,-7.37572 V 89.91965 46.584291 l -0.868831,-0.512623 c -0.960794,-0.566882 -1.589159,-1.976014 -1.334178,-2.991941 0.08384,-0.334064 0.451071,-0.962286 0.816058,-1.396048 0.585094,-0.695345 0.822034,-0.788659 2.002537,-0.788659 1.136792,0 1.444348,0.110038 2.037251,0.728896 1.36045,1.420003 1.059464,3.665894 -0.606762,4.527533 l -0.764567,0.395373 v 43.117873 43.117875 l 7.240524,7.23263 c 5.692433,5.68623 7.322724,7.18 7.624977,6.98646 0.211449,-0.13539 0.828496,-0.24794 1.371214,-0.25009 1.373931,-0.005 2.729614,1.32276 2.729614,2.67434 0,1.2356 -0.601701,2.34814 -1.529421,2.82788 -0.950689,0.49162 -1.460038,0.48272 -2.529402,-0.0442 z m 2.511028,-1.40945 c 0.287424,-0.30851 0.522588,-0.83277 0.522588,-1.16501 0,-0.74826 -1.073242,-1.86228 -1.794112,-1.86228 -0.74059,0 -1.794112,1.12193 -1.794112,1.91061 0,1.49697 2.024363,2.23436 3.065636,1.11668 z M 24.041454,45.261215 c 0.640789,-0.243628 1.109698,-1.259187 0.950913,-2.05948 -0.144367,-0.727629 -0.877382,-1.281508 -1.695975,-1.281508 -2.295557,0 -2.367527,3.171184 -0.08076,3.558493 0.09655,0.01635 0.468168,-0.08152 0.825822,-0.217505 z m 88.834426,105.394525 -64.970461,-0.0646 -4.679537,-4.67441 -4.679537,-4.67441 v -2.87941 -2.87941 l -0.789096,-0.40806 c -0.952374,-0.49249 -1.614679,-1.91165 -1.383454,-2.96441 0.08978,-0.40875 0.508864,-1.08882 0.931304,-1.51126 0.598403,-0.5984 0.995611,-0.76807 1.798096,-0.76807 1.88554,0 3.031375,1.11124 3.031375,2.93986 0,0.94672 -0.951293,2.30312 -1.805369,2.5742 -0.4544,0.14422 -0.501347,0.40377 -0.501347,2.77177 v 2.61265 l 4.297504,4.29192 4.297505,4.29193 66.631937,-0.001 66.63193,-0.001 6.59996,-6.5963 c 5.51954,-5.51648 6.56914,-6.68082 6.41173,-7.11263 -0.10352,-0.28398 -0.17091,-0.96448 -0.14976,-1.51222 0.055,-1.4248 0.94639,-2.24272 2.61927,-2.40346 1.22344,-0.11755 1.35171,-0.071 2.23394,0.81126 0.87261,0.87261 0.9268,1.01737 0.80047,2.13817 -0.10562,0.93705 -0.31863,1.36582 -0.96581,1.94408 -0.75155,0.67151 -0.9641,0.73078 -2.24086,0.6249 l -1.41054,-0.11697 -6.6184,6.66193 c -3.64012,3.66406 -6.5721,6.73683 -6.51552,6.82839 0.0566,0.0916 -0.95636,0.16096 -2.251,0.15423 -1.29463,-0.007 -31.59058,-0.0413 -67.32433,-0.0768 z m 85.74255,-15.04557 c 0.79577,-0.79577 0.79593,-1.42275 5.9e-4,-2.28094 -1.14475,-1.23521 -2.95971,-0.55089 -2.95971,1.11593 0,1.63664 1.78481,2.33932 2.95912,1.16501 z M 40.480259,133.81605 c 0.768554,-0.76855 0.795491,-1.39695 0.0979,-2.2838 -0.668399,-0.84973 -1.8017,-0.90088 -2.534431,-0.11438 -1.620762,1.73968 0.755838,4.07888 2.436533,2.39818 z M 149.26128,147.6368 c -0.53268,-0.56701 -0.74841,-0.62779 -1.71417,-0.48297 -1.43821,0.21568 -2.48398,-0.2286 -3.17679,-1.34959 -1.46861,-2.37626 1.16294,-5.26258 3.70029,-4.05853 1.34338,0.63747 2.13573,2.65133 1.46226,3.71646 -0.1709,0.27028 -0.0826,0.54867 0.3049,0.96113 l 0.54549,0.58064 h 13.99059 13.99059 l 4.42154,-4.42697 4.42155,-4.42697 -0.16355,-1.19321 c -0.4565,-3.33055 3.57236,-4.89571 5.32061,-2.06698 0.39622,0.6411 0.498,1.11092 0.38778,1.79011 -0.28954,1.78422 -2.3907,3.10984 -3.76416,2.37479 -0.53624,-0.28699 -0.8865,0.005 -5.34771,4.46182 l -4.77388,4.76892 h -14.49799 -14.49798 z m -1.84051,-1.56599 c 0.7042,-0.18864 1.39707,-1.41361 1.1664,-2.06218 -0.30724,-0.86386 -0.93207,-1.36182 -1.70881,-1.36182 -1.09978,0 -1.71049,0.65184 -1.71049,1.82565 0,0.80258 0.12601,1.04566 0.70483,1.35968 0.82389,0.44697 0.79,0.44174 1.54807,0.23867 z m 43.75256,-8.54926 c 0.25476,-0.28151 0.45334,-0.85873 0.44129,-1.28271 -0.0396,-1.39343 -1.31252,-2.08492 -2.60635,-1.41585 -0.42994,0.22233 -0.78171,0.56485 -0.78171,0.76115 0,0.19629 -0.0619,0.51834 -0.13767,0.71566 -0.0757,0.19731 0.10566,0.66809 0.40306,1.04617 0.67236,0.85476 1.98872,0.94096 2.68138,0.17558 z m -31.95671,8.76622 c -1.69081,-0.0744 -1.71299,-0.0847 -1.65242,-0.7689 0.0467,-0.52749 -0.2026,-0.94318 -1.04144,-1.73661 -0.97862,-0.92564 -1.10282,-1.17179 -1.10282,-2.18561 0,-1.3495 0.44129,-2.07122 1.59301,-2.60536 1.13863,-0.52807 2.36431,-0.29308 3.28771,0.63032 1.01783,1.01784 1.06304,2.62325 0.1059,3.76075 -0.3586,0.42617 -0.85839,0.84037 -1.11064,0.92043 -0.25224,0.0801 -0.45863,0.3169 -0.45863,0.5263 0,0.32955 1.20863,0.38074 8.98909,0.38074 h 8.9891 l 4.16773,-4.16199 4.16773,-4.16199 v -1.73042 -1.73042 l 3.58822,-3.62946 3.58823,-3.62947 v -3.64988 c 0,-3.6462 -6.3e-4,-3.65004 -0.61959,-3.80538 -0.74686,-0.18745 -1.68713,-1.61984 -1.68713,-2.57014 0,-2.20358 2.36039,-3.61667 4.3353,-2.59541 0.72219,0.37346 1.55964,1.75574 1.55964,2.57431 0,0.85706 -0.81414,2.13512 -1.55579,2.44232 l -0.75092,0.31104 v 3.8743 3.8743 l -3.63412,3.64062 -3.63413,3.64061 0.0469,1.74666 0.0469,1.74665 -4.42222,4.41391 -4.42223,4.41391 -8.32981,0.0696 c -4.58139,0.0383 -9.10102,0.0357 -10.04361,-0.006 z m 0.28554,-3.54737 c 0.29217,-0.37143 0.53121,-0.91184 0.53121,-1.20091 0,-0.77679 -0.99902,-1.712 -1.82881,-1.712 -0.83956,0 -1.75942,0.8782 -1.75942,1.67973 0,0.8916 0.95596,1.9085 1.79412,1.9085 0.48519,0 0.91066,-0.22751 1.2629,-0.67532 z m 34.66323,-25.37903 c 0.27225,-0.24638 0.46871,-0.77587 0.46871,-1.2632 0,-1.86374 -2.07855,-2.43626 -3.25969,-0.89785 -0.45595,0.59385 -0.39722,1.14727 0.20268,1.90991 0.62357,0.79274 1.85753,0.91248 2.5883,0.25114 z m -3.05019,-6.66391 c -0.59074,-0.12679 -1.41962,-1.10973 -1.70046,-2.0165 -0.0883,-0.28517 -0.046,-0.91794 0.094,-1.40617 l 0.25459,-0.88769 -2.8787,-2.88689 -2.8787,-2.88688 h -4.49277 -4.49278 l -3.70999,-3.716622 -3.70998,-3.716618 -4.14228,4.136563 c -4.05491,4.049337 -4.1367,4.152537 -3.87826,4.893887 0.39719,1.13937 -0.14155,2.6614 -1.16236,3.28382 -2.93615,1.79028 -6.05003,-2.07553 -3.57107,-4.43341 0.86801,-0.82561 1.87333,-1.093329 2.84007,-0.75632 0.71677,0.24987 0.86486,0.13 5.19188,-4.202331 2.44974,-2.452743 4.54236,-4.459533 4.65027,-4.459533 0.10791,0 1.92513,1.730036 4.03828,3.844526 l 3.84208,3.844526 h 4.55458 4.55459 l 3.03331,3.041232 3.03331,3.04123 1.12334,-0.12661 c 2.1165,-0.23856 3.43855,0.86481 3.43855,2.86979 0,1.80537 -1.89412,2.99874 -4.03151,2.54 z m 2.3772,-1.48637 c 0.70372,-0.70373 0.76643,-1.09579 0.32886,-2.05615 -0.56536,-1.24083 -2.67388,-1.13642 -3.12801,0.15488 -0.67844,1.92913 1.37591,3.32451 2.79915,1.90127 z m -35.91871,-4.53226 c 0.78996,-0.35993 1.19264,-1.40384 0.87389,-2.26548 -0.29773,-0.80487 -0.64986,-1.02231 -1.66346,-1.02719 -1.15365,-0.006 -1.92244,0.99364 -1.60802,2.08996 0.12541,0.43727 0.26041,0.82004 0.3,0.85059 0.2494,0.19243 1.12719,0.62946 1.27736,0.63595 0.0991,0.004 0.46819,-0.12344 0.82023,-0.28383 z m -50.81822,4.3246 c -0.33434,-0.17413 -0.85233,-0.74174 -1.1511,-1.26135 -0.51074,-0.88829 -0.52036,-1.01059 -0.16101,-2.0463 0.24959,-0.71936 0.66777,-1.28082 1.2053,-1.61826 l 0.82311,-0.51672 0.01,-3.27342 0.01,-3.273413 9.52944,-9.494094 9.52944,-9.494095 9.31024,9.307436 9.31024,9.307436 6.59827,-0.0828 6.59827,-0.0828 4.66541,-4.644098 4.6654,-4.644098 4.53589,4.534673 4.53589,4.534672 h 6.86651 c 4.18338,0 6.92686,0.09764 7.02094,0.24987 0.0872,0.141137 0.64852,0.182148 1.28985,0.09424 2.05738,-0.281996 3.45571,0.857257 3.45571,2.815463 0,1.655238 -1.84454,3.106928 -3.5367,2.783448 -0.32409,-0.0619 -0.94194,-0.46533 -1.373,-0.89638 -0.72861,-0.72862 -0.7762,-0.88796 -0.67655,-2.265575 0.0795,-1.099093 0.0159,-1.516865 -0.24624,-1.617458 -0.19439,-0.07459 -3.3003,-0.122315 -6.90202,-0.106049 l -6.5486,0.02957 -4.19882,-4.193038 -4.19883,-4.193039 -4.42379,4.418375 -4.42379,4.418376 h -7.17736 -7.17737 l -8.24212,-8.265732 c -4.53317,-4.546152 -8.59933,-8.606572 -9.0359,-9.023154 l -0.79377,-0.757424 -8.8373,8.830929 -8.8373,8.830928 -2.7e-4,3.077131 -2.6e-4,3.07713 0.74484,0.32969 c 0.77585,0.34343 1.56188,1.65297 1.56188,2.60214 0,0.7636 -0.65433,1.95371 -1.33708,2.43193 -0.68243,0.47799 -2.1438,0.5151 -2.98719,0.0758 z m 2.70552,-1.2946 c 0.61361,-0.61361 0.6458,-1.5776 0.0768,-2.30094 -1.02799,-1.30688 -3.0715,-0.66275 -3.0715,0.96816 0,1.56904 1.90887,2.41859 2.99468,1.33278 z m 84.38561,-7.25822 c 0.29216,-0.37142 0.5312,-0.895677 0.5312,-1.165006 0,-0.682097 -1.13555,-1.747898 -1.86228,-1.747898 -0.8649,0 -1.72594,0.900037 -1.72594,1.804096 0,1.668418 2.03595,2.406878 3.05702,1.108808 z M 60.588295,105.8989 c 0,-0.0532 0.201837,-0.25506 0.448528,-0.44853 0.406509,-0.31881 0.415574,-0.30974 0.09677,0.0968 -0.334825,0.42693 -0.545296,0.5627 -0.545296,0.35176 z m 2.434866,-2.46625 c 0.255145,-0.28194 0.521568,-0.51261 0.592051,-0.51261 0.07048,0 -0.0806,0.23067 -0.335749,0.51261 -0.255145,0.28193 -0.521568,0.5126 -0.592051,0.5126 -0.07048,0 0.0806,-0.23067 0.335749,-0.5126 z M 191.3599,95.615112 c -0.46163,-0.200595 -1.03831,-0.714363 -1.28151,-1.141705 l -0.44217,-0.776986 -6.16835,-0.0016 -6.16835,-0.0016 -4.62999,-4.613432 c -2.54649,-2.537387 -4.73017,-4.611866 -4.85262,-4.609954 -0.12245,0.0019 -2.47047,2.25096 -5.21781,4.997884 l -4.99516,4.994407 h -5.8964 -5.89639 l -9.48598,-9.483457 -9.48599,-9.483456 -6.66044,6.664137 -6.66044,6.664137 L 101.47027,88.8229 89.42224,88.822312 74.789032,74.196465 60.155823,59.570618 l -1.770103,1.806818 -1.770102,1.806817 -8.175208,0.0045 -8.175209,0.0045 -5.656388,-5.656774 c -5.459686,-5.460058 -5.685188,-5.651371 -6.484564,-5.501407 -1.020134,0.191379 -2.430299,-0.360542 -3.000248,-1.174258 -0.490929,-0.700899 -0.545808,-2.734575 -0.08942,-3.31373 1.063965,-1.350172 2.662685,-1.620036 4.054774,-0.684448 1.07495,0.722448 1.511214,2.110156 1.048648,3.335634 l -0.305728,0.809966 5.503875,5.501467 5.503875,5.501467 7.437255,0.110971 7.437255,0.11097 2.134001,-2.082947 c 1.173701,-1.14562 2.203551,-2.082946 2.288557,-2.082946 0.085,0 6.865161,6.689475 15.067012,14.865501 L 90.116562,87.79822 h 11.303828 11.30383 l 6.93696,-6.920147 c 3.81533,-3.806081 7.05014,-6.920147 7.18847,-6.920147 0.13833,0 4.57545,4.325092 9.86026,9.611316 l 9.60875,9.611315 h 5.44481 5.44481 l 5.28163,-5.254186 c 2.90489,-2.889802 5.32374,-5.254186 5.3752,-5.254186 0.0515,0 2.29397,2.19138 4.98335,4.869734 l 4.88976,4.869733 h 5.9958 c 5.72583,0 6.00297,-0.02257 6.15493,-0.501347 0.29105,-0.917028 1.6247,-1.805369 2.71036,-1.805369 2.9514,0 3.84841,4.394416 1.12895,5.530679 -1.06454,0.444793 -1.30226,0.442733 -2.36836,-0.02052 z m 2.24501,-1.150895 c 0.59908,-0.320616 0.89473,-1.602285 0.52778,-2.287941 -0.87612,-1.637045 -3.34311,-1.071563 -3.34311,0.766306 0,1.391247 1.52195,2.213833 2.81533,1.521635 z M 28.802764,50.197051 c 0.643286,-0.817805 0.524819,-1.755577 -0.310985,-2.46173 -1.001933,-0.846512 -2.76052,0.04604 -2.76052,1.401078 0,1.656142 2.047055,2.36303 3.071505,1.060652 z m 48.547664,38.780176 c -0.676641,-0.676641 -0.871425,-1.083151 -0.871425,-1.818642 0,-1.200642 0.659774,-2.328574 1.586654,-2.7125 1.652023,-0.68429 1.412737,-0.991024 -8.546743,-10.955839 -5.096742,-5.099472 -9.341541,-9.271767 -9.432886,-9.271767 -0.09134,0 -0.55734,0.403675 -1.035544,0.897056 l -0.869461,0.897056 H 46.629641 35.078259 l -3.019172,-3.027059 -3.019172,-3.027058 -1.515836,0.109645 c -1.414889,0.102344 -1.567729,0.05775 -2.295082,-0.669601 -0.645975,-0.645974 -0.779247,-0.984258 -0.779247,-1.97795 0,-1.021496 0.128825,-1.327529 0.871426,-2.07013 0.71439,-0.71439 1.065411,-0.871426 1.947893,-0.871426 0.888094,0 1.233125,0.156658 1.971695,0.895228 0.837112,0.837112 0.889523,0.985994 0.80735,2.29343 l -0.08788,1.398202 2.923658,2.960756 2.923658,2.960756 h 10.79812 10.79812 l 1.26462,-1.283927 c 0.695541,-0.706159 1.355302,-1.253699 1.466135,-1.216755 0.110833,0.03694 4.641026,4.506407 10.067096,9.932138 9.187858,9.187285 9.866261,9.926727 9.875456,10.763996 0.008,0.728448 0.166047,0.99725 0.83298,1.4167 0.896588,0.563884 1.589019,2.152547 1.3512,3.100093 -0.07611,0.30326 -0.474183,0.910852 -0.884599,1.350204 -0.63056,0.675016 -0.932858,0.79882 -1.950519,0.79882 -1.027869,0 -1.331977,-0.127669 -2.075734,-0.871426 z m 3.148808,-0.711061 c 1.173283,-1.102242 0.420934,-3.030944 -1.182312,-3.030944 -0.829825,0 -1.812714,0.997862 -1.812714,1.840327 0,0.668652 1.129951,1.747897 1.830018,1.747897 0.314496,0 0.838749,-0.250776 1.165008,-0.55728 z M 28.469983,58.535163 c 0.809664,-0.760639 0.774672,-1.825785 -0.08212,-2.499738 -0.886846,-0.697593 -1.515247,-0.670656 -2.283801,0.0979 -0.777283,0.777283 -0.801917,1.588774 -0.07182,2.365923 0.699537,0.744623 1.668172,0.758895 2.437746,0.03592 z"
           id="path2" /><path
           style="display:inline;fill:#000000"
           d="m 104.95671,254.30344 c -0.68367,-0.39057 -1.28683,-1.33488 -1.30064,-2.03628 -0.0151,-0.76705 0.68038,-1.85513 1.39341,-2.18002 1.11817,-0.50947 1.7067,-0.35434 2.72775,0.71901 l 0.97526,1.02521 h 2.18883 2.18883 v -4.10083 c 0,-2.68188 -0.0927,-4.10083 -0.26795,-4.10083 -0.14737,0 -0.55105,-0.28309 -0.89706,-0.6291 -1.36612,-1.36612 -0.26372,-3.98433 1.67761,-3.98433 1.94133,0 3.04374,2.61821 1.67762,3.98433 -0.34601,0.34601 -0.74969,0.6291 -0.89706,0.6291 -0.17619,0 -0.26795,1.53596 -0.26795,4.48528 v 4.48528 h -2.72808 -2.72809 l -0.79606,0.89997 c -0.90449,1.02253 -2.02691,1.32851 -2.94642,0.80321 z m 2.28759,-1.07338 c 0.1552,-0.187 0.24548,-0.71975 0.20062,-1.18389 -0.14362,-1.48601 -1.85641,-1.83813 -2.69744,-0.55456 -0.96654,1.47514 1.36695,3.09987 2.49682,1.73845 z m 7.46756,-10.79344 c 1.0471,-0.94761 0.0778,-2.85932 -1.28354,-2.53148 -1.26425,0.30446 -1.72388,1.57568 -0.8992,2.48695 0.52815,0.5836 1.56372,0.60473 2.18274,0.0445 z m 35.30603,8.64555 c -1.05943,-1.05942 -1.01378,-2.11311 0.14161,-3.26849 l 0.8908,-0.8908 0.0703,-4.14553 0.0703,-4.14553 2.65303,-0.0733 2.65303,-0.0733 0.83731,-0.8878 c 1.04188,-1.10472 2.06056,-1.17629 3.19198,-0.22427 1.59879,1.3453 0.70372,3.9499 -1.35738,3.9499 -1.24515,0 -1.66112,-0.20932 -2.09909,-1.05627 -0.37738,-0.72977 -0.40673,-0.73785 -2.68169,-0.73785 h -2.30013 v 3.81464 c 0,3.53086 0.0362,3.8241 0.4865,3.94185 0.26757,0.07 0.68566,0.43119 0.92909,0.80271 1.58667,2.42157 -1.44993,5.02989 -3.48572,2.9941 z m 2.5257,-0.4187 c 0.67646,-0.47381 0.76469,-1.67606 0.16687,-2.27388 -0.59781,-0.59781 -1.80006,-0.50958 -2.27387,0.16687 -0.57202,0.81667 -0.49484,1.36818 0.27633,1.97479 0.80886,0.63625 1.08282,0.65603 1.83067,0.13222 z m 7.53367,-10.53356 c 0.69905,-0.63263 0.60325,-1.78258 -0.1919,-2.30358 -1.41917,-0.92987 -2.99701,0.64797 -2.06714,2.06713 0.5068,0.77348 1.5455,0.88219 2.25904,0.23645 z m -26.36542,10.36944 c -0.76037,-0.36737 -1.41727,-1.8069 -1.20695,-2.64488 0.0918,-0.36557 0.5564,-0.97551 1.03256,-1.35543 0.80297,-0.6407 0.86573,-0.7976 0.86574,-2.16451 0,-0.81055 -0.0998,-1.47373 -0.22181,-1.47373 -0.122,0 -1.17687,1.21963 -2.34415,2.71029 -2.63241,3.36169 -2.71247,3.44095 -3.47543,3.44095 h -0.62245 v -7.0483 c 0,-5.68238 -0.0658,-7.0483 -0.33978,-7.0483 -0.40464,0 -1.30747,-0.95506 -1.55126,-1.641 -0.25367,-0.71375 0.28525,-2.10003 0.99791,-2.56698 1.21425,-0.79561 2.65925,-0.41715 3.32534,0.87093 0.61038,1.18033 0.47403,1.79593 -0.63051,2.84665 l -1.01762,0.96804 0.004,6.16873 c 0.002,3.39279 0.0854,6.16805 0.18464,6.16724 0.0993,-8.2e-4 1.21853,-1.32208 2.48722,-2.93614 2.17679,-2.76935 2.35928,-2.93529 3.23995,-2.94599 l 0.93324,-0.0113 -0.11857,1.95531 -0.11856,1.9553 0.88624,0.73052 c 0.48743,0.40178 0.96366,1.03899 1.05829,1.41602 0.46944,1.87042 -1.5912,3.46514 -3.36817,2.60661 z m 2.29324,-1.28167 c 0.55204,-0.63844 0.56136,-0.95571 0.0495,-1.68642 -0.44486,-0.63513 -1.84151,-0.78963 -2.36907,-0.26207 -0.16916,0.16916 -0.30756,0.68163 -0.30756,1.13882 0,1.52969 1.58273,2.01748 2.62709,0.80967 z m -6.72792,-15.58375 c 0.28193,-0.28193 0.5126,-0.67005 0.5126,-0.86249 0,-0.54871 -1.01557,-1.70052 -1.49938,-1.70052 -0.79907,0 -1.57624,0.75635 -1.57624,1.53403 0,1.43803 1.53694,2.05507 2.56302,1.02898 z m -55.664693,15.15428 c -0.653144,-0.58358 -0.824209,-0.93774 -0.824209,-1.70635 0,-0.79989 0.166238,-1.11362 0.948316,-1.78967 l 0.948316,-0.81976 v -6.94257 -6.94257 l -0.77716,-0.45908 c -0.901989,-0.53281 -1.30142,-1.67544 -0.948606,-2.7136 0.322895,-0.95012 1.12635,-1.46973 2.272615,-1.46973 0.741034,0 1.088828,0.17046 1.608933,0.78857 0.366673,0.43577 0.663538,1.10832 0.663538,1.50325 0,0.80475 -0.871736,2.06531 -1.428262,2.06531 -0.308355,0 -0.365851,1.14526 -0.365851,7.28733 0,7.07548 0.01498,7.29208 0.515415,7.45091 0.533355,0.16928 1.278698,1.34949 1.278698,2.02474 0,1.20208 -1.301844,2.45965 -2.546246,2.45965 -0.286709,0 -0.892182,-0.33139 -1.345497,-0.73643 z m 2.776146,-0.95119 c 0.477874,-0.72933 0.264428,-1.51845 -0.556148,-2.05611 -0.520951,-0.34134 -0.710185,-0.34902 -1.326146,-0.0538 -0.608046,0.29142 -0.718485,0.50025 -0.718485,1.35854 0,0.80656 0.122488,1.07525 0.598317,1.31248 0.777619,0.38768 1.516431,0.18066 2.002462,-0.56112 z m -0.175896,-18.60854 c 0.626118,-0.67206 0.658485,-1.18141 0.123601,-1.94506 -0.47381,-0.67646 -1.676059,-0.76469 -2.273875,-0.16687 -0.597816,0.59781 -0.509587,1.80006 0.166873,2.27387 0.782207,0.54788 1.366548,0.50017 1.983401,-0.16194 z m 15.4163,19.94892 c -0.683664,-0.39057 -1.286828,-1.33488 -1.300638,-2.03628 -0.01501,-0.76234 0.678694,-1.85436 1.381355,-2.17452 0.62395,-0.28429 0.659976,-0.40593 0.659976,-2.22846 0,-1.06027 -0.09961,-1.92776 -0.221351,-1.92776 -0.121744,0 -0.525419,-0.30406 -0.897056,-0.6757 -1.474124,-1.47413 -0.446085,-3.93773 1.643177,-3.93773 0.765688,0 1.105867,0.16447 1.631011,0.78857 0.954869,1.1348 0.88082,2.14975 -0.233518,3.20071 -0.862264,0.81322 -0.897056,0.91692 -0.897056,2.6739 0,1.71633 0.04692,1.86736 0.768905,2.47486 1.006243,0.8467 1.095106,2.51234 0.179905,3.37213 -0.757335,0.71148 -1.935303,0.91554 -2.71471,0.47028 z m 2.287595,-1.07337 c 0.155202,-0.18701 0.245482,-0.71976 0.200623,-1.18389 -0.143627,-1.48601 -1.856413,-1.83814 -2.697444,-0.55456 -0.966546,1.47513 1.366947,3.09986 2.496821,1.73845 z m -0.0091,-8.57516 c 1.402097,-1.40209 -0.623052,-3.47031 -2.094308,-2.13884 -0.654686,0.59249 -0.602382,1.75985 0.100923,2.25246 0.76667,0.537 1.377591,0.50218 1.993385,-0.11362 z m 15.028218,7.41415 c -0.37143,-0.29216 -0.67532,-0.69584 -0.67532,-0.89705 0,-0.27259 -0.35936,-0.36585 -1.40966,-0.36585 h -1.40966 v -4.99789 -4.99788 h 2.94747 c 1.62111,0 2.94747,-0.0985 2.94747,-0.21888 0,-0.12038 0.28283,-0.52405 0.62852,-0.89705 0.48253,-0.52067 0.87231,-0.67818 1.67819,-0.67818 2.14924,0 3.08935,2.33242 1.55753,3.86424 -1.06795,1.06795 -2.13955,1.01905 -3.24009,-0.14787 -0.84602,-0.89704 -0.84606,-0.89705 -3.16996,-0.89705 h -2.32392 v 3.97267 3.97268 h 0.89705 c 0.49338,0 0.89706,-0.12058 0.89706,-0.26795 0,-0.14738 0.28309,-0.55105 0.6291,-0.89706 1.41064,-1.41064 3.84453,-0.37495 3.84453,1.63596 0,2.06567 -2.16539,3.10162 -3.79831,1.81716 z m 2.27082,-0.4008 c 1.11786,-0.42897 0.89487,-2.51868 -0.30078,-2.81877 -0.86048,-0.21596 -1.87646,0.52348 -1.87646,1.36571 0,1.2198 1.01676,1.89837 2.17724,1.45306 z m 3.4614,-9.32006 c 0.62328,-0.62328 0.65878,-1.46408 0.0884,-2.09431 -0.86353,-0.95419 -2.65145,-0.2929 -2.65145,0.98067 0,0.73557 0.84225,1.62624 1.53781,1.62624 0.28194,0 0.74328,-0.23067 1.02521,-0.5126 z m 29.92129,2.1112 c -1.92022,-1.19047 -1.01719,-4.26414 1.25277,-4.26414 0.77051,0 1.0954,0.17465 1.76419,0.94832 0.74722,0.86441 0.93641,0.94832 2.13818,0.94832 h 1.31842 v -2.06763 c 0,-2.03098 -0.0159,-2.08262 -0.89706,-2.91366 -1.16691,-1.10054 -1.21582,-2.17213 -0.14786,-3.24008 1.55595,-1.55596 3.86424,-0.62558 3.86424,1.55752 0,0.7715 -0.16621,1.21472 -0.62911,1.67761 -0.346,0.34601 -0.74564,0.62911 -0.88809,0.62911 -0.15284,0 -0.28892,1.07619 -0.33202,2.62583 l -0.073,2.62584 -1.88601,0.0145 c -1.70726,0.0131 -1.91642,0.0713 -2.20678,0.6138 -0.65677,1.2272 -2.07243,1.59202 -3.27782,0.84471 z m 2.27215,-0.96211 c 0.47458,-0.47458 0.59866,-0.79628 0.46958,-1.21743 -0.28698,-0.93636 -0.64015,-1.21317 -1.54783,-1.21317 -1.58528,0 -2.0786,1.9851 -0.69357,2.79084 0.71128,0.41378 1.07092,0.34066 1.77182,-0.36024 z m 5.78311,-6.9556 c 0.95419,-0.86353 0.2929,-2.65145 -0.98067,-2.65145 -0.73557,0 -1.62624,0.84224 -1.62624,1.53781 0,0.67815 0.8842,1.53781 1.58171,1.53781 0.30607,0 0.76741,-0.19088 1.0252,-0.42417 z m 22.31584,-21.94069 c -2.5712,-2.57402 -4.67491,-4.86222 -4.67491,-5.08489 0,-0.22267 -0.28922,-0.53663 -0.64271,-0.69769 -0.35348,-0.16106 -0.83038,-0.68642 -1.05978,-1.16746 -1.17729,-2.46882 1.84746,-4.66769 3.77262,-2.74253 1.09851,1.09851 1.04466,2.37169 -0.14787,3.49639 -0.49338,0.46532 -0.89705,0.94155 -0.89705,1.0583 0,0.11674 1.93311,2.14286 4.2958,4.50249 l 4.2958,4.29022 h 3.33424 3.33423 l 2.36573,-2.3756 2.36573,-2.37561 v -6.9079 -6.9079 l -1.46571,-1.48117 -1.46571,-1.48116 h -3.21234 -3.21234 l -2.78777,-2.8004 c -2.5381,-2.54959 -2.8438,-2.77911 -3.41325,-2.5626 -0.88927,0.3381 -1.77219,0.0444 -2.51291,-0.83588 -0.82393,-0.9792 -0.81586,-2.01075 0.0235,-3.00832 0.54964,-0.65321 0.85087,-0.78857 1.7549,-0.78857 1.65754,0 2.32239,0.70165 2.32599,2.45471 l 0.003,1.38634 2.68374,2.69291 2.68374,2.6929 h 3.20937 3.20937 l 1.60087,1.62192 1.60087,1.62192 v 7.28894 7.28894 l -2.75943,2.75087 -2.75943,2.75087 h -3.58664 -3.58663 z m -3.02348,-7.16687 c 0.5273,-0.75284 0.50328,-1.12018 -0.11362,-1.73708 -1.36061,-1.36061 -3.42674,0.4149 -2.13884,1.838 0.59248,0.65469 1.75984,0.60239 2.25246,-0.10092 z m 3.93018,-17.25787 c 0.81686,-0.57216 0.76533,-1.76769 -0.10066,-2.3351 -0.60133,-0.39401 -0.73976,-0.4002 -1.34558,-0.0602 -0.94465,0.53022 -0.96515,1.99171 -0.0345,2.46252 0.80922,0.4094 0.79963,0.40984 1.48078,-0.0673 z m -75.29568,24.42407 v -4.42441 l 3.82728,-3.8209 3.82728,-3.8209 -0.14492,-1.22356 c -0.13211,-1.11547 -0.0757,-1.29276 0.63829,-2.00676 0.9848,-0.9848 2.15889,-1.04444 3.25749,-0.16547 0.65724,0.52584 0.76891,0.78945 0.76891,1.81503 0,1.01 -0.11928,1.30245 -0.75388,1.8483 -0.64529,0.55506 -0.92511,0.62818 -1.94278,0.50765 l -1.18891,-0.14081 -3.63178,3.63827 -3.63178,3.63827 v 3.77725 3.77724 h 3.14142 3.14141 l 7.11066,-7.11406 7.11065,-7.11406 v -5.53173 -5.53174 l -0.65407,-0.29802 c -0.79028,-0.36007 -1.39989,-1.70056 -1.21447,-2.67053 0.1759,-0.92017 1.45238,-1.98346 2.38115,-1.98346 0.8839,0 2.19055,1.04009 2.41123,1.91935 0.22207,0.88482 -0.45635,2.37551 -1.24456,2.73464 l -0.65407,0.29802 v 5.6632 5.66321 l -7.49843,7.49519 -7.49843,7.4952 h -3.77885 -3.77884 z m 10.80856,-12.65938 c 1.29723,-1.17398 -0.27265,-2.97659 -1.85485,-2.12982 -0.65367,0.34983 -0.68593,1.90516 -0.0472,2.27716 0.66336,0.38638 1.37308,0.3314 1.90208,-0.14734 z m 12.40209,-10.9687 c 0.48589,-0.74156 0.30156,-1.55946 -0.44103,-1.95688 -1.31845,-0.70562 -2.69351,0.74031 -1.88193,1.97892 0.54835,0.8369 1.76774,0.82533 2.32296,-0.022 z m 15.23461,20.70088 v -7.3516 l 4.25547,-4.28222 c 4.09653,-4.12228 4.2488,-4.31261 4.07674,-5.09596 -0.23317,-1.06163 0.21573,-2.10892 1.13728,-2.6533 1.03308,-0.61025 1.89864,-0.53942 2.81333,0.23024 0.65137,0.5481 0.78857,0.85189 0.78857,1.74616 0,0.86473 -0.15247,1.22869 -0.75753,1.80838 -0.68162,0.65303 -0.88269,0.71093 -2.00658,0.57782 l -1.24906,-0.14793 -4.01651,4.0224 -4.01651,4.0224 v 6.85316 6.85315 h 4.55306 4.55305 l 3.26713,-3.27439 3.26713,-3.2744 -0.15877,-1.15837 c -0.13738,-1.00227 -0.0691,-1.26497 0.50681,-1.94937 1.5862,-1.88509 4.25943,-0.79626 4.25943,1.73489 0,1.4224 -1.90264,2.66617 -3.18484,2.08196 -0.53316,-0.24292 -0.88279,0.0333 -4.01429,3.17125 l -3.43027,3.43734 h -5.32182 -5.32182 z m 19.6926,-0.49022 c 0.79736,-0.55848 0.68452,-1.88646 -0.19744,-2.32373 -1.50971,-0.74851 -2.86999,1.37215 -1.49701,2.33382 0.71558,0.50121 0.9666,0.49972 1.69445,-0.0101 z m -7.73852,-16.22308 c 0.62202,-1.25473 -0.68895,-2.50091 -1.93142,-1.83596 -0.76909,0.4116 -0.96419,1.45392 -0.39075,2.08757 0.64149,0.70883 1.91441,0.57091 2.32217,-0.25161 z M 29.251401,210.1144 26.243862,207.099 v -2.96655 c 0,-2.93171 -0.0077,-2.97006 -0.654072,-3.26457 -0.788209,-0.35913 -1.466634,-1.84983 -1.244558,-2.73465 0.22285,-0.88791 1.527025,-1.91935 2.426855,-1.91935 1.144387,0 2.342354,1.20108 2.342354,2.34845 0,1.15545 -0.339892,1.80219 -1.184773,2.25436 -0.646127,0.3458 -0.66058,0.41295 -0.659747,3.06548 l 8.53e-4,2.71193 2.736999,2.75524 2.736999,2.75525 h 3.228568 3.228568 l 1.594482,-1.60878 1.594481,-1.60879 v -1.59499 c 0,-1.15369 -0.09401,-1.59499 -0.339775,-1.59499 -0.702394,0 -1.570837,-1.27527 -1.570837,-2.30671 0,-1.44596 0.877427,-2.30672 2.351392,-2.30672 1.518962,0 2.37854,0.83362 2.37854,2.30672 0,0.77149 -0.166208,1.21471 -0.629105,1.67761 -0.346007,0.34601 -0.749682,0.6291 -0.897056,0.6291 -0.160028,0 -0.267952,0.69923 -0.267952,1.73605 v 1.73605 l -1.992008,1.98033 -1.992009,1.98032 H 35.8455 32.25894 Z m 14.56078,-5.81537 c 0.786078,-0.78607 0.786078,-1.03133 0,-1.81741 -0.763157,-0.76316 -1.257478,-0.79293 -1.933913,-0.1165 -0.970456,0.97046 -0.352135,2.39857 1.100932,2.54278 0.112132,0.0111 0.486974,-0.26286 0.832981,-0.60887 z m -16.081769,-4.54819 c 0.521788,-0.52179 0.378333,-1.94324 -0.228913,-2.26823 -1.346323,-0.72053 -2.746542,0.67657 -1.928839,1.92454 0.464104,0.70831 1.610526,0.89092 2.157752,0.34369 z m 38.989409,12.62976 c -2.076597,-2.07659 0.866527,-5.41613 3.173773,-3.60125 0.363093,0.28561 0.732427,0.74695 0.820741,1.02521 0.154547,0.48693 0.415609,0.50592 6.956655,0.50592 4.410303,0 6.766092,-0.0899 6.710649,-0.25593 -0.04699,-0.14077 -1.786636,-1.96888 -3.865884,-4.06248 l -3.780451,-3.80655 -0.0016,-6.12551 -0.0016,-6.12552 -0.769601,-0.43794 c -1.418186,-0.80701 -1.646445,-2.34491 -0.532998,-3.59107 0.622836,-0.69708 0.915874,-0.82883 1.792282,-0.80585 1.219757,0.032 1.765142,0.41217 2.247868,1.56701 0.296887,0.71025 0.293,0.96507 -0.02638,1.72946 -0.206016,0.49307 -0.668907,1.03059 -1.028647,1.1945 l -0.654072,0.29802 v 5.92108 5.92108 l 3.853361,3.84132 c 3.636796,3.62543 3.849262,3.89173 3.78045,4.73838 l -0.07291,0.89705 -7.240525,0.0681 c -3.982288,0.0374 -7.240524,0.16588 -7.240524,0.28543 0,0.11954 -0.304067,0.52142 -0.675704,0.89306 -0.971065,0.97106 -2.431442,0.93991 -3.444839,-0.0735 z m 2.787774,-0.58357 c 0.759608,-0.75961 0.02187,-2.51176 -1.057564,-2.51176 -1.215855,0 -1.898663,1.56933 -1.051433,2.41656 0.476634,0.47663 1.673535,0.53066 2.108997,0.0952 z m 8.714259,-23.32346 c 0.476693,-0.4767 0.363411,-1.61287 -0.212802,-2.13433 -1.166917,-1.05605 -2.977571,0.75461 -1.921526,1.92152 0.521466,0.57622 1.657636,0.6895 2.134328,0.21281 z m -2.754028,19.98477 c -0.344698,-0.18017 -0.845909,-0.70288 -1.113802,-1.16157 -0.407079,-0.69702 -0.440203,-0.96846 -0.201678,-1.65269 0.273674,-0.78507 0.232561,-0.8722 -1.000688,-2.12097 l -1.286087,-1.30226 v -14.15261 -14.15261 h -2.178564 -2.178565 v -3.71638 -3.71637 h 8.005248 8.005249 l -2.879214,2.8874 -2.879214,2.88741 0.0016,3.32791 0.0016,3.32791 0.730746,0.41564 c 1.62975,0.92697 1.460402,3.30185 -0.296654,4.16017 -0.814945,0.39811 -1.091973,0.42543 -1.711508,0.16881 -1.032939,-0.42786 -1.541993,-1.06653 -1.718879,-2.15656 -0.137801,-0.84916 -0.05392,-1.02871 0.908011,-1.94378 l 1.059836,-1.0082 v -3.28377 -3.28377 l 2.178565,-2.16725 c 1.198211,-1.19199 2.178565,-2.2563 2.178565,-2.36513 0,-0.10884 -2.825727,-0.19789 -6.279393,-0.19789 h -6.279392 v 2.81932 2.81932 h 2.178564 2.178565 v 14.53542 14.53543 l 1.045435,1.06522 c 0.969059,0.98739 1.125476,1.05619 2.141036,0.94173 1.322327,-0.14905 2.056063,0.20242 2.593921,1.24253 1.015427,1.96361 -1.25536,4.26577 -3.203344,3.24759 z m 2.036384,-1.22349 c 0.580356,-0.58035 0.62406,-0.85064 0.250427,-1.54878 -0.401311,-0.74986 -1.181133,-1.08284 -1.782364,-0.76108 -0.797252,0.42668 -1.101226,1.1857 -0.745427,1.86134 0.578012,1.09759 1.455478,1.27041 2.277364,0.44852 z m 0.423631,-24.72527 c 0.838814,-0.58753 0.919331,-1.37935 0.212167,-2.08651 -0.746854,-0.74686 -1.244424,-0.77278 -1.917307,-0.0999 -0.800558,0.80056 -0.652676,1.66863 0.384452,2.25675 0.662275,0.37555 0.685875,0.3743 1.320688,-0.0703 z M 47.34486,204.80871 c -0.995283,-0.43037 -1.365764,-1.07653 -1.365764,-2.38206 0,-0.99881 0.630098,-1.88584 1.53781,-2.16488 0.271929,-0.0836 0.386442,-0.48526 0.391251,-1.37234 l 0.0068,-1.25415 -3.519841,-3.49979 -3.519842,-3.49979 -1.112187,0.12536 c -2.429483,0.27384 -3.720963,-2.33446 -2.005359,-4.05006 1.727256,-1.72726 4.450382,-0.12109 3.998025,2.35814 -0.152684,0.83681 -0.03916,0.98357 3.442387,4.45014 l 3.600278,3.58479 7e-6,1.41309 c 7e-6,1.30106 0.0694,1.46847 0.875275,2.11147 1.817968,1.45056 1.2923,3.74974 -1.003433,4.38883 -0.281932,0.0785 -0.878364,-0.0154 -1.325404,-0.20875 z m 2.09521,-1.51194 c 0.527768,-0.80547 0.137986,-1.88007 -0.764069,-2.10647 -1.203766,-0.30213 -2.224555,1.0685 -1.555855,2.08906 0.552236,0.84282 1.773092,0.85198 2.319924,0.0174 z m -9.055718,-13.91461 c 0.582889,-0.52751 0.601014,-1.31153 0.04453,-1.92643 -0.864702,-0.95549 -2.395143,-0.25511 -2.395143,1.09608 0,1.16308 1.426242,1.66689 2.35061,0.83035 z m 83.917708,2.96753 c -1.09539,-1.3018 -0.82513,-2.95045 0.60488,-3.68994 l 0.74061,-0.38299 0.0226,-3.01566 0.0226,-3.01567 -7.12182,-7.11823 -7.12182,-7.11824 -4.86218,0.0699 -4.86218,0.0699 -0.0705,4.33976 -0.0705,4.33976 0.92558,0.94789 c 0.83882,0.85902 0.99263,0.92258 1.64067,0.67797 1.42826,-0.53911 3.0852,0.79136 3.0852,2.47731 0,0.3486 -0.29859,0.98868 -0.66354,1.42239 -0.55247,0.65658 -0.84895,0.78857 -1.77133,0.78857 -0.9319,0 -1.21749,-0.13038 -1.79876,-0.82118 -0.588,-0.69879 -0.67181,-0.99131 -0.56232,-1.96269 0.11644,-1.03307 0.046,-1.22663 -0.74146,-2.03746 l -0.87013,-0.89594 v -5.21487 -5.21487 h 5.56419 5.56419 l 7.2509,7.23452 7.25089,7.23453 v 3.40749 c 0,3.32162 0.0151,3.41437 0.5984,3.68014 0.74993,0.34169 1.45202,1.50346 1.45202,2.40272 0,1.08229 -1.27112,2.18338 -2.52052,2.18338 -0.82673,0 -1.14899,-0.15076 -1.68568,-0.78857 z m 2.73246,-0.6998 c 0.90972,-0.78126 0.17005,-2.35616 -1.10659,-2.35616 -1.26686,0 -1.66925,2.15855 -0.50961,2.73368 0.64894,0.32184 0.85897,0.27278 1.6162,-0.37752 z m -20.96251,-10.40716 c 0.3025,-0.84726 -0.0302,-1.46431 -0.97008,-1.79929 -0.93239,-0.3323 -1.76603,0.42194 -1.65961,1.50154 0.14829,1.50427 2.11925,1.72744 2.62969,0.29775 z m 33.79771,9.74417 c -0.57157,-0.49166 -0.71329,-0.82948 -0.71329,-1.70031 0,-0.93606 0.13247,-1.20127 0.9553,-1.91255 l 0.95531,-0.8258 v -4.96789 -4.9679 l 4.16199,-4.16773 4.16199,-4.16773 2.05333,0.006 c 1.61664,0.004 2.18784,0.10906 2.68583,0.49174 0.47004,0.36119 0.75307,0.42152 1.10184,0.23487 0.62964,-0.33698 2.11908,0.16413 2.62199,0.88214 0.45,0.64246 0.50446,2.04101 0.10832,2.78123 -0.35703,0.6671 -1.90639,1.31431 -2.62528,1.09665 -1.40139,-0.42431 -2.22645,-1.95861 -1.74053,-3.2367 0.36487,-0.95966 -0.0778,-1.23042 -2.01139,-1.23042 h -1.68188 l -3.9055,3.9116 -3.9055,3.91161 v 4.77318 4.77317 l 0.66126,0.43327 c 1.41914,0.92986 1.5769,3.05701 0.29965,4.04025 -0.8489,0.6535 -2.32494,0.58006 -3.18344,-0.15838 z m 2.68387,-0.71922 c 0.16916,-0.16916 0.30756,-0.69064 0.30756,-1.15885 0,-0.65933 -0.14449,-0.91713 -0.64075,-1.14324 -1.40064,-0.63817 -2.7875,0.99937 -1.78477,2.10737 0.50752,0.56081 1.64711,0.66557 2.11796,0.19472 z m 14.19175,-17.80144 c 1.14728,-1.03827 0.046,-2.96525 -1.384,-2.42158 -1.0615,0.40358 -1.27686,1.5103 -0.45401,2.33316 0.62368,0.62367 1.21513,0.65212 1.83801,0.0884 z M 49.253387,187.6127 c -0.858073,-0.46566 -1.223877,-1.11231 -1.223877,-2.16349 0,-1.07635 0.373771,-1.70916 1.289106,-2.1825 l 0.761308,-0.39369 v -3.77787 -3.77788 l -3.015395,-3.00754 -3.015395,-3.00753 h -5.384902 -5.384901 l -1.851773,1.86421 -1.851773,1.86422 v 3.19951 3.19952 l 0.898268,0.82441 c 0.771102,0.70769 0.991326,0.78902 1.555597,0.57448 0.919917,-0.34975 1.795935,-0.0662 2.544774,0.82377 1.129059,1.34181 0.659603,2.98098 -1.059459,3.69925 -0.744216,0.31095 -0.984681,0.31021 -1.739986,-0.005 -1.122136,-0.46886 -1.520156,-1.22895 -1.364884,-2.60652 0.113496,-1.00693 0.04248,-1.17588 -0.867954,-2.0649 l -0.991563,-0.96823 v -3.6063 -3.6063 l 1.992008,-1.98032 1.992009,-1.98033 h 6.149578 6.149578 l 3.007539,3.0154 3.007539,3.01539 7e-6,4.09698 8e-6,4.09698 0.885801,0.70678 c 1.120405,0.89397 1.412043,2.12716 0.762927,3.22602 -0.750876,1.27114 -1.964892,1.61611 -3.244185,0.92186 z m 2.108045,-1.13829 c 0.82705,-0.82705 0.649451,-1.69902 -0.465715,-2.28656 -0.483649,-0.25482 -0.703246,-0.24122 -1.183224,0.0733 -0.889394,0.58275 -0.991886,1.38987 -0.268368,2.11339 0.746854,0.74685 1.244424,0.77278 1.917307,0.0999 z m -17.501728,-2.53624 c 0.460516,-0.60464 0.396499,-1.2413 -0.183092,-1.82089 -0.616898,-0.6169 -0.984245,-0.64092 -1.737083,-0.11361 -0.763001,0.53442 -0.763434,1.74291 -8.14e-4,2.27707 0.631888,0.4426 1.431599,0.29998 1.920989,-0.34257 z m 153.391726,2.1546 c -1.99899,-1.68204 -0.38306,-4.91534 2.10059,-4.20304 0.7896,0.22646 1.30144,-0.0228 1.48463,-0.72312 0.0446,-0.17045 -1.52555,-1.92932 -3.4892,-3.9086 l -3.57027,-3.59868 h -1.22305 c -1.06506,0 -1.3376,0.11795 -2.10992,0.91318 -0.73784,0.75973 -0.85506,1.02892 -0.69758,1.60189 0.82482,3.00098 -3.60783,4.43803 -4.58224,1.48554 -0.60516,-1.83365 0.7376,-3.4098 2.67828,-3.1438 0.98047,0.13439 1.15343,0.0684 1.93602,-0.73908 0.83064,-0.85699 0.92401,-0.88664 2.79252,-0.88664 h 1.93315 l 4.03581,4.0299 4.0358,4.02989 -0.90321,0.92497 c -0.80502,0.82443 -0.87444,1.00063 -0.63857,1.62101 0.19616,0.51596 0.1726,0.91626 -0.0911,1.54733 -0.71269,1.70569 -2.35635,2.17286 -3.69169,1.04925 z m 2.36784,-0.72763 c 0.53546,-0.39154 0.61463,-1.52875 0.14576,-2.09371 -0.69212,-0.83395 -2.56368,-0.15794 -2.56368,0.92601 0,0.56212 0.96419,1.50807 1.53716,1.50807 0.2284,0 0.62475,-0.15317 0.88076,-0.34037 z m -11.13152,-7.47763 c 0.47396,-0.57109 0.38752,-1.70376 -0.16061,-2.10457 -0.71242,-0.52094 -1.68942,-0.30287 -2.12343,0.47394 -0.33792,0.60484 -0.33146,0.74524 0.0619,1.34559 0.50134,0.76514 1.69646,0.91845 2.22214,0.28504 z M 28.294276,157.64047 v -6.792 h 3.401656 3.401657 l 2.167248,2.17856 2.167247,2.17857 h 3.67517 3.675169 l 0.846033,-0.89706 c 0.900548,-0.95486 1.769826,-1.14154 2.788694,-0.59889 0.861483,0.45883 1.183529,1.02174 1.192433,2.08428 0.01133,1.35168 -0.885716,2.23099 -2.275988,2.23099 -0.865287,0 -1.138006,-0.14046 -1.741687,-0.89705 l -0.715756,-0.89705 -3.978021,-1e-5 h -3.97802 l -2.296029,-2.30672 -2.296028,-2.30672 h -2.504285 -2.504286 v 5.89494 5.89495 h 3.543547 c 3.359354,0 3.572143,-0.0304 4.093668,-0.58558 0.430112,-0.45783 0.517816,-0.78465 0.402033,-1.49814 -0.204664,-1.26119 0.42893,-2.40875 1.530691,-2.77236 2.364881,-0.78048 4.125841,2.04147 2.369758,3.79755 -0.537482,0.53748 -0.914272,0.66851 -1.929564,0.67099 -1.024647,0.002 -1.399915,0.13549 -1.997621,0.70791 l -0.735962,0.70483 h -4.150878 -4.150879 z m 12.245455,4.34259 c 0.613343,-0.4296 0.743264,-1.36069 0.304312,-2.18088 -0.385977,-0.7212 -1.88662,-0.67523 -2.411315,0.0739 -0.547383,0.7815 -0.502961,1.1438 0.230118,1.87688 0.73308,0.73308 1.095387,0.7775 1.876885,0.23012 z m 9.840388,-5.15122 c 0.699045,-0.63263 0.603245,-1.78257 -0.191907,-2.30358 -1.419162,-0.92987 -2.997005,0.64797 -2.067135,2.06714 0.506801,0.77347 1.545498,0.88219 2.259042,0.23644 z m 127.466221,4.525 -2.29603,-2.30671 -3.97802,-2e-5 -3.97802,-1e-5 -0.80206,0.95532 c -0.69324,0.82571 -0.94904,0.95532 -1.88539,0.95532 -0.86709,0 -1.2058,-0.14238 -1.69688,-0.7133 -0.8115,-0.94342 -0.81075,-2.22098 0.002,-3.16569 1.05838,-1.23044 3.39933,-0.7957 3.88061,0.72067 0.14085,0.44378 0.48384,0.4788 4.68939,0.4788 h 4.53743 l 2.29602,2.30672 2.29603,2.30671 h 2.24799 2.24798 v -5.51049 -5.51048 h -3.63827 c -3.54785,0 -3.65519,0.0162 -4.31846,0.65165 -0.59525,0.57029 -0.6655,0.80451 -0.56256,1.8758 0.10828,1.1269 0.0528,1.27873 -0.69909,1.91136 -1.09704,0.9231 -2.13957,0.90228 -3.10382,-0.062 -1.20319,-1.20319 -0.88009,-2.98787 0.67449,-3.72556 0.64506,-0.3061 1.00376,-0.33639 1.54532,-0.1305 0.63215,0.24035 0.80155,0.17412 1.63418,-0.63892 l 0.92892,-0.90707 h 4.28225 4.28225 v 6.40754 6.40755 h -3.14504 -3.14504 z m -11.80819,-1.68427 c 0.86151,-0.8615 0.15976,-2.41656 -1.09051,-2.41656 -1.26603,0 -1.93187,1.17472 -1.31703,2.32357 0.33055,0.61763 1.82517,0.67536 2.40754,0.093 z m 9.5726,-3.84075 c 1.14042,-0.79878 0.4435,-2.67663 -0.99337,-2.67663 -0.75923,0 -1.51262,0.78937 -1.51262,1.58485 0,0.54435 0.97076,1.49077 1.52911,1.49077 0.22398,0 0.66358,-0.17955 0.97688,-0.39899 z m -62.42192,-11.30613 c -0.17917,-0.0721 -0.4993,-0.46666 -0.71141,-0.87683 l -0.38564,-0.74574 h -8.01248 -8.012484 l -1.207799,-1.22624 -1.207798,-1.22624 v -17.55858 -17.55857 l -1.089282,-1.04109 c -0.883078,-0.84401 -1.21058,-1.00916 -1.730037,-0.8724 -2.10789,0.55492 -3.686302,-1.40036 -2.667101,-3.3039 0.664316,-1.240734 2.085402,-1.637708 3.120514,-0.871703 1.000343,0.740276 1.434932,1.735663 1.133171,2.595433 -0.218679,0.62306 -0.124903,0.81918 0.89745,1.87694 l 1.141646,1.18117 -0.0215,17.38818 -0.0215,17.38818 1.081339,1.1018 1.081339,1.10181 h 7.652902 7.65289 l 0.84604,-0.89706 c 1.10054,-1.16691 2.17213,-1.21582 3.24009,-0.14786 1.50438,1.50438 0.5863,3.88698 -1.48122,3.844 -0.53535,-0.0111 -1.11996,-0.0792 -1.29914,-0.1513 z m 2.29193,-1.02154 c 0.65469,-0.59249 0.60238,-1.75985 -0.10092,-2.25246 -0.76667,-0.537 -1.37759,-0.50218 -1.99339,0.11361 -1.39938,1.39939 0.6259,3.46774 2.09431,2.13885 z M 91.293243,102.35618 c 0.567814,-0.56782 0.371698,-1.94531 -0.343691,-2.414056 -1.324876,-0.868091 -2.938455,0.745486 -2.070363,2.070366 0.468741,0.71539 1.84624,0.9115 2.414054,0.34369 z m -10.914755,41.56078 c -0.322187,-0.12934 -0.78353,-0.58264 -1.025207,-1.00734 l -0.439412,-0.77217 -7.19473,-0.002 -7.19473,-0.002 -2.480018,-2.49894 -2.480017,-2.49894 -6.43e-4,-15.89673 -6.43e-4,-15.89672 1.992009,-1.98032 1.992008,-1.98033 h 8.627242 c 8.417827,0 8.631213,-0.0125 8.790828,-0.51541 0.186306,-0.587 1.371276,-1.2787 2.190575,-1.2787 0.779643,0 2.293813,1.58769 2.293813,2.40519 0,0.36734 -0.327998,1.02944 -0.73643,1.48655 -0.570964,0.63902 -0.943711,0.82421 -1.658954,0.82421 -0.972255,0 -2.074943,-0.78568 -2.359064,-1.68087 -0.141453,-0.44568 -0.611223,-0.47206 -8.404702,-0.47206 h -8.254874 l -1.851773,1.86421 -1.851773,1.86422 v 15.37714 15.37714 l 2.375607,2.36573 2.375607,2.36572 h 6.762475 6.762476 l 0.978521,-1.05992 c 0.899595,-0.97444 1.056634,-1.04749 1.946968,-0.90571 2.362253,0.37617 2.928307,3.32075 0.845426,4.39785 -0.844206,0.43655 -1.163229,0.4556 -2.000585,0.11944 z m 2.039349,-1.18172 c 0.670242,-0.60656 0.580884,-1.50079 -0.212318,-2.12473 -1.056101,-0.83073 -2.394594,-0.17678 -2.394594,1.16993 0,1.23997 1.631515,1.83752 2.606912,0.9548 z M 84.16871,103.0474 c 0.439798,-0.52992 0.401196,-1.62946 -0.07388,-2.10454 -0.584642,-0.58464 -1.739712,-0.49036 -2.288008,0.18675 -0.470105,0.58056 -0.427444,1.3018 0.117272,1.98266 0.356071,0.44506 1.857424,0.40168 2.24462,-0.0649 z m 39.27374,36.96862 -3.13585,-3.1434 v -16.66278 -16.66279 l 1.73647,-1.72316 1.73647,-1.72317 h 6.94725 6.94725 l 2.59355,2.57009 2.59356,2.5701 v 3.61806 3.61806 l 0.94832,0.81976 c 0.76886,0.66463 0.94832,0.99583 0.94832,1.75019 0,1.05534 -0.79466,2.08679 -1.80264,2.33978 -1.24653,0.31286 -2.91332,-0.99867 -2.91332,-2.29238 0,-0.72907 0.63193,-1.71451 1.33141,-2.07622 l 0.71901,-0.37181 v -3.39448 -3.39448 l -2.37561,-2.36573 -2.37561,-2.36573 h -6.66778 -6.66779 l -1.33682,1.35364 -1.33683,1.35365 v 16.39962 16.39962 l 2.75943,2.75088 2.75942,2.75087 h 6.92337 6.92337 l 1.59448,-1.60878 1.59448,-1.60878 v -5.11225 -5.11224 l -1.5665,-1.58055 c -1.469,-1.48217 -1.62621,-1.57253 -2.52607,-1.45183 -1.18244,0.15859 -1.92972,-0.21758 -2.45673,-1.2367 -0.79335,-1.53417 0.31273,-3.30561 2.06402,-3.30561 1.60816,0 2.87037,1.78296 2.17803,3.07662 -0.26063,0.48699 -0.10209,0.73106 1.52074,2.34107 l 1.81172,1.7974 v 5.4438 5.44381 l -1.98243,1.96962 -1.98242,1.96963 h -7.18421 -7.18421 z m 17.17686,-15.855 c 0.4268,-0.57429 0.45304,-0.76197 0.17921,-1.28151 -0.39924,-0.75747 -0.73003,-0.9842 -1.44321,-0.98921 -1.23246,-0.009 -1.81606,1.63463 -0.92874,2.61512 0.58438,0.64572 1.57222,0.49056 2.19274,-0.3444 z m 3.17332,-8.4102 c 0.3814,-0.74983 0.16736,-1.49344 -0.56868,-1.97571 -1.18284,-0.77503 -2.77865,0.56965 -2.19535,1.84986 0.55292,1.21352 2.17327,1.2873 2.76403,0.12585 z m -46.36096,23.04632 -1.986339,-2.04553 v -13.53049 -13.5305 l 1.114291,-1.0936 c 1.05845,-1.03879 1.10849,-1.15397 0.998521,-2.29844 -0.101178,-1.05298 -0.02723,-1.29339 0.58662,-1.90724 0.975186,-0.97519 2.211227,-0.9572 3.215227,0.0468 1.01936,1.01936 1.00832,2.10673 -0.032,3.147 -0.69144,0.69145 -0.90997,0.76662 -1.903096,0.65469 -1.0284,-0.11592 -1.198356,-0.0482 -2.038176,0.81183 l -0.91622,0.93829 v 13.19561 13.19561 l 1.736469,1.72316 1.736469,1.72316 h 3.742634 c 4.14837,0 4.43808,-0.10445 4.15906,-1.49958 -0.3268,-1.63397 0.73938,-2.85755 2.48996,-2.85755 1.8575,0 2.71626,2.57189 1.32372,3.96442 -0.61532,0.61532 -0.85296,0.68792 -1.91704,0.58568 -0.95632,-0.0919 -1.30597,-0.0158 -1.64405,0.35776 -0.3844,0.42477 -0.86159,0.47396 -4.55457,0.46947 l -4.125182,-0.005 z m 13.69196,0.0936 c 0.98993,-0.89587 0.2443,-2.65144 -1.12613,-2.65144 -0.61176,0 -1.48078,0.90248 -1.48078,1.53781 0,0.67815 0.8842,1.53781 1.5817,1.53781 0.30608,0 0.76742,-0.19088 1.02521,-0.42418 z m -10.35299,-31.75622 c 0.66593,-0.46644 0.7337,-1.30314 0.17065,-2.107 -0.77599,-1.10788 -2.67664,-0.45201 -2.67664,0.92364 0,1.36212 1.344402,1.99697 2.50599,1.18336 z m 24.59311,31.21468 -2.49413,-2.50352 v -3.51957 -3.51956 h 1.24037 c 1.07534,0 1.27932,-0.0855 1.5332,-0.64271 0.16106,-0.35348 0.69858,-0.83619 1.1945,-1.07267 0.84403,-0.40249 0.95937,-0.40245 1.80454,5.8e-4 1.03539,0.49374 1.50823,1.46244 1.28768,2.63808 -0.21381,1.13968 -1.00208,1.75624 -2.24538,1.75624 -0.86616,0 -1.17198,-0.14998 -1.83771,-0.90126 -0.43925,-0.49569 -1.02931,-0.89675 -1.31124,-0.89123 -0.47781,0.009 -0.51756,0.20912 -0.58554,2.94324 l -0.0729,2.93321 2.11769,2.12875 2.1177,2.12874 h 5.27055 5.27056 l 1.07857,-1.09898 1.07857,-1.09898 v -3.33699 -3.33699 l -2.75525,-2.69407 -2.75524,-2.69407 -1.1938,0.10567 c -0.88405,0.0783 -1.22546,0.22677 -1.31584,0.57239 -0.17675,0.67589 -1.60979,1.34433 -2.47476,1.15435 -2.38731,-0.52434 -2.4687,-4.00943 -0.10748,-4.60206 0.83132,-0.20865 2.25529,0.48783 2.61601,1.27953 0.25104,0.55099 0.45228,0.6284 1.63355,0.6284 h 1.34723 l 3.01539,3.00754 3.0154,3.00754 v 3.74728 3.74728 l -1.39432,1.31868 -1.39432,1.31869 h -5.59471 -5.59472 z m 3.23809,-8.02344 c 0.77196,-0.60722 0.86726,-1.39491 0.25114,-2.07571 -0.58087,-0.64186 -2.03697,-0.62535 -2.38612,0.0271 -0.43895,0.82019 -0.30903,1.75127 0.30431,2.18088 0.74785,0.52381 1.02181,0.50403 1.83067,-0.13222 z m 3.47939,-4.6562 c 0.32768,-0.57553 0.31981,-0.72386 -0.07,-1.31876 -0.32916,-0.50235 -0.6546,-0.67029 -1.29896,-0.67029 -1.06756,0 -1.49428,0.48534 -1.38854,1.5793 0.14985,1.55046 1.95528,1.81874 2.75748,0.40975 z M 63.300553,138.44655 61.3572,136.55299 v -5.49124 -5.49125 l 0.735612,-0.70476 c 0.640274,-0.61342 0.719683,-0.84608 0.612708,-1.79517 -0.101371,-0.89936 -0.01049,-1.22109 0.518695,-1.8363 0.519601,-0.60408 0.846882,-0.74591 1.721209,-0.74591 2.550743,0 3.239477,3.38327 0.888686,4.3655 -0.640234,0.2675 -1.043402,0.29292 -1.555843,0.0981 -0.578923,-0.2201 -0.789825,-0.17076 -1.293768,0.30267 -0.5932,0.55728 -0.602092,0.64173 -0.602092,5.71847 v 5.15284 l 1.608782,1.59448 1.608781,1.59448 h 4.748484 4.748484 l 0.870674,-0.89831 c 0.762241,-0.78643 0.861891,-1.04111 0.800157,-2.04502 -0.05952,-0.96795 0.03817,-1.24744 0.626689,-1.79286 0.984733,-0.91262 2.229444,-0.8726 3.205088,0.10304 1.019365,1.01937 1.008324,2.10673 -0.03195,3.14701 -0.701732,0.70173 -0.900965,0.76764 -1.959794,0.64829 -1.102428,-0.12426 -1.243835,-0.0683 -2.186628,0.8651 l -1.007977,0.99796 H 70.32855 65.243905 Z m 16.766674,-1.18207 c 0.281932,-0.28194 0.512603,-0.74328 0.512603,-1.02521 0,-0.67815 -0.884201,-1.53781 -1.581704,-1.53781 -1.290214,0 -1.957444,1.62601 -1.06974,2.60691 0.556682,0.61513 1.499161,0.59579 2.138841,-0.0439 z M 66.014525,123.76891 c 1.003842,-0.90846 0.326279,-2.48058 -1.069101,-2.48058 -1.374054,0 -2.02654,1.4273 -1.113634,2.43605 0.528153,0.5836 1.563724,0.60473 2.182735,0.0445 z m 5.166397,0.56315 c -1.042234,-0.45336 -1.456864,-1.24449 -1.292905,-2.46689 0.206494,-1.53953 -0.245503,-1.77291 -3.433719,-1.77291 h -2.679742 l -1.336829,-1.35364 -1.336829,-1.35365 v -5.76613 -5.76614 l 1.608782,-1.59448 c 1.587926,-1.57381 1.627391,-1.59448 3.044238,-1.59448 0.960358,0 1.540577,0.12666 1.753066,0.3827 0.227086,0.27362 0.591546,0.33889 1.278738,0.229 1.665287,-0.26629 2.801755,0.65541 2.815396,2.28335 0.01117,1.33322 -0.889611,2.23401 -2.222839,2.22283 -1.622928,-0.0136 -2.469867,-1.06147 -2.334229,-2.88803 l 0.07994,-1.07649 -1.256814,-0.0797 c -1.197798,-0.076 -1.315142,-0.0223 -2.498942,1.14372 l -1.242128,1.22345 v 5.53219 5.53218 l 0.971938,0.94907 0.971938,0.94907 h 2.72613 c 2.254286,0 2.803896,0.0776 3.175428,0.44853 0.316854,0.31631 0.857775,0.44866 1.835005,0.44899 1.200012,3.9e-4 1.468546,0.0968 2.003876,0.71912 1.106001,1.2858 0.724917,3.02047 -0.803889,3.65925 -1.019807,0.4261 -0.818294,0.4273 -1.825609,-0.0109 z m 2.010052,-1.07575 c 0.616019,-0.55749 0.594443,-1.39462 -0.05388,-2.09051 -0.650581,-0.69832 -1.373324,-0.71544 -2.04043,-0.0483 -1.420262,1.42026 0.603991,3.48756 2.094308,2.13884 z m -2.819319,-16.65962 c 0.699045,-0.63262 0.603245,-1.78257 -0.191908,-2.30357 -1.419162,-0.92987 -2.997005,0.64797 -2.067134,2.06713 0.5068,0.77348 1.545498,0.88219 2.259042,0.23644 z m 59.289955,15.02686 c -0.28193,-0.10655 -0.77825,-0.47982 -1.10293,-0.82948 -0.50349,-0.54223 -0.75621,-0.61707 -1.7178,-0.50868 -0.99951,0.11266 -1.21612,0.0384 -1.90861,-0.65406 -1.04028,-1.04028 -1.05132,-2.12765 -0.032,-3.14701 0.8551,-0.8551 1.98074,-0.98751 2.95702,-0.34783 0.77802,0.50978 1.21923,1.72546 0.91583,2.52345 -0.18881,0.49661 -0.0865,0.73577 0.59887,1.40007 0.82388,0.79854 0.83577,0.80115 3.64172,0.80115 h 2.81514 l 1.46571,-1.48116 1.46571,-1.48117 v -4.09758 -4.09757 l -2.8874,-2.87922 -2.88741,-2.87921 h -3.08236 -3.08237 l -1.46298,1.52584 c -1.37082,1.42972 -1.46298,1.60449 -1.46298,2.77464 0,1.71024 0.74997,2.45442 2.23431,2.21706 0.89597,-0.14327 1.13096,-0.0701 1.82285,0.5676 1.09859,1.01254 1.23577,1.81767 0.49701,2.91704 -0.51793,0.77075 -0.75674,0.90098 -1.77398,0.9674 -1.05569,0.0689 -1.247,-0.008 -1.87732,-0.75735 -0.59661,-0.70903 -0.68001,-0.99341 -0.5562,-1.8967 0.12865,-0.93856 0.0571,-1.14748 -0.61311,-1.78955 -0.67681,-0.64843 -0.75876,-0.89412 -0.75876,-2.27485 v -1.54791 l 1.85177,-1.86421 1.85177,-1.86422 h 3.34204 3.34203 l 3.26415,3.27141 3.26415,3.27141 v 4.36044 4.36044 l -1.76794,1.7544 -1.76795,1.7544 -3.03771,0.0624 c -1.67074,0.0343 -3.26838,-0.0248 -3.55032,-0.13135 z m -2.05488,-2.46049 c 0.63525,-0.63526 0.40675,-1.92073 -0.42391,-2.38475 -1.39796,-0.78091 -2.79088,0.80385 -1.90068,2.16246 0.49328,0.75284 1.68051,0.86637 2.32459,0.22229 z m -0.0138,-5.3685 c 1.10104,-1.10104 -0.14141,-3.0911 -1.53378,-2.45669 -0.34871,0.15888 -0.76402,0.5742 -0.92291,0.92291 -0.6344,1.39237 1.35565,2.63482 2.45669,1.53378 z"
           id="path1" /></g></g></g></svg>
