<?xml version="1.0" encoding="utf-8"?>
<!-- Generator: Adobe Illustrator 25.0.0, SVG Export Plug-In . SVG Version: 6.00 Build 0)  -->
<svg version="1.1" id="Ebene_1" xmlns="http://www.w3.org/2000/svg" xmlns:xlink="http://www.w3.org/1999/xlink" x="0px" y="0px"
	 viewBox="0 0 400 196.3" style="enable-background:new 0 0 400 196.3;" xml:space="preserve">
<style type="text/css">
	.st0{fill:#FFFFFF;}
	.st1{clip-path:url(#SVGID_2_);fill:#002C57;}
	.st2{clip-path:url(#SVGID_2_);fill:#21085E;}
	.st3{clip-path:url(#SVGID_2_);fill:#E2001A;}
</style>
<rect x="0.1" y="0.3" class="st0" width="399.9" height="195.8"/>
<g>
	<defs>
		<rect id="SVGID_1_" width="400" height="196.3"/>
	</defs>
	<clipPath id="SVGID_2_">
		<use xlink:href="#SVGID_1_"  style="overflow:visible;"/>
	</clipPath>
	<path class="st1" d="M52.8,138.4H42.5v-8.1h-2v19.3h2v-9.4h10.3v9.4h2v-19.3h-2V138.4 M69.2,148.2c-0.1-0.5-0.1-1.1-0.1-1.9v-5
		c0-1.7-0.4-2.9-1.1-3.7c-0.8-0.8-2-1.1-3.7-1.1c-1.6,0-2.9,0.3-3.8,0.9c-0.9,0.6-1.5,1.6-1.8,2.9h1.9c0.2-0.8,0.6-1.4,1.1-1.8
		c0.5-0.4,1.3-0.6,2.2-0.6c1,0,1.8,0.2,2.4,0.6c0.6,0.4,0.9,0.9,0.9,1.5c0,0.5-0.2,1-0.7,1.2c-0.5,0.3-1.5,0.5-3,0.7
		c-2,0.3-3.4,0.7-4.2,1.3c-0.8,0.6-1.2,1.5-1.2,2.6c0,1.2,0.4,2.2,1.2,3c0.8,0.8,1.9,1.1,3.3,1.1c0.9,0,1.8-0.2,2.6-0.6
		c0.8-0.4,1.5-1,2.1-1.8c0,0.3,0,0.6,0.1,0.9c0,0.3,0.1,0.6,0.1,1h2C69.4,149.1,69.3,148.7,69.2,148.2 M66.4,147.3
		c-0.7,0.8-1.7,1.2-3.2,1.2c-0.9,0-1.7-0.2-2.3-0.7c-0.6-0.5-0.9-1.1-0.9-1.8c0-0.6,0.2-1.1,0.5-1.5c0.3-0.4,0.8-0.7,1.5-0.8
		c0.3-0.1,0.8-0.2,1.5-0.3c1.7-0.3,3-0.7,3.8-1.2c0,0.1,0,0.3,0,0.4c0,0.2,0,0.4,0,0.6C67.4,145.1,67,146.5,66.4,147.3 M86.8,136.5
		c-0.9,0-1.8,0.2-2.5,0.7c-0.7,0.5-1.3,1.1-1.7,1.9c-0.3-0.8-0.8-1.5-1.4-1.9c-0.6-0.4-1.4-0.7-2.2-0.7c-0.9,0-1.7,0.2-2.4,0.7
		c-0.7,0.5-1.3,1.1-1.7,1.9l0.1-2.1h-1.8v12.6h1.8V143c0-1.6,0.3-2.8,0.9-3.7c0.6-0.9,1.5-1.3,2.7-1.3c0.9,0,1.5,0.3,1.9,0.9
		c0.4,0.6,0.6,1.8,0.6,3.4v7.2H83V143c0-1.6,0.3-2.8,0.9-3.7c0.6-0.9,1.5-1.3,2.7-1.3c0.8,0,1.4,0.3,1.8,0.9
		c0.3,0.6,0.5,1.8,0.5,3.5v7.2h1.8v-8.4c0-1.5-0.3-2.7-1-3.5C89,136.9,88.1,136.5,86.8,136.5 M104.8,138.3c-1-1.3-2.3-1.9-4-1.9
		c-0.9,0-1.8,0.2-2.5,0.7c-0.7,0.4-1.3,1.1-1.7,1.9l0-8.7h-1.8v19.3h1.8l-0.1-2.4c0.4,1,1,1.7,1.7,2.2c0.7,0.5,1.6,0.7,2.6,0.7
		c1.6,0,2.9-0.7,3.9-2c1-1.3,1.6-3,1.6-5C106.3,141.2,105.8,139.6,104.8,138.3 M103.2,147c-0.8,1-1.7,1.5-2.8,1.5
		c-1.2,0-2.1-0.5-2.8-1.4c-0.7-1-1.1-2.2-1.1-3.8c0-1.6,0.4-2.8,1.1-3.8c0.7-1,1.6-1.4,2.8-1.4c1.2,0,2.1,0.5,2.8,1.4
		c0.7,1,1.1,2.2,1.1,3.8C104.4,144.8,104,146,103.2,147 M117.6,143.6c0,1.6-0.3,2.9-1,3.7c-0.6,0.8-1.6,1.3-2.8,1.3
		c-0.9,0-1.6-0.3-2-0.8c-0.4-0.5-0.6-1.3-0.6-2.5V137h-1.8v8.3c0,1.6,0.4,2.8,1.1,3.6c0.7,0.8,1.8,1.2,3.2,1.2c1,0,1.8-0.2,2.5-0.7
		c0.7-0.5,1.3-1.1,1.7-2l-0.1,2.2h1.8V137h-1.8V143.6z M127.8,137.3c-0.8,0.5-1.6,1.4-2.3,2.5l0.1-2.8h-1.9v12.6h1.9v-5.7
		c0-2,0.4-3.4,1.2-4.3c0.8-0.9,2.1-1.4,4-1.4h0.4v-1.7h-0.4C129.6,136.5,128.6,136.7,127.8,137.3 M141.5,137l0.1,2.4
		c-0.4-1-1-1.7-1.7-2.2c-0.7-0.5-1.6-0.7-2.6-0.7c-1.6,0-2.9,0.6-3.9,1.9c-1,1.3-1.6,2.9-1.6,4.9c0,2,0.5,3.6,1.5,4.9
		c1,1.3,2.4,1.9,4,1.9c0.9,0,1.8-0.2,2.5-0.7c0.7-0.4,1.3-1.1,1.7-1.9l0,2.4c0,1.4-0.3,2.4-1,3.1c-0.6,0.7-1.6,1-2.9,1
		c-1,0-1.8-0.2-2.4-0.6c-0.6-0.4-0.9-1-1.1-1.8h-1.9c0.1,1.2,0.7,2.2,1.6,2.9c0.9,0.7,2.1,1.1,3.6,1.1c1.9,0,3.3-0.5,4.3-1.5
		c1-1,1.5-2.4,1.5-4.2V137H141.5z M140.3,147.1c-0.7,1-1.6,1.4-2.8,1.4c-1.2,0-2.1-0.5-2.8-1.4c-0.7-1-1.1-2.2-1.1-3.8
		c0-1.5,0.4-2.8,1.1-3.8c0.7-1,1.7-1.5,2.8-1.5c1.2,0,2.1,0.5,2.8,1.4c0.7,1,1.1,2.2,1.1,3.8C141.4,144.9,141.1,146.1,140.3,147.1
		 M166.6,131.8c-1.2-1-3-1.5-5.2-1.5h-6.3v19.3h2v-7.4h4.3c2.3,0,4-0.5,5.2-1.6c1.2-1,1.8-2.5,1.8-4.5
		C168.5,134.3,167.9,132.8,166.6,131.8 M165.2,139.3c-0.8,0.7-2,1-3.7,1h-4.5v-8.2h4.5c1.7,0,2.9,0.3,3.7,1c0.8,0.7,1.2,1.7,1.2,3
		C166.4,137.6,166,138.6,165.2,139.3 M180.6,138.3c-1.1-1.2-2.6-1.8-4.5-1.8c-1.9,0-3.4,0.6-4.5,1.8c-1.1,1.2-1.7,2.9-1.7,5
		c0,2.1,0.6,3.7,1.7,5c1.1,1.2,2.6,1.8,4.5,1.8c1.9,0,3.4-0.6,4.5-1.8c1.1-1.2,1.7-2.9,1.7-5C182.3,141.2,181.7,139.6,180.6,138.3
		 M179.2,147.1c-0.8,0.9-1.8,1.4-3.1,1.4c-1.3,0-2.3-0.5-3.1-1.4c-0.8-0.9-1.2-2.2-1.2-3.8c0-1.6,0.4-2.9,1.2-3.8
		c0.8-0.9,1.8-1.4,3.1-1.4c1.3,0,2.3,0.5,3.1,1.4c0.8,0.9,1.2,2.2,1.2,3.8C180.3,144.9,179.9,146.2,179.2,147.1 M189.5,137.3
		c-0.8,0.5-1.6,1.4-2.3,2.5l0.1-2.8h-1.9v12.6h1.9v-5.7c0-2,0.4-3.4,1.2-4.3c0.8-0.9,2.1-1.4,4-1.4h0.4v-1.7h-0.4
		C191.3,136.5,190.3,136.7,189.5,137.3 M197.7,132.9h-1.8v4.1h-1.8v1.6h1.8v7.3c0,1.8,0.2,2.9,0.6,3.4c0.4,0.5,1.1,0.8,2.1,0.8
		c0.3,0,0.6,0,1-0.1c0.4-0.1,0.8-0.2,1.3-0.4v-1.8c-0.4,0.2-0.8,0.3-1,0.4c-0.3,0.1-0.5,0.1-0.7,0.1c-0.5,0-0.9-0.1-1.1-0.4
		c-0.2-0.3-0.3-1-0.3-2.2v-7.2h3.2V137h-3.2V132.9z M219.9,130.3h-2.2l-7.9,19.3h2.2l1.8-4.4h10.1l1.8,4.4h2.2L219.9,130.3z
		 M214.4,143.4l4.3-10.9h0.1l4.3,10.9H214.4z M238.1,143.6c0,1.6-0.3,2.9-1,3.7c-0.6,0.8-1.6,1.3-2.8,1.3c-0.9,0-1.6-0.3-2-0.8
		c-0.4-0.5-0.6-1.3-0.6-2.5V137h-1.8v8.3c0,1.6,0.3,2.8,1.1,3.6c0.7,0.8,1.8,1.2,3.2,1.2c1,0,1.8-0.2,2.5-0.7c0.7-0.5,1.3-1.1,1.7-2
		l-0.1,2.2h1.8V137h-1.8V143.6z M246.9,132.9H245v4.1h-1.8v1.6h1.8v7.3c0,1.8,0.2,2.9,0.6,3.4c0.4,0.5,1.1,0.8,2.1,0.8
		c0.3,0,0.6,0,1-0.1c0.4-0.1,0.8-0.2,1.3-0.4v-1.8c-0.4,0.2-0.8,0.3-1,0.4c-0.3,0.1-0.5,0.1-0.7,0.1c-0.5,0-0.9-0.1-1.1-0.4
		c-0.2-0.3-0.3-1-0.3-2.2v-7.2h3.2V137h-3.2V132.9z M259.5,136.5c-1,0-1.8,0.2-2.5,0.7c-0.7,0.5-1.2,1.1-1.6,2l0-8.8h-1.8v19.3h1.8
		V143c0-1.6,0.3-2.9,1-3.7c0.6-0.8,1.6-1.3,2.8-1.3c0.9,0,1.6,0.3,2,0.8c0.4,0.5,0.6,1.3,0.6,2.4v8.3h1.8v-8.4c0-1.6-0.3-2.8-1-3.6
		C262,136.9,260.9,136.5,259.5,136.5 M277.4,138.3c-1.1-1.2-2.6-1.8-4.5-1.8c-1.9,0-3.4,0.6-4.5,1.8c-1.1,1.2-1.7,2.9-1.7,5
		c0,2.1,0.6,3.7,1.7,5c1.1,1.2,2.6,1.8,4.5,1.8c1.9,0,3.4-0.6,4.5-1.8c1.1-1.2,1.7-2.9,1.7-5C279.1,141.2,278.5,139.6,277.4,138.3
		 M276,147.1c-0.8,0.9-1.8,1.4-3.1,1.4c-1.3,0-2.3-0.5-3.1-1.4c-0.8-0.9-1.2-2.2-1.2-3.8c0-1.6,0.4-2.9,1.2-3.8
		c0.8-0.9,1.8-1.4,3.1-1.4c1.3,0,2.3,0.5,3.1,1.4c0.8,0.9,1.2,2.2,1.2,3.8C277.2,144.9,276.8,146.2,276,147.1 M286.3,137.3
		c-0.8,0.5-1.6,1.4-2.3,2.5l0.1-2.8h-1.9v12.6h1.9v-5.7c0-2,0.4-3.4,1.2-4.3c0.8-0.9,2.1-1.4,4-1.4h0.4v-1.7h-0.4
		C288.1,136.5,287.1,136.7,286.3,137.3 M291.8,134.4h1.8v-2.1h-1.8V134.4z M291.8,149.6h1.8V137h-1.8V149.6z M300.7,132.9h-1.8v4.1
		H297v1.6h1.8v7.3c0,1.8,0.2,2.9,0.6,3.4c0.4,0.5,1.1,0.8,2.1,0.8c0.3,0,0.6,0,1-0.1c0.4-0.1,0.8-0.2,1.3-0.4v-1.8
		c-0.4,0.2-0.7,0.3-1,0.4c-0.3,0.1-0.5,0.1-0.7,0.1c-0.5,0-0.9-0.1-1.1-0.4c-0.2-0.3-0.3-1-0.3-2.2v-7.2h3.2V137h-3.2V132.9z
		 M316.5,137l-4.5,10.2h-0.1l-4.5-10.2h-2.1l5.7,12.4l-1.1,2.3c-0.3,0.6-0.6,1.1-1,1.4c-0.4,0.3-0.8,0.4-1.2,0.4
		c-0.3,0-0.6-0.1-0.9-0.2c-0.3-0.1-0.6-0.3-1-0.5v2.2c0.4,0.1,0.7,0.2,1,0.3c0.4,0.1,0.7,0.1,1,0.1c0.9,0,1.6-0.3,2.2-0.8
		c0.6-0.5,1.2-1.5,1.8-2.9l6.7-14.8H316.5z M202,40.7h-22.1l20.2,55.2h-50.8l-11.8,26.3h26.1l5.6-14.4h35.2l5.2,14.3h26.2L202,40.7z
		 M145.4,40.7h-42.1v39H66.2v-39H40.4V122h25.8V91.6h37.1V122h25.9V91.6h14.6c31.1,0,33.5-19.9,33.5-26
		C177.3,50,165.4,40.7,145.4,40.7 M138.7,79.8h-9.5V52.5h9.3c10.3,0,15.3,4.4,15.4,13.5v0C153.9,72.3,151.3,79.8,138.7,79.8
		 M284.7,50c1.8-1.5,2.9-3.7,2.9-5.9c0-4.3-3.5-7.8-7.9-7.8c-4.3,0-7.9,3.5-7.9,7.8c0,2.3,1.1,4.4,2.9,5.9H261v3.7l12.3,3.8v-3.9
		H286v4.1l12.4-3.9V50H284.7z M279.7,47.8c-2.1,0-3.8-1.7-3.8-3.7c0-2.1,1.7-3.7,3.8-3.7c2.1,0,3.8,1.7,3.8,3.7
		C283.5,46.1,281.8,47.8,279.7,47.8 M301.8,100.7l4.7,3.3c-5.3,6.6-10.6,10.1-17.8,11.8l-2,0.4v-6.5l-13.5,0v6.5l-2-0.3
		c-7.4-1.6-12.9-5.2-18.2-11.9l4.6-3.2l-16.7-6.4l0.2,0.5l0.3,0.8c6,15.4,19,26.1,34,27.9c0,0,0.6,0.1,1.3,0.1c0,0,1.9,0.1,2.1,0.1
		c0,0,0.9,0,0.9,0c0,0,1.5,0,1.5,0l2.9-0.2c15-1.8,28-12.5,34-27.9l0.3-0.8l0.2-0.5L301.8,100.7z"/>
	<path class="st2" d="M278.2,123.8L278.2,123.8C278.2,123.7,278.2,123.7,278.2,123.8L278.2,123.8"/>
	<polyline class="st2" points="277.9,123.7 277.9,123.7 277.9,123.7 277.9,123.7 	"/>
	<path class="st3" d="M291.6,67.1l0.8,1.5l0.9-1.5h1.6l-0.8-1.5l0.8-1.5h-1.6l-0.9-1.5l-0.8,1.5h-1.7l0.8,1.5l-0.8,1.5H291.6
		 M278.5,61.1h2.5v-1.4h1.4v-2.4H281v-1.4h-2.5v1.4h-1.4v2.4h1.4V61.1z M266.3,67.1l0.9,1.5l0.8-1.5h1.7l-0.9-1.5l0.9-1.5H268
		l-0.8-1.5l-0.9,1.5h-1.7l0.9,1.5l-0.9,1.5H266.3z M296.5,86.7H263l-2.9,17.9l-0.5,2.7h15.8l0-9.1c0-2.7,1.5-4.9,4.4-5
		c2.9,0.1,4.4,2.3,4.4,5l0,9.1h15.6L296.5,86.7z M297.9,81.9h-1.7V69.3h-7.9v12.5h-4.2l0.2-15c-0.1-2.1-1.1-4-2.8-4.7h-3.3
		c-1.7,0.7-2.9,2.5-2.9,4.5l0.2,15.2h-4.3V69.3h-7.8v12.5h-1.7V84h36.3V81.9z"/>
</g>
</svg>
