<?xml version="1.0" encoding="UTF-8" standalone="no"?>
<!-- Created with Inkscape (http://www.inkscape.org/) -->

<svg
   width="462mm"
   height="96mm"
   viewBox="0 0 462 96"
   version="1.1"
   id="svg17430"
   inkscape:version="1.1.2 (b8e25be833, 2022-02-05)"
   sodipodi:docname="logo-neu3.svg"
   xmlns:inkscape="http://www.inkscape.org/namespaces/inkscape"
   xmlns:sodipodi="http://sodipodi.sourceforge.net/DTD/sodipodi-0.dtd"
   xmlns="http://www.w3.org/2000/svg"
   xmlns:svg="http://www.w3.org/2000/svg">
  <sodipodi:namedview
     id="namedview17432"
     pagecolor="#ffffff"
     bordercolor="#666666"
     borderopacity="1.0"
     inkscape:pageshadow="2"
     inkscape:pageopacity="0.0"
     inkscape:pagecheckerboard="0"
     inkscape:document-units="mm"
     showgrid="false"
     inkscape:zoom="0.5"
     inkscape:cx="-141"
     inkscape:cy="560"
     inkscape:window-width="3584"
     inkscape:window-height="1842"
     inkscape:window-x="-11"
     inkscape:window-y="-11"
     inkscape:window-maximized="1"
     inkscape:current-layer="layer1" />
  <defs
     id="defs17427" />
  <g
     inkscape:label="Ebene 1"
     inkscape:groupmode="layer"
     id="layer1">
    <g
       aria-label="MOGWAI LABS"
       transform="matrix(0.26458333,0,0,0.26458333,-8.5664267,-89.687998)"
       id="flowRoot821"
       style="font-size:213.333px;line-height:1.25;letter-spacing:0px;word-spacing:0px">
      <path
         d="m 78.338483,600.00711 h 41.599937 l 13.43998,-92.58652 h 0.42666 l 36.90661,92.58652 h 16.63997 l 38.61327,-92.58652 h 0.42667 l 11.73331,92.58652 h 41.81327 L 255.6182,439.15403 h -41.59993 l -34.55995,85.9732 -32.63995,-85.9732 h -41.17326 z"
         style="fill:#357798"
         id="path17741" />
      <path
         d="m 378.49796,433.82071 c -46.29326,0 -88.95986,34.13328 -88.95986,82.7732 0,52.05325 37.33327,88.74652 88.95986,88.74652 51.62658,0 88.95985,-36.69327 88.95985,-88.74652 0,-48.63992 -42.6666,-82.7732 -88.95985,-82.7732 z m 0,40.53327 c 24.95996,0 45.43992,20.26663 45.43992,42.45326 0,27.73329 -20.47996,47.99993 -45.43992,47.99993 -24.95996,0 -45.43993,-20.26664 -45.43993,-47.99993 0,-22.18663 20.47997,-42.45326 45.43993,-42.45326 z"
         style="fill:#357798"
         id="path17743" />
      <path
         d="m 564.31081,510.19392 v 32.85328 h 34.13328 c -1.70667,18.55997 -15.57331,27.94662 -33.70662,27.94662 -27.51995,0 -42.45326,-25.38662 -42.45326,-50.34658 0,-24.5333 14.29331,-50.77326 41.81327,-50.77326 16.8533,0 29.01328,10.23999 34.77327,25.59996 l 39.67994,-16.63997 c -13.86664,-30.07995 -39.4666,-45.01326 -72.53322,-45.01326 -51.83991,0 -87.25319,34.34661 -87.25319,86.61319 0,50.55992 35.19994,84.90653 85.75986,84.90653 26.87996,0 50.55992,-9.59998 66.34656,-31.57328 14.29331,-20.0533 15.99998,-40.1066 16.42664,-63.57323 z"
         style="fill:#357798"
         id="path17745" />
      <path
         d="m 693.16375,439.15403 h -43.51993 l 47.99992,160.85308 H 740.097 l 31.57329,-93.22652 h 0.42666 l 28.15996,93.22652 h 42.6666 L 894.33676,439.15403 H 850.81683 L 820.52354,543.0472 h -0.42666 L 788.52359,439.15403 H 755.24365 L 721.53703,543.0472 h -0.42666 z"
         style="fill:#357798"
         id="path17747" />
      <path
         d="m 986.28341,572.06049 10.45331,27.94662 h 44.58658 L 980.73675,439.15403 h -45.65326 l -61.86657,160.85308 h 44.37326 l 11.09332,-27.94662 z m -11.30665,-31.99995 h -34.77328 l 17.27997,-51.19992 h 0.42667 z"
         style="fill:#357798"
         id="path17749" />
      <path
         d="m 1096.1499,439.15403 h -41.8132 v 160.85308 h 41.8132 z"
         style="fill:#357798"
         id="path17751" />
      <path
         d="m 1238.443,439.15403 h -41.8132 v 160.85308 h 91.9465 v -35.41328 h -50.1333 z"
         style="fill:#1c0225"
         id="path17753" />
      <path
         d="m 1400.7896,572.06049 10.4533,27.94662 h 44.5866 l -60.5866,-160.85308 h -45.6532 l -61.8666,160.85308 h 44.3732 l 11.0934,-27.94662 z m -11.3067,-31.99995 h -34.7733 l 17.28,-51.19992 h 0.4267 z"
         style="fill:#1c0225"
         id="path17755" />
      <path
         d="m 1510.6562,533.44722 h 4.2666 c 13.6533,0 34.3466,-1.92 34.3466,17.4933 0,17.70664 -20.9066,17.06664 -33.2799,17.06664 h -5.3333 z m 22.6133,66.55989 c 29.4399,0 58.2399,-11.09332 58.2399,-44.79993 0,-22.39996 -9.8134,-37.97327 -32.8533,-40.95993 v -0.42667 c 13.0133,-6.61332 17.7066,-18.34664 17.7066,-32.85328 0,-30.71995 -19.2,-41.81327 -47.7866,-41.81327 h -59.7332 v 160.85308 z m -22.6133,-128.85313 h 2.9866 c 11.3067,0 24.32,0.85333 24.32,15.57331 0,13.65331 -11.52,15.57331 -22.6133,15.57331 h -4.6933 z"
         style="fill:#1c0225"
         id="path17757" />
      <path
         d="m 1718.2291,448.11402 c -14.2933,-8.10665 -34.1333,-13.22665 -50.3466,-13.22665 -32.2133,0 -55.4666,21.3333 -55.4666,53.97325 0,31.14662 17.28,37.97327 43.52,45.43993 8.96,2.55999 25.3866,6.61332 25.3866,18.34664 0,11.30664 -10.4533,16.2133 -20.2666,16.2133 -14.2933,0 -26.6667,-7.46665 -37.12,-16.63997 l -17.9199,33.70661 c 16.4266,11.51998 36.2666,18.34664 56.5332,18.34664 16.2133,0 33.0666,-4.47999 45.6533,-15.14664 12.7999,-10.87999 16.6399,-27.30663 16.6399,-43.3066 0,-26.02663 -17.2799,-37.33327 -39.6799,-43.9466 l -10.6667,-3.19999 c -7.2533,-2.34666 -18.5599,-5.97333 -18.5599,-15.35998 0,-8.95998 10.24,-13.43998 17.9199,-13.43998 10.24,0 20.0533,4.26666 27.7333,10.66665 z"
         style="fill:#1c0225"
         id="path17759" />
    </g>
  </g>
</svg>
