<?xml version="1.0" encoding="utf-8"?>
<svg class="desktop" version="1.1" xmlns="http://www.w3.org/2000/svg" xmlns:xlink="http://www.w3.org/1999/xlink" x="0px"
    y="0px" viewBox="0 0 459 103">
    <path class="logo__shape has--color" fill="#000C15" d="M458.9,98.6L415.2,0.5l-43.7,98.1h16.9l26.8-60.3L442,98.6H458.9L458.9,98.6z M305.8,98.6h16.8V4.4l-16.8,0
                    V98.6L305.8,98.6z M240.9,86c9.7-9.5,14.6-21,14.6-34.2c0-15-5.4-27.3-16-36.6c-9.6-8.4-20.6-12.6-32.7-12.6
                    c-13.7,0-25.5,4.8-35.2,14.2c-9.6,9.4-14.5,21-14.5,34.5c0,13.4,4.9,25,14.5,34.6c9.6,9.5,21.2,14.4,34.5,14.4
                    C219.6,100.3,231.3,95.5,240.9,86L240.9,86z M238.6,51.7c0,9.1-3.1,16.9-9.4,23.1c-6.2,6.3-13.9,9.5-23,9.5
                    c-9.1,0-16.8-3.2-22.9-9.5c-6.2-6.2-9.3-14.1-9.3-23.4c0-9.1,3.2-17,9.4-23.4c6.2-6.3,14-9.5,23.1-9.5c8.4,0,15.9,3.1,22.3,9.3
                    C235.3,34.1,238.6,42.1,238.6,51.7L238.6,51.7z M110.4,98.6H128L86.4,0.5L64,62L41.7,0.5L0.1,98.6h17.6l23.6-55.7L64,102.5
                    l22.7-59.6L110.4,98.6L110.4,98.6z"></path>
</svg>
