<?xml version="1.0" encoding="UTF-8"?><svg id="Layer_1" xmlns="http://www.w3.org/2000/svg" viewBox="0 0 1324.61 570.52"><defs><style>.cls-1{fill:#fff;}.cls-2{fill:#285ba7;}</style></defs><path d="M142.31,78.47h33.87l47.49,118.97h-36.08l-8.85-22.64h-38.98l-9.02,22.64h-36.08l47.66-118.97ZM170.57,148.08l-11.4-33.36-11.4,33.36h22.81Z"/><path d="M233.88,78.47h34.21l37.1,62.29v-62.29h35.23v118.97h-34.04l-37.27-62.29v62.29h-35.23v-118.97Z"/><path d="M380.08,108.08h-32v-29.62h99.23v29.62h-32v89.36h-35.23v-89.36Z"/><path d="M454.97,78.47h35.23v118.97h-35.23v-118.97Z"/><path d="M519.14,197.69c-7.72-1.53-13.96-3.54-18.72-6.04v-31.15c6.24,3.4,12.79,5.96,19.66,7.66,6.86,1.7,13.3,2.55,19.32,2.55,8.74,0,13.11-2.32,13.11-6.98,0-1.93-.65-3.6-1.96-5.02-1.3-1.42-3.26-2.78-5.87-4.08-2.61-1.3-6.75-3.2-12.43-5.7-11.01-4.77-18.98-9.98-23.91-15.66-4.94-5.67-7.4-12.71-7.4-21.11,0-7.03,1.96-13.3,5.87-18.81,3.91-5.5,9.39-9.79,16.42-12.85,7.03-3.06,15.15-4.6,24.34-4.6,7.49,0,14.13.6,19.91,1.79s11.4,3.09,16.85,5.7v30.13c-9.87-5.45-19.97-8.17-30.29-8.17-4.54,0-8.17.65-10.89,1.96-2.72,1.31-4.09,3.21-4.09,5.7s1.22,4.51,3.66,6.04c2.44,1.53,7.06,3.66,13.87,6.38l3.74,1.53c8.05,3.29,14.27,6.55,18.64,9.79,4.37,3.23,7.52,6.98,9.45,11.23,1.93,4.25,2.89,9.62,2.89,16.08,0,11.23-4.08,20.03-12.25,26.38-8.17,6.36-20.48,9.53-36.93,9.53-7.6,0-15.26-.77-22.98-2.3Z"/><path d="M630.45,152.16l-43.4-73.7h37.61l23.49,41.02,25.02-41.02h37.44l-44.93,73.7v45.27h-35.23v-45.27Z"/><path d="M716.57,78.47h54.81c14.3,0,25.67,3.66,34.12,10.98,8.45,7.32,12.68,17.79,12.68,31.4s-4.23,24.11-12.68,31.49c-8.45,7.38-19.83,11.06-34.12,11.06h-19.57v34.04h-35.23v-118.97ZM764.74,135.48c5.45,0,9.7-1.08,12.77-3.23,3.06-2.15,4.6-5.96,4.6-11.4s-1.53-9.08-4.6-11.23c-3.06-2.15-7.32-3.23-12.77-3.23h-12.93v29.1h12.93Z"/><path d="M826.69,78.47h35.23v43.74h39.66v-43.74h35.23v118.97h-35.23v-45.61h-39.66v45.61h-35.23v-118.97Z"/><path d="M978.6,192.16c-9.82-5.22-17.53-12.51-23.15-21.87-5.62-9.36-8.42-20.11-8.42-32.25s2.81-22.92,8.42-32.34c5.62-9.42,13.33-16.74,23.15-21.96,9.81-5.22,20.74-7.83,32.76-7.83s22.89,2.61,32.59,7.83c9.7,5.22,17.36,12.54,22.98,21.96,5.62,9.42,8.43,20.2,8.43,32.34s-2.81,22.89-8.43,32.25c-5.62,9.36-13.28,16.65-22.98,21.87-9.7,5.22-20.57,7.83-32.59,7.83s-22.95-2.61-32.76-7.83ZM1025.57,163.48c4.25-2.32,7.63-5.67,10.13-10.04,2.49-4.37,3.74-9.5,3.74-15.4,0-8.74-2.67-15.71-8-20.94-5.33-5.22-12.03-7.83-20.08-7.83s-14.95,2.61-20.34,7.83c-5.39,5.22-8.08,12.2-8.08,20.94,0,5.9,1.25,11.04,3.74,15.4,2.5,4.37,5.9,7.72,10.21,10.04,4.31,2.33,9.13,3.49,14.47,3.49s9.96-1.16,14.21-3.49Z"/><path d="M1085.57,78.47h34.21l37.1,62.29v-62.29h35.23v118.97h-34.04l-37.27-62.29v62.29h-35.23v-118.97Z"/><path d="M134.79,283.55h-44.9v-41.55h139.23v41.55h-44.9v125.38h-49.43v-125.38Z"/><path d="M239.87,242h77.61c20.06,0,35.9,5.06,47.52,15.17,11.62,10.11,17.43,24.72,17.43,43.82,0,12.42-2.59,23.01-7.76,31.76-5.18,8.76-12.54,15.45-22.09,20.06l27.94,56.12h-50.63l-24.36-48.96h-16.24v48.96h-49.43v-166.93ZM307.69,320.81c7.64,0,13.57-1.47,17.79-4.42,4.22-2.94,6.33-8.08,6.33-15.4s-2.11-12.46-6.33-15.4c-4.22-2.94-10.15-4.42-17.79-4.42h-18.39v39.64h18.39Z"/><path d="M448.11,242h47.52l66.63,166.93h-50.63l-12.42-31.76h-54.69l-12.66,31.76h-50.63l66.87-166.93ZM487.76,339.67l-16-46.81-16,46.81h32Z"/><path d="M576.6,242h49.43v166.93h-49.43v-166.93Z"/><path d="M645.13,242h48l52.06,87.41v-87.41h49.43v166.93h-47.76l-52.3-87.41v87.41h-49.43v-166.93Z"/><path d="M813.74,242h49.43v166.93h-49.43v-166.93Z"/><path d="M882.27,242h48l52.06,87.41v-87.41h49.43v166.93h-47.76l-52.3-87.41v87.41h-49.43v-166.93Z"/><path d="M1089.33,402c-13.85-7-24.52-17.03-32-30.09-7.49-13.05-11.22-28.5-11.22-46.33s3.74-33.31,11.22-46.45c7.48-13.14,18.15-23.2,32-30.21,13.85-7,30.01-10.51,48.48-10.51,24.84,0,44.26,4.62,58.27,13.85v45.61c-7.01-5.25-14.89-9.08-23.64-11.46-8.76-2.39-18.87-3.58-30.33-3.58-14.97,0-26.31,3.74-34.03,11.22-7.72,7.48-11.58,17.99-11.58,31.52s3.7,24.88,11.11,32.12c7.4,7.25,18.11,10.87,32.12,10.87,6.84,0,12.42-.96,16.72-2.87v-21.25h-22.93v-31.29h68.06v83.59c-16.88,10.51-38.13,15.76-63.76,15.76-18.47,0-34.63-3.5-48.48-10.51Z"/><rect class="cls-2" x="374.99" y="465.09" width="586" height="105.43"/><rect class="cls-2" x="1257.56" y="230.04" width="10.34" height="46"/><rect class="cls-2" x="1310.92" y="230.04" width="10.34" height="46"/><rect class="cls-2" x="1302.24" y="230.04" width="5.5" height="14.14"/><rect class="cls-2" x="1294.3" y="230.04" width="5.5" height="14.14"/><rect class="cls-2" x="1286.36" y="230.04" width="5.5" height="14.14"/><rect class="cls-2" x="1278.41" y="230.04" width="5.5" height="14.14"/><rect class="cls-2" x="1270.47" y="230.04" width="5.5" height="14.14"/><polygon class="cls-2" points="1323.21 303.64 1324.61 293.19 1298.44 293.19 1298.44 301.99 1279.55 301.99 1279.55 293.19 1253.38 293.19 1254.78 303.64 1274.35 303.64 1274.35 310.74 1255.74 310.74 1257.31 317.21 1274.35 317.21 1274.35 324.32 1260.79 324.32 1263.33 330.78 1274.35 330.78 1274.35 337.89 1269.29 337.89 1270.82 350.63 1307.17 350.63 1308.7 337.89 1302.81 337.89 1302.81 330.78 1314.66 330.78 1317.2 324.32 1302.81 324.32 1302.81 317.21 1320.68 317.21 1322.25 310.74 1302.81 310.74 1302.81 303.64 1323.21 303.64"/><polygon class="cls-2" points="1304.19 250.62 1273.8 250.62 1273.8 274.37 1283.66 274.37 1283.66 291.05 1283.66 299.09 1294.33 299.09 1294.33 291.05 1294.33 274.37 1304.19 274.37 1304.19 250.62"/><polygon class="cls-2" points="1307.31 253.03 1307.31 279.06 1298.44 279.06 1298.44 289.43 1321.25 289.43 1321.25 253.03 1307.31 253.03"/><polygon class="cls-2" points="1270.67 253.03 1257.56 253.03 1257.56 289.43 1279.55 289.43 1279.55 279.06 1270.67 279.06 1270.67 253.03"/><rect class="cls-2" x="960.98" y="465.09" width="340.78" height="26.36"/><rect class="cls-2" x="1276.22" y="328.22" width="25.54" height="163.23"/><rect class="cls-2" width="26.22" height="197.48"/><rect class="cls-2" x="455.53" y="-455.19" width="25.54" height="935.92" transform="translate(455.53 481.07) rotate(-90)"/><path class="cls-1" d="M410.49,497.87h16.58c4.47,0,8.05,1.18,10.72,3.53,2.67,2.35,4,5.61,4,9.79s-1.33,7.58-3.98,9.87-6.23,3.44-10.75,3.44h-8.01v12.8h-8.57v-39.43ZM425.83,517.33c4.85,0,7.28-2.05,7.28-6.15,0-2.29-.65-3.89-1.95-4.79-1.3-.9-3.07-1.35-5.33-1.35h-6.77v12.3h6.77Z"/><path class="cls-1" d="M454.55,535.55c-3.22-1.73-5.74-4.15-7.59-7.25-1.84-3.1-2.76-6.67-2.76-10.69s.92-7.59,2.76-10.72c1.84-3.12,4.37-5.55,7.59-7.28,3.21-1.73,6.8-2.59,10.74-2.59s7.51.87,10.69,2.59c3.18,1.73,5.69,4.16,7.53,7.28,1.84,3.12,2.76,6.69,2.76,10.72s-.92,7.59-2.76,10.69c-1.84,3.1-4.35,5.52-7.53,7.25-3.18,1.73-6.74,2.59-10.69,2.59s-7.53-.86-10.74-2.59ZM471.47,528.69c1.86-1.03,3.34-2.5,4.43-4.4,1.09-1.9,1.64-4.13,1.64-6.68s-.54-4.73-1.61-6.63c-1.07-1.9-2.54-3.37-4.4-4.4s-3.94-1.55-6.23-1.55-4.43.52-6.29,1.55-3.34,2.5-4.43,4.4c-1.09,1.9-1.64,4.11-1.64,6.63s.54,4.79,1.64,6.68c1.09,1.9,2.58,3.37,4.46,4.4,1.88,1.03,3.97,1.55,6.26,1.55s4.31-.52,6.18-1.55Z"/><path class="cls-1" d="M487.37,497.87h9.02l7.05,25.5,6.94-25.5h6.6l6.71,25.5,7.05-25.5h8.97l-11.05,39.43h-8.07l-7.05-24.99-6.99,24.99h-8.12l-11.06-39.43Z"/><path class="cls-1" d="M543.18,497.87h27.36v7.16h-18.78v9.14h13.82v6.88h-13.82v9.08h18.78v7.16h-27.36v-39.43Z"/><path class="cls-1" d="M575.46,497.87h17.09c4.47,0,7.96,1.12,10.46,3.36,2.5,2.24,3.75,5.46,3.75,9.67,0,2.93-.68,5.42-2.03,7.47-1.35,2.05-3.27,3.54-5.75,4.48l7.5,14.44h-8.8l-6.94-13.37h-6.71v13.37h-8.57v-39.43ZM591.03,516.76c2.18,0,3.9-.47,5.16-1.41,1.26-.94,1.89-2.43,1.89-4.46,0-2.14-.62-3.66-1.86-4.54-1.24-.88-2.97-1.33-5.19-1.33h-6.99v11.73h6.99Z"/><path class="cls-1" d="M611.8,497.87h27.36v7.16h-18.78v9.14h13.82v6.88h-13.82v9.08h18.78v7.16h-27.36v-39.43Z"/><path class="cls-1" d="M644.08,497.87h13.71c4.29,0,8.03.79,11.22,2.37,3.2,1.58,5.66,3.83,7.39,6.77,1.73,2.93,2.59,6.39,2.59,10.38,0,6.54-1.91,11.5-5.73,14.86s-9.13,5.05-15.93,5.05h-13.26v-39.43ZM657.79,530.13c4.02,0,7.11-1.13,9.25-3.38,2.14-2.26,3.21-5.38,3.21-9.36,0-2.37-.47-4.49-1.41-6.37-.94-1.88-2.31-3.35-4.12-4.4-1.8-1.05-3.93-1.58-6.37-1.58h-5.7v25.1h5.13Z"/><path class="cls-1" d="M703.47,497.87h19.35c3.72,0,6.64.92,8.74,2.76,2.11,1.84,3.16,4.51,3.16,8.01,0,1.77-.41,3.38-1.24,4.82-.83,1.45-1.96,2.57-3.38,3.36,1.96.71,3.42,1.8,4.4,3.24.98,1.45,1.47,3.34,1.47,5.67s-.54,4.43-1.61,6.18c-1.07,1.75-2.54,3.08-4.4,4-1.86.92-3.92,1.38-6.18,1.38h-20.31v-39.43ZM721.18,513.89c1.5,0,2.69-.38,3.55-1.13.86-.75,1.3-1.96,1.3-3.61,0-1.81-.42-3.05-1.27-3.72-.85-.68-2.13-1.01-3.86-1.01h-8.86v9.48h9.14ZM721.69,530.75c1.84,0,3.24-.37,4.2-1.1s1.44-2.02,1.44-3.86-.5-3.23-1.5-4.06-2.47-1.24-4.43-1.24h-9.36v10.27h9.64Z"/><path class="cls-1" d="M750.74,522.29l-14.44-24.42h9.14l9.53,16.41,9.87-16.41h9.08l-14.78,24.42v15h-8.4v-15Z"/><path class="cls-1" d="M798.46,497.87h19.35c3.72,0,6.64.92,8.74,2.76,2.11,1.84,3.16,4.51,3.16,8.01,0,1.77-.41,3.38-1.24,4.82-.83,1.45-1.96,2.57-3.38,3.36,1.96.71,3.42,1.8,4.4,3.24.98,1.45,1.47,3.34,1.47,5.67s-.54,4.43-1.61,6.18c-1.07,1.75-2.54,3.08-4.4,4-1.86.92-3.92,1.38-6.18,1.38h-20.31v-39.43ZM816.17,513.89c1.5,0,2.69-.38,3.55-1.13.86-.75,1.3-1.96,1.3-3.61,0-1.81-.42-3.05-1.27-3.72-.85-.68-2.13-1.01-3.86-1.01h-8.86v9.48h9.14ZM816.68,530.75c1.84,0,3.24-.37,4.2-1.1s1.44-2.02,1.44-3.86-.5-3.23-1.5-4.06-2.47-1.24-4.43-1.24h-9.36v10.27h9.64Z"/><path class="cls-1" d="M836.06,497.87h8.57v15.79h17.2v-15.79h8.57v39.43h-8.57v-16.53h-17.2v16.53h-8.57v-39.43Z"/><path class="cls-1" d="M876.87,497.87h8.57v39.43h-8.57v-39.43Z"/><path class="cls-1" d="M896.64,537.46c-2.37-.45-4.31-1.05-5.81-1.8v-7.56c1.99.98,4.06,1.71,6.21,2.2,2.14.49,4.19.73,6.15.73,2.18,0,3.84-.38,4.96-1.13s1.69-1.81,1.69-3.16c0-.98-.28-1.8-.85-2.48-.56-.68-1.38-1.29-2.45-1.83-1.07-.54-2.72-1.27-4.94-2.17-3.69-1.5-6.36-3.19-8.01-5.05s-2.48-4.17-2.48-6.91c0-2.22.6-4.18,1.8-5.89,1.2-1.71,2.9-3.04,5.08-3.98,2.18-.94,4.7-1.41,7.56-1.41,2.33,0,4.4.19,6.2.56,1.81.38,3.57.96,5.3,1.75v7.33c-3.31-1.65-6.62-2.48-9.93-2.48-2.11,0-3.76.37-4.96,1.1-1.2.73-1.81,1.78-1.81,3.13,0,.98.28,1.79.85,2.42.56.64,1.35,1.2,2.37,1.69,1.01.49,2.67,1.2,4.96,2.14,2.67,1.13,4.76,2.21,6.26,3.24s2.61,2.26,3.33,3.67c.71,1.41,1.07,3.15,1.07,5.22,0,3.57-1.29,6.36-3.86,8.35-2.58,1.99-6.42,2.99-11.53,2.99-2.41,0-4.79-.23-7.16-.68Z"/></svg>