<?xml version="1.0" encoding="UTF-8"?>
<svg xmlns="http://www.w3.org/2000/svg" viewBox="0 0 805.44 714.34">
    <defs>
        <style>
            .cls-1 {
                fill: #47bc90;
            }

            .cls-2 {
                fill: #fff;
            }

            .cls-3 {
                fill: #a3d8c3;
                fill-rule: evenodd;
            }
            @keyframes flyAround {
                0%, 100% { transform: translate(0, 0); }
                25% { transform: translate(5px, -3px); }
                50% { transform: translate(-5px, -8px); }
                75% { transform: translate(-3px, 3px); }
            }
            #bugle {
                animation: flyAround 4s ease-in-out infinite;
            }

        </style>
    </defs>
    <g id="starfish">
        <path class="cls-3"
            d="M699.68,714.34H153.15c-6.55,0-11.86-5.31-11.86-11.86v-134.77c0-6.55,5.31-11.86,11.86-11.86h546.53c6.55,0,11.86,5.31,11.86,11.86v134.77c0,6.55-5.31,11.86-11.86,11.86h0ZM551.16,600.36c3.26,0,5.69-.72,7.27-2.17,1.59-1.45,2.38-3.37,2.38-5.75s-.79-4.24-2.38-5.69c-1.59-1.45-4.01-2.17-7.27-2.17h-54.04c-2.9,0-5.27.43-7.13,1.28-1.86.85-3.23,2.21-4.1,4.07-.87,1.86-1.31,4.26-1.31,7.2v75.95c0,4.41.98,7.6,2.93,9.58,1.95,1.98,5.16,2.96,9.62,2.96h55.62c3.22,0,5.64-.75,7.27-2.24,1.63-1.49,2.45-3.43,2.45-5.82s-.82-4.47-2.45-5.96c-1.63-1.49-4.06-2.24-7.27-2.24h-47.7v-28.74h42.46c3.17,0,5.51-.72,7.03-2.17,1.52-1.45,2.27-3.32,2.27-5.62s-.77-4.15-2.31-5.55c-1.54-1.4-3.87-2.1-7-2.1h-42.46v-24.81h46.11ZM675.98,655.29c0-5.1-.91-9.41-2.72-12.92-1.81-3.52-4.34-6.42-7.58-8.72-3.24-2.3-7.17-4.25-11.79-5.86-4.62-1.61-9.78-3.08-15.47-4.41-4.55-1.15-7.81-2.02-9.79-2.62-1.98-.6-3.93-1.42-5.86-2.48-1.93-1.06-3.45-2.32-4.55-3.79-1.1-1.47-1.65-3.22-1.65-5.24,0-3.26,1.62-6.05,4.86-8.37,3.24-2.32,7.5-3.48,12.79-3.48,5.7,0,9.83,1.07,12.41,3.21,2.57,2.14,4.78,5.11,6.62,8.92,1.42,2.67,2.75,4.58,3.96,5.75,1.22,1.17,3,1.76,5.34,1.76,2.57,0,4.72-.98,6.44-2.93,1.72-1.95,2.58-4.15,2.58-6.58,0-2.67-.69-5.4-2.07-8.2-1.38-2.8-3.56-5.48-6.55-8.03s-6.74-4.59-11.27-6.13c-4.53-1.54-9.89-2.31-16.09-2.31-7.77,0-14.52,1.16-20.27,3.48-5.74,2.32-10.13,5.64-13.17,9.96-3.03,4.32-4.55,9.26-4.55,14.82,0,5.84,1.44,10.72,4.31,14.65,2.87,3.93,6.76,7.03,11.65,9.3,4.89,2.27,10.97,4.26,18.23,5.96,5.42,1.24,9.75,2.41,12.99,3.51,3.24,1.1,5.88,2.7,7.93,4.79,2.04,2.09,3.07,4.81,3.07,8.17,0,4.23-1.9,7.75-5.69,10.58-3.79,2.83-8.72,4.24-14.79,4.24-4.41,0-7.97-.7-10.68-2.1-2.71-1.4-4.81-3.18-6.31-5.34-1.49-2.16-2.88-4.85-4.17-8.06-1.06-2.71-2.33-4.76-3.83-6.13-1.49-1.38-3.32-2.07-5.48-2.07-2.67,0-4.86.88-6.58,2.65-1.72,1.77-2.58,3.89-2.58,6.38,0,4.27,1.44,8.67,4.31,13.2,2.87,4.53,6.6,8.14,11.2,10.86,6.48,3.77,14.7,5.65,24.68,5.65,8.32,0,15.51-1.38,21.57-4.14,6.07-2.76,10.67-6.57,13.82-11.44,3.15-4.87,4.72-10.36,4.72-16.47h0ZM372.31,584.58c-4.41,0-7.6.99-9.58,2.96-1.98,1.98-2.96,5.17-2.96,9.58v74.09c0,3.26.29,5.92.86,7.96.57,2.04,1.8,3.63,3.69,4.76,1.88,1.13,4.69,1.69,8.41,1.69h26.68c4.64,0,8.81-.3,12.51-.9,3.7-.6,7.16-1.63,10.37-3.1,3.22-1.47,6.18-3.42,8.89-5.86,3.45-3.17,6.27-6.77,8.48-10.79,2.21-4.02,3.84-8.53,4.89-13.54,1.06-5.01,1.59-10.55,1.59-16.61,0-18.38-5.26-32.07-15.78-41.08-4.04-3.54-8.55-5.95-13.51-7.24-4.96-1.29-10.91-1.93-17.85-1.93h-26.68ZM380.23,600.78h13.51c6.25,0,11.58.68,15.99,2.03,4.41,1.36,8.12,4.52,11.13,9.48,3.01,4.96,4.51,12.43,4.51,22.4,0,14.15-3.42,24.12-10.27,29.91-1.52,1.33-3.31,2.37-5.38,3.1-2.07.74-4.07,1.2-6,1.38-1.93.18-4.6.28-8,.28h-15.51v-68.58h0ZM295.81,674.87c0,4.14.95,7.25,2.86,9.34,1.91,2.09,4.33,3.14,7.27,3.14s5.57-1.03,7.48-3.1c1.91-2.07,2.86-5.19,2.86-9.37v-79.61c0-4.18-.95-7.29-2.86-9.34-1.91-2.05-4.4-3.07-7.48-3.07s-5.42,1.03-7.31,3.1c-1.88,2.07-2.83,5.17-2.83,9.3v79.61h0ZM257.15,655.29c0-5.1-.91-9.41-2.72-12.92-1.82-3.52-4.34-6.42-7.58-8.72-3.24-2.3-7.17-4.25-11.79-5.86-4.62-1.61-9.78-3.08-15.47-4.41-4.55-1.15-7.81-2.02-9.79-2.62-1.98-.6-3.93-1.42-5.86-2.48-1.93-1.06-3.45-2.32-4.55-3.79-1.1-1.47-1.65-3.22-1.65-5.24,0-3.26,1.62-6.05,4.86-8.37,3.24-2.32,7.5-3.48,12.79-3.48,5.7,0,9.83,1.07,12.41,3.21,2.57,2.14,4.78,5.11,6.62,8.92,1.42,2.67,2.75,4.58,3.96,5.75,1.22,1.17,3,1.76,5.34,1.76,2.57,0,4.72-.98,6.45-2.93,1.72-1.95,2.58-4.15,2.58-6.58,0-2.67-.69-5.4-2.07-8.2-1.38-2.8-3.56-5.48-6.55-8.03-2.99-2.55-6.74-4.59-11.27-6.13-4.53-1.54-9.89-2.31-16.09-2.31-7.77,0-14.52,1.16-20.26,3.48-5.74,2.32-10.13,5.64-13.17,9.96-3.03,4.32-4.55,9.26-4.55,14.82,0,5.84,1.44,10.72,4.31,14.65s6.75,7.03,11.65,9.3c4.89,2.27,10.97,4.26,18.23,5.96,5.42,1.24,9.75,2.41,12.99,3.51,3.24,1.1,5.88,2.7,7.93,4.79,2.05,2.09,3.07,4.81,3.07,8.17,0,4.23-1.9,7.75-5.69,10.58-3.79,2.83-8.72,4.24-14.78,4.24-4.41,0-7.97-.7-10.68-2.1-2.71-1.4-4.81-3.18-6.31-5.34-1.49-2.16-2.88-4.85-4.17-8.06-1.06-2.71-2.33-4.76-3.83-6.13-1.49-1.38-3.32-2.07-5.48-2.07-2.67,0-4.86.88-6.58,2.65-1.72,1.77-2.58,3.89-2.58,6.38,0,4.27,1.44,8.67,4.31,13.2,2.87,4.53,6.61,8.14,11.2,10.86,6.48,3.77,14.71,5.65,24.68,5.65,8.32,0,15.51-1.38,21.57-4.14,6.07-2.76,10.67-6.57,13.82-11.44,3.15-4.87,4.72-10.36,4.72-16.47h0ZM641.44,342.6v122.39c0,6.49-5.26,11.75-11.75,11.75h-108.79c-6.49,0-11.75-5.26-11.75-11.75v-122.39c0-6.49,5.26-11.75,11.75-11.75h108.79c6.49,0,11.75,5.26,11.75,11.75h0ZM577.69,453.16c5.03,0,9.42-.26,13.19-.77,3.77-.52,7.1-1.4,10.01-2.66,4.64-2.11,8.32-5.38,11.05-9.8,2.73-4.42,4.09-9.4,4.09-14.92,0-11.94-6.26-19.98-18.78-24.11,9.53-4.58,14.3-11.81,14.3-21.69,0-2.87-.46-5.6-1.37-8.18-.91-2.58-2.23-4.94-3.96-7.07-1.73-2.13-3.73-3.9-5.98-5.29-2.64-1.66-5.63-2.78-8.97-3.37-3.34-.58-7.28-.88-11.83-.88h-30.87c-4.12,0-7.09.95-8.94,2.86-1.84,1.91-2.76,5.04-2.76,9.4v74.22c0,4.27.9,7.38,2.7,9.33,1.8,1.95,4.8,2.93,9,2.93h29.11ZM576.26,409.31c6.72,0,11.76,1.12,15.14,3.37,3.38,2.25,5.07,5.86,5.07,10.84,0,9.74-6.52,14.62-19.56,14.62h-20.73v-28.83h20.08ZM556.18,369.44h15.66c7.02,0,12.24.82,15.66,2.46,3.42,1.64,5.13,4.95,5.13,9.93,0,2.34-.54,4.45-1.62,6.33-1.39,2.65-3.39,4.45-6.01,5.39-2.62.94-6.34,1.41-11.14,1.41h-17.67v-25.53h0ZM491.49,342.6v122.39c0,6.49-5.26,11.75-11.75,11.75h-108.79c-6.49,0-11.75-5.26-11.75-11.75v-122.39c0-6.49,5.26-11.75,11.75-11.75h108.79c6.49,0,11.75,5.26,11.75,11.75h0ZM410.59,365.7c0-4.09-.9-7.13-2.7-9.13-1.8-2-4.15-3-7.05-3s-5.17,1.01-6.92,3.03c-1.75,2.02-2.63,5.05-2.63,9.09v76.04c0,4.31.92,7.43,2.76,9.36,1.84,1.93,4.86,2.9,9.06,2.9h46.59c3.16,0,5.57-.75,7.21-2.26,1.65-1.5,2.47-3.47,2.47-5.89s-.83-4.36-2.5-5.93c-1.67-1.57-4.06-2.36-7.18-2.36h-39.12v-71.86h0ZM341.54,342.6v122.39c0,6.49-5.26,11.75-11.75,11.75h-108.79c-6.49,0-11.75-5.26-11.75-11.75v-122.39c0-6.49,5.26-11.75,11.75-11.75h108.79c6.49,0,11.75,5.26,11.75,11.75h0ZM301.45,369.85c3.08,0,5.36-.71,6.86-2.12,1.49-1.41,2.24-3.29,2.24-5.62s-.75-4.14-2.24-5.56c-1.5-1.41-3.78-2.12-6.86-2.12h-50.94c-2.73,0-4.97.42-6.73,1.25-1.75.83-3.04,2.15-3.87,3.97-.82,1.82-1.23,4.16-1.23,7.04v74.22c0,4.31.92,7.43,2.76,9.36,1.84,1.93,4.86,2.9,9.07,2.9h52.44c3.03,0,5.32-.73,6.86-2.19,1.54-1.46,2.31-3.36,2.31-5.69s-.77-4.37-2.31-5.83c-1.54-1.46-3.82-2.19-6.86-2.19h-44.97v-28.09h40.03c2.99,0,5.2-.71,6.63-2.12,1.43-1.41,2.14-3.24,2.14-5.49s-.73-4.05-2.18-5.42c-1.45-1.37-3.65-2.05-6.6-2.05h-40.03v-24.25h43.47ZM237.85,218.13c-4.5,6.57-12.06,10.89-20.62,10.89-13.78,0-24.97-11.19-24.97-24.97s11.19-24.97,24.97-24.97c9.15,0,17.16,4.93,21.5,12.27l127.57-.71c4.12-.02,8.01,1.85,10.57,5.07l51.78,65.33,50.12.35,53.76-83.85c2.36-3.68,6.37-5.98,10.73-6.15,4.37-.18,8.55,1.79,11.19,5.27l53.77,70.61h33.76l32.15-29.26c-.7-2.31-1.08-4.76-1.08-7.29,0-13.78,11.19-24.97,24.97-24.97s24.97,11.19,24.97,24.97-11.19,24.97-24.97,24.97c-1.12,0-2.22-.07-3.29-.22l-38.55,35.08c-2.47,2.24-5.68,3.49-9.01,3.49h-45.57c-4.18,0-8.12-1.95-10.65-5.28l-46.19-60.66-47.41,73.95c-2.48,3.87-6.77,6.19-11.37,6.16l-63.91-.45c-4.06-.03-7.88-1.89-10.4-5.07l-51.71-65.25-122.08.68h0ZM698,202.48c-4.55,0-8.24,3.69-8.24,8.24s3.69,8.24,8.24,8.24,8.24-3.69,8.24-8.24-3.69-8.24-8.24-8.24h0ZM217.22,195.81c-4.55,0-8.24,3.69-8.24,8.24s3.69,8.24,8.24,8.24,8.24-3.69,8.24-8.24-3.69-8.24-8.24-8.24h0ZM139.36,46.1c-7-4.43-11.65-12.24-11.65-21.12,0-13.78,11.19-24.97,24.97-24.97s24.97,11.19,24.97,24.97c0,8.83-4.59,16.6-11.52,21.04l-.14,280.16c7,4.43,11.65,12.24,11.65,21.12,0,13.78-11.19,24.97-24.97,24.97s-24.97-11.19-24.97-24.97c0-8.83,4.59-16.6,11.52-21.04l.14-280.16h0ZM152.68,16.74c-4.55,0-8.24,3.69-8.24,8.24s3.69,8.24,8.24,8.24,8.24-3.69,8.24-8.24-3.69-8.24-8.24-8.24h0ZM152.68,339.05c-4.55,0-8.24,3.69-8.24,8.24s3.69,8.24,8.24,8.24,8.24-3.69,8.24-8.24-3.69-8.24-8.24-8.24h0ZM139.69,453.29c-7.19-4.39-11.99-12.3-11.99-21.33,0-13.78,11.19-24.97,24.97-24.97s24.97,11.19,24.97,24.97c0,8.69-4.45,16.34-11.18,20.82l.88,49.76h518.09l-.02-169.61c-7.41-4.33-12.4-12.38-12.4-21.58,0-13.78,11.19-24.97,24.97-24.97s24.97,11.19,24.97,24.97c0,8.51-4.26,16.03-10.77,20.54l.02,184.03c0,3.55-1.41,6.96-3.92,9.47-2.51,2.51-5.92,3.92-9.47,3.92H154.2c-7.3,0-13.26-5.85-13.39-13.15l-1.12-62.88h0ZM698,303.12c-4.55,0-8.24,3.69-8.24,8.24s3.69,8.24,8.24,8.24,8.24-3.69,8.24-8.24-3.69-8.24-8.24-8.24h0ZM152.68,423.72c-4.55,0-8.24,3.69-8.24,8.24s3.69,8.24,8.24,8.24,8.24-3.69,8.24-8.24-3.69-8.24-8.24-8.24h0ZM221.5,104.62c-1.39.24-2.82.36-4.27.36-13.78,0-24.97-11.19-24.97-24.97s11.19-24.97,24.97-24.97,24.97,11.19,24.97,24.97c0,2.28-.31,4.49-.88,6.59l38.07,43.66h38.45l40.42-48.46c2.67-3.2,6.68-4.98,10.85-4.8,4.17.18,8.01,2.29,10.41,5.7l72.08,103.07c.45-.02.9-.04,1.35-.04,13.78,0,24.97,11.19,24.97,24.97s-11.19,24.97-24.97,24.97-24.97-11.19-24.97-24.97c0-3.32.65-6.48,1.82-9.38l-62.19-88.93-33.22,39.83c-2.54,3.05-6.31,4.81-10.28,4.81h-50.81c-3.87,0-7.55-1.67-10.09-4.59l-41.7-47.83h0ZM452.94,202.48c-4.55,0-8.24,3.69-8.24,8.24s3.69,8.24,8.24,8.24,8.24-3.69,8.24-8.24-3.69-8.24-8.24-8.24h0ZM217.22,71.78c-4.55,0-8.24,3.69-8.24,8.24s3.69,8.24,8.24,8.24,8.24-3.69,8.24-8.24-3.69-8.24-8.24-8.24h0Z" />
    </g>
    <g id="bugle">
        <path class="cls-1"
            d="M137.99,693.21h-3.74c-.44-.24-1.11-.16-1.77-.25-5.66-.75-11.09-2-16.58-3.97-11.15-30.63-25.79-59.5-41.84-87.99-10.83,3.67-21.55,1.27-31.18-4.3-10.91-6.33-20.22-17.01-26.69-27.78-11.3-18.81-17.41-41.52-15.98-63.47,1.2-18.41,8.88-39.32,28.11-45.4,43.3-2.38,83.3-19.9,118.32-44.75,11.63-8.25,22.69-17.14,33.26-26.71,9.85-8.92,19.44-18.02,28.29-27.88,3.97-4.42,7.59-8.65,12.47-12.1,16.46-11.62,35.73-12.1,53.95-4.31,15.85,6.78,30.06,19.21,40.9,32.5,6.56,8.05,12.27,16.67,17.18,25.86,15.98,29.88,24.94,66.21,22.1,100.1-1.89,22.5-9.54,47.13-27.3,62.09-14.32,12.06-32.84,14.83-50.64,9.18-33.04-1.92-66.09-.95-98.98,3.1-11.5,1.42-22.9,3.15-34.24,5.39-.75,14.46-.38,28.64.87,42.97,1.6,18.42,4.19,36.51,7.52,54.67-2.28,5.86-9.26,9.66-14,13.04ZM276.15,564.49c16.49,6.32,33.79,4.39,46.96-7.51,13.95-12.61,20.31-32.61,22.41-50.85,2.71-23.64-1.02-48.54-8.54-71.04-4.29-12.82-9.9-25.02-16.9-36.51-.43-.71-.95-1.06-1.53-1.57-5.31-4.62-10.56-9.04-16.32-13.13-8.54-6.07-17.97-11.54-28.12-14.32-18.39-5.03-32.49,2.05-40.42,19-5.22,11.12-6.94,24.03-7.31,36.17l60.45-3.63c9.25-2.29,18.11,3.88,23.37,11,6.47,8.77,9.97,19.53,9.61,30.46-.29,8.98-3.93,18.87-12.92,22.24l-71.68,47.16c10.58,13.62,24.88,26.33,40.96,32.51ZM143.22,573.39c10.27-1.89,20.23-3.61,30.48-4.9,27.52-3.45,54.85-4.65,82.98-4.15-6.72-4.66-12.59-9.49-18.12-15.18-7.95-8.06-14.75-17.06-20.75-26.72-13.61-22.33-22.55-47.28-26.21-73.2-2.82-20.99-2.22-42.07,3.87-62.67-8.99,8.43-17.9,16.34-27.41,23.89-23.27,18.49-48.51,34.19-76.4,44.79-20.69,22.54-24.02,56.41-12.34,84.05,8.08,18.65,22.85,33.59,42.85,38.47,7.09-1.68,13.8-3.06,21.05-4.39ZM303.36,456.6c-1.29-9.42-4.88-17.73-8.84-26.33-3.22-1.55-6.95-.84-9.23,2-1.12,1.4-1.98,3.02-2.51,4.77-2.98,9.75.07,21.54,5.47,29.94,1.89,2.94,4.15,5.35,6.96,7.37,7.55-3.16,8.93-10.32,8.16-17.76ZM284.38,476.63c-10.15-11.69-15.45-31.36-8.63-46.03l-76.4,4.62c.86,15.14,3.92,29.51,8.4,43.68,1.03,3.25,2.03,6.2,3.26,9.32,6.43.91,12.53.94,18.96.5,18.59-1.5,36.78-6.49,54.4-12.1Z" />
        <path class="cls-2"
            d="M143.22,573.39c-7.25,1.33-13.96,2.71-21.05,4.39-20-4.88-34.77-19.82-42.85-38.47-11.68-27.65-8.35-61.51,12.34-84.05,27.9-10.61,53.13-26.3,76.4-44.79,9.51-7.56,18.43-15.46,27.41-23.89-6.09,20.61-6.68,41.68-3.87,62.67,3.66,25.91,12.6,50.87,26.21,73.2,5.99,9.65,12.8,18.65,20.75,26.72,5.53,5.69,11.4,10.52,18.12,15.18-28.13-.51-55.46.69-82.98,4.15-10.25,1.29-20.21,3.01-30.48,4.9Z" />
        <path class="cls-2"
            d="M276.15,564.49c-16.07-6.18-30.38-18.9-40.96-32.51l71.68-47.16c8.99-3.37,12.62-13.26,12.92-22.24.36-10.93-3.14-21.69-9.61-30.46-5.26-7.12-14.12-13.29-23.37-11l-60.45,3.63c.37-12.14,2.1-25.04,7.31-36.17,7.92-16.95,22.03-24.03,40.42-19,10.15,2.78,19.58,8.25,28.12,14.32,5.76,4.09,11.01,8.51,16.32,13.13.58.51,1.1.86,1.53,1.57,7,11.49,12.61,23.69,16.9,36.51,7.52,22.5,11.25,47.4,8.54,71.04-2.09,18.24-8.45,38.24-22.41,50.85-13.17,11.9-30.47,13.83-46.96,7.51Z" />
        <path class="cls-2"
            d="M284.38,476.63c-17.62,5.6-35.81,10.6-54.4,12.1-6.42.45-12.53.41-18.96-.5-1.24-3.12-2.24-6.07-3.26-9.32-4.49-14.17-7.54-28.55-8.4-43.68l76.4-4.62c-6.83,14.67-1.53,34.33,8.63,46.03Z" />
        <path class="cls-2"
            d="M303.36,456.6c.77,7.45-.61,14.6-8.16,17.76-2.8-2.03-5.07-4.43-6.96-7.37-5.4-8.4-8.45-20.2-5.47-29.94.54-1.76,1.39-3.38,2.51-4.77,2.28-2.84,6.01-3.55,9.23-2,3.96,8.6,7.55,16.9,8.84,26.33Z" />
    </g>
    <g id="Layer_2">
        <g id="starfish">
            <path class="cls-1"
                d="M676.83,25c12.62-.95,12.84,24.12,13.5,32.82,1.4,18.64.05,38.96,2.34,57.34,2.48,19.88,10.24,19.22,28.23,18.5,21.97-.88,54.09-10.06,73.81-8.79,6.29.4,12.17,3.28,10.41,10.63-4.47,18.64-68.53,38.38-84.75,47.5-12.01,6.76-10.64,12.49-7.34,24.59,8.41,30.86,48.02,56.35,47.59,69.18-.24,7.03-5.01,11.39-12.09,9.85-18.91-4.1-54.16-24.77-81.59-60.22-7.63-9.86-15.66-11.83-24.16-2.89-15.45,16.25-65.25,45.66-86.17,48.85-9.27,1.41-14.24-3.94-12.03-13.12,3.03-12.55,47.78-40.78,55.91-61.66,4.22-10.82,11.84-17.57,2.33-27.48-16.46-17.15-62.75-40.12-71.2-62.69-3.45-9.21,1.39-14.3,10.9-12.67,19.39,3.31,48.96,19.96,70.03,25.98,18.04,5.16,24.88,7.45,32.22-11.66,6.45-16.79,9.81-36.07,15.18-53.33,2.15-6.9,8.42-30.09,16.88-30.72Z" />
        </g>
    </g>
</svg>
