<?xml version="1.0" encoding="UTF-8"?><svg id="Layer_1" xmlns="http://www.w3.org/2000/svg" viewBox="0 0 1417.32 1417.32"><defs><style>.cls-1{fill-rule:evenodd;}.cls-1,.cls-2{fill:#fff;}.cls-3{fill:#59c097;}.cls-4{letter-spacing:.06em;}.cls-4,.cls-5,.cls-6{isolation:isolate;}.cls-4,.cls-6{fill:#231f20;font-family:ArialRoundedMTBold, 'Arial Rounded MT Bold';font-size:72px;}.cls-7{fill:#a3d8c3;}</style></defs><g id="Layer_3"><circle id="ROUND_background" class="cls-3" cx="708.66" cy="708.66" r="708.66"/></g><g id="Starfish"><path class="cls-7" d="M1398.31,870.57c-29.48,120.87-70.42,182.97-70.42,182.97l-443.31-708.1L244.2,1243.91s-55.1-33.72-127-143.71c-68.94-105.46-85.49-181.79-85.49-181.79L811.28,269.61,438.91,53.15s46.66-20.4,109.35-35.07c52.88-12.38,102.63-15.76,102.63-15.76l209.49,168.87-3.06-155.57s30.25,6.27,69.24,18.6c34.26,10.84,65.34,24.64,65.34,24.64l-31.35,126.22,125.11-76.6s21.68,11.96,64.7,46.15c47.32,37.6,58.13,51.66,58.13,51.66l-213.89,81.56,421.57,385.16s6.3,98.58-17.85,197.56h0Z"/><g id="Generative_Object"><path class="cls-2" d="M913.51,123.09c11.27-.85,11.47,21.53,12.05,29.31,1.25,16.65.04,34.78,2.09,51.19,2.21,17.75,9.14,17.16,25.21,16.52,19.61-.79,48.29-8.98,65.9-7.85,5.62.36,10.87,2.93,9.29,9.49-3.99,16.64-61.19,34.26-75.67,42.41-10.72,6.03-9.5,11.15-6.56,21.95,7.51,27.55,42.87,50.31,42.49,61.77-.21,6.28-4.47,10.17-10.8,8.8-16.89-3.66-48.36-22.12-72.85-53.77-6.81-8.81-13.98-10.56-21.57-2.58-13.79,14.51-58.26,40.77-76.93,43.62-8.27,1.26-12.71-3.52-10.74-11.71,2.7-11.2,42.66-36.41,49.92-55.05,3.76-9.66,10.57-15.68,2.08-24.54-14.69-15.32-56.02-35.83-63.57-55.98-3.08-8.23,1.24-12.77,9.73-11.32,17.31,2.96,43.71,17.82,62.53,23.2,16.11,4.61,22.22,6.65,28.77-10.41,5.76-14.99,8.76-32.2,13.55-47.61,1.92-6.16,7.51-26.86,15.07-27.43h0Z"/></g></g><g id="Text"><g class="cls-5"><text class="cls-4" transform="translate(383.36 1236.4)"><tspan x="0" y="0">elbside</tspan></text><text class="cls-6" transform="translate(665.2 1236.4)"><tspan x="0" y="0">s</tspan></text><text class="cls-4" transform="translate(704.67 1236.4)"><tspan x="0" y="0">.eu/2026</tspan></text></g></g><g id="Layer_1-2"><path class="cls-1" d="M1034.8,1134.4H384.17c-7.8,0-14.12-6.32-14.12-14.12v-160.44c0-7.8,6.32-14.12,14.12-14.12h650.63c7.8,0,14.12,6.32,14.12,14.12v160.44c0,7.8-6.32,14.12-14.12,14.12h0ZM858,998.71c3.88,0,6.77-.86,8.66-2.58,1.89-1.72,2.83-4.01,2.83-6.85s-.94-5.05-2.83-6.77c-1.89-1.72-4.77-2.58-8.66-2.58h-64.33c-3.45,0-6.28.51-8.49,1.52-2.21,1.01-3.84,2.62-4.88,4.84-1.04,2.21-1.56,5.07-1.56,8.57v90.42c0,5.25,1.16,9.05,3.49,11.4s6.14,3.53,11.45,3.53h66.22c3.83,0,6.71-.89,8.66-2.67,1.94-1.78,2.91-4.09,2.91-6.93s-.97-5.32-2.91-7.1-4.83-2.67-8.66-2.67h-56.78v-34.22h50.55c3.77,0,6.56-.86,8.37-2.58,1.8-1.72,2.71-3.95,2.71-6.69s-.92-4.94-2.75-6.6c-1.83-1.67-4.61-2.5-8.33-2.5h-50.55v-29.54h54.9-.02ZM1006.59,1064.1c0-6.07-1.08-11.2-3.24-15.38s-5.17-7.65-9.03-10.38c-3.86-2.74-8.53-5.06-14.03-6.97-5.5-1.92-11.64-3.67-18.42-5.25-5.42-1.37-9.3-2.41-11.65-3.12-2.35-.71-4.68-1.7-6.98-2.95-2.3-1.26-4.1-2.76-5.41-4.51s-1.97-3.83-1.97-6.24c0-3.88,1.93-7.21,5.78-9.97,3.86-2.76,8.93-4.14,15.22-4.14,6.78,0,11.71,1.27,14.77,3.82,3.06,2.54,5.69,6.09,7.88,10.62,1.7,3.17,3.27,5.46,4.72,6.85,1.45,1.39,3.57,2.09,6.36,2.09,3.06,0,5.62-1.16,7.67-3.49s3.08-4.94,3.08-7.84c0-3.17-.82-6.43-2.46-9.76-1.64-3.34-4.24-6.52-7.8-9.56s-8.03-5.47-13.42-7.3c-5.39-1.83-11.78-2.75-19.16-2.75-9.24,0-17.29,1.38-24.12,4.14-6.84,2.76-12.06,6.71-15.67,11.86-3.61,5.14-5.41,11.02-5.41,17.64,0,6.95,1.71,12.76,5.13,17.44s8.04,8.37,13.87,11.08,13.06,5.07,21.7,7.1c6.46,1.48,11.61,2.87,15.47,4.18s7,3.21,9.44,5.7c2.43,2.49,3.65,5.73,3.65,9.72,0,5.03-2.26,9.23-6.77,12.6-4.51,3.36-10.38,5.05-17.6,5.05-5.25,0-9.49-.83-12.72-2.5s-5.73-3.79-7.51-6.36-3.43-5.77-4.96-9.6c-1.26-3.23-2.78-5.66-4.55-7.3-1.78-1.64-3.95-2.46-6.52-2.46-3.17,0-5.78,1.05-7.84,3.16-2.05,2.11-3.08,4.64-3.08,7.59,0,5.09,1.71,10.32,5.13,15.71s7.86,9.69,13.33,12.92c7.71,4.48,17.51,6.73,29.38,6.73,9.9,0,18.46-1.64,25.68-4.92s12.71-7.82,16.45-13.62c3.75-5.8,5.62-12.33,5.62-19.61h0v-.02ZM645.08,979.92c-5.25,0-9.05,1.18-11.41,3.53-2.35,2.35-3.53,6.15-3.53,11.41v88.2c0,3.88.34,7.04,1.03,9.48.68,2.43,2.15,4.32,4.39,5.66,2.24,1.34,5.58,2.01,10.01,2.01h31.76c5.53,0,10.49-.36,14.89-1.07s8.52-1.94,12.35-3.69c3.83-1.75,7.36-4.08,10.58-6.98,4.1-3.77,7.47-8.05,10.09-12.84,2.63-4.79,4.57-10.16,5.83-16.12s1.89-12.55,1.89-19.77c0-21.88-6.26-38.18-18.79-48.9-4.81-4.21-10.18-7.08-16.08-8.62-5.91-1.53-12.99-2.3-21.25-2.3h-31.76ZM654.51,999.2h16.08c7.44,0,13.79.81,19.04,2.42s9.67,5.38,13.25,11.28c3.58,5.91,5.37,14.8,5.37,26.67,0,16.85-4.07,28.72-12.23,35.61-1.81,1.59-3.94,2.82-6.4,3.69-2.46.88-4.84,1.42-7.14,1.64s-5.47.33-9.52.33h-18.46v-81.64h.01ZM554.01,1087.4c0,4.92,1.13,8.63,3.4,11.12s5.16,3.73,8.66,3.73,6.63-1.23,8.9-3.69,3.4-6.18,3.4-11.16v-94.77c0-4.98-1.13-8.68-3.4-11.12-2.27-2.43-5.24-3.65-8.9-3.65s-6.46,1.23-8.7,3.69-3.36,6.15-3.36,11.08v94.77h0ZM507.98,1064.1c0-6.07-1.08-11.2-3.24-15.38s-5.17-7.65-9.03-10.38c-3.86-2.74-8.53-5.06-14.03-6.97-5.5-1.92-11.64-3.67-18.42-5.25-5.42-1.37-9.3-2.41-11.65-3.12s-4.68-1.7-6.98-2.95c-2.3-1.26-4.1-2.76-5.42-4.51-1.31-1.75-1.97-3.83-1.97-6.24,0-3.88,1.93-7.21,5.79-9.97,3.86-2.76,8.93-4.14,15.22-4.14,6.78,0,11.71,1.27,14.77,3.82,3.06,2.54,5.69,6.09,7.88,10.62,1.7,3.17,3.27,5.46,4.72,6.85,1.45,1.39,3.57,2.09,6.36,2.09,3.06,0,5.62-1.16,7.67-3.49,2.05-2.33,3.08-4.94,3.08-7.84,0-3.17-.82-6.43-2.46-9.76-1.64-3.34-4.24-6.52-7.79-9.56-3.56-3.04-8.03-5.47-13.42-7.3s-11.78-2.75-19.16-2.75c-9.25,0-17.29,1.38-24.12,4.14-6.84,2.76-12.06,6.71-15.67,11.86-3.61,5.14-5.42,11.02-5.42,17.64,0,6.95,1.71,12.76,5.13,17.44s8.04,8.37,13.87,11.08,13.06,5.07,21.7,7.1c6.45,1.48,11.61,2.87,15.47,4.18,3.86,1.31,7,3.21,9.44,5.7,2.43,2.49,3.65,5.73,3.65,9.72,0,5.03-2.26,9.23-6.77,12.6-4.51,3.36-10.38,5.05-17.6,5.05-5.25,0-9.49-.83-12.72-2.5s-5.73-3.79-7.51-6.36-3.43-5.77-4.96-9.6c-1.26-3.23-2.78-5.66-4.55-7.3-1.78-1.64-3.95-2.46-6.52-2.46-3.17,0-5.78,1.05-7.84,3.16-2.05,2.11-3.08,4.64-3.08,7.59,0,5.09,1.71,10.32,5.13,15.71s7.86,9.69,13.33,12.92c7.71,4.48,17.51,6.73,29.38,6.73,9.9,0,18.46-1.64,25.68-4.92s12.7-7.82,16.45-13.62,5.62-12.33,5.62-19.61h0v-.02ZM965.47,691.84v145.7c0,7.73-6.26,13.99-13.99,13.99h-129.52c-7.73,0-13.99-6.26-13.99-13.99v-145.7c0-7.73,6.26-13.99,13.99-13.99h129.52c7.73,0,13.99,6.26,13.99,13.99h0ZM889.58,823.46c5.98,0,11.22-.31,15.7-.92,4.49-.61,8.46-1.67,11.91-3.17,5.52-2.51,9.9-6.4,13.15-11.67,3.25-5.26,4.87-11.18,4.87-17.76,0-14.22-7.45-23.79-22.36-28.7,11.35-5.45,17.02-14.06,17.02-25.82,0-3.42-.54-6.67-1.62-9.74s-2.66-5.88-4.72-8.42-4.44-4.64-7.12-6.29c-3.15-1.98-6.71-3.31-10.68-4.01s-8.66-1.04-14.08-1.04h-36.74c-4.9,0-8.44,1.14-10.64,3.41-2.19,2.27-3.29,6-3.29,11.18v88.36c0,5.08,1.07,8.78,3.21,11.1,2.14,2.33,5.71,3.49,10.71,3.49h34.68ZM887.88,771.27c7.99,0,14,1.34,18.03,4.01,4.02,2.67,6.03,6.98,6.03,12.91,0,11.6-7.76,17.4-23.29,17.4h-24.68v-34.32h23.91ZM863.98,723.8h18.64c8.36,0,14.57.98,18.64,2.93,4.08,1.95,6.11,5.89,6.11,11.83,0,2.78-.64,5.29-1.93,7.54-1.65,3.15-4.04,5.29-7.16,6.41s-7.54,1.68-13.27,1.68h-21.04v-30.39h0ZM786.96,691.84v145.7c0,7.73-6.26,13.99-13.99,13.99h-129.52c-7.73,0-13.99-6.26-13.99-13.99v-145.7c0-7.73,6.26-13.99,13.99-13.99h129.52c7.73,0,13.99,6.26,13.99,13.99h0ZM690.65,719.35c0-4.86-1.07-8.48-3.21-10.86s-4.94-3.57-8.39-3.57-6.15,1.2-8.24,3.61c-2.09,2.41-3.13,6.01-3.13,10.82v90.52c0,5.13,1.1,8.85,3.29,11.15,2.19,2.3,5.79,3.45,10.79,3.45h55.47c3.77,0,6.63-.89,8.59-2.69,1.96-1.79,2.94-4.13,2.94-7.02s-.99-5.18-2.98-7.06c-1.98-1.87-4.83-2.81-8.55-2.81h-46.57v-85.55h-.01ZM608.45,691.84v145.7c0,7.73-6.26,13.99-13.99,13.99h-129.52c-7.73,0-13.99-6.26-13.99-13.99v-145.7c0-7.73,6.26-13.99,13.99-13.99h129.52c7.73,0,13.99,6.26,13.99,13.99h0ZM560.72,724.28c3.66,0,6.38-.84,8.16-2.53,1.78-1.68,2.67-3.92,2.67-6.7s-.89-4.93-2.67-6.61c-1.78-1.68-4.5-2.53-8.16-2.53h-60.65c-3.25,0-5.92.5-8.01,1.48-2.09.99-3.62,2.57-4.6,4.73-.98,2.17-1.47,4.96-1.47,8.38v88.36c0,5.13,1.1,8.85,3.29,11.15,2.19,2.3,5.79,3.45,10.79,3.45h62.43c3.61,0,6.33-.87,8.16-2.61,1.83-1.74,2.75-3.99,2.75-6.77s-.92-5.2-2.75-6.93c-1.83-1.74-4.55-2.61-8.16-2.61h-53.53v-33.43h47.65c3.56,0,6.19-.84,7.89-2.53,1.7-1.68,2.55-3.86,2.55-6.53s-.86-4.82-2.59-6.46c-1.73-1.63-4.35-2.45-7.85-2.45h-47.65v-28.86h51.75ZM485,543.67c-5.36,7.82-14.36,12.96-24.55,12.96-16.41,0-29.73-13.32-29.73-29.73s13.32-29.73,29.73-29.73c10.89,0,20.42,5.87,25.6,14.61l151.87-.85c4.9-.03,9.54,2.2,12.58,6.04l61.64,77.77,59.66.42,64-99.82c2.81-4.38,7.58-7.11,12.78-7.32,5.2-.21,10.17,2.13,13.33,6.27l64.01,84.06h40.19l38.27-34.83c-.84-2.75-1.29-5.66-1.29-8.68,0-16.41,13.32-29.73,29.73-29.73s29.73,13.32,29.73,29.73-13.32,29.73-29.73,29.73c-1.33,0-2.64-.09-3.92-.26l-45.89,41.77c-2.93,2.67-6.76,4.15-10.73,4.15h-54.25c-4.98,0-9.67-2.32-12.68-6.28l-54.99-72.21-56.44,88.03c-2.95,4.61-8.06,7.37-13.53,7.34l-76.09-.54c-4.83-.03-9.38-2.26-12.38-6.04l-61.56-77.68-145.34.81h-.02ZM1032.81,525.04c-5.41,0-9.81,4.39-9.81,9.81s4.39,9.8,9.81,9.8,9.81-4.39,9.81-9.8-4.39-9.81-9.81-9.81h0ZM460.45,517.09c-5.41,0-9.81,4.39-9.81,9.8s4.39,9.81,9.81,9.81,9.81-4.39,9.81-9.81-4.39-9.8-9.81-9.8h0ZM367.75,338.87c-8.33-5.27-13.87-14.57-13.87-25.15,0-16.41,13.32-29.73,29.73-29.73s29.73,13.32,29.73,29.73c0,10.51-5.47,19.76-13.71,25.04l-.16,333.52c8.33,5.27,13.87,14.57,13.87,25.15,0,16.41-13.32,29.73-29.73,29.73s-29.73-13.32-29.73-29.73c0-10.51,5.47-19.76,13.71-25.04l.16-333.52h0ZM383.61,303.91c-5.41,0-9.81,4.39-9.81,9.8s4.39,9.81,9.81,9.81,9.81-4.39,9.81-9.81-4.39-9.8-9.81-9.8h0ZM383.61,687.63c-5.41,0-9.81,4.39-9.81,9.81s4.39,9.8,9.81,9.8,9.81-4.39,9.81-9.8-4.39-9.81-9.81-9.81h0ZM368.15,823.62c-8.56-5.22-14.27-14.65-14.27-25.39,0-16.41,13.32-29.73,29.73-29.73s29.73,13.32,29.73,29.73c0,10.34-5.29,19.46-13.32,24.79l1.05,59.24h616.78l-.02-201.91c-8.83-5.16-14.76-14.73-14.76-25.69,0-16.41,13.32-29.73,29.73-29.73s29.73,13.32,29.73,29.73c0,10.13-5.08,19.08-12.82,24.45l.02,219.09c0,4.23-1.68,8.28-4.67,11.27s-7.04,4.67-11.27,4.67H385.42c-8.69,0-15.78-6.96-15.94-15.66l-1.33-74.86h0ZM1032.81,644.85c-5.41,0-9.81,4.39-9.81,9.8s4.39,9.81,9.81,9.81,9.81-4.39,9.81-9.81-4.39-9.8-9.81-9.8h0ZM383.61,788.42c-5.41,0-9.81,4.39-9.81,9.81s4.39,9.81,9.81,9.81,9.81-4.39,9.81-9.81-4.39-9.81-9.81-9.81h0ZM465.54,408.54c-1.65.29-3.35.43-5.09.43-16.41,0-29.73-13.32-29.73-29.73s13.32-29.73,29.73-29.73,29.73,13.32,29.73,29.73c0,2.72-.37,5.35-1.05,7.85l45.32,51.98h45.77l48.12-57.69c3.18-3.81,7.96-5.93,12.92-5.72,4.96.21,9.54,2.72,12.39,6.79l85.81,122.7c.53-.03,1.07-.04,1.61-.04,16.41,0,29.73,13.32,29.73,29.73s-13.32,29.73-29.73,29.73-29.73-13.32-29.73-29.73c0-3.95.77-7.72,2.17-11.17l-74.03-105.87-39.54,47.41c-3.03,3.63-7.51,5.73-12.24,5.73h-60.49c-4.61,0-8.99-1.99-12.01-5.47l-49.65-56.94h-.01ZM741.07,525.04c-5.41,0-9.81,4.39-9.81,9.81s4.39,9.8,9.81,9.8,9.81-4.39,9.81-9.8-4.39-9.81-9.81-9.81h0ZM460.45,369.44c-5.41,0-9.81,4.39-9.81,9.8s4.39,9.81,9.81,9.81,9.81-4.39,9.81-9.81-4.39-9.8-9.81-9.8h0Z"/></g></svg>