<?xml version="1.0" encoding="UTF-8"?><svg id="Lager_1" xmlns="http://www.w3.org/2000/svg" viewBox="0 0 360.25 218.03"><defs><style>.cls-1{fill:#ffd101;stroke-width:0px;}</style></defs><rect class="cls-1" x="260.1" y="24.93" width="17.59" height="47.83" transform="translate(-.23 1.3) rotate(-.28)"/><rect class="cls-1" x="282.11" y="58.49" width="37.46" height="17.59" transform="translate(41.34 233.69) rotate(-45.28)"/><rect class="cls-1" x="228.23" y="48.55" width="17.59" height="37.46" transform="translate(21.27 186.27) rotate(-44.72)"/><rect class="cls-1" x="295.32" y="90.43" width="23.47" height="17.59" transform="translate(-.48 1.49) rotate(-.28)"/><rect class="cls-1" x="39.98" y="90.77" width="17.68" height="100.64"/><path class="cls-1" d="m120.65,148.14h26.9v21.28c-6.18,4.6-14.81,7.62-24.3,7.62-20.56,0-34.22-15.24-34.22-35.94v-.29c0-19.27,14.09-35.51,32.64-35.51,12.8,0,20.42,4.17,28.18,10.78l11.21-13.37c-10.35-8.77-21.13-13.66-38.67-13.66-30.34,0-51.9,23.87-51.9,52.05v.29c0,29.33,20.7,51.76,52.19,51.76,17.83,0,32.06-7.19,41.98-15.67v-44.71h-41.68l-2.34,15.38Z"/><polygon class="cls-1" points="199.6 148.57 238.38 148.57 238.38 132.76 199.6 132.76 199.6 106.59 242.51 106.59 242.51 90.77 181.92 90.77 181.92 191.41 247.06 191.41 247.06 175.6 199.6 175.6 199.6 148.57"/><polygon class="cls-1" points="277.6 90.77 259.92 90.77 259.92 191.41 318.79 191.41 318.79 175.31 277.6 175.31 277.6 90.77"/></svg>