<?xml version="1.0" encoding="UTF-8"?><svg id="Logo" xmlns="http://www.w3.org/2000/svg" viewBox="0 0 283.47 41.59"><defs><style>.cls-1{fill:#c00;}</style></defs><g id="JH"><path d="M27.27,31.4c-.39,1.34-.67,2.75-.67,3.82,0,3.93,3.03,6.37,9.29,6.37,8.3,0,11.45-3.03,13.34-9.44l5.43-18.49h-7.71l-5.43,18.33c-.59,2.05-1.77,2.91-4.21,2.91-2.24,0-3.03-1.1-2.48-2.95l5.39-18.3h-7.71l-5.23,17.75Z"/><polygon points="131.19 41.2 149.37 41.2 151.33 34.7 140.79 34.7 142.01 30.53 151.25 30.53 153.14 24.2 143.9 24.2 145.15 19.95 155.7 19.95 157.55 13.65 139.33 13.65 131.19 41.2"/><path d="M250.37,13.26c-7.51,0-13.1.87-16.8,14.76-.63,2.36-1.02,4.49-1.02,6.33,0,4.45,2.36,7.24,9.96,7.24,1.93,0,4.41-.28,6.14-.87l1.89-6.37s-2.01.51-5.19.51c-3.5,0-4.45-1.1-4.45-2.87,0-1.06.31-2.32.67-3.74,1.89-7.36,3.97-8.19,7.79-8.19,3.19,0,5.04.51,5.04.51l1.97-6.57c-1.1-.35-4.05-.75-5.98-.75Z"/><path d="M1.26,41c1.06.28,3.82.59,5.98.59,9.84,0,13.77-2.67,16.01-10.19l5.27-17.75h-7.71l-4.64,15.82c-.16.51-.43,1.54-.87,2.32-1.26,2.28-3.78,2.91-6.69,2.91s-5.35-.35-5.35-.35l-2.01,6.65Z"/><path d="M192.88,41.2h7.63l2.71-9.25h2.09l2.28,9.25h8.26l-3.07-10.47c2.32-.67,4.96-1.5,6.77-7.63.47-1.61.67-3.3.67-4.17,0-3.34-1.97-5.27-6.89-5.27h-12.32l-8.14,27.54ZM204.93,26.17l1.81-6.22h3.46c1.34,0,2.01.67,2.01,1.77,0,2.56-1.26,4.45-3.9,4.45h-3.38Z"/><path d="M103.84,25.34h-10.31l-1.57,5.08h3.27l-1.3,4.37s-1.1.2-2.36.2c-2.79,0-3.23-1.22-3.23-2.99,0-1.06.28-2.36.63-3.78,1.89-7.36,4.09-8.3,7.91-8.3s7.12.79,7.12.79l2.01-6.41c-1.1-.35-4.64-1.02-8.1-1.02-7.52,0-13.14.83-16.84,14.72-.63,2.36-.91,4.45-.91,6.3,0,4.45,2.6,7.32,10.07,7.32,3.62,0,7.44-.59,9.17-1.18l4.45-15.07Z"/><polygon points="161.6 13.65 169.31 13.65 161.17 41.2 153.46 41.2 161.6 13.65"/><path d="M59.06,13.65h6.45l4.01,14.68h.12s.63-2.4,1.22-4.45l3.03-10.23h7.59l-8.14,27.54h-6.45l-4.09-14.48h-.12s-.55,2.24-1.22,4.53l-2.95,9.95h-7.59l8.15-27.54Z"/><path d="M173.88,13.65h6.45l4.01,14.68h.12s.63-2.4,1.22-4.45l3.03-10.23h7.59l-8.15,27.54h-6.45l-4.09-14.48h-.12s-.55,2.24-1.22,4.53l-2.95,9.95h-7.59l8.14-27.54Z"/><polygon points="226.29 13.65 234 13.65 225.86 41.2 218.15 41.2 226.29 13.65"/><polygon points="111.55 13.65 119.26 13.65 116.08 24.36 123.63 24.36 126.82 13.65 134.53 13.65 126.39 41.2 118.67 41.2 121.78 30.69 114.23 30.69 111.12 41.2 103.41 41.2 111.55 13.65"/><polygon points="260.48 13.65 268.2 13.65 265.01 24.36 272.56 24.36 275.75 13.65 283.47 13.65 275.32 41.2 267.61 41.2 270.71 30.69 263.16 30.69 260.05 41.2 252.34 41.2 260.48 13.65"/><path class="cls-1" d="M29.63,11.29L17.86,0,0,11.29h10.11l-6.1,20.54s2.05.31,4.84.31c2.2,0,3.46-.67,4.05-1.69.31-.55.43-.83.71-1.77l5.23-17.39h10.78Z"/></g></svg>