<?xml version="1.0" encoding="UTF-8" standalone="no"?>
<!-- Created with Inkscape (http://www.inkscape.org/) -->

<svg
   version="1.1"
   id="svg2"
   width="1520.0859"
   height="328"
   viewBox="0 0 1520.0859 328"
   sodipodi:docname="logo-fullcyrcle-horizontal-2lines.pdf"
   xmlns:inkscape="http://www.inkscape.org/namespaces/inkscape"
   xmlns:sodipodi="http://sodipodi.sourceforge.net/DTD/sodipodi-0.dtd"
   xmlns="http://www.w3.org/2000/svg"
   xmlns:svg="http://www.w3.org/2000/svg">
  <defs
     id="defs6">
    <clipPath
       clipPathUnits="userSpaceOnUse"
       id="clipPath20">
      <path
         d="m 366,243 c 0,-67.93103 -55.06897,-123 -123,-123 -67.93103,0 -123,55.06897 -123,123 0,67.93103 55.06897,123 123,123 67.93103,0 123,-55.06897 123,-123 z"
         id="path18" />
    </clipPath>
  </defs>
  <sodipodi:namedview
     id="namedview4"
     pagecolor="#ffffff"
     bordercolor="#000000"
     borderopacity="0.25"
     inkscape:showpageshadow="2"
     inkscape:pageopacity="0.0"
     inkscape:pagecheckerboard="0"
     inkscape:deskcolor="#d1d1d1"
     showgrid="false" />
  <g
     id="g10"
     inkscape:groupmode="layer"
     inkscape:label="Page 1"
     transform="matrix(1.3333333,0,0,-1.3333333,-160,487.99998)">
    <g
       id="g12">
      <g
         id="g14">
        <g
           id="g16"
           clip-path="url(#clipPath20)">
          <g
             id="g22"
             transform="translate(120,120)">
            <path
               d="M 246,123 H 210 C 210,74.951233 171.04877,36 123,36 V 0 -36 c 87.81328,0 159,71.186722 159,159 z M 123,0 V 36 C 74.951225,36 36,74.951233 36,123 H 0 -36 C -36,35.186722 35.186726,-36 123,-36 Z M 0,123 h 36 c 0,48.04877 38.951225,87 87,87 v 36 36 C 35.186726,282 -36,210.81328 -36,123 Z m 123,123 v -36 c 48.04877,0 87,-38.95123 87,-87 h 36 36 c 0,87.81328 -71.18672,159 -159,159 z"
               style="fill:#19e194;fill-opacity:1;fill-rule:nonzero;stroke:none"
               id="path24" />
          </g>
        </g>
      </g>
    </g>
    <g
       id="g26"
       transform="translate(394,130.39453)">
      <path
         d="m 37.817383,93.210938 c 19.44104,-7.7e-5 33.555809,-9.587723 36.884765,-25.833008 L 53.130859,62.983398 c -1.597904,8.388993 -8.52267,12.517579 -15.580078,12.517579 -7.323475,-1.6e-5 -11.984102,-3.994889 -11.984375,-9.054688 0,-3.595215 1.598046,-6.258575 7.19043,-7.457031 l 18.509766,-4.12793 C 66.712654,51.399185 75.76741,43.009979 75.767578,28.895508 75.767578,9.853836 58.856247,1.5e-5 39.015625,0 18.908672,0 2.396855,9.587463 0,27.03125 l 22.636719,4.393555 c 2.263731,-9.187744 8.65567,-13.182572 17.577148,-13.182617 8.255837,0 13.182617,3.728973 13.182617,9.188476 -9.1e-5,3.994583 -1.864402,6.524887 -8.255859,7.856445 L 26.499023,39.28125 c -12.783228,2.929489 -23.968749,9.587662 -23.96875,25.833008 0,17.310623 14.381207,28.09668 35.28711,28.09668 z m 177.462887,0 c 23.83446,-6.2e-5 43.0799,-16.532349 46.86036,-38.713868 h -22.37696 c -3.11609,11.080658 -12.64825,18.6064 -24.4834,18.606446 -14.51428,0 -25.5664,-11.318589 -25.5664,-26.631836 1.8e-4,-15.179901 11.05223,-26.365235 25.5664,-26.365235 11.827,4.6e-5 21.35477,7.427292 24.47754,18.390625 H 262.1416 C 258.36447,16.429291 239.11768,6.1e-5 215.28027,0 c -26.63159,0 -47.53788,20.50592 -47.53808,46.47168 0,26.09909 20.90635,46.739258 47.53808,46.739258 z m 81.65039,-51 c 0,-13.582154 7.32349,-21.970704 18.50879,-21.970704 10.51947,4.6e-5 17.57715,8.388581 17.57715,21.970704 v 49.001953 h 21.9707 V 42.210938 C 354.9873,16.644531 339.14163,4.6e-5 315.43945,0 291.20459,0 274.95901,16.644501 274.95898,42.210938 v 49.001953 h 21.97168 z M 157.99121,72.304688 H 110.85254 V 55.526367 h 43.27637 V 37.683594 H 110.85254 V 20.905273 h 47.53808 V 1.99707 H 88.881836 v 89.215821 h 69.109374 z m 257.30273,18.908203 c 19.30784,-7.7e-5 32.09076,-11.717499 32.09083,-29.161133 0,-14.647431 -9.05445,-25.16745 -23.43555,-28.363281 L 451.91211,1.99707 h -28.3623 L 400.7793,32.624023 h -8.65528 V 1.99707 h -21.9707 V 91.212891 Z M 482.5,1.99707 H 460.5293 V 91.212891 H 482.5 Z m 90.04883,70.041016 H 543.65332 V 1.99707 h -21.83789 v 70.041016 h -28.89551 v 19.174805 h 79.62891 z m 49.49414,-19.973633 21.70508,39.148438 h 24.50097 L 632.96191,29.959961 V 1.99707 H 610.5918 v 27.697266 l -34.48828,61.518555 h 23.96875 z m -229.91895,-1.06543 h 20.77246 c 7.8563,0 12.91694,4.261429 12.917,10.786133 0,6.391617 -5.06064,10.652344 -12.917,10.652344 H 392.12402 Z M 107.08398,174.21094 c 2e-5,-13.58216 7.32446,-21.97071 18.50977,-21.97071 10.51933,1.9e-4 17.57616,8.38869 17.57617,21.97071 v 49.00195 h 21.97168 v -49.00195 c -1e-5,-25.56632 -15.84581,-42.21079 -39.54785,-42.21094 -24.23486,0 -40.480453,16.6445 -40.480469,42.21094 v 49.00195 h 21.970699 z m 271.40235,51 c 23.8345,0 43.07986,-16.53235 46.86035,-38.71387 h -22.37695 c -3.11612,11.08064 -12.64823,18.60645 -24.4834,18.60645 -14.51416,-1.4e-4 -25.56641,-11.3187 -25.56641,-26.63184 1.8e-4,-15.1798 11.05237,-26.3651 25.56641,-26.36524 11.82702,0 21.3547,7.42731 24.47754,18.39063 h 22.38476 C 421.57156,148.42921 402.32382,132 378.48633,132 c -26.63147,1.4e-4 -47.5369,20.50601 -47.53711,46.47168 0,26.099 20.90552,46.73912 47.53711,46.73926 z m 279.97168,0 c 23.83441,-9e-5 43.07989,-16.53237 46.86035,-38.71387 h -22.37793 c -3.11615,11.08051 -12.6474,18.60637 -24.48242,18.60645 -14.51428,0 -25.56641,-11.31859 -25.56641,-26.63184 1.9e-4,-15.1799 11.05225,-26.36524 25.56641,-26.36524 11.8269,8e-5 21.3537,7.42743 24.47656,18.39063 h 22.38477 C 701.54224,148.42932 682.29541,132.00009 658.45801,132 c -26.63159,0 -47.53791,20.50592 -47.53809,46.47168 0,26.09909 20.90637,46.73926 47.53809,46.73926 z M 74.772461,203.90527 H 27.767578 v -18.77539 h 41.811524 v -19.1748 H 27.767578 V 133.99707 H 5.796875 v 89.21582 h 68.975586 z m 127.505859,-50.7334 h 43.94238 v -19.1748 h -65.91406 v 89.21582 h 21.97168 z m 78.15234,0 h 43.94239 v -19.1748 h -65.91309 v 89.21582 h 21.9707 z m 189.60743,30.89258 21.70507,39.14844 h 24.50098 l -35.28711,-61.25293 v -27.96289 h -22.37012 v 27.69727 l -34.48828,61.51855 h 23.96875 z m 100.00976,39.14844 c 19.30792,-5e-5 32.09076,-11.71747 32.09082,-29.16113 0,-14.64745 -9.05438,-25.16748 -23.43555,-28.36328 l 27.9629,-31.69141 h -28.36231 l -22.77051,30.62695 h -8.65527 v -30.62695 h -21.9707 v 89.21582 z m 170.32617,-70.04102 h 43.94239 v -19.1748 h -65.91309 v 89.21582 h 21.9707 z m 125.29102,51.13282 h -47.1377 v -16.77832 h 43.27637 v -17.84278 h -43.27637 v -16.77832 h 47.53711 v -18.9082 h -69.50879 v 89.21582 h 69.10938 z M 546.87793,182.99902 h 20.77344 c 7.85601,1.7e-4 12.91595,4.26157 12.91601,10.78614 0,6.39148 -5.05993,10.65217 -12.91601,10.65234 h -20.77344 z"
         style="fill:#000000;fill-opacity:1;fill-rule:nonzero;stroke:none"
         id="path28" />
    </g>
  </g>
</svg>
