<svg width="247" height="60" viewBox="0 0 247 60" fill="none" xmlns="http://www.w3.org/2000/svg">
<path d="M91.737 12.0859C80.6434 12.0859 72.5869 20.0082 72.5869 30.9226V31.3325C72.5869 42.3941 80.4618 50.1216 91.737 50.1216C103.012 50.1216 110.781 42.3327 110.781 31.18V30.7701C110.781 19.7699 102.95 12.0859 91.737 12.0859ZM80.4093 30.8702C80.4093 22.9623 84.7501 18.0507 91.737 18.0507C98.7239 18.0507 103.016 23.0623 103.016 30.8178V31.2276C103.016 39.045 98.6325 44.0948 91.8421 44.0948C85.0517 44.0948 80.4093 38.8258 80.4093 31.2747V30.8649V30.8702Z" fill="#190634"/>
<path d="M145.586 10.6711C144.344 10.2851 143.37 10.1469 141.851 10.1469C135.872 10.1469 132.443 13.5388 132.443 19.4511V22.3808H121.999V19.1461C121.999 16.1355 123.795 15.5016 125.304 15.5016C126.474 15.5016 127.415 15.7828 128.021 15.9973C128.107 16.0306 128.207 16.0163 128.284 15.9639C128.36 15.9115 128.408 15.8257 128.408 15.7304V10.9379C128.408 10.814 128.327 10.7044 128.207 10.6663C126.966 10.2851 126.001 10.1469 124.521 10.1469C118.456 10.1469 115.118 13.453 115.118 19.4511V49.3215C115.118 49.4787 115.247 49.6027 115.409 49.6027H121.713C121.871 49.6027 122.005 49.474 122.005 49.3215V27.5884H132.449V49.3268C132.449 49.4841 132.578 49.608 132.74 49.608H139.044C139.201 49.608 139.335 49.4793 139.335 49.3268V27.5884H145.247C145.405 27.5884 145.539 27.4598 145.539 27.3073V22.6673C145.539 22.5101 145.41 22.3862 145.247 22.3862H139.335V19.2039C139.335 16.1932 141.131 15.5594 142.64 15.5594C143.881 15.5594 144.832 15.8025 145.41 16.0026C145.5 16.036 145.596 16.0217 145.672 15.9693C145.749 15.9168 145.797 15.8311 145.797 15.7357V10.9385C145.797 10.8146 145.715 10.705 145.596 10.6669L145.586 10.6717L145.586 10.6711Z" fill="#190634"/>
<path d="M164.143 27.3782C157.758 26.4727 156.679 25.0818 156.679 22.3046C156.679 19.5274 158.967 17.7981 162.796 17.7981C166.989 17.7981 169.052 19.3606 169.702 23.0195C169.726 23.1577 169.845 23.253 169.989 23.253H176.345C176.426 23.253 176.507 23.2196 176.56 23.1577C176.612 23.1005 176.641 23.0195 176.632 22.9384C175.892 15.8686 171.111 12.1336 162.797 12.1336C154.989 12.1336 149.535 16.5448 149.535 22.867C149.535 29.1891 153.284 32.5328 162.907 33.8005C169.344 34.8299 170.428 36.278 170.428 39.1267C170.428 42.3089 167.716 44.4529 163.685 44.4529C157.386 44.4529 156.116 41.3373 155.686 37.974C155.667 37.831 155.543 37.7262 155.4 37.7262H148.728C148.647 37.7262 148.57 37.7595 148.518 37.8167C148.465 37.8739 148.437 37.9502 148.441 38.0312C148.856 43.548 151.842 50.1222 163.685 50.1222C171.793 50.1222 177.677 45.263 177.677 38.5745C177.677 30.7666 172.5 28.5035 164.143 27.3836V27.3782Z" fill="#190634"/>
<path d="M204.487 25.0532C202.18 22.9378 199.009 21.8233 195.313 21.8233C187.166 21.8233 181.478 27.5974 181.478 35.8723V36.2822C181.478 44.5619 187.142 50.1263 195.576 50.1263C202.81 50.1263 207.471 46.8821 208.369 41.2223C208.383 41.1413 208.359 41.0556 208.302 40.9936C208.245 40.9316 208.168 40.8935 208.082 40.8935H201.984C201.845 40.8935 201.726 40.9936 201.698 41.127C201.239 43.676 199.228 44.9717 195.728 44.9717C191.378 44.9717 188.823 42.3661 188.527 37.635H208.178C208.336 37.635 208.47 37.5064 208.47 37.3539V35.5721C208.47 31.0227 207.128 27.4878 204.482 25.0627L204.487 25.0532ZM188.67 32.9373C189.363 29.0831 191.779 26.8772 195.313 26.8772C199.129 26.8772 201.249 28.9163 201.617 32.9373H188.67Z" fill="#190634"/>
<path d="M239.653 39.1927C239.596 39.1355 239.52 39.1021 239.443 39.1021H233.66C233.512 39.1021 233.388 39.2118 233.374 39.3595C233.053 42.6704 230.59 44.8143 227.098 44.8143C222.481 44.8143 219.835 41.6845 219.835 36.2297V35.8198C219.835 30.6652 222.624 27.3352 226.946 27.3352C230.437 27.3352 232.447 28.9502 232.91 32.1372C232.929 32.2754 233.053 32.3796 233.197 32.3796H239.295C239.376 32.3796 239.453 32.3463 239.51 32.2843C239.563 32.2271 239.591 32.1461 239.582 32.0651C238.932 25.5529 234.291 21.8178 226.841 21.8178C218.703 21.8178 212.796 27.7492 212.796 35.9145V36.3244C212.796 44.5761 218.441 50.1161 226.841 50.1161C234.176 50.1161 239.238 45.9092 239.739 39.4018C239.744 39.3255 239.716 39.2445 239.663 39.1873L239.653 39.1921V39.1927Z" fill="#190634"/>
<path fill-rule="evenodd" clip-rule="evenodd" d="M31.591 27.9446C31.591 34.05 32.0341 40.1559 32.9113 46.2065L34.7948 59.219C33.1054 59.5139 31.379 59.6795 29.6066 59.6795C27.8342 59.6795 26.1077 59.5139 24.4183 59.219L26.3018 46.2065C27.1791 40.1565 27.6222 34.0595 27.6222 27.9446V0.667373C28.2779 0.621504 28.933 0.593506 29.6072 0.593506C30.2814 0.593506 30.9365 0.620908 31.5922 0.667373V27.9452L31.591 27.9446ZM11.6872 53.6474L19.3961 38.7012C19.9778 37.5682 20.2823 36.316 20.2823 35.0543V2.10361C8.50253 6.00845 0 17.0778 0 30.1362C0 39.7324 4.58807 48.2509 11.6872 53.6474ZM38.9487 35.0543C38.9487 36.325 39.2533 37.5777 39.8349 38.7012L47.5432 53.6474C54.6424 48.2509 59.2305 39.7324 59.2305 30.1362C59.2305 17.0778 50.7279 5.99892 38.9481 2.10361V35.0543H38.9487Z" fill="url(#paint0_linear_0_9571)"/>
<path d="M244.912 26.0649L243.438 22.7355H244.035L245.066 25.1783L246.098 22.7355H246.695L245.22 26.0649H244.912ZM243.329 26.0649V22.7355H243.908V26.0649H243.329ZM246.224 26.0649V22.7355H246.803V26.0649H246.224ZM241.158 26.0649V23.025H241.737V26.0649H241.158ZM240.144 23.2421V22.7355H242.75V23.2421H240.144Z" fill="black"/>
<defs>
<linearGradient id="paint0_linear_0_9571" x1="29.6152" y1="59.6795" x2="29.6152" y2="0.593507" gradientUnits="userSpaceOnUse">
<stop stop-color="#6619D0"/>
<stop offset="1" stop-color="#00BFCB"/>
</linearGradient>
</defs>
</svg>
