<svg id="Ebene_1" data-name="Ebene 1" xmlns="http://www.w3.org/2000/svg" viewBox="0 0 283.47 83.89"><defs><style>.cls-1{fill:#003b61;}</style></defs><path class="cls-1" d="M10.35,39a33.07,33.07,0,0,1,65.58,0h8.93A41.94,41.94,0,0,0,1.42,39Z" transform="translate(-1.42 -1.42)"/><path class="cls-1" d="M75.93,47.7a33.07,33.07,0,0,1-65.58,0H1.42a41.94,41.94,0,0,0,83.44,0Z" transform="translate(-1.42 -1.42)"/><polygon class="cls-1" points="36.22 59.94 18.23 41.95 36.22 23.95 41.72 29.45 29.23 41.95 41.72 54.44 36.22 59.94"/><polygon class="cls-1" points="47.23 59.94 41.72 54.44 54.22 41.95 41.72 29.45 47.23 23.95 65.22 41.95 47.23 59.94"/><path class="cls-1" d="M149.71,43.17c0,12.5-10,21.88-23.21,21.88H109.85V21.68H126.5C139.76,21.68,149.71,30.93,149.71,43.17Zm-8.8,0c0-7.46-6.44-13.45-14.41-13.45h-8V57h8C134.47,57,140.91,50.89,140.91,43.17Z" transform="translate(-1.42 -1.42)"/><path class="cls-1" d="M187.84,47.7h8.93c-2,11-10.2,18.11-21.24,18.11C163,65.81,153,56.5,153,43.37S163,20.92,175.53,20.92c11,0,19.26,7.07,21.24,18.11h-8.93c-1.59-6.38-5.93-10-12.31-10-7.9,0-13.77,5.8-13.77,14.35s5.87,14.34,13.77,14.34C181.91,57.71,186.25,54.08,187.84,47.7Z" transform="translate(-1.42 -1.42)"/><path class="cls-1" d="M284.88,43.37a22.58,22.58,0,1,1-22.57-22.45A22.42,22.42,0,0,1,284.88,43.37Zm-8.8,0c0-7.91-5.86-14.35-13.77-14.35s-13.78,6.44-13.78,14.35,5.87,14.35,13.78,14.35S276.08,51.27,276.08,43.37Z" transform="translate(-1.42 -1.42)"/><path class="cls-1" d="M235.49,34.87H227c0-3.48-3.07-6.71-8.14-6.71-4.88,0-8.21,2-8.21,5.6,0,3.15,3.34,3.71,6.73,4.39l5.25,1.05c8.71,1.72,13.71,5.86,13.71,13,0,8.27-6.91,13.64-17.48,13.64-11,0-18.77-5.74-19.39-15.07h8.9c.74,4.57,4.81,7.35,11.05,7.35,4.94,0,7.78-1.73,7.78-4.75,0-2.6-1.17-4.82-5.93-5.68l-7.28-1.36c-7.48-1.42-12.73-5.07-12.73-11.8,0-8.27,6.8-13.58,16.93-13.58C225.73,20.92,235.07,24.66,235.49,34.87Z" transform="translate(-1.42 -1.42)"/></svg>