<?xml version="1.0" encoding="UTF-8"?>
<svg id="uuid-06a8c75b-796c-4bf3-8154-a830674439d3" xmlns="http://www.w3.org/2000/svg" viewBox="0 0 356 66" width="160" height="28" fill="none">
    <defs>
        <style>.uuid-f89603bc-9cd1-4eb8-b298-d1b1e8591015{fill:#0070b7;stroke-width:0px;}</style>
    </defs>
    <path class="uuid-f89603bc-9cd1-4eb8-b298-d1b1e8591015"
          d="M201.47,64.02c-4.43,0-8.19-.88-11.29-2.64-3.1-1.76-5.6-4.12-7.5-7.09-1.9-2.97-3.3-6.31-4.2-10.01-.9-3.7-1.35-7.46-1.35-11.29s.46-7.62,1.39-11.29c.93-3.67,2.37-7,4.33-9.98,1.96-2.98,4.47-5.36,7.54-7.11,3.07-1.76,6.75-2.64,11.03-2.64,3.57,0,6.58.51,9.02,1.52,2.44,1.01,4.43,2.31,5.96,3.9,1.53,1.59,2.75,3.25,3.66,4.99l-5.36,2.83c-.89-1.4-1.89-2.67-3.02-3.81-1.13-1.14-2.51-2.06-4.16-2.74-1.64-.69-3.68-1.03-6.11-1.03-3.26,0-6.04.74-8.33,2.23-2.3,1.49-4.16,3.46-5.59,5.91-1.43,2.46-2.47,5.19-3.13,8.18-.66,3-.99,6.01-.99,9.04s.34,6.26,1.03,9.28c.69,3.01,1.76,5.73,3.21,8.14,1.46,2.41,3.33,4.34,5.61,5.76,2.29,1.43,5.03,2.14,8.23,2.14,3.54,0,6.39-.79,8.55-2.36,2.16-1.57,3.88-3.48,5.16-5.74l5.48,2.1c-.97,2.09-2.31,4.01-4.01,5.78-1.7,1.77-3.81,3.2-6.32,4.28-2.51,1.09-5.47,1.63-8.87,1.63Z"/>
    <path class="uuid-f89603bc-9cd1-4eb8-b298-d1b1e8591015"
          d="M227.22,62.99V3h34.19v5.61h-28.2v21.59h18.73v5.6h-18.73v21.49h30.08v5.7h-36.08Z"/>
    <path class="uuid-f89603bc-9cd1-4eb8-b298-d1b1e8591015"
          d="M270.67,62.99V3h22.62c4.66,0,8.32.81,10.99,2.42,2.67,1.61,4.57,3.69,5.7,6.23,1.13,2.54,1.69,5.19,1.69,7.93,0,2.49-.49,4.89-1.48,7.2-.99,2.31-2.55,4.31-4.69,5.98-2.14,1.67-4.94,2.79-8.4,3.36l13.2,26.87h-6.77l-12.77-26.52h-14.1v26.52h-6ZM276.67,30.9h16.75c3.06,0,5.47-.56,7.24-1.67,1.77-1.11,3.04-2.53,3.79-4.24.76-1.71,1.14-3.47,1.14-5.27,0-1.6-.35-3.26-1.05-4.99-.7-1.73-1.93-3.19-3.68-4.37-1.76-1.19-4.24-1.78-7.44-1.78h-16.75v22.32Z"/>
    <path class="uuid-f89603bc-9cd1-4eb8-b298-d1b1e8591015"
          d="M331.14,62.99V8.79h-16.63V3h39.29v5.79h-16.67v54.21h-6Z"/>
    <path class="uuid-f89603bc-9cd1-4eb8-b298-d1b1e8591015"
          d="M88.12,3h-35.55v60h10.8v-25.3h20.17l-.08-9.23h-20.09V12.21h24.77c0-3.57-.01-6.18-.01-9.2"/>
    <path class="uuid-f89603bc-9cd1-4eb8-b298-d1b1e8591015"
          d="M19.78,3.02H0v59.95h19.86c15.2,0,25.49-10.5,25.49-31.21S34.03,3.02,19.78,3.02ZM19.43,53.98c-2.51,0-6.41,0-8.64,0V12.19c2.77,0,6.22.02,8.72.02,7.94,0,14.26,4.8,14.26,20.62,0,14.75-4.5,21.15-14.35,21.15h0Z"/>
    <path class="uuid-f89603bc-9cd1-4eb8-b298-d1b1e8591015"
          d="M95.34,3v60h10.8l-.03-39h0c.48.76,23.53,38.99,23.53,38.99h10.8V3h-10.8v35.49c0,1.95.01,1.77.01,3.98h0L106.15,3h-10.8Z"/>
    <rect class="uuid-f89603bc-9cd1-4eb8-b298-d1b1e8591015" x="149" y="29.5" width="20.03" height="7"/>
</svg>
