<?xml version="1.0" encoding="UTF-8"?>
<svg id="Ebene_1" data-name="Ebene 1" xmlns="http://www.w3.org/2000/svg" viewBox="0 0 127.82 28.91">
  <defs>
    <style>
      .cls-1 {
        fill: #d20a11;
      }

      .cls-1, .cls-2 {
        stroke-width: 0px;
      }

      .cls-2 {
        fill: #1d1d1b;
      }
    </style>
  </defs>
  <g id="Wortmarke">
    <path class="cls-2" d="M88.91,18.13c0,.64-.51,1.17-1.16,1.17s-1.17-.53-1.17-1.17.53-1.17,1.17-1.17,1.16.53,1.16,1.17Z"/>
    <path class="cls-2" d="M93.14,19.13h-.99l-2.67-7.1h1.03l1.77,4.99c.16.46.27.8.39,1.21h.01c.11-.39.24-.77.39-1.17l1.81-5.03h.99l-2.73,7.1Z"/>
    <path class="cls-2" d="M102.38,18.82c-.73.26-1.52.43-2.34.43-2.1,0-3.23-1.14-3.23-3.64,0-2.11,1.14-3.69,3.07-3.69s2.73,1.33,2.73,2.86c0,.37-.03.69-.03.69h-4.83c-.04,2.1.79,3.03,2.42,3.03.69,0,1.37-.13,2.07-.39l.14.71ZM101.65,14.79c.03-1.37-.67-2.16-1.83-2.16-1.06,0-1.86.74-2.03,2.16h3.86Z"/>
    <path class="cls-2" d="M108.04,12.8c-1.61-.26-2.39,1.03-2.39,3.5v2.83h-.9v-7.1h.91c0,.5-.06,1.23-.19,1.86h.03c.27-1.04,1.02-2.16,2.57-1.96l-.04.87Z"/>
    <path class="cls-2" d="M112.63,19.13s-.43.1-.93.1c-1.26,0-1.76-.57-1.76-1.87v-8.66h.9v8.53c0,.87.27,1.23,1.01,1.23.39,0,.77-.09.77-.09v.76Z"/>
    <path class="cls-2" d="M118.48,19.13c0-.57.01-1.14.09-1.56h-.03c-.34.91-1.27,1.67-2.51,1.67-1.1,0-1.93-.7-1.93-1.84,0-1.41,1.5-2.4,4.37-2.4v-.47c0-1.24-.4-1.89-1.67-1.89-.69,0-1.5.21-2.16.5l-.17-.73c.73-.29,1.57-.5,2.43-.5,1.84,0,2.47.97,2.47,2.47v2.54c0,.73.01,1.56.03,2.2h-.91ZM118.46,15.69c-2.69,0-3.46.77-3.46,1.57,0,.71.49,1.24,1.24,1.24,1.33,0,2.21-1.34,2.21-2.6v-.21Z"/>
    <path class="cls-2" d="M126.46,12.75c.39.43.59.99.59,1.59,0,1.46-.97,2.61-2.8,2.61-.33,0-.61-.04-.89-.11-.36.21-.53.47-.53.7,0,.36.31.59,1.17.61l1.23.04c1.79.06,2.59.86,2.59,2.07,0,1.53-1.4,2.57-3.57,2.57-1.83,0-2.96-.77-2.96-2.11,0-.87.59-1.59,1.26-2.03-.41-.21-.63-.56-.63-1s.26-.84.74-1.16c-.71-.46-1.04-1.21-1.04-2,0-1.44.99-2.61,2.8-2.61.31,0,.63.04.91.11h2.39v.71h-1.26ZM123.33,18.93c-.73.44-1.1,1.03-1.1,1.64,0,1,.86,1.53,2.16,1.53,1.66,0,2.5-.73,2.5-1.73,0-.81-.51-1.33-1.9-1.37l-1.24-.04c-.16,0-.29-.01-.41-.03ZM124.33,12.62c-1.14,0-1.81.77-1.81,1.81s.67,1.81,1.81,1.81,1.81-.77,1.81-1.81-.67-1.81-1.81-1.81Z"/>
    <path class="cls-2" d="M41.11,19.15c0-.36.03-.81.09-1.2h-.03c-.37.79-1.16,1.34-2.24,1.34-1.73,0-2.59-1.3-2.59-3.33,0-2.4,1.4-4.06,3.76-4.06.3,0,.59.01.9.06v-1.86c-.34-.06-.83-.11-1.24-.14v-1.14c.9-.11,2.01-.16,3.06-.13v9.04c.34.06.81.11,1.17.14v1.14c-.83.11-1.93.16-2.87.13ZM41,13.46c-.33-.07-.64-.11-.96-.11-1.04,0-1.79.66-1.79,2.41,0,1.33.39,2.01,1.21,2.01.96,0,1.53-1.11,1.53-2.33v-1.99Z"/>
    <path class="cls-2" d="M48.74,19.23c-.34,0-.61-.01-.91-.06v2.34c.43.03.87.1,1.24.17v1.16h-4.21v-1.16c.37-.07.73-.14,1.16-.17v-8.08c-.34-.06-.76-.11-1.16-.14v-1.14c.87-.11,1.93-.16,2.86-.13,0,.34-.03.83-.09,1.2h.03c.4-.83,1.16-1.33,2.24-1.33,1.67,0,2.59,1.21,2.59,3.31,0,2.47-1.29,4.03-3.74,4.03ZM49.35,13.39c-.96,0-1.53,1.11-1.53,2.33v1.97c.29.09.59.13.96.13,1.04,0,1.79-.66,1.79-2.41,0-1.33-.39-2.01-1.21-2.01Z"/>
    <path class="cls-2" d="M59.29,19.15c0-.33.01-.87.09-1.27h-.03c-.41.83-1.24,1.41-2.4,1.41-1.61,0-2.13-1.03-2.13-2.27v-3.59c-.34-.06-.81-.11-1.23-.14v-1.14c.94-.11,2.07-.16,3.06-.13v4.56c0,.74.2,1.19.87,1.19.93,0,1.66-1.06,1.66-2.3v-3.43h1.81v5.7c.34.06.83.11,1.24.14v1.14c-.9.11-2,.16-2.94.13Z"/>
    <path class="cls-2" d="M83.27,19.28c-1.57,0-2.06-.57-2.06-2.23v-3.6h-1.23v-1.41h1.23v-2.19l1.81-.49v2.67h1.73v1.41h-1.73v3.11c0,.91.21,1.17.84,1.17.3,0,.57-.03.81-.1l.13,1.44c-.46.11-1.04.2-1.54.2Z"/>
    <path class="cls-2" d="M78.51,17.79l-1.91-2.52,2.5-3.24h-2.23l-2.07,2.96v-6.3c-1.06-.03-2.16.01-3.07.13v1.14c.41.03.9.09,1.24.14v9.03h1.83v-3.25l2.36,3.25h2.37v-1.19c-.34-.07-.7-.13-1.01-.16Z"/>
    <path class="cls-2" d="M70.4,17.79v-3.64c0-1.24-.51-2.27-2.11-2.27-1.16,0-1.99.59-2.42,1.43h-.01c.07-.39.1-.94.1-1.29-.96-.03-2.06.01-2.96.13v1.14c.41.03.9.09,1.24.14v5.7h1.81v-3.43c0-1.24.73-2.3,1.66-2.3.67,0,.87.44.87,1.19v4.54s0,0,0,0h2.97v-1.16c-.33-.09-.74-.16-1.15-.19Z"/>
  </g>
  <polygon id="farbig" class="cls-1" points="0 0 28.91 0 28.91 28.91 0 28.91 0 0 0 0"/>
  <g id="schwarz">
    <polygon class="cls-2" points="22.41 3.32 25.66 3.32 25.65 25.69 15.08 25.69 15.08 28.91 28.91 28.91 28.91 0 22.41 0 22.41 3.32 22.41 3.32"/>
    <polygon class="cls-2" points="7.48 9.39 7.48 21.84 10.77 21.84 10.77 12.73 21.38 12.73 21.38 9.39 7.48 9.39 7.48 9.39"/>
    <polygon class="cls-2" points="15.08 15.46 21.38 15.46 21.38 21.84 15.08 21.84 15.08 15.46 15.08 15.46"/>
  </g>
</svg>