<svg xmlns="http://www.w3.org/2000/svg" viewBox="0 0 155 54.89"><defs><style>.cls-1{fill:#e6323c}</style></defs><g id="Ebene_2" data-name="Ebene 2"><g id="Hanseatic_Bank" data-name="Hanseatic Bank"><path class="cls-1" d="M148.71 26.53c3.48 0 5.39-1.16 6.29-2.36V21a11 11 0 0 1-4.94 1.27c-3.11 0-4.56-1.42-4.56-5v-.82c0-3.29 1.76-4.42 4.3-4.42a10.39 10.39 0 0 1 5 1.12V9.2c-1.03-1.2-2.8-1.9-6.2-1.9-4.68 0-9.05 3.22-9.05 9.54 0 6.1 3.67 9.65 9.17 9.65M131.37 7.74h5.91v18.33h-5.91zM134.32 6.32a3.12 3.12 0 0 0 3.18-3.14A3.07 3.07 0 0 0 134.43 0a3.25 3.25 0 0 0-3.29 3.18 3.12 3.12 0 0 0 3.18 3.14M123.7 26.56c2.81 0 4.23-.9 4.94-1.91V22a6 6 0 0 1-2.24.41c-2.1 0-2.92-.82-2.92-3v-7.85h5.16V7.74h-5.16V2.92H120c-.9 3.55-1.65 5.31-4.75 5.61v3h2.28v9.13c0 4.49 3 5.87 6.14 5.87M42.33 26.08h5.91v-9.69c0-3.11 1.42-4.71 3.52-4.71 1.76 0 2.62 1 2.62 3v11.4h5.95V13.92c0-4.49-2.24-6.62-5.87-6.62-3.44 0-5.5 2-6.36 5V12a9.16 9.16 0 0 0-.52-3 9.43 9.43 0 0 0-.49-1.23h-4.76zM0 26.08h6.06v-9.77h8.64v9.77h6.03V2.17H14.7v9.39H6.06V2.17H0v23.91zM39.58 25.07a33.39 33.39 0 0 1-.15-4.15v-5.84c0-4.9-2.21-7.78-7.93-7.78-4.38 0-6.5 1.7-7.41 2.88v3.59A11.34 11.34 0 0 1 30 12.08c2.81 0 3.52.79 3.52 1.87v.11c0 1-1 1.38-3.52 2-3.74.9-7 1.61-7 5.5 0 3 2.13 5 5.24 5 2.84 0 4.71-1.35 5.46-3.63a6.08 6.08 0 0 0 .49 2.28 4.6 4.6 0 0 0 .41.86h5.2a4.43 4.43 0 0 1-.22-1zm-6.06-5.54c0 2.43-1.12 3.7-2.58 3.7a1.82 1.82 0 0 1-2-2V21c0-1.31.86-1.95 2.47-2.58a9.1 9.1 0 0 0 2.09-1.23zM60.23 54.4h5.91v-8.98l5.43 8.98h6.55l-6.44-10.17 6.25-8.16h-5.87l-5.92 8.19.16-15.04h-5.91l-.16 25.18zM11.86 42.47v-.11c3.93-.45 5.91-2 5.91-5.57 0-4.38-3.07-6.29-8.75-6.29H0v23.9h8.87c7.67 0 9.88-2.58 9.88-6.62-.01-3.44-2.29-5.01-6.89-5.31zM6.06 35h2.88c2.24 0 3.18 1 3.18 2.84s-.9 3-3.44 3H6.06zm2.69 15.33H6.06v-5.84h2.62c3.14 0 4.19.94 4.19 2.92s-.71 2.92-4.12 2.92zM39.44 54.4h5.91v-9.69c0-3.11 1.42-4.71 3.52-4.71 1.76 0 2.62 1 2.62 3v11.4h5.95V42.24c0-4.49-2.24-6.62-5.87-6.62-3.44 0-5.5 2-6.36 5v-.3a9.16 9.16 0 0 0-.52-3 9.43 9.43 0 0 0-.49-1.23h-4.76zM36.79 53.39a33.39 33.39 0 0 1-.15-4.15V43.4c0-4.9-2.21-7.78-7.93-7.78-4.38 0-6.51 1.68-7.41 2.88v3.59a11.34 11.34 0 0 1 5.91-1.68c2.81 0 3.52.79 3.52 1.87v.11c0 1-1 1.38-3.52 2-3.74.9-7 1.61-7 5.5 0 3 2.13 5 5.24 5 2.84 0 4.71-1.35 5.46-3.63a6.08 6.08 0 0 0 .49 2.28 4.6 4.6 0 0 0 .41.86H37a4.43 4.43 0 0 1-.21-1.01zm-6.06-5.54c0 2.43-1.12 3.7-2.58 3.7a1.82 1.82 0 0 1-2-2v-.19c0-1.31.86-1.95 2.47-2.58a9.1 9.1 0 0 0 2.09-1.23zM114 25.07a33.31 33.31 0 0 1-.15-4.15v-5.84c0-4.9-2.21-7.78-7.93-7.78-4.38 0-6.51 1.68-7.41 2.88v3.59a11.34 11.34 0 0 1 5.91-1.68c2.81 0 3.52.79 3.52 1.87v.11c0 1-1 1.38-3.52 2-3.74.9-7 1.61-7 5.5 0 3 2.13 5 5.24 5 2.84 0 4.71-1.35 5.46-3.63a6.09 6.09 0 0 0 .49 2.28 4.58 4.58 0 0 0 .41.86h5.2a4.43 4.43 0 0 1-.22-1.01zm-6.06-5.54c0 2.43-1.12 3.7-2.58 3.7a1.82 1.82 0 0 1-2-2V21c0-1.31.86-1.95 2.47-2.58a9.1 9.1 0 0 0 2.1-1.23zM69.52 26.6c4.9 0 7.89-2.13 7.89-6.47a4.46 4.46 0 0 0-2.54-4.53c-1.72-.9-4.45-.9-6.1-1.42-.77-.18-1.12-.56-1.12-1.18 0-1.08 1-1.65 2.92-1.65a13.56 13.56 0 0 1 5.72 1.23V9c-1.16-1-3.22-1.68-5.87-1.68-3.85 0-7.78 1.61-7.78 6.29a5 5 0 0 0 2.51 4.75c1.91 1 4.42 1 5.69 1.31.79.26 1.2.67 1.2 1.23 0 1.16-.86 1.72-3.25 1.72A12.08 12.08 0 0 1 62.71 21v3.59c1.31 1.16 3.52 2 6.81 2M96.25 15c0-4.49-2.84-7.74-8.27-7.74-5.16 0-9.17 3.48-9.17 9.58 0 6.25 3.44 9.58 9.69 9.58 3.55 0 6-1.23 6.88-2.39V21a12.19 12.19 0 0 1-5.22 1c-3.25 0-5.16-.79-5.35-4h10.88a8.39 8.39 0 0 0 .56-3zm-5.31.37h-6.13c.11-3 1.35-4.41 3.33-4.41 1.8 0 2.81 1.2 2.81 4z"/></g></g></svg>
