<?xml version="1.0" encoding="UTF-8"?>
<svg id="Layer_1" data-name="Layer 1" xmlns="http://www.w3.org/2000/svg" viewBox="0 0 576 180">
  <defs>
    <style>
      .cls-1 {
        fill: #fff;
      }

      .cls-2 {
        fill: #d71920;
      }

      .cls-3 {
        fill: #231f20;
      }
    </style>
  </defs>
  <rect class="cls-3" y="0" width="576" height="180"/>
  <g>
    <g>
      <path class="cls-1" d="M154.17,90c0,26.93-21.83,48.76-48.76,48.76s-48.76-21.83-48.76-48.76,21.83-48.76,48.76-48.76,48.76,21.83,48.76,48.76Z"/>
      <g>
        <path class="cls-2" d="M64.8,117.01c-5.16-7.73-8.16-17.02-8.16-27.01,0-26.93,21.83-48.77,48.76-48.77,14.18,0,26.95,6.06,35.86,15.73-9.42-6.44-27.37-3.36-44.51,7.61,15.54-9.48,32.03-10.98,38.65-2.51,7.61,9.73-.39,28.7-17.88,42.37-17.49,13.66-35.23,16.24-38.52,7.02-1.21-3.44-2.16-7.83,4.91-21.69l8.29,.04,1.59-3.35h-8.43l5.15-11.09s-4.12,0-4.15,.03c-10.3,9.36-20.53,11.42-20.53,11.42l-1.34,3.15h5.7c-6.38,10.02-8.34,19.9-5.39,27.05Z"/>
        <path class="cls-2" d="M154.17,90c0,26.93-21.83,48.76-48.76,48.76-13.88,0-26.4-5.8-35.28-15.1,10.7,7.37,32.49,2.35,51.73-12.68,19.05-14.88,29.18-34.56,24.94-46.77,4.67,7.48,7.37,16.32,7.37,25.79Z"/>
      </g>
    </g>
    <g>
      <g>
        <g>
          <path class="cls-1" d="M491.33,113.51l-2.82-.3v.12l2.27,.87,5.3,3.03v.89l-5.31,3.18-2.26,.9v.1l2.81-.4h7.38v2.63h-14.19v-2.54l6.49-3.79,1.62-.67v-.08l-1.67-.61-6.44-3.59v-2.52h14.19v2.78h-7.36Z"/>
          <path class="cls-1" d="M484.5,106.3v-2.78h14.19v2.78h-14.19Z"/>
          <path class="cls-1" d="M498.12,90.3c.3,.43,.53,.98,.66,1.65,.13,.66,.2,1.35,.2,2.06,0,.85-.13,1.66-.39,2.42-.27,.76-.69,1.43-1.28,2.02-.59,.58-1.34,1.04-2.29,1.39-.94,.34-2.08,.52-3.42,.52s-2.55-.19-3.5-.57c-.93-.39-1.69-.89-2.27-1.5-.57-.61-.99-1.3-1.24-2.06-.25-.76-.38-1.52-.38-2.27,0-.81,.06-1.49,.17-2.06,.11-.56,.24-1.03,.39-1.39l2.35,.55c-.15,.31-.26,.68-.33,1.11-.07,.42-.1,.94-.1,1.55,0,1.12,.4,2.03,1.2,2.7,.8,.69,2.04,1.03,3.73,1.03,.74,0,1.39-.08,2-.24,.61-.16,1.12-.41,1.54-.74,.43-.33,.76-.74,1.01-1.24,.24-.49,.35-1.07,.35-1.72,0-.61-.06-1.13-.18-1.54-.12-.42-.27-.79-.46-1.1l2.26-.56Z"/>
          <path class="cls-1" d="M484.63,87.03c-.06-.31-.11-.65-.15-1.01-.05-.35-.08-.71-.11-1.07-.03-.36-.05-.71-.07-1.05,0-.34-.02-.65-.02-.93,0-.66,.06-1.32,.19-1.96,.12-.64,.33-1.22,.62-1.72,.3-.51,.71-.91,1.23-1.22,.51-.3,1.17-.46,1.96-.46,1.16,0,2.11,.27,2.84,.81,.73,.54,1.24,1.27,1.52,2.17l.63-.99,5.41-3.25v3.21l-5.56,3.22-.26,1.46h5.82v2.78h-14.05Zm2.14-4.26c0,.28,0,.56,.02,.84,0,.28,.04,.49,.07,.64h4.12v-1.18c0-.77-.18-1.38-.52-1.84-.35-.46-.94-.69-1.75-.69-.61,0-1.08,.19-1.42,.57-.34,.38-.51,.93-.51,1.66Z"/>
          <path class="cls-1" d="M491.59,74.59c-2.36,0-4.19-.52-5.46-1.56-1.27-1.04-1.92-2.53-1.92-4.46,0-1.01,.17-1.89,.53-2.66,.35-.76,.85-1.38,1.51-1.88,.64-.51,1.43-.88,2.33-1.12,.91-.24,1.91-.36,3.02-.36,2.37,0,4.19,.52,5.47,1.57,1.28,1.04,1.91,2.53,1.91,4.45,0,1.03-.17,1.92-.52,2.68-.35,.76-.86,1.39-1.5,1.88-.65,.49-1.43,.87-2.33,1.11-.9,.24-1.91,.37-3.03,.37Zm0-2.92c.72,0,1.38-.06,1.98-.18,.6-.12,1.12-.31,1.55-.56,.43-.26,.77-.57,1.02-.97,.24-.39,.36-.86,.36-1.4,0-.99-.39-1.75-1.15-2.29-.78-.54-2.02-.81-3.76-.81-.68,0-1.33,.06-1.92,.17-.6,.12-1.11,.3-1.57,.54-.44,.24-.79,.56-1.05,.95-.24,.39-.37,.87-.37,1.44,0,.99,.4,1.75,1.19,2.3,.79,.54,2.03,.81,3.71,.81Z"/>
        </g>
        <g>
          <polygon class="cls-1" points="511.19 63.36 508.92 63.36 508.92 69.37 508.03 69.37 508.03 63.36 505.78 63.36 505.78 62.56 511.19 62.56 511.19 63.36"/>
          <path class="cls-1" d="M519.36,69.37h-.86v-5.7l-1.98,5.7h-.81l-1.94-5.8-.02,5.8h-.88v-6.81h1.35l1.62,4.82s.07,.2,.18,.57c.07,.21,.13,.36,.13,.45l.38-1.1,1.63-4.74h1.2v6.81Z"/>
        </g>
      </g>
      <g>
        <polygon class="cls-1" points="293.29 62.55 337.73 62.55 337.73 72.85 306.58 72.85 306.58 87.42 335.24 87.42 335.24 97.71 306.58 97.71 306.58 114.22 338.67 114.22 338.67 124.52 293.29 124.52 293.29 62.55"/>
        <polygon class="cls-1" points="387.35 124.52 364.6 83.31 364.43 83.49 364.43 124.52 351.99 124.52 351.99 62.55 368.46 62.55 391.08 103.04 391.26 102.87 391.26 62.55 403.69 62.55 403.69 124.52 387.35 124.52"/>
        <path class="cls-1" d="M438.97,62.55h-21.09v61.97h21.09c19.33,.17,31.34-9.45,31.34-30.99s-12.01-31.17-31.34-30.98Zm-.92,51.67h-6.88v-40.89h6.88c15.78-.18,18.11,10.33,18.11,20.2s-2.33,20.88-18.11,20.69Z"/>
        <polygon class="cls-1" points="168.35 62.55 218.54 62.55 218.54 72.85 200.09 72.85 200.09 124.52 186.8 124.52 186.8 72.85 168.35 72.85 168.35 62.55"/>
        <path class="cls-1" d="M269.6,98.29c6.9-2.53,11.83-9.21,11.83-17.07,0-.93-.07-1.85-.2-2.74-.86-5.74-3.93-10.13-9.09-13.14-.6-.38-4.5-2.79-16.02-2.79h0c-.23,0-.45-.01-.67,0h-26.3v61.97h13.29v-24.6h14.06s8.68,19.09,9.81,24.6h16.35l-13.04-26.23Zm-27.17-25.23h15.7c5.27,.08,8.57,1.98,9.16,6.39v.08c.02,.15,.03,.31,.04,.46,.02,.15,.02,.31,.03,.46,0,.08,0,.19,0,.27,0,.11,0,.22,0,.33-.05,5.38-3.47,8.24-9.24,8.31h-15.7v-16.29Z"/>
      </g>
    </g>
  </g>
</svg>