<svg id="Master" xmlns="http://www.w3.org/2000/svg" xmlns:xlink="http://www.w3.org/1999/xlink" width="280" height="90" viewBox="0 0 280 90"><defs><style>.cls-1{fill:url(#Unbenannter_Verlauf_12);}.cls-2{fill:#005aa5;}</style><linearGradient id="Unbenannter_Verlauf_12" x1="15.72" y1="70.05" x2="65.83" y2="19.95" gradientUnits="userSpaceOnUse"><stop offset="0" stop-color="#0069d2"/><stop offset="0.25" stop-color="#007ddc"/><stop offset="0.75" stop-color="#00bed2"/><stop offset="1" stop-color="#00d7dc"/></linearGradient></defs><title>Logo_Presense_DE_rgb_blue_www</title><path class="cls-1" d="M40.77,9.57A35.43,35.43,0,1,0,76.21,45,35.43,35.43,0,0,0,40.77,9.57Zm7.4,62A26.57,26.57,0,1,1,74.75,45,26.57,26.57,0,0,1,48.17,71.57Z"/><path class="cls-2" d="M34.45,48H31.94v4.45h-3.3V37.77h6c3.56,0,4.88,1.41,4.88,4.16v1.92C39.51,46.59,38,48,34.45,48Zm1.76-5.74c0-1.06-.37-1.54-1.76-1.54H31.94v4.42h2.51c1.45,0,1.76-.55,1.76-1.61Z"/><path class="cls-2" d="M49.15,47.87H47.21v4.55h-3.3V37.77H50c3.56,0,4.88,1.41,4.88,4.16v1.8c0,1.83-.66,3.06-2.13,3.67l3.54,5H52.38Zm2.44-5.63c0-1.1-.42-1.54-1.76-1.54H47.21V45h2.62c1.41,0,1.76-.51,1.76-1.61Z"/><path class="cls-2" d="M60.48,52.42V37.77H69.7v2.93H63.78v2.68h5.46V46.3H63.78v3.19H69.7v2.93Z"/><path class="cls-2" d="M84.65,52.64a12.07,12.07,0,0,1-4.73-.95l.55-2.55a13.94,13.94,0,0,0,4.22.7c1.69,0,2-.33,2-1.56s-.07-1.47-2.46-2c-3.54-.77-4.07-1.47-4.07-4.64,0-2.93,1-4.09,5.06-4.09a21.31,21.31,0,0,1,4.45.48l-.33,2.77a22.4,22.4,0,0,0-4.07-.42c-1.47,0-1.8.26-1.8,1.34,0,1.41.07,1.43,2.38,2,4,.95,4.16,1.72,4.16,4.6S89.07,52.64,84.65,52.64Z"/><path class="cls-2" d="M95,52.42V37.76h9.22v2.93H98.27v2.68h5.46V46.3H98.27v3.19h5.92v2.93Z"/><path class="cls-2" d="M112.5,42.78v9.64h-3.15V37.76h4l4.82,10.1V37.76h3.15V52.42H117.3Z"/><path class="cls-2" d="M131.16,52.64a12.07,12.07,0,0,1-4.73-.95l.55-2.55a13.94,13.94,0,0,0,4.22.7c1.69,0,2-.33,2-1.56s-.07-1.47-2.46-2c-3.54-.77-4.07-1.47-4.07-4.64,0-2.93,1-4.09,5.06-4.09a21.31,21.31,0,0,1,4.45.48l-.33,2.77a22.4,22.4,0,0,0-4.07-.42c-1.47,0-1.8.26-1.8,1.34,0,1.41.07,1.43,2.38,2,4,.95,4.16,1.72,4.16,4.6S135.58,52.64,131.16,52.64Z"/><path class="cls-2" d="M141.48,52.42V37.76h9.22v2.93h-5.92v2.68h5.46V46.3h-5.46v3.19h5.92v2.93Z"/><path class="cls-2" d="M81.36,64.71h-.65v-5h.65Z"/><path class="cls-2" d="M84.58,60.29H83.09v-.58h3.63v.58H85.23v4.42h-.65Z"/><path class="cls-2" d="M87.43,62.37h1.88v.52H87.43Z"/><path class="cls-2" d="M92.37,64.79a4.29,4.29,0,0,1-1.49-.26L91,64a4.72,4.72,0,0,0,1.4.22c.8,0,1-.21,1-.78s0-.74-1-1C91.1,62.2,91,62,91,60.93c0-.87.36-1.29,1.6-1.29a5.72,5.72,0,0,1,1.35.17l-.05.55a6.13,6.13,0,0,0-1.28-.14c-.82,0-1,.17-1,.74s0,.72,1,1c1.33.33,1.4.53,1.4,1.5S93.74,64.79,92.37,64.79Z"/><path class="cls-2" d="M96.7,64.71h-.65v-5h.65Z"/><path class="cls-2" d="M99.44,63.28c0,.7.27.92,1.09.92a7.58,7.58,0,0,0,1.17-.11l.07.56a6.39,6.39,0,0,1-1.26.14c-1.22,0-1.71-.53-1.71-1.47V61.11c0-.95.49-1.47,1.71-1.47a6.46,6.46,0,0,1,1.26.13l-.07.56a7.7,7.7,0,0,0-1.17-.1c-.82,0-1.09.22-1.09.92Z"/><path class="cls-2" d="M106.54,64.71V62.45h-2.21v2.27h-.65v-5h.65v2.15h2.21V59.71h.65v5Z"/><path class="cls-2" d="M109.36,59.71h2.94v.58H110v1.57h2.13v.58H110v1.7h2.3v.58h-3Z"/><path class="cls-2" d="M116.18,62.91H115v1.81h-.65v-5h1.91c1.07,0,1.45.47,1.45,1.23v.72a1.06,1.06,0,0,1-.8,1.16l1.3,1.88h-.74Zm0-2.61H115v2h1.24c.62,0,.83-.17.83-.66V61C117,60.46,116.81,60.29,116.19,60.29Z"/><path class="cls-2" d="M122.81,64.71V62.45H120.6v2.27h-.65v-5h.65v2.15h2.21V59.71h.65v5Z"/><path class="cls-2" d="M125.63,59.71h2.94v.58h-2.3v1.57h2.13v.58h-2.13v1.7h2.3v.58h-3Z"/><path class="cls-2" d="M131.26,64.71h-.65v-5h.65Z"/><path class="cls-2" d="M134.48,60.29H133v-.58h3.63v.58h-1.49v4.42h-.65Z"/><path class="cls-2" d="M140.63,62.37h2.75v.52h-2.75Z"/><path class="cls-2" d="M147.87,64.71v-5h1.93c.79,0,1.18.35,1.18,1v.58a.79.79,0,0,1-.57.83.84.84,0,0,1,.74.9v.6c0,.7-.49,1.07-1.24,1.07Zm2.46-4c0-.32-.18-.47-.57-.47h-1.25v1.62h1.14c.49,0,.68-.22.68-.58Zm.17,2.32c0-.4-.23-.62-.72-.62h-1.26v1.71h1.3c.46,0,.68-.2.68-.57Z"/><path class="cls-2" d="M153.05,59.71H156v.58h-2.3v1.57h2.13v.58H153.7v1.7H156v.58h-3Z"/><path class="cls-2" d="M159.87,62.91h-1.22v1.81H158v-5h1.91c1.07,0,1.45.47,1.45,1.23v.72a1.06,1.06,0,0,1-.8,1.16l1.3,1.88h-.74Zm0-2.61h-1.24v2h1.24c.62,0,.83-.17.83-.66V61C160.71,60.46,160.5,60.29,159.89,60.29Z"/><path class="cls-2" d="M167.52,64.71h-.65l-.41-1.2h-2.12l-.41,1.2h-.65l1.69-5h.87Zm-2.12-4.53L164.51,63h1.79Z"/><path class="cls-2" d="M169.86,60.29h-1.49v-.58H172v.58h-1.49v4.42h-.65Z"/><path class="cls-2" d="M177.19,59.71v3.6c0,.82-.47,1.48-1.77,1.48s-1.77-.66-1.77-1.48v-3.6h.65v3.56c0,.62.34.94,1.13.94s1.13-.32,1.13-.94V59.71Z"/><path class="cls-2" d="M179.94,60.46v4.26h-.62v-5h.89L182.39,64V59.71H183v5h-.89Z"/><path class="cls-2" d="M185.71,63.28c0,.64.19.92,1,.92a5,5,0,0,0,.94-.09v-1.7h.62v2.16a5.89,5.89,0,0,1-1.58.22c-1.28,0-1.67-.55-1.67-1.47v-2.2c0-1,.5-1.48,1.75-1.48a6.56,6.56,0,0,1,1.39.16l-.08.56a8.07,8.07,0,0,0-1.34-.13c-.83,0-1.07.25-1.07.92Z"/><path class="cls-2" d="M196.43,59.71v3.6c0,.82-.47,1.48-1.77,1.48s-1.77-.66-1.77-1.48v-3.6h.65v3.56c0,.62.34.94,1.13.94s1.13-.32,1.13-.94V59.71Z"/><path class="cls-2" d="M199.18,60.46v4.26h-.62v-5h.89L201.63,64V59.71h.62v5h-.89Z"/><path class="cls-2" d="M206.16,59.71c1.22,0,1.61.64,1.61,1.43v2.13c0,.8-.38,1.43-1.61,1.43h-1.75v-5Zm-1.1,4.42h1.08c.76,0,1-.32,1-.9v-2c0-.58-.23-.9-1-.9h-1.08Z"/><path class="cls-2" d="M212.95,64.14h2.17v.58H212.3v-5h.65Z"/><path class="cls-2" d="M220.27,63.27c0,.83-.52,1.52-1.81,1.52s-1.81-.68-1.81-1.52V61.16c0-.83.52-1.52,1.81-1.52s1.81.68,1.81,1.52Zm-3,0c0,.62.38,1,1.16,1s1.16-.34,1.16-1V61.17c0-.62-.37-1-1.16-1s-1.16.35-1.16,1Zm.2-4.56h.6v.59h-.6Zm1.33,0h.6v.59h-.6Z"/><path class="cls-2" d="M223.63,64.79a4.29,4.29,0,0,1-1.49-.26l.11-.53a4.72,4.72,0,0,0,1.4.22c.8,0,1-.21,1-.78s0-.74-1-1c-1.21-.27-1.35-.5-1.35-1.54,0-.87.36-1.29,1.6-1.29a5.72,5.72,0,0,1,1.35.17l-.05.55a6.13,6.13,0,0,0-1.28-.14c-.82,0-1,.17-1,.74s0,.72,1,1c1.33.33,1.4.53,1.4,1.5S225,64.79,223.63,64.79Z"/><path class="cls-2" d="M230.79,59.71v3.6c0,.82-.47,1.48-1.77,1.48s-1.77-.66-1.77-1.48v-3.6h.65v3.56c0,.62.34.94,1.13.94s1.13-.32,1.13-.94V59.71Z"/><path class="cls-2" d="M233.54,60.46v4.26h-.62v-5h.89L236,64V59.71h.62v5h-.89Z"/><path class="cls-2" d="M239.3,63.28c0,.64.19.92,1,.92a5,5,0,0,0,.94-.09v-1.7h.62v2.16a5.89,5.89,0,0,1-1.58.22c-1.28,0-1.67-.55-1.67-1.47v-2.2c0-1,.5-1.48,1.75-1.48a6.55,6.55,0,0,1,1.39.16l-.07.56a8.07,8.07,0,0,0-1.34-.13c-.83,0-1.07.25-1.07.92Z"/><path class="cls-2" d="M244,59.71h2.94v.58h-2.3v1.57h2.13v.58h-2.13v1.7H247v.58h-3Z"/><path class="cls-2" d="M249.57,60.46v4.26H249v-5h.89L252,64V59.71h.62v5h-.89Z"/><path class="cls-2" d="M85.79,76.17l1.14-4.38h.63l-1.31,5h-.91l-1-4.47-1,4.47h-.91l-1.31-5h.63l1.14,4.38,1-4.38h.9Z"/><path class="cls-2" d="M93.61,76.17l1.14-4.38h.63l-1.31,5h-.91l-1-4.47-1,4.47h-.91l-1.31-5h.63l1.14,4.38,1-4.38h.9Z"/><path class="cls-2" d="M101.43,76.17l1.14-4.38h.63l-1.31,5H101l-1-4.47-1,4.47H98l-1.31-5h.63l1.14,4.38,1-4.38h.9Z"/><path class="cls-2" d="M104.21,75.92h.65v.86h-.65Z"/><path class="cls-2" d="M107,71.79h1.81c1.07,0,1.45.47,1.45,1.23v.74c0,.77-.38,1.24-1.45,1.24h-1.16v1.79H107Zm1.79.58h-1.14v2.06h1.14c.62,0,.83-.17.83-.66V73C109.65,72.53,109.43,72.36,108.82,72.36Z"/><path class="cls-2" d="M114,75h-1.22v1.81h-.65v-5H114c1.07,0,1.45.47,1.45,1.23v.72a1.06,1.06,0,0,1-.8,1.16l1.3,1.88h-.74Zm0-2.61h-1.24v2H114c.62,0,.83-.17.83-.66V73C114.82,72.53,114.61,72.36,114,72.36Z"/><path class="cls-2" d="M117.75,71.79h2.94v.58h-2.3v1.57h2.13v.58H118.4v1.7h2.3v.58h-3Z"/><path class="cls-2" d="M122.55,74.44h1.88V75h-1.88Z"/><path class="cls-2" d="M127.49,76.86A4.27,4.27,0,0,1,126,76.6l.11-.53a4.75,4.75,0,0,0,1.4.22c.8,0,1-.21,1-.78s0-.74-1-1c-1.21-.27-1.35-.5-1.35-1.54,0-.87.36-1.29,1.6-1.29a5.67,5.67,0,0,1,1.35.17l-.05.55a6.13,6.13,0,0,0-1.28-.14c-.82,0-1,.17-1,.74s0,.72,1,1c1.33.33,1.4.53,1.4,1.5S128.86,76.86,127.49,76.86Z"/><path class="cls-2" d="M131.14,71.79h2.94v.58h-2.3v1.57h2.13v.58h-2.13v1.7h2.3v.58h-3Z"/><path class="cls-2" d="M136.7,72.53v4.26h-.62v-5H137l2.18,4.28V71.79h.62v5h-.89Z"/><path class="cls-2" d="M143.24,76.86a4.27,4.27,0,0,1-1.49-.26l.11-.53a4.75,4.75,0,0,0,1.4.22c.8,0,1-.21,1-.78s0-.74-1-1c-1.21-.27-1.35-.5-1.35-1.54,0-.87.36-1.29,1.6-1.29a5.67,5.67,0,0,1,1.35.17l-.05.55a6.13,6.13,0,0,0-1.28-.14c-.82,0-1,.17-1,.74s0,.72,1,1c1.33.33,1.4.53,1.4,1.5S144.61,76.86,143.24,76.86Z"/><path class="cls-2" d="M146.89,71.79h2.94v.58h-2.3v1.57h2.13v.58h-2.13v1.7h2.3v.58h-3Z"/><path class="cls-2" d="M151.84,75.92h.65v.86h-.65Z"/><path class="cls-2" d="M156.41,71.79c1.22,0,1.61.64,1.61,1.43v2.13c0,.8-.38,1.43-1.61,1.43h-1.75v-5Zm-1.1,4.42h1.08c.76,0,1-.32,1-.9v-2c0-.59-.23-.9-1-.9H155.3Z"/><path class="cls-2" d="M160,71.79H163v.58h-2.3v1.57h2.13v.58h-2.13v1.7H163v.58h-3Z"/></svg>