<?xml version="1.0" encoding="UTF-8"?>
<svg id="Layer_1" xmlns="http://www.w3.org/2000/svg" xmlns:xlink="http://www.w3.org/1999/xlink" version="1.1" viewBox="0 0 1280 720">
  <!-- Generator: Adobe Illustrator 29.5.0, SVG Export Plug-In . SVG Version: 2.1.0 Build 137)  -->
  <defs>
    <style>
      .st0, .st1, .st2, .st3, .st4, .st5 {
        fill: none;
      }

      .st1 {
        stroke: #020202;
      }

      .st1, .st4, .st5 {
        stroke-miterlimit: 13.33;
        stroke-width: 2.07px;
      }

      .st2, .st3 {
        stroke-linecap: round;
        stroke-linejoin: round;
        stroke-width: 2.07px;
      }

      .st2, .st4 {
        stroke: #000;
      }

      .st3, .st5 {
        stroke: #fff;
      }

      .st6 {
        clip-path: url(#clippath-17);
      }

      .st7 {
        clip-path: url(#clippath-19);
      }

      .st8 {
        clip-path: url(#clippath-11);
      }

      .st9 {
        clip-path: url(#clippath-16);
      }

      .st10 {
        clip-path: url(#clippath-18);
      }

      .st11 {
        clip-path: url(#clippath-10);
      }

      .st12 {
        clip-path: url(#clippath-15);
      }

      .st13 {
        clip-path: url(#clippath-13);
      }

      .st14 {
        clip-path: url(#clippath-14);
      }

      .st15 {
        clip-path: url(#clippath-12);
      }

      .st16 {
        clip-path: url(#clippath-31);
      }

      .st17 {
        clip-path: url(#clippath-32);
      }

      .st18 {
        clip-path: url(#clippath-33);
      }

      .st19 {
        clip-path: url(#clippath-34);
      }

      .st20 {
        clip-path: url(#clippath-35);
      }

      .st21 {
        clip-path: url(#clippath-39);
      }

      .st22 {
        clip-path: url(#clippath-30);
      }

      .st23 {
        clip-path: url(#clippath-36);
      }

      .st24 {
        clip-path: url(#clippath-37);
      }

      .st25 {
        clip-path: url(#clippath-38);
      }

      .st26 {
        clip-path: url(#clippath-27);
      }

      .st27 {
        clip-path: url(#clippath-29);
      }

      .st28 {
        clip-path: url(#clippath-26);
      }

      .st29 {
        clip-path: url(#clippath-28);
      }

      .st30 {
        clip-path: url(#clippath-20);
      }

      .st31 {
        clip-path: url(#clippath-21);
      }

      .st32 {
        clip-path: url(#clippath-22);
      }

      .st33 {
        clip-path: url(#clippath-23);
      }

      .st34 {
        clip-path: url(#clippath-24);
      }

      .st35 {
        clip-path: url(#clippath-25);
      }

      .st36 {
        fill: #00d298;
      }

      .st37 {
        clip-path: url(#clippath-1);
      }

      .st38 {
        clip-path: url(#clippath-3);
      }

      .st39 {
        clip-path: url(#clippath-4);
      }

      .st40 {
        clip-path: url(#clippath-2);
      }

      .st41 {
        clip-path: url(#clippath-7);
      }

      .st42 {
        clip-path: url(#clippath-6);
      }

      .st43 {
        clip-path: url(#clippath-9);
      }

      .st44 {
        clip-path: url(#clippath-8);
      }

      .st45 {
        clip-path: url(#clippath-5);
      }

      .st46 {
        fill: #f9f9f9;
      }

      .st47 {
        fill: #be8c37;
      }

      .st48 {
        font-family: Arial-BoldMT, Arial;
        font-size: 48px;
        font-weight: 700;
      }

      .st49 {
        clip-path: url(#clippath);
      }
    </style>
    <clipPath id="clippath">
      <rect class="st0" y="26.4" width="1280" height="667.21"/>
    </clipPath>
    <clipPath id="clippath-1">
      <rect class="st0" x="-253.73" y="-227.6" width="1787.44" height="1175.21"/>
    </clipPath>
    <clipPath id="clippath-2">
      <rect class="st0" x="417.88" y="172.38" width="442.48" height="442.48"/>
    </clipPath>
    <clipPath id="clippath-3">
      <rect class="st0" x="417.88" y="172.38" width="442.48" height="442.48"/>
    </clipPath>
    <clipPath id="clippath-4">
      <rect class="st0" x="417.88" y="172.38" width="442.48" height="442.48"/>
    </clipPath>
    <clipPath id="clippath-5">
      <rect class="st0" x="417.88" y="172.38" width="442.48" height="442.48"/>
    </clipPath>
    <clipPath id="clippath-6">
      <rect class="st0" x="417.88" y="172.38" width="442.48" height="442.48"/>
    </clipPath>
    <clipPath id="clippath-7">
      <rect class="st0" x="417.88" y="172.38" width="442.48" height="442.48"/>
    </clipPath>
    <clipPath id="clippath-8">
      <rect class="st0" x="417.88" y="172.38" width="442.48" height="442.48"/>
    </clipPath>
    <clipPath id="clippath-9">
      <rect class="st0" x="417.88" y="172.38" width="442.48" height="442.48"/>
    </clipPath>
    <clipPath id="clippath-10">
      <rect class="st0" x="417.88" y="172.38" width="442.48" height="442.48"/>
    </clipPath>
    <clipPath id="clippath-11">
      <rect class="st0" x="417.88" y="172.38" width="442.48" height="442.48"/>
    </clipPath>
    <clipPath id="clippath-12">
      <rect class="st0" x="417.88" y="172.38" width="442.48" height="442.48"/>
    </clipPath>
    <clipPath id="clippath-13">
      <rect class="st0" x="415" y="173.8" width="442.48" height="442.48"/>
    </clipPath>
    <clipPath id="clippath-14">
      <rect class="st0" x="417.88" y="172.38" width="442.48" height="442.48"/>
    </clipPath>
    <clipPath id="clippath-15">
      <rect class="st0" x="417.88" y="172.38" width="442.48" height="442.48"/>
    </clipPath>
    <clipPath id="clippath-16">
      <rect class="st0" x="417.88" y="172.38" width="442.48" height="442.48"/>
    </clipPath>
    <clipPath id="clippath-17">
      <rect class="st0" x="418.09" y="172.51" width="442.48" height="442.48"/>
    </clipPath>
    <clipPath id="clippath-18">
      <rect class="st0" x="417.88" y="172.38" width="442.48" height="442.48"/>
    </clipPath>
    <clipPath id="clippath-19">
      <rect class="st0" x="418.09" y="172.5" width="442.48" height="442.48"/>
    </clipPath>
    <clipPath id="clippath-20">
      <rect class="st0" x="417.88" y="172.38" width="442.48" height="442.48"/>
    </clipPath>
    <clipPath id="clippath-21">
      <rect class="st0" x="417.88" y="172.38" width="442.48" height="442.48"/>
    </clipPath>
    <clipPath id="clippath-22">
      <rect class="st0" x="417.88" y="172.38" width="442.48" height="442.48"/>
    </clipPath>
    <clipPath id="clippath-23">
      <rect class="st0" x="418.09" y="171.14" width="442.48" height="442.48"/>
    </clipPath>
    <clipPath id="clippath-24">
      <rect class="st0" x="417.88" y="172.38" width="442.48" height="442.48"/>
    </clipPath>
    <clipPath id="clippath-25">
      <rect class="st0" x="417.88" y="172.38" width="442.48" height="442.48"/>
    </clipPath>
    <clipPath id="clippath-26">
      <rect class="st0" x="418.09" y="171.6" width="442.48" height="442.48"/>
    </clipPath>
    <clipPath id="clippath-27">
      <rect class="st0" x="418.09" y="172.5" width="442.48" height="442.48"/>
    </clipPath>
    <clipPath id="clippath-28">
      <rect class="st0" x="418.09" y="172.5" width="442.48" height="442.48"/>
    </clipPath>
    <clipPath id="clippath-29">
      <rect class="st0" x="418.09" y="172.5" width="442.48" height="442.48"/>
    </clipPath>
    <clipPath id="clippath-30">
      <rect class="st0" x="418.09" y="172.5" width="442.48" height="442.48"/>
    </clipPath>
    <clipPath id="clippath-31">
      <rect class="st0" x="417.88" y="172.38" width="442.48" height="442.48"/>
    </clipPath>
    <clipPath id="clippath-32">
      <rect class="st0" x="417.88" y="172.38" width="442.48" height="442.48"/>
    </clipPath>
    <clipPath id="clippath-33">
      <rect class="st0" x="417.88" y="172.38" width="442.48" height="442.48"/>
    </clipPath>
    <clipPath id="clippath-34">
      <rect class="st0" x="417.88" y="172.38" width="442.48" height="442.48"/>
    </clipPath>
    <clipPath id="clippath-35">
      <rect class="st0" x="417.88" y="172.38" width="442.48" height="442.48"/>
    </clipPath>
    <clipPath id="clippath-36">
      <rect class="st0" x="417.88" y="172.38" width="442.48" height="442.48"/>
    </clipPath>
    <clipPath id="clippath-37">
      <rect class="st0" x="417.25" y="172.38" width="442.48" height="442.48"/>
    </clipPath>
    <clipPath id="clippath-38">
      <rect class="st0" x="417.88" y="172.38" width="442.48" height="442.48"/>
    </clipPath>
    <clipPath id="clippath-39">
      <rect class="st0" x="417.88" y="172.38" width="442.48" height="442.48"/>
    </clipPath>
  </defs>
  <g class="st49">
    <g class="st37">
      <path class="st47" d="M982.32,139.93v439.77h108.3c23.75,0,43.02-19.3,43.02-43.07V183.01c.03-23.78-19.27-43.07-43.02-43.07h-108.3ZM316.98,139.93v439.77h646.04V139.93H316.98ZM189.37,139.93c-23.75,0-43.02,19.3-43.02,43.07v353.62c-.03,23.78,19.27,43.07,43.02,43.07h108.3V139.93h-108.3ZM189.37,120.22h901.55c34.5,0,62.62,28.23,62.62,62.79v353.92h-.3c0,34.52-28.12,62.78-62.62,62.78H189.37c-34.5,0-62.62-28.25-62.62-62.78V183.01c0-34.55,28.12-62.79,62.62-62.79ZM84.61,33.47c0,43.1-34.83,77.63-77.54,77.63v29.11c10.75.03,19.3,8.54,19.3,19.32-.03,10.77-8.55,19.3-19.3,19.3v28.23c10.75,0,19.3,8.54,19.3,19.32-.03,10.77-8.55,19.41-19.3,19.41v28.12c10.75,0,19.3,8.63,19.3,19.4-.03,10.78-8.55,19.3-19.3,19.3v29.41c10.75,0,19.3,8.63,19.3,19.41-.03,10.77-8.55,19.32-19.3,19.32v28.21c10.75.03,19.3,8.55,19.3,19.32-.03,10.77-8.55,19.3-19.3,19.3v28.23c10.75,0,19.3,8.52,19.3,19.3-.03,10.77-8.55,19.32-19.3,19.32v28.23c10.75,0,19.3,8.52,19.3,19.3-.03,10.77-8.55,19.32-19.3,19.32v29.2c42.41,0,76.61,33.92,77.54,76.06h1110.78c0-43.1,34.83-77.63,77.54-77.63v-29.22c-10.75,0-19.3-8.52-19.3-19.32.03-10.75,8.55-19.3,19.3-19.3v-28.23c-10.75,0-19.3-8.52-19.3-19.3.03-10.78,8.55-19.33,19.3-19.33v-28.2c-10.75,0-19.3-8.55-19.3-19.32.03-10.78,8.55-19.3,19.3-19.3v-29.52c-10.75,0-19.3-8.52-19.3-19.3.03-10.77,8.55-19.32,19.3-19.32v-28.21c-10.75,0-19.3-8.55-19.3-19.32.03-10.77,8.55-19.41,19.3-19.41v-28.12c-10.75,0-19.3-8.63-19.3-19.41.03-10.77,8.55-19.32,19.3-19.32v-28.21c-10.75,0-19.3-8.55-19.3-19.32.03-10.44,8.85-19.3,19.3-19.3v-29.11c-42.41,0-76.61-33.92-77.54-76.06H84.61Z"/>
    </g>
    <path class="st36" d="M858.09,360.01c0,120.6-97.64,218.34-218.1,218.34s-218.1-97.75-218.1-218.34,97.64-218.34,218.1-218.34,218.1,97.75,218.1,218.34Z"/>
  </g>
  <g>
    <circle id="path187" class="st36" cx="644.52" cy="360.19" r="220.48"/>
    <g id="g523">
      <path id="path523" class="st46" d="M633.75,191.39c-.31-.33-1.04-1.77-1.64-3.21-1.17-2.83-2.01-4.11-2.7-4.11-.24,0-.96.3-1.59.66-1.08.62-1.21.63-1.97.21-1.41-.78-1.19-1.32,1.1-2.81,1.18-.76,2.59-1.43,3.22-1.51,1-.13,1.19-.05,1.85.84.4.54,1.23,1.88,1.83,2.98.6,1.09,1.16,1.99,1.23,1.99s.89-.51,1.81-1.14c2.28-1.54,4.01-2.39,4.87-2.39s2.63,1.7,5.23,4.95c1.74,2.17,2.14,3.36,1.26,3.7-.69.26-2.22-.56-4.09-2.2-2.47-2.16-3.2-2.06-7.06.92-2.26,1.75-2.65,1.88-3.35,1.14Z"/>
      <path id="path522" class="st46" d="M596.72,198.03c-.33-.23-1.73-2.12-3.12-4.2-1.38-2.08-3.05-4.26-3.71-4.86-1.09-.98-1.35-1.08-2.89-1.07-1.11,0-2.54.31-4.18.88-5.06,1.78-5.74.94-2-2.48,4.89-4.48,6.63-5.47,8.87-5.05,1.59.3,2.33,1.1,5.22,5.62,1.5,2.34,2.8,4.26,2.9,4.26s1.13-1.51,2.29-3.36c3.11-4.94,5.79-7.05,8.21-6.47,1.49.36,3.7,1.61,8.38,4.72,5.49,3.66,7.19,5.08,6.92,5.78-.34.9-1.88.54-6.91-1.61-7.42-3.17-8.56-3.12-11.74.53-6.74,7.73-7.13,8.08-8.26,7.3h0Z"/>
      <path id="path521" class="st46" d="M636.22,216.18c-.49-.3-2.06-1.55-3.5-2.77-3.29-2.79-4.72-3.54-6-3.18-.51.15-2.36,1.2-4.1,2.33s-3.67,2.27-4.28,2.53c-1.08.45-1.13.45-1.79-.27-.38-.41-1.12-1.9-1.66-3.32-1.43-3.78-2.54-5.89-3.39-6.44-.62-.41-1.2-.46-3.43-.3-2.26.16-2.77.11-3.22-.3-.62-.56-.7-1.37-.17-1.79.68-.53,4.94-2.12,6.65-2.47.93-.19,2.05-.26,2.49-.15,1.21.3,2.38,2.19,3.48,5.62.55,1.7,1.06,3.09,1.14,3.09.08,0,1.27-.97,2.63-2.17,2.74-2.41,5-3.89,6.34-4.16.69-.14,1.15.02,2.13.73,1.48,1.07,5.05,5.5,7.71,9.54,1.51,2.3,1.83,2.99,1.59,3.38-.44.7-1.57.74-2.6.1h0Z"/>
      <path id="path520" class="st46" d="M653.17,222.34c-.33-.33-1.14-2.31-1.8-4.41-.66-2.1-1.39-3.97-1.63-4.17-.35-.29-.81-.12-2.43.86-1.1.67-2.22,1.21-2.48,1.21-.97,0-1.4-.37-1.4-1.19,0-.67.49-1.28,2.51-3.13,2.67-2.45,5.51-4.51,6.21-4.51.64,0,1.25,1.74,1.73,4.94.24,1.57.43,3.04.43,3.27,0,.23.65-.51,1.44-1.63,1.68-2.39,4.37-4.95,5.51-5.24.63-.16,1.13.03,2.39.9,1.74,1.2,9.41,9.02,10.09,10.28.38.71.37.82-.16,1.21-.9.66-1.68.31-6.53-2.88-3.42-2.25-4.67-2.92-5.29-2.85-.62.07-1.49.91-3.76,3.59-1.62,1.92-3.24,3.69-3.59,3.92-.57.38-.7.36-1.24-.18h0Z"/>
      <path id="path519" class="st46" d="M565.28,229.14c-1.18-.97-3.05-3.65-7.28-10.45-2.34-3.76-4.81-7.47-5.49-8.24-1.12-1.27-1.34-1.39-2.16-1.22-2.31.48-7.94,4.65-14.45,10.73-3.97,3.71-5.04,4.35-6.25,3.76-.48-.23-.89-.75-1.06-1.35-.44-1.55.52-3.06,4.91-7.75,9.05-9.66,19.16-19.07,20.49-19.07.69,0,1.89,1.52,3.19,4.05,1.26,2.46,4.82,10.56,6.31,14.34.53,1.35.41,1.56,1.85-3.24,2.97-9.9,6.21-15.15,9.36-15.15.86,0,3.65,1.67,8.89,5.31,12.51,8.69,24.74,17.84,27.7,20.73,1.78,1.74,2.13,2.24,2.13,3.03,0,1.86-2.2,1.84-6.32-.06-1.16-.54-6.08-3.06-10.92-5.61-4.84-2.55-10.12-5.33-11.74-6.19-1.62-.85-3.91-1.97-5.1-2.49-2.05-.89-2.19-.91-2.72-.43-1.01.91-2,2.93-4.67,9.51-2.91,7.16-3.29,7.99-4.33,9.37-.8,1.07-1.42,1.19-2.34.43h0Z"/>
      <path id="path518" class="st46" d="M695.09,231.96c-.24-.37-.67-1.58-.94-2.68-.59-2.35-1.37-3.62-2.78-4.52-2.96-1.88-3-2.45-.19-2.45,2.24,0,2.89.41,3.91,2.45.42.84.8,1.56.84,1.61.04.05.69-.32,1.43-.83,1.95-1.32,3.06-1.42,5.03-.46,2.55,1.25,3.88,3.39,1.85,2.98-.53-.11-1.76-.27-2.74-.36-1.59-.15-1.87-.09-2.57.53-.43.38-1.21,1.48-1.74,2.43-.53.96-1.12,1.79-1.31,1.86-.19.06-.55-.19-.79-.56h0Z"/>
      <path id="path517" class="st46" d="M672.25,245.09c-.16-.42-.43-2.04-.6-3.6-.56-5.12-.7-5.36-3.5-5.96-2.47-.53-3.16-2.4-1.09-2.95.43-.12,1.76-.3,2.94-.41,2.51-.24,2.79-.07,3.61,2.13.29.77.55,1.44.59,1.5.04.05.66-.36,1.39-.92,2.44-1.86,3.25-1.72,7.49,1.31,2.87,2.05,3.89,2.89,3.89,3.22,0,.54-1.01,1.15-1.93,1.15-.55,0-1.9-.35-2.99-.77-3.18-1.22-3.8-1.31-4.61-.68-.39.31-1.19,1.71-1.78,3.13s-1.29,2.81-1.55,3.09c-.68.75-1.52.65-1.86-.24h0Z"/>
      <path id="path516" class="st46" d="M708.51,256.81c-.17-.45-.49-1.42-.7-2.14l-.39-1.32h-1.47c-1.91,0-1.97-.63-.16-1.54,1.81-.91,2.54-.86,3.1.22l.46.89,1.15-.66,1.15-.66,2.1,1.02c2.4,1.16,2.92,1.62,2.4,2.13-.26.26-.68.25-1.74-.06-2.48-.71-2.74-.63-3.94,1.15-.59.88-1.21,1.65-1.36,1.7-.16.05-.42-.28-.59-.73h0Z"/>
      <path id="path515" class="st46" d="M708.87,271.87c-.11-.73-.11-2.42,0-3.76.28-3.39.11-3.89-1.56-4.51-1.72-.64-2.1-.93-2.1-1.61,0-.78,1.15-.98,3.78-.67,2.61.31,2.62.32,2.67,4l.03,2.27,1.85-1.29c2.55-1.78,3.21-1.91,4.01-.79,1.05,1.47,2.43,4.68,2.33,5.4-.17,1.19-1.06.97-2.57-.65-1.42-1.51-1.43-1.52-2.27-1.07-.46.25-1.84,1.25-3.05,2.23-1.21.98-2.36,1.78-2.56,1.78-.19,0-.44-.6-.55-1.33h0Z"/>
      <path id="path514" class="st46" d="M659.3,274.81c-.39-.41-1.65-2.1-2.8-3.75l-2.1-3-1.29.03c-.71.02-2.17.13-3.24.26-1.83.22-1.97.19-2.42-.46-.4-.58-.42-.78-.1-1.29.55-.86,5.07-3.1,6.27-3.1s2.58,1.16,4.54,3.69l1.25,1.62,1.24-2.58c.68-1.42,1.57-2.89,1.98-3.27.71-.65.83-.67,2.62-.35,2.36.42,5.99,1.62,7.24,2.4.53.33.96.84.96,1.14,0,1.17-1.99,1.46-5.49.82-1.58-.29-1.95-.28-2.29.07-.22.23-1.09,1.96-1.93,3.85-2.12,4.78-2.93,5.5-4.43,3.91h0Z"/>
      <path id="path513" class="st46" d="M731.4,281.37c-.55-4.05-.59-4.11-2.32-3.88-2.81.37-2.07-1.2.98-2.09.85-.25,1.75-.36,2.02-.26.56.22,1.08,1.86,1.08,3.46v1.13s1.24-1.06,1.24-1.06c1.38-1.18,2.43-1.56,3.14-1.15.55.32,2.66,4.43,2.67,5.18,0,.95-1.08.54-2.19-.81-1.25-1.53-1.12-1.55-4.14.74-1.06.81-1.97,1.46-2.02,1.46s-.26-1.22-.46-2.72h0Z"/>
      <path id="path512" class="st46" d="M750.57,293.13c-.18-.22-.81-1.44-1.38-2.71l-1.05-2.3-.94.92c-.65.63-1.07.84-1.35.67-.65-.4-.17-1.58,1.29-3.15l1.32-1.43.59.69c.32.38.82,1.34,1.1,2.13.28.79.58,1.44.66,1.43s.55-.68,1.03-1.52c1.24-2.12,1.63-2.31,3.16-1.49,1.74.93,5.52,4.11,5.52,4.64,0,.9-.91.74-3.38-.61-1.39-.76-2.63-1.29-2.74-1.18-.11.11-.74,1.09-1.4,2.17-1.23,2.01-1.83,2.44-2.42,1.73h0Z"/>
    </g>
    <g id="g371">
      <g id="layer1">
        <g id="g3">
          <g class="st40">
            <path id="path307" class="st4" d="M689.02,340.99v-10.58l-7.09-7.09h-20.15l-4.34,4.34v48.59l8.53,8.53h20.75l5.01-5.01v-15.85l-5.24-5.24"/>
          </g>
          <circle id="path252-1-6-5" class="st2" cx="688.91" cy="344.42" r="3.53"/>
          <circle id="path252-1-6-55" class="st2" cx="684.21" cy="356.56" r="3.53"/>
        </g>
        <g id="g4">
          <g class="st38">
            <path id="path308" class="st4" d="M664.41,365.13h-3.22v9.62l6.5,6.5h16.27l3.37-3.37v-10.46l-8.32-8.32h-4.42"/>
          </g>
          <circle id="path252-1-6-9" class="st2" cx="671.52" cy="359.07" r="3.53"/>
          <circle id="path252-1-6-8" class="st2" cx="667.47" cy="365.46" r="3.53"/>
        </g>
        <g id="g2">
          <g class="st39">
            <path id="path306" class="st4" d="M663.78,339.06l-2.6-2.6v-4.23l4.92-4.92h9.14l9.13,9.13v12.39l-4.67,4.67h-9.21l-2.71-2.71"/>
          </g>
          <circle id="path252-1-6-6" class="st2" cx="665.56" cy="348.86" r="3.53"/>
          <circle id="path252-1-6-17" class="st2" cx="666.09" cy="341.16" r="3.53"/>
        </g>
      </g>
      <g id="layer2">
        <g id="g24">
          <g class="st45">
            <path id="path303" class="st4" d="M573.59,357.49l-2.72,2.72v15.22l5.31,5.31h14.38l3.43-3.43"/>
          </g>
          <circle id="path252-1-6-03" class="st2" cx="596.36" cy="375.13" r="3.53"/>
          <circle id="path252-1-6-7" class="st2" cx="575.75" cy="355.69" r="3.53"/>
        </g>
        <g id="g25">
          <g class="st42">
            <path id="path302" class="st4" d="M579.86,328.36l-1.22-1.22h-4.03l-3.99,3.99v16.55l3.24,3.24h8.05l1.9,1.9"/>
          </g>
          <circle id="path252-1-6-23" class="st2" cx="585.92" cy="354.91" r="3.53"/>
          <circle id="path252-1-6-3" class="st2" cx="582.27" cy="330.52" r="3.53"/>
        </g>
        <g id="g23">
          <g class="st41">
            <path id="path322" class="st4" d="M599.48,324.97h-25.79l-5.54,5.54v45.91l7.05,7.05h21.81"/>
          </g>
          <circle id="path252-1-6-2" class="st2" cx="599.83" cy="383.59" r="3.53"/>
          <circle id="path252-1-6-0" class="st2" cx="602.51" cy="325.7" r="3.53"/>
        </g>
      </g>
      <g id="layer3">
        <g id="g21">
          <g class="st44">
            <path id="path305" class="st4" d="M639.77,379.49l-1.76,1.76-11.49.26-5.47-5.47v-39.48l3.5-3.5"/>
          </g>
          <circle id="path252-1-6-37" class="st2" cx="641.83" cy="377.33" r="3.53"/>
          <circle id="path252-1-6-1" class="st2" cx="627.22" cy="330.76" r="3.53" transform="translate(200.26 896.9) rotate(-80.78)"/>
        </g>
        <g id="g22">
          <g class="st43">
            <path id="path304" class="st4" d="M614.34,326.07l3.79,3.79v51.24l3.36,3.36h23.76"/>
          </g>
          <circle id="path252-1-6-71" class="st2" cx="648.23" cy="384.64" r="3.53"/>
          <circle id="path252-1-6-04" class="st2" cx="612.35" cy="324.11" r="3.53"/>
        </g>
      </g>
      <g id="layer4">
        <g id="g39">
          <g class="st11">
            <path id="path313" class="st4" d="M543.15,476.43v5.56l-5.27,5.27h-9.93l-8.43-8.43v-9.2"/>
          </g>
          <circle id="path252-1-6-06" class="st2" cx="543.17" cy="473.46" r="3.53"/>
          <circle id="path252-1-6-68" class="st2" cx="519.43" cy="466.68" r="3.53"/>
        </g>
        <g id="g40">
          <g class="st8">
            <path id="path312" class="st4" d="M539.85,453.64l11.39,11.39v4.9"/>
          </g>
          <circle id="path252-1-6-85" class="st2" cx="551.27" cy="472.69" r="3.53"/>
          <circle id="path252-1-6-33" class="st2" cx="537.83" cy="451.56" r="3.53"/>
        </g>
        <g id="g38">
          <g class="st15">
            <path id="path311" class="st4" d="M526.36,442.18l-3.48-3.48v-9.77l5.68-5.68h16.88l8.82,8.82v12.69"/>
          </g>
          <circle id="path252-1-6-75" class="st2" cx="554.27" cy="447.78" r="3.53"/>
          <circle id="path252-1-6-84" class="st2" cx="528.31" cy="444.39" r="3.53"/>
        </g>
        <g id="g42">
          <g class="st13">
            <path id="path230" class="st5" d="M508.08,424.26v66.38h34.26l6.25-6.25"/>
          </g>
          <circle id="path252-1-6-849-84" class="st3" cx="550.7" cy="482.06" r="3.53"/>
          <circle id="path252-1-6-849-47" class="st3" cx="508.27" cy="420.97" r="3.53"/>
        </g>
        <g id="g41">
          <g class="st14">
            <path id="path231" class="st5" d="M516.92,430.47v-4.02l6.93-6.93h29.75l3.48,3.48"/>
          </g>
          <circle id="path252-1-6-849-666" class="st3" cx="516.79" cy="433.25" r="3.53"/>
          <circle id="path252-1-6-849-108" class="st3" cx="559.08" cy="424.93" r="3.53"/>
        </g>
      </g>
      <g id="layer5">
        <g id="g36">
          <g class="st12">
            <path id="path315" class="st4" d="M593.44,453.12v18.46l11.43,11.43v1.52h-21.37"/>
          </g>
          <circle id="path252-1-6-19" class="st2" cx="580.52" cy="484.27" r="3.53"/>
          <circle id="path252-1-6-95" class="st2" cx="593.04" cy="450.23" r="3.53"/>
        </g>
        <g id="g35">
          <g class="st9">
            <path id="path314" class="st4" d="M593.44,438.64v-10.58l7.73-7.73h-21.21v9.55h6.59v42.26l3.91,3.91"/>
          </g>
          <circle id="path252-1-6-39" class="st2" cx="592.78" cy="478.01" r="3.53"/>
          <circle id="path252-1-6-32" class="st2" cx="593.56" cy="441.62" r="3.53"/>
        </g>
        <g id="g37">
          <g class="st6">
            <path id="path232" class="st5" d="M571.83,447.52l-3.45-3.45v-26.27h47.39v72.85h-46.52v-29.28"/>
          </g>
          <circle id="path252-1-6-849-506" class="st3" cx="569.55" cy="457.99" r="3.53"/>
          <circle id="path252-1-6-849-19" class="st3" cx="573.98" cy="449.8" r="3.53"/>
        </g>
      </g>
      <g id="g33">
        <g class="st10">
          <path id="path317" class="st1" d="M659.97,449.55v17.4l-21.34,21.34h-10.27v-11.84l11.65-11.65"/>
        </g>
        <circle id="path252-1-6-61" class="st2" cx="660.01" cy="446.59" r="3.53"/>
        <circle id="path252-1-6-56" class="st2" cx="642.14" cy="462.77" r="3.53"/>
      </g>
      <g id="layer6">
        <g id="g34">
          <g class="st7">
            <path id="path233" class="st5" d="M654.15,420.06v-1.75h-28.46v72.33h15.63s22.61-22.59,22.61-22.59"/>
          </g>
          <circle id="path252-1-6-849-75" class="st3" cx="666.06" cy="465.4" r="3.53"/>
          <circle id="path252-1-6-849-54" class="st3" cx="653.99" cy="424.12" r="3.53"/>
        </g>
        <g id="g32">
          <g class="st30">
            <path id="path316" class="st4" d="M631.78,438.58l-3.17-3.17v-14.09h15.53l20.83,20.83v10.27"/>
          </g>
          <circle id="path252-1-6-13" class="st2" cx="633.81" cy="440.72" r="3.53"/>
          <circle id="path252-1-6-50" class="st2" cx="664.73" cy="455.59" r="3.53"/>
        </g>
      </g>
      <g id="layer7">
        <g id="g29">
          <g class="st31">
            <path id="path319" class="st4" d="M697.55,454.86l-12.7,12.7v21.08h14.27l10.51-10.51"/>
          </g>
          <circle id="path252-1-6-048" class="st2" cx="711.84" cy="475.84" r="3.53"/>
          <circle id="path252-1-6-21" class="st2" cx="699.84" cy="452.62" r="3.53"/>
        </g>
        <g id="g30">
          <g class="st32">
            <path id="path318" class="st4" d="M687.68,449.98v-15.04l11.77-11.76h5.78l1.62,1.62"/>
          </g>
          <circle id="path252-1-6-38" class="st2" cx="687.65" cy="453.06" r="3.53"/>
          <circle id="path252-1-6-375" class="st2" cx="708.39" cy="427.23" r="3.53"/>
        </g>
        <g id="g31">
          <g class="st33">
            <path id="path235" class="st5" d="M711.89,418.7h-13.91l-15.11,15.11v56.84h23.88l11.52-11.52v-17.79"/>
          </g>
          <circle id="path252-1-6-849-11" class="st3" cx="718.15" cy="457.11" r="3.53"/>
          <circle id="path252-1-6-849-008" class="st3" cx="714.99" cy="419.19" r="3.53"/>
        </g>
      </g>
      <g id="layer8">
        <g id="g28">
          <g class="st34">
            <path id="path320" class="st4" d="M742.26,432.89l3.18-3.18h4.7l11.24,11.24-2.64,2.64"/>
          </g>
          <circle id="path252-1-6-01" class="st2" cx="756.89" cy="445.72" r="3.53"/>
          <circle id="path252-1-6-09" class="st2" cx="740.19" cy="434.77" r="3.53"/>
        </g>
        <g id="g27">
          <g class="st35">
            <path id="path321" class="st4" d="M738.76,447.25l8.71,8.71h9.32l4.45,4.45v20.98l-7.35,7.35h-10.2l-13.24-13.24v-1.82"/>
          </g>
          <circle id="path252-1-6-90" class="st2" cx="730.54" cy="470.77" r="3.53"/>
          <circle id="path252-1-6-30" class="st2" cx="736.41" cy="444.94" r="3.53"/>
        </g>
        <g id="g26">
          <g class="st28">
            <path id="path237" class="st5" d="M734.47,486.19l4.46,4.46h25.33v-53.67l-11.67-11.67h-14.28l-6.94,6.94v23.62l5.93,5.93"/>
          </g>
          <circle id="path252-1-6-849-06" class="st3" cx="732.23" cy="484.3" r="3.53"/>
          <circle id="path252-1-6-849-66" class="st3" cx="739.99" cy="464.47" r="3.53"/>
        </g>
      </g>
      <g id="g370">
        <g id="g54">
          <g class="st26">
            <path id="path236" class="st5" d="M734.32,422.96h8.22l5.44-5.44h12.47v4.52"/>
          </g>
          <circle id="path252-1-6-849-78" class="st3" cx="731.08" cy="423.13" r="3.53"/>
          <circle id="path252-1-6-849-3" class="st3" cx="760.39" cy="425.72" r="3.53"/>
        </g>
        <g id="g44">
          <g class="st29">
            <path id="path309" class="st4" d="M536.58,413.51l-2.62,2.62h-11.22v-18.63h8.69l6.6,6.6h11.98"/>
          </g>
          <circle id="path252-1-6-25-1" class="st2" cx="538.61" cy="411.07" r="3.53"/>
          <circle id="path252-1-6-25-5" class="st2" cx="552.97" cy="404.11" r="3.53"/>
        </g>
        <g id="g43">
          <g class="st27">
            <path id="path310" class="st4" d="M725.01,408.39h13.27l6.81,6.81h7.82v-17.44h-11.73l-2.79,2.79"/>
          </g>
          <circle id="path252-1-6-58" class="st2" cx="721.95" cy="408.51" r="3.53"/>
          <circle id="path252-1-6-25" class="st2" cx="736.04" cy="402.64" r="3.53"/>
        </g>
        <g id="g53">
          <g class="st22">
            <path id="path234" class="st5" d="M662.46,477.6l-10.29,10.29v2.75h16.06v-3.33"/>
          </g>
          <circle id="path252-1-6-849-50" class="st3" cx="667.86" cy="484.05" r="3.53"/>
          <circle id="path252-1-6-849-10" class="st3" cx="665.28" cy="475.72" r="3.53"/>
        </g>
      </g>
      <g id="layer10">
        <g id="g47">
          <g class="st16">
            <path id="path221" class="st5" d="M756.05,377.97l-14.27,14.27-41.38.02-2.5-2.5"/>
          </g>
          <circle id="path252-1-6-849-52" class="st3" cx="695.36" cy="387.99" r="3.53"/>
          <circle id="path252-1-6-849-04" class="st3" cx="758.86" cy="375.92" r="3.53"/>
        </g>
        <g id="g46">
          <g class="st17">
            <path id="path222" class="st5" d="M712.12,387.29v2.05h27.79l12.44-12.44v-5.18l10.63-10.63v-11.92"/>
          </g>
          <circle id="path252-1-6-849-40" class="st3" cx="711.73" cy="382.81" r="3.53"/>
          <circle id="path252-1-6-849-1" class="st3" cx="762.74" cy="345.98" r="3.53"/>
        </g>
        <g id="g52">
          <g class="st18">
            <path id="path223" class="st5" d="M759,312.09h-18.76l-14.03-14.03-15.26,15.26h-16.65l-28.15-28.15-20.04,20.04h-34.31l-43.35-43.35-5.75,5.75h-22.78l-16.99-16.99"/>
          </g>
          <circle id="path252-1-6-849-6" class="st3" cx="520.68" cy="248.01" r="3.53"/>
          <circle id="path252-1-6-849-24" class="st3" cx="762.62" cy="312.09" r="3.53"/>
        </g>
        <g id="g49">
          <g class="st19">
            <path id="path224" class="st5" d="M522.72,262.26l9.54,9.54h32.8l3.39-3.39,28.17,28.17v3.66"/>
          </g>
          <circle id="path252-1-6-849-5" class="st3" cx="596.24" cy="303.01" r="3.53"/>
          <circle id="path252-1-6-849-0" class="st3" cx="520.09" cy="259.62" r="3.53"/>
        </g>
        <g id="g45">
          <g class="st20">
            <path id="path225" class="st5" d="M638.81,328.48v-10.22l26.91-26.91,26.95,26.95,19.97-.06,13.35-13.35,12.75,12.75,19.88-.04,1.4,1.4"/>
          </g>
          <circle id="path252-1-6-849-4" class="st3" cx="761.76" cy="322.15" r="3.53"/>
          <circle id="path252-1-6-849-00" class="st3" cx="639.64" cy="331.34" r="3.53"/>
        </g>
        <g id="g55">
          <g class="st23">
            <path id="path226" class="st5" d="M759.52,331.6l-9.3-9.3h-13.26l-11.19-11.19-13.31,13.31"/>
          </g>
          <circle id="path252-1-6-849-03" class="st3" cx="761.44" cy="334.25" r="3.53"/>
          <circle id="path252-1-6-849-69" class="st3" cx="710.01" cy="326.49" r="3.53"/>
        </g>
        <g id="g51">
          <g class="st24">
            <path id="path227" class="st5" d="M508.18,390.98v-157.92"/>
          </g>
          <circle id="path252-1-6-849" class="st3" cx="508.23" cy="394.96" r="3.53"/>
          <circle id="path252-1-6-849-2" class="st3" cx="508.06" cy="229.85" r="3.53"/>
        </g>
        <g id="g50">
          <g class="st25">
            <path id="path228" class="st5" d="M514.51,243.22v127.45l21.97,21.97"/>
          </g>
          <circle id="path252-1-6-849-8" class="st3" cx="538.77" cy="394.96" r="3.53"/>
          <circle id="path252-1-6-849-7" class="st3" cx="514.34" cy="240.66" r="3.53"/>
        </g>
        <g id="g48">
          <g class="st21">
            <path id="path229" class="st5" d="M537.88,374.21v8.31l13.12,13.12h195.62s20.44-20.45,20.44-20.45"/>
          </g>
          <circle id="path252-1-6-849-73" class="st3" cx="769.35" cy="372.72" r="3.53"/>
          <circle id="path252-1-6-849-53" class="st3" cx="537.47" cy="369.85" r="3.53"/>
        </g>
      </g>
    </g>
  </g>
  <text class="st48" transform="translate(484.14 655.22)"><tspan x="0" y="0">Elbsides 2025</tspan></text>
</svg>